<?xml version="1.0" encoding="UTF-8" standalone="no"?><!DOCTYPE svg PUBLIC "-//W3C//DTD SVG 1.1//EN" "http://www.w3.org/Graphics/SVG/1.1/DTD/svg11.dtd"><svg width="100%" height="100%" viewBox="0 0 1063 1563" version="1.1" xmlns="http://www.w3.org/2000/svg" xmlns:xlink="http://www.w3.org/1999/xlink" xml:space="preserve" xmlns:serif="http://www.serif.com/" style="fill-rule:evenodd;clip-rule:evenodd;stroke-linejoin:round;stroke-miterlimit:2;"><g id="colors"></g><path d="M848.024,1287.16c0,7.623 -3.283,16.199 -9.85,25.728c-6.567,9.528 -22.985,16.834 -49.253,21.916l0,36.209c22.686,0 45.158,-5.082 67.414,-15.246c22.257,-10.164 44.859,-15.246 67.806,-15.246c14.514,0 29.323,2.541 44.425,7.623c15.102,5.082 29.845,10.164 44.229,15.246l0,106.722c0,13.975 -1.493,26.998 -4.478,39.068c-2.985,12.069 -12.313,18.104 -27.984,18.104c-13.283,0 -19.925,-6.987 -19.925,-20.963c9.664,2.541 14.496,3.812 14.496,3.812c8.452,0 14.491,-3.177 18.12,-9.529c3.629,-6.353 5.443,-13.34 5.443,-20.963c0,-19.058 -8.358,-28.587 -25.074,-28.587c-11.94,0 -23.283,4.765 -34.029,14.294c-10.746,9.528 -16.118,21.28 -16.118,35.256c0,16.516 5.372,29.539 16.118,39.068c10.746,9.528 22.686,14.293 35.82,14.293c13.134,0 25.671,-6.67 37.611,-20.011c11.94,-13.34 17.91,-35.891 17.91,-67.654l0,-99.098c11.94,2.541 19.701,3.811 23.283,3.811l0,-36.209c-11.94,-1.271 -19.701,-3.176 -23.283,-5.717l0,-1267.32c2.388,-1.271 5.373,-2.541 8.955,-3.812c3.582,-1.27 8.358,-2.541 14.328,-3.811l0,-34.304c-21.548,0 -43.175,5.082 -64.882,15.246c-21.706,10.164 -43.408,15.246 -65.105,15.246c-22.91,0 -45.479,-5.082 -67.708,-15.246c-22.228,-10.164 -44.686,-15.246 -67.372,-15.246l0,34.304c26.268,6.352 42.686,14.293 49.253,23.822c6.567,9.528 9.85,18.104 9.85,25.727l0,45.738l-302.677,442.134l-324.168,-478.343l0,-9.529c0,-7.623 3.283,-16.199 9.85,-25.727c6.567,-9.529 22.984,-17.47 49.252,-23.822l0,-34.304c-22.686,0 -45.157,5.082 -67.414,15.246c-22.256,10.164 -44.868,15.246 -67.833,15.246c-21.753,0 -43.455,-5.082 -65.106,-15.246c-21.65,-10.164 -43.221,-15.246 -64.713,-15.246l0,34.304c26.268,6.352 42.685,14.293 49.252,23.822c6.567,9.528 9.851,18.104 9.851,25.727l0,1185.38c0,7.623 -3.284,16.199 -9.851,25.727c-6.567,9.529 -22.984,16.835 -49.252,21.917l0,34.303c21.492,0 43.063,-5.082 64.713,-15.246c21.651,-10.164 43.353,-15.246 65.106,-15.246c22.965,0 45.577,5.082 67.833,15.246c22.257,10.164 44.728,15.246 67.414,15.246l0,-34.303c-26.268,-5.082 -42.685,-12.388 -49.252,-21.917c-6.567,-9.528 -9.85,-18.104 -9.85,-25.727l-1.512,-895.702l227.176,341.129l74.941,109.47l326.24,-481.091l0,924.288Zm166.562,32.398c-8.358,-5.082 -13.731,-10.482 -16.119,-16.199c-2.388,-5.717 -3.582,-11.117 -3.582,-16.199l0,-1183.47c0,-5.082 1.194,-10.481 3.582,-16.199c2.388,-5.717 7.761,-11.752 16.119,-18.104l0,1250.17Zm-793.407,-1158.69l-1.512,-22.869l313.143,474.531l-8.955,9.529l-302.676,-461.191Zm290.415,668.216l-10.232,-14.946l346.662,-512.245l0,38.115l-336.43,489.076Z" style="fill:url(#_Linear1);fill-rule:nonzero;"/><defs><linearGradient id="_Linear1" x1="0" y1="0" x2="1" y2="0" gradientUnits="userSpaceOnUse" gradientTransform="matrix(-1.97327e-13,1091.68,1812.21,2.59271e-13,532.17,82.7385)"><stop offset="0" style="stop-color:#a05d00;stop-opacity:1"/><stop offset="0.62" style="stop-color:#96510a;stop-opacity:1"/><stop offset="0.82" style="stop-color:#7e3321;stop-opacity:1"/><stop offset="1" style="stop-color:#63133b;stop-opacity:1"/></linearGradient></defs></svg>