<?xml version="1.0" encoding="UTF-8" standalone="no"?>
<!DOCTYPE svg PUBLIC "-//W3C//DTD SVG 1.1//EN" "http://www.w3.org/Graphics/SVG/1.1/DTD/svg11.dtd">
<svg width="100%" height="100%" viewBox="0 0 206 247" version="1.1" xmlns="http://www.w3.org/2000/svg" xmlns:xlink="http://www.w3.org/1999/xlink" xml:space="preserve" xmlns:serif="http://www.serif.com/" style="fill-rule:evenodd;clip-rule:evenodd;stroke-linejoin:round;stroke-miterlimit:2;">
    <g transform="matrix(1,0,0,1,-468,-107)">
        <g id="colors">
        </g>
        <g id="misc">
        </g>
        <g id="Graphic1">
        </g>
        <g transform="matrix(1.02778,0,0,0.48,-57.5217,180.153)">
            <rect x="597.737" y="262.319" width="32.609" height="90.58" style="fill:rgb(98,19,59);"/>
        </g>
        <g transform="matrix(1.1215,0,0,1.09239,77.0617,-39.8577)">
            <path d="M427.783,316.667C427.783,316.667 391.216,297.645 396.65,259.601C402.085,221.558 459.15,181.703 425.636,150C425.636,150 540.094,191.667 457.666,316.667" style="fill:rgb(160,93,0);"/>
        </g>
        <g transform="matrix(1,0,0,1,-37.9395,0)">
            <g id="Graphic2">
                <path d="M592.017,181.338C592.017,181.338 585.667,197.314 591.269,197.003C596.871,196.692 608.36,189.067 611.097,184.709C613.833,180.352 622.081,190.467 620.525,194.98C618.969,199.493 636.086,197.159 641.844,190.467C647.602,183.776 646.979,192.023 650.403,194.824C653.826,197.626 662.852,199.182 658.339,188.6C653.826,178.018 640.755,142.592 592.203,124.001C592.203,124.001 617.458,142.671 592.017,181.338Z" style="fill:rgb(98,19,59);"/>
            </g>
        </g>
    </g>
</svg>
