<?xml version="1.0" encoding="UTF-8" standalone="no"?><!DOCTYPE svg PUBLIC "-//W3C//DTD SVG 1.1//EN" "http://www.w3.org/Graphics/SVG/1.1/DTD/svg11.dtd"><svg width="100%" height="100%" viewBox="0 0 206 247" version="1.1" xmlns="http://www.w3.org/2000/svg" xmlns:xlink="http://www.w3.org/1999/xlink" xml:space="preserve" xmlns:serif="http://www.serif.com/" style="fill-rule:evenodd;clip-rule:evenodd;stroke-linecap:round;stroke-linejoin:round;stroke-miterlimit:1.5;"><g id="me"><path d="M60.902,173.321c8.898,-6.798 5.068,-19.342 5.068,-19.342l0.82,0c0,0 20.103,10.289 41.032,0l-0.081,0c0,0 -3.83,12.544 5.068,19.342c0,0 -21.451,17.673 -51.907,0" style="fill:#f6cea2;stroke:#000;stroke-width:4.9px;"/><path d="M159.689,241.603l-143.641,0c0,0 -8.797,-70.076 50.746,-68.201c0,0 21.789,12.218 41.736,-0.037l0,-0.007c59.543,-1.875 50.746,68.2 50.746,68.2" style="fill:#53468a;stroke:#000;stroke-width:4.9px;"/><path d="M33.995,86.018c0,74.764 54.302,71.719 54.302,71.719l-1.025,0c0,0 54.302,3.045 54.302,-71.719l-54.719,-39.49l-52.86,39.49" style="fill:#f6cea2;stroke:#000;stroke-width:4.9px;"/><path d="M111.991,125.843c0,0 -21.16,51.209 -50.271,0l50.271,0Z" style="fill:#fff;stroke:#000;stroke-width:4.9px;"/><path d="M138.734,95.194l-3.856,15.811c0,0 1.517,9.271 3.637,5.076c5.025,-9.944 7.265,-41.281 7.265,-41.729c0,-0.447 -5.417,-37.884 2.238,-43.644c8.97,-6.75 -13.17,-3.474 -19.249,8.057c0,0 -14.345,-9.028 -6.037,-20.98l-19.086,11.3c0,0 -10.782,-3.482 1.913,-17.529c0,0 -27.205,-1.663 -31.905,18.033c0,0 -7.799,4.282 1.751,-15.414c0,0 -27.714,16.365 -29.28,30.689c0,0 -3.061,-0.474 6.117,-15.564c6.471,-10.638 -28.358,23.512 -23.072,59.377l8.406,28.313l2.015,-5.233c0,0 -7.872,-34.59 7.261,-32.257c23.462,3.619 37.825,-8.729 37.825,-8.729c0,0 18.917,2.239 33.465,11.863l-0.787,-11.191c0,0 18.209,10.03 21.379,23.751Z" style="fill:#7d3800;stroke:#000;stroke-width:4.9px;"/><path d="M36.181,215.815l0,25.788" style="fill:none;stroke:#000;stroke-width:4.9px;"/><path d="M138.865,215.815l0,25.788" style="fill:none;stroke:#000;stroke-width:4.9px;"/></g></svg>