<?xml version="1.0" encoding="UTF-8" standalone="no"?><!DOCTYPE svg PUBLIC "-//W3C//DTD SVG 1.1//EN" "http://www.w3.org/Graphics/SVG/1.1/DTD/svg11.dtd"><svg width="100%" height="100%" viewBox="0 0 206 247" version="1.1" xmlns="http://www.w3.org/2000/svg" xmlns:xlink="http://www.w3.org/1999/xlink" xml:space="preserve" xmlns:serif="http://www.serif.com/" style="fill-rule:evenodd;clip-rule:evenodd;stroke-linecap:round;stroke-linejoin:round;stroke-miterlimit:1.5;"><g id="me"><path d="M61.908,173.321c8.898,-6.798 5.068,-19.342 5.068,-19.342l41.852,0l-0.082,0c0,0 -3.829,12.544 5.069,19.342c0,0 -21.452,17.673 -51.907,0" style="fill:#f6cea2;stroke:#000;stroke-width:4.9px;"/><path d="M147.755,198.524c0,0 21.325,-27.041 -38.219,-25.167l0,0.008c-19.947,12.255 -41.735,0.037 -41.735,0.037c-59.544,-1.875 -50.747,68.201 -50.747,68.201l122.817,0l2.709,-34.16" style="fill:#53468a;stroke:#000;stroke-width:4.9px;"/><path d="M35.001,86.018c0,74.764 54.302,71.719 54.302,71.719l-1.025,0c0,0 54.302,3.045 54.302,-71.719l-54.718,-39.49l-52.861,39.49" style="fill:#f6cea2;stroke:#000;stroke-width:4.9px;"/><path d="M112.997,125.843c0,0 -21.16,51.208 -50.271,0l50.271,0Z" style="fill:#fff;stroke:#000;stroke-width:4.9px;"/><path d="M139.74,95.194l-3.856,15.811c0,0 1.517,9.271 3.638,5.075c5.024,-9.943 7.264,-41.28 7.264,-41.728c0,-0.448 -5.417,-37.884 2.238,-43.645c8.971,-6.75 -13.169,-3.473 -19.249,8.058c0,0 -14.345,-9.028 -6.037,-20.981l-19.086,11.301c0,0 -10.781,-3.483 1.913,-17.529c0,0 -27.204,-1.663 -31.905,18.033c0,0 -7.799,4.281 1.751,-15.415c0,0 -27.714,16.366 -29.28,30.69c0,0 -3.061,-0.474 6.117,-15.564c6.471,-10.639 -28.359,23.512 -23.072,59.377l8.407,28.313l2.014,-5.232c0,0 -7.872,-34.591 7.261,-32.258c23.462,3.618 37.826,-8.729 37.826,-8.729c0,0 18.916,2.239 33.464,11.862l-0.787,-11.191c0,0 18.209,10.031 21.379,23.752Z" style="fill:#7d3800;stroke:#000;stroke-width:4.9px;"/><path d="M37.187,215.815l0,25.788" style="fill:none;stroke:#000;stroke-width:4.9px;"/><path d="M132.401,177.746c0,0 24.532,-76.109 27.171,-84.298c2.64,-8.187 10.965,5.089 10.965,5.089c0,0 -15.761,118.486 -27.957,120.892c-12.196,2.406 -10.179,-41.683 -10.179,-41.683Z" style="fill:#53468a;stroke:#000;stroke-width:4.9px;"/><path d="M160.792,90.782l9.745,8.329c0,0 12.141,-5.472 14.734,-20.159c2.591,-14.687 -18.849,-12.908 -21.599,-10.367c-2.116,1.955 -4.607,17.9 -2.88,22.197Z" style="fill:#f6cea2;stroke:#000;stroke-width:4.9px;"/></g></svg>