<?xml version="1.0" encoding="UTF-8" standalone="no"?><!DOCTYPE svg PUBLIC "-//W3C//DTD SVG 1.1//EN" "http://www.w3.org/Graphics/SVG/1.1/DTD/svg11.dtd"><svg width="100%" height="100%" viewBox="0 0 244 244" version="1.1" xmlns="http://www.w3.org/2000/svg" xmlns:xlink="http://www.w3.org/1999/xlink" xml:space="preserve" xmlns:serif="http://www.serif.com/" style="fill-rule:evenodd;clip-rule:evenodd;stroke-linejoin:round;stroke-miterlimit:2;"><path id="github-icon" serif:id="github icon" d="M122.632,4.913c-66.419,0 -120.272,53.852 -120.272,120.272c0,53.147 34.458,98.22 82.254,114.12c6.012,1.101 8.207,-2.613 8.207,-5.784c0,-2.863 -0.11,-12.347 -0.169,-22.39c-33.444,7.268 -40.514,-14.182 -40.514,-14.182c-5.476,-13.889 -13.353,-17.589 -13.353,-17.589c-10.93,-7.458 0.83,-7.311 0.83,-7.311c12.075,0.836 18.433,12.391 18.433,12.391c10.732,18.381 28.159,13.067 35.001,9.984c1.093,-7.752 4.205,-13.067 7.634,-16.062c-26.698,-3.039 -54.784,-13.36 -54.784,-59.446c0,-13.14 4.691,-23.858 12.369,-32.278c-1.226,-3.054 -5.366,-15.291 1.189,-31.844c0,0 10.087,-3.23 33.078,12.332c9.587,-2.679 19.871,-4 30.097,-4.044c10.219,0.044 20.51,1.38 30.112,4.059c22.948,-15.577 33.049,-12.333 33.049,-12.333c6.577,16.569 2.437,28.791 1.204,31.83c7.707,8.42 12.362,19.138 12.362,32.278c0,46.203 -28.13,56.377 -54.924,59.358c4.331,3.729 8.163,11.04 8.163,22.257c0,16.077 -0.162,29.04 -0.162,33.004c0,3.201 2.188,6.945 8.281,5.77c47.759,-15.929 82.187,-61.002 82.187,-114.12c0,-66.42 -53.852,-120.272 -120.272,-120.272l0,0Z" style="fill:#a05d00;fill-rule:nonzero;"/><g id="mail"></g><g id="colors"></g></svg>