<?xml version="1.0" encoding="UTF-8" standalone="no"?><!DOCTYPE svg PUBLIC "-//W3C//DTD SVG 1.1//EN" "http://www.w3.org/Graphics/SVG/1.1/DTD/svg11.dtd"><svg width="100%" height="100%" viewBox="0 0 244 244" version="1.1" xmlns="http://www.w3.org/2000/svg" xmlns:xlink="http://www.w3.org/1999/xlink" xml:space="preserve" xmlns:serif="http://www.serif.com/" style="fill-rule:evenodd;clip-rule:evenodd;stroke-linejoin:round;stroke-miterlimit:2;"><path id="linkedin-icon" serif:id="linkedin icon" d="M188.433,177.498l0,-45.796c0,-24.533 -13.1,-35.951 -30.563,-35.951c-14.092,0 -20.407,7.75 -23.926,13.189l0,-11.316l-26.551,0c0.352,7.496 0,79.878 0,79.878l26.551,0l0,-44.612c0,-2.385 0.172,-4.77 0.876,-6.479c1.916,-4.766 6.283,-9.705 13.615,-9.705c9.611,0 13.451,7.324 13.451,18.057l0,42.735l26.547,0Zm-109.009,-90.776c9.255,0 15.023,-6.135 15.023,-13.807c-0.172,-7.832 -5.768,-13.795 -14.847,-13.795c-9.08,0 -15.02,5.963 -15.02,13.795c0,7.672 5.764,13.807 14.675,13.807l0.169,0Zm13.275,90.776l0,-79.874l-26.547,0l0,79.874l26.547,0Zm-87.409,-172.585l234.613,0l0,234.613l-234.613,0l0,-234.613Z" style="fill:#a05d00;"/><g id="mail"></g><g id="colors"></g></svg>