<?xml version="1.0" encoding="UTF-8" standalone="no"?><!DOCTYPE svg PUBLIC "-//W3C//DTD SVG 1.1//EN" "http://www.w3.org/Graphics/SVG/1.1/DTD/svg11.dtd"><svg width="100%" height="100%" viewBox="0 0 2184 2530" version="1.1" xmlns="http://www.w3.org/2000/svg" xmlns:xlink="http://www.w3.org/1999/xlink" xml:space="preserve" xmlns:serif="http://www.serif.com/" style="fill-rule:evenodd;clip-rule:evenodd;stroke-linejoin:round;stroke-miterlimit:2;"><rect id="logo" x="-1450.39" y="-233.333" width="5079.59" height="3346.46" style="fill:none;"/><g><path d="M967.988,2518.98l-672.723,0l672.723,-739.205l0,739.205Zm-358.764,-997.542l-605.971,665.856l0,-665.856l605.971,0Z" style="fill:#62133b;"/><path d="M968.205,1126.98l0,-554.956c0,-64.226 -6.992,-118.871 -20.977,-163.933c-13.985,-45.062 -34.185,-82.096 -60.601,-111.102c-26.416,-29.005 -58.011,-50.241 -94.786,-63.708c-36.775,-13.467 -77.952,-20.2 -123.533,-20.2c-85.98,0 -164.192,23.049 -234.634,69.147c-70.442,46.098 -133.632,109.547 -189.572,190.349l0,1048.86l-240.849,0l0,-1476.17l186.464,0l46.616,205.11l4.662,0c26.933,-34.185 56.198,-66.039 87.793,-95.563c31.596,-29.523 66.817,-55.421 105.663,-77.693c38.847,-22.272 81.578,-39.624 128.194,-52.055c46.616,-12.431 97.376,-18.646 152.279,-18.646c109.807,0 200.967,26.416 273.481,79.247c72.514,52.832 128.453,124.828 167.818,215.988l6.216,0c65.375,-92.196 140.078,-164.451 224.109,-216.765c84.03,-52.313 182.073,-78.47 294.13,-78.47c51.877,0 106.865,7.251 164.965,21.754c31.728,7.92 62.064,19.47 91.012,34.653l-161.408,177.358c-5.509,-2.492 -11.141,-4.791 -16.9,-6.9c-36.775,-13.467 -77.952,-20.2 -123.532,-20.2c-85.981,0 -164.451,23.049 -235.411,69.147c-70.96,46.098 -134.41,109.547 -190.349,190.349l0,389.751l-240.85,264.652Zm1204.35,-670.812c2.004,24.434 3.007,50.108 3.007,77.009l0,988.261l-240.85,0l0,-803.923l237.843,-261.347Zm-963.499,1065.27l-5.964,0l5.964,-6.553l0,6.553Z" style="fill:#a05d00;fill-rule:nonzero;"/><path d="M1673.82,1004.19c6.188,-0.158 12.424,-0.234 18.714,-0.234c67.087,0 130.046,9.323 188.876,27.97c58.831,18.646 109.921,48.688 153.269,90.124c43.349,41.437 77.667,95.563 102.954,162.379c25.286,66.817 37.93,148.913 37.93,246.288l0,988.261l-239.967,0l0,-949.414c0,-127.417 -24.512,-219.095 -73.538,-275.035c-49.025,-55.939 -120.499,-83.908 -214.421,-83.908c-71.621,0 -141.3,17.341 -209.029,52.025l235.212,-258.456Zm-465.863,511.902l0,1002.89l-239.967,0l0,-739.205l239.967,-263.681Zm-163.145,-473.289l-76.822,84.413l0,-84.413l76.822,0Z" style="fill:#a05d00;fill-rule:nonzero;"/></g></svg>