<svg width="67" height="67" xmlns="http://www.w3.org/2000/svg">

 <g>
  <title>background</title>
  <rect fill="none" id="canvas_background" height="402" width="582" y="-1" x="-1"/>
 </g>
 <g>
  <title>Layer 1</title>
  <path id="svg_1" fill-rule="evenodd" clip-rule="evenodd" fill="#ffffff" d="m49.837002,48.137001l0,-11.712002c0,-6.274 -3.350002,-9.193998 -7.816002,-9.193998c-3.604,0 -5.219002,1.981998 -6.118999,3.372999l0,-2.894001l-6.790001,0c0.09,1.917002 0,20.428001 0,20.428001l6.790001,0l0,-11.409c0,-0.610001 0.043999,-1.220001 0.223999,-1.657001c0.490002,-1.218998 1.607002,-2.481998 3.482002,-2.481998c2.458,0 3.439999,1.873001 3.439999,4.618l0,10.929001l6.789001,0zm-27.878002,-23.215c2.367001,0 3.842001,-1.569 3.842001,-3.531c-0.044001,-2.003 -1.475,-3.528 -3.797001,-3.528s-3.841,1.525 -3.841,3.528c0,1.962 1.473999,3.531 3.753,3.531l0.042999,0zm3.395,23.215l0,-20.427002l-6.789,0l0,20.427002l6.789,0zm-22.354,-44.137001l60,0l0,60l-60,0l0,-60z"/>
 </g>
</svg>