<?xml version="1.0" encoding="UTF-8" standalone="no"?><!DOCTYPE svg PUBLIC "-//W3C//DTD SVG 1.1//EN" "http://www.w3.org/Graphics/SVG/1.1/DTD/svg11.dtd"><svg width="100%" height="100%" viewBox="0 0 2171 2171" version="1.1" xmlns="http://www.w3.org/2000/svg" xmlns:xlink="http://www.w3.org/1999/xlink" xml:space="preserve" xmlns:serif="http://www.serif.com/" style="fill-rule:evenodd;clip-rule:evenodd;stroke-linejoin:round;stroke-miterlimit:2;"><rect id="personal-website" serif:id="personal website" x="0" y="0" width="2170.83" height="2170.83" style="fill:none;"/><rect x="-0" y="0" width="2170.83" height="2170.83" style="fill:#fff9f0;"/><g><g><g><g><g><path d="M905.836,1334.97c0,0 5.933,-15.866 20.355,-22.875c9.618,-5.559 18.28,-12.741 22.829,-19.59c0,-0 2.045,5.104 2.013,9.292c-0.032,4.188 -4.464,17.457 -15.305,19.154c-10.758,2.953 -24.028,5.772 -29.892,14.019Z" style="fill:#857100;"/><path d="M947.286,1290.98c-0,-0 -42.098,-11.641 -42.931,43.638c0,-0 6.857,-18.332 21.168,-24.975c6.558,-3.044 13.25,-7.898 21.763,-18.663Z" style="fill:#857100;"/></g><g><path d="M882.001,1400.36c0,0 -6.172,-15.774 -0.11,-30.62c3.451,-10.559 5.107,-21.689 3.923,-29.825c0,-0 4.93,2.436 7.701,5.576c2.771,3.14 8.328,15.979 1.388,24.479c-6.039,9.379 -14.04,20.335 -12.902,30.39Z" style="fill:#857100;"/><path d="M883.51,1339.94c-0,0 -39.118,19.43 -2.842,61.149c-0,0 -7.129,-18.226 -0.907,-32.725c2.852,-6.645 4.595,-14.726 3.749,-28.424Z" style="fill:#857100;"/></g><g><path d="M835.818,1357.49c-0,0 -0.481,-24.728 15.326,-41.999c10.066,-12.719 17.96,-27.128 20.451,-38.872c-0,-0 5.521,5.829 7.73,11.531c2.209,5.701 3.331,26.098 -10.473,34.233c-13.013,9.794 -29.511,20.758 -33.034,35.107Z" style="fill:#857100;"/><path d="M868.424,1275.49c-0,-0 -63.405,6.842 -34.802,82.326c-0,-0 -0.553,-28.571 15.3,-45.286c7.265,-7.66 13.738,-17.849 19.502,-37.04Z" style="fill:#857100;"/></g><g><path d="M739.89,1358.74c-0,-0 7.262,-26.227 29.357,-39.472c14.611,-10.249 27.462,-22.962 33.779,-34.563c-0,-0 3.991,7.881 4.529,14.587c0.537,6.707 -4.688,28.567 -21.8,32.808c-16.8,6.239 -37.641,12.616 -45.865,26.64Z" style="fill:#857100;"/><path d="M800.037,1282.52c-0,-0 -69.009,-12.708 -62.566,75.875c0,0 8.395,-30.301 30.363,-42.945c10.068,-5.795 20.095,-14.504 32.203,-32.93Z" style="fill:#857100;"/></g><g><path d="M785.992,1441.85c0,-0 -7.526,-26.152 4.379,-48.997c7.092,-16.377 11.397,-33.934 10.714,-47.126c-0,0 7.524,4.63 11.489,10.065c3.966,5.435 10.945,26.8 -1.422,39.364c-11.057,14.104 -25.485,30.44 -25.16,46.694Z" style="fill:#857100;"/><path d="M797.394,1345.43c0,0 -65.464,25.26 -13.644,97.393c0,0 -8.692,-30.217 3.419,-52.484c5.551,-10.204 9.542,-22.871 10.225,-44.909Z" style="fill:#857100;"/></g><g><path d="M625.099,1316.34c-0,-0 20.922,-26.383 52.487,-30.82c21.591,-4.634 42.366,-12.924 55.158,-23.096c-0,-0 0.747,10.905 -1.874,18.806c-2.622,7.901 -19.118,30.29 -40.661,26.871c-22.153,-0.992 -48.976,-3.776 -65.11,8.239Z" style="fill:#857100;"/><path d="M730.391,1258.5c0,0 -72.506,-47.759 -107.882,56.289c-0,-0 24.178,-30.48 55.308,-34.294c14.266,-1.748 29.892,-6.838 52.574,-21.995Z" style="fill:#857100;"/></g><g><path d="M624.936,1416.93c0,-0 10.115,-32.117 38.01,-47.54c18.511,-12.042 34.952,-27.207 43.265,-41.279c0,-0 4.595,9.918 4.969,18.234c0.375,8.317 -7.033,35.122 -28.376,39.626c-21.044,6.988 -47.092,13.973 -57.868,30.959Z" style="fill:#857100;"/><path d="M702.609,1325.28c0,0 -84.785,-18.699 -80.649,91.12c0,0 11.691,-37.106 39.404,-51.792c12.7,-6.73 25.476,-17.066 41.245,-39.328Z" style="fill:#857100;"/></g><g><path d="M669.178,1129.67c0,-0 16.359,38.93 52.983,54.949c24.512,12.888 46.803,29.916 58.817,46.522c-0,0 4.586,-12.918 4.088,-23.346c-0.498,-10.428 -12.86,-43.04 -40.034,-46.186c-27.09,-6.283 -60.426,-11.98 -75.854,-31.939Z" style="fill:#857100;"/><path d="M776.809,1235.09c-0,-0 -103.699,33.193 -111.285,-104.417c-0,0 18.907,44.977 55.216,60.097c16.64,6.93 33.793,18.353 56.069,44.32Z" style="fill:#857100;"/></g><g><path d="M591.879,1188.08c0,0 17.358,19.564 42.028,21.652c16.943,2.668 33.411,8.206 43.768,15.547c-0,0 0.112,-8.49 -2.26,-14.505c-2.372,-6.015 -16.126,-22.672 -32.687,-19.096c-17.138,1.719 -37.821,5.028 -50.849,-3.598Z" style="fill:#857100;"/><path d="M676.019,1228.43c-0,-0 -54.185,40.148 -86.082,-39.029c0,0 20.058,22.602 44.365,24.225c11.139,0.744 23.475,4.021 41.717,14.804Z" style="fill:#857100;"/></g><g><path d="M481.342,1214.27c-0,0 24.313,27.404 58.87,30.329c23.733,3.737 46.8,11.494 61.307,21.777c0,0 0.157,-11.891 -3.165,-20.317c-3.323,-8.426 -22.588,-31.758 -45.786,-26.749c-24.005,2.408 -52.978,7.043 -71.226,-5.04Z" style="fill:#857100;"/><path d="M599.2,1270.79c-0,-0 -75.899,56.236 -120.578,-54.67c-0,0 28.096,31.66 62.143,33.934c15.603,1.042 32.883,5.632 58.435,20.736Z" style="fill:#857100;"/></g><g><path d="M610.072,1048.92c-0,0 8.135,24.857 29.935,36.593c14.481,9.192 27.383,20.827 33.962,31.685c-0,-0 3.482,-7.744 3.701,-14.206c0.218,-6.462 -5.768,-27.217 -22.384,-30.53c-16.406,-5.245 -36.697,-10.443 -45.214,-23.542Z" style="fill:#857100;"/><path d="M671.196,1119.43c-0,0 -65.688,15.261 -63.431,-70.07c-0,0 9.403,28.719 31.055,39.884c9.922,5.116 19.935,13.033 32.376,30.186Z" style="fill:#857100;"/></g><g><path d="M701.221,958.978c-0,0 -2.873,53.753 30.236,92.488c20.955,28.409 37.062,60.334 41.613,86.063c0,-0 12.442,-12.271 17.667,-24.51c5.225,-12.24 9.172,-56.522 -20.253,-75.236c-27.584,-22.266 -62.659,-47.332 -69.263,-78.805Z" style="fill:#857100;"/><path d="M766.09,1139.75c-0,0 -137.412,-19.564 -69.622,-181.644c0,0 -3.311,62.107 29.937,99.635c15.237,17.199 28.565,39.838 39.685,82.009Z" style="fill:#857100;"/></g><g><path d="M897.444,972.765c-0,-0 4.475,36.506 -16.281,64.46c-12.954,20.347 -22.439,42.863 -24.337,60.614c0,-0 -9.055,-7.782 -13.19,-15.881c-4.135,-8.098 -8.898,-38.099 10.283,-52.233c17.761,-16.469 40.496,-35.198 43.525,-56.96Z" style="fill:#857100;"/><path d="M861.688,1099.02c0,0 92.752,-19.769 38.955,-127.078c-0,-0 5.165,42.18 -15.743,69.318c-9.581,12.437 -17.606,28.493 -23.212,57.76Z" style="fill:#857100;"/></g><g><path d="M881.853,1093.39c-0,-0 -2.819,22.994 10.255,40.602c8.159,12.816 14.134,26.998 15.329,38.179c-0,0 5.704,-4.901 8.308,-10.003c2.605,-5.101 5.605,-23.997 -6.477,-32.9c-11.187,-10.374 -25.508,-22.17 -27.415,-35.878Z" style="fill:#857100;"/><path d="M904.374,1172.92c0,-0 -58.422,-12.452 -24.536,-80.044c0,0 -3.253,26.568 9.916,43.662c6.035,7.834 11.089,17.947 14.62,36.382Z" style="fill:#857100;"/></g><g><path d="M1037.26,1014.1c-0,0 -13.398,34.253 -44.938,48.998c-21.062,11.755 -40.101,27.067 -50.201,41.788c0,-0 -4.274,-11.149 -4.067,-20.239c0.207,-9.091 10.261,-37.756 33.853,-41.086c23.451,-6.06 52.353,-11.746 65.353,-29.461Z" style="fill:#857100;"/><path d="M945.84,1108.24c-0,-0 91.014,26.645 94.626,-93.339c-0,-0 -15.484,39.573 -46.771,53.529c-14.338,6.395 -29.024,16.715 -47.855,39.81Z" style="fill:#857100;"/></g><g><path d="M1045.4,867.635c-0,-0 -5.81,46.769 -40.316,75.049c-22.44,21.255 -41.243,46.286 -49.132,67.759c0,0 -8.831,-12.493 -11.448,-23.847c-2.616,-11.354 0.808,-50.128 29.053,-61.721c27.206,-14.938 61.299,-31.134 71.843,-57.24Z" style="fill:#857100;"/><path d="M961.631,1013.43c0,-0 121.445,4.321 88.005,-145.818c-0,0 -6.72,54.037 -41.16,81.256c-15.784,12.474 -30.76,29.931 -46.845,64.562Z" style="fill:#857100;"/></g><g><path d="M1075.55,959.745c0,0 -3.478,22.341 8.716,39.931c7.553,12.76 12.931,26.784 13.742,37.729c0,-0 5.72,-4.601 8.422,-9.494c2.702,-4.893 6.228,-23.231 -5.275,-32.299c-10.583,-10.473 -24.179,-22.435 -25.605,-35.867Z" style="fill:#857100;"/><path d="M1094.99,1038.04c0,-0 -56.593,-13.999 -21.396,-78.858c0,0 -4.016,25.814 8.288,42.905c5.639,7.833 10.248,17.859 13.108,35.953Z" style="fill:#857100;"/></g><g><path d="M1022.72,1109.01c0,-0 -1.959,12.58 4.908,22.485c4.253,7.186 7.282,15.082 7.738,21.245c0,0 3.221,-2.59 4.743,-5.346c1.521,-2.755 3.507,-13.081 -2.971,-18.187c-5.959,-5.898 -13.615,-12.634 -14.418,-20.197Z" style="fill:#857100;"/><path d="M1033.67,1153.1c-0,-0 -31.868,-7.883 -12.048,-44.406c-0,0 -2.262,14.536 4.667,24.161c3.175,4.41 5.771,10.056 7.381,20.245Z" style="fill:#857100;"/></g><g><path d="M1066.56,1066.16c0,-0 2.477,15.904 -6.204,28.426c-5.377,9.084 -9.205,19.067 -9.783,26.858c-0,0 -4.072,-3.275 -5.995,-6.758c-1.924,-3.484 -4.434,-16.538 3.755,-22.993c7.534,-7.456 17.212,-15.971 18.227,-25.533Z" style="fill:#857100;"/><path d="M1052.72,1121.89c0,-0 40.289,-9.966 15.232,-56.138c-0,0 2.859,18.376 -5.9,30.544c-4.014,5.576 -7.296,12.713 -9.332,25.594Z" style="fill:#857100;"/></g><g><path d="M1082.1,726.19c0,0 -20.204,10.149 -27.435,30.294c-5.997,13.561 -14.286,26.086 -22.723,33.106c0,-0 7.068,1.982 12.62,1.338c5.553,-0.644 22.527,-8.429 23.223,-23.059c2.375,-14.699 4.212,-32.714 14.315,-41.679Z" style="fill:#857100;"/><path d="M1029.68,787.506c0,-0 -21.488,-54.195 51.75,-63.232c0,0 -23.342,11.73 -30.105,31.674c-3.099,9.14 -8.58,18.717 -21.645,31.558Z" style="fill:#857100;"/></g><g><path d="M939.535,684.56c-0,-0 24.031,57.149 3.215,112.02c-11.66,38.95 -16.697,79.824 -11.618,109.484c0,0 -18.261,-8.46 -28.688,-19.694c-10.427,-11.234 -31.937,-57.699 -7.324,-89.435c21.236,-34.87 49.503,-75.69 44.415,-112.375Z" style="fill:#857100;"/><path d="M939.562,905.752c-0,0 141.338,-74.679 4.784,-223.99c0,-0 27.758,66.033 6.321,119.652c-9.824,24.572 -15.461,54.299 -11.105,104.338Z" style="fill:#857100;"/></g><g><path d="M860.273,732.889c0,-0 -22.742,27.815 -20.185,61.73c0.083,23.562 -3.83,47.106 -11.524,62.757c-0,-0 11.538,-1.703 19.178,-6.234c7.64,-4.531 27.227,-26.823 18.759,-48.503c-6.075,-22.868 -15.081,-50.197 -6.228,-69.75Z" style="fill:#857100;"/><path d="M823.93,855.818c-0,-0 -66.287,-64.718 34.129,-125.274c-0,-0 -26.272,32.14 -23.165,65.461c1.425,15.27 -0.325,32.717 -10.964,59.813Z" style="fill:#857100;"/></g><g><path d="M658.173,702.949c-0,0 -0.476,25.103 15.579,42.627c10.224,12.906 18.245,27.529 20.779,39.449c0,-0 5.603,-5.92 7.842,-11.709c2.239,-5.789 3.368,-26.494 -10.648,-34.745c-13.216,-9.936 -29.968,-21.057 -33.552,-35.622Z" style="fill:#857100;"/><path d="M691.313,786.171c0,-0 -64.366,-6.913 -35.37,-83.553c0,-0 -0.546,29.003 15.555,45.963c7.379,7.772 13.955,18.111 19.815,37.59Z" style="fill:#857100;"/></g><g><path d="M493.419,990.282c0,0 12.076,22.012 34.722,29.226c15.29,6.109 29.522,14.803 37.651,23.882c0,-0 1.915,-7.922 0.977,-14.058c-0.937,-6.136 -10.26,-24.658 -26.523,-24.842c-16.407,-2.044 -36.472,-3.357 -46.827,-14.208Z" style="fill:#857100;"/><path d="M563.571,1045.99c-0,0 -59.275,26.027 -72.251,-54.881c0,-0 13.956,25.431 36.36,32.132c10.268,3.071 21.116,8.768 35.891,22.749Z" style="fill:#857100;"/></g></g><g><path d="M698.885,800.706c-0,0 22.408,70.913 84.051,104.916c40.908,26.557 77.253,60.017 95.643,91.079c-0,-0 10.127,-21.916 10.936,-40.284c0.81,-18.368 -15.607,-77.556 -62.756,-87.458c-46.494,-15.39 -104.038,-30.76 -127.874,-68.253Z" style="fill:#857100;"/><path d="M870.63,1002.96c-0,-0 -187.218,41.479 -178.317,-201.078c-0,0 25.901,81.93 87.138,114.306c28.064,14.837 56.302,37.638 91.179,86.772Z" style="fill:#857100;"/></g><g><path d="M584.267,719.13c-0,0 -23.873,75.631 9.114,143.072c19.445,48.241 30.68,99.712 27.708,138.093c0,-0 22.264,-12.93 34.221,-28.469c11.958,-15.54 33.879,-77.265 -1.216,-114.788c-31.163,-41.913 -71.982,-90.577 -69.827,-137.908Z" style="fill:#857100;"/><path d="M610.314,1000.89c0,-0 -188.844,-78.461 -32.506,-284.758c0,-0 -27.571,87.387 6.058,153.159c15.411,30.142 26.097,67.344 26.448,131.599Z" style="fill:#857100;"/></g><g><path d="M723.971,537.134c0,0 -15.035,64.321 16.631,118.239c19.204,38.83 31.795,80.864 31.757,112.926c0,-0 17.671,-12.148 26.617,-25.81c8.946,-13.663 23.241,-66.311 -8.281,-95.25c-28.534,-32.834 -65.516,-70.662 -66.724,-110.105Z" style="fill:#857100;"/><path d="M763.449,769.477c0,-0 -161.797,-53.198 -45.031,-234.422c-0,-0 -17.362,74.318 14.731,126.81c14.708,24.055 25.938,54.273 30.3,107.612Z" style="fill:#857100;"/></g><g><path d="M904.516,541.177c0,0 10.447,44.693 -11.555,82.157c-13.344,26.981 -22.093,56.188 -22.067,78.465c0,0 -12.278,-8.44 -18.494,-17.933c-6.216,-9.494 -16.149,-46.076 5.754,-66.184c19.827,-22.814 45.523,-49.098 46.362,-76.505Z" style="fill:#857100;"/><path d="M877.085,702.618c0,-0 112.424,-36.964 31.29,-162.886c0,0 12.064,51.64 -10.236,88.113c-10.22,16.714 -18.023,37.711 -21.054,74.773Z" style="fill:#857100;"/></g><g><path d="M397.749,1032.18c-0,0 37.047,54.688 98.14,68.012c41.554,12.24 80.974,31.512 104.5,53.294c0,0 3.067,-21.222 -0.899,-37.064c-3.966,-15.842 -32.941,-62.066 -75.587,-58.546c-43.48,-1.318 -96.361,0.18 -126.154,-25.696Z" style="fill:#857100;"/><path d="M595.209,1160.83c0,0 -148.862,82.757 -202.756,-125.982c0,-0 42.812,63.18 103.147,75.222c27.65,5.518 57.468,17.772 99.609,50.76Z" style="fill:#857100;"/></g></g><g><g><g><path d="M1265,1334.97c0,0 -5.932,-15.866 -20.355,-22.875c-9.618,-5.559 -18.28,-12.741 -22.829,-19.59c0,-0 -2.045,5.104 -2.013,9.292c0.033,4.188 4.464,17.457 15.306,19.154c10.757,2.953 24.027,5.772 29.891,14.019Z" style="fill:#857100;"/><path d="M1223.55,1290.98c-0,-0 42.097,-11.641 42.93,43.638c0,-0 -6.857,-18.332 -21.168,-24.975c-6.558,-3.044 -13.25,-7.898 -21.762,-18.663Z" style="fill:#857100;"/></g><g><path d="M1288.83,1400.36c-0,0 6.172,-15.774 0.111,-30.62c-3.452,-10.559 -5.108,-21.689 -3.924,-29.825c0,-0 -4.93,2.436 -7.701,5.576c-2.771,3.14 -8.328,15.979 -1.388,24.479c6.04,9.379 14.04,20.335 12.902,30.39Z" style="fill:#857100;"/><path d="M1287.32,1339.94c-0,0 39.117,19.43 2.841,61.149c0,0 7.13,-18.226 0.907,-32.725c-2.852,-6.645 -4.595,-14.726 -3.748,-28.424Z" style="fill:#857100;"/></g><g><path d="M1335.02,1357.49c0,0 0.482,-24.728 -15.326,-41.999c-10.065,-12.719 -17.959,-27.128 -20.45,-38.872c-0,-0 -5.522,5.829 -7.731,11.531c-2.209,5.701 -3.331,26.098 10.473,34.233c13.014,9.794 29.511,20.758 33.034,35.107Z" style="fill:#857100;"/><path d="M1302.41,1275.49c-0,-0 63.404,6.842 34.801,82.326c0,-0 0.553,-28.571 -15.3,-45.286c-7.265,-7.66 -13.738,-17.849 -19.501,-37.04Z" style="fill:#857100;"/></g><g><path d="M1430.94,1358.74c0,-0 -7.262,-26.227 -29.357,-39.472c-14.61,-10.249 -27.462,-22.962 -33.778,-34.563c-0,-0 -3.992,7.881 -4.529,14.587c-0.538,6.707 4.688,28.567 21.799,32.808c16.8,6.239 37.641,12.616 45.865,26.64Z" style="fill:#857100;"/><path d="M1370.8,1282.52c-0,-0 69.008,-12.708 62.565,75.875c0,0 -8.394,-30.301 -30.363,-42.945c-10.067,-5.795 -20.094,-14.504 -32.202,-32.93Z" style="fill:#857100;"/></g><g><path d="M1384.84,1441.85c0,-0 7.527,-26.152 -4.379,-48.997c-7.092,-16.377 -11.397,-33.934 -10.713,-47.126c-0,0 -7.524,4.63 -11.49,10.065c-3.965,5.435 -10.944,26.8 1.423,39.364c11.056,14.104 25.484,30.44 25.159,46.694Z" style="fill:#857100;"/><path d="M1373.44,1345.43c0,0 65.465,25.26 13.644,97.393c-0,0 8.692,-30.217 -3.419,-52.484c-5.55,-10.204 -9.541,-22.871 -10.225,-44.909Z" style="fill:#857100;"/></g><g><path d="M1545.74,1316.34c-0,-0 -20.923,-26.383 -52.488,-30.82c-21.591,-4.634 -42.366,-12.924 -55.158,-23.096c0,-0 -0.747,10.905 1.875,18.806c2.621,7.901 19.117,30.29 40.661,26.871c22.152,-0.992 48.976,-3.776 65.11,8.239Z" style="fill:#857100;"/><path d="M1440.44,1258.5c-0,0 72.506,-47.759 107.883,56.289c-0,-0 -24.178,-30.48 -55.309,-34.294c-14.266,-1.748 -29.891,-6.838 -52.574,-21.995Z" style="fill:#857100;"/></g><g><path d="M1545.9,1416.93c0,-0 -10.115,-32.117 -38.01,-47.54c-18.51,-12.042 -34.952,-27.207 -43.265,-41.279c0,-0 -4.594,9.918 -4.969,18.234c-0.374,8.317 7.033,35.122 28.376,39.626c21.045,6.988 47.092,13.973 57.868,30.959Z" style="fill:#857100;"/><path d="M1468.22,1325.28c0,0 84.785,-18.699 80.649,91.12c0,0 -11.691,-37.106 -39.404,-51.792c-12.7,-6.73 -25.475,-17.066 -41.245,-39.328Z" style="fill:#857100;"/></g><g><path d="M1501.65,1129.67c0,-0 -16.359,38.93 -52.983,54.949c-24.511,12.888 -46.803,29.916 -58.817,46.522c0,0 -4.585,-12.918 -4.087,-23.346c0.498,-10.428 12.859,-43.04 40.033,-46.186c27.09,-6.283 60.426,-11.98 75.854,-31.939Z" style="fill:#857100;"/><path d="M1394.03,1235.09c-0,-0 103.698,33.193 111.285,-104.417c-0,0 -18.907,44.977 -55.217,60.097c-16.64,6.93 -33.793,18.353 -56.068,44.32Z" style="fill:#857100;"/></g><g><path d="M1578.95,1188.08c0,0 -17.357,19.564 -42.028,21.652c-16.943,2.668 -33.41,8.206 -43.767,15.547c-0,0 -0.113,-8.49 2.259,-14.505c2.372,-6.015 16.126,-22.672 32.687,-19.096c17.138,1.719 37.821,5.028 50.849,-3.598Z" style="fill:#857100;"/><path d="M1494.81,1228.43c0,-0 54.185,40.148 86.082,-39.029c0,0 -20.058,22.602 -44.365,24.225c-11.139,0.744 -23.475,4.021 -41.717,14.804Z" style="fill:#857100;"/></g><g><path d="M1689.49,1214.27c0,0 -24.313,27.404 -58.869,30.329c-23.734,3.737 -46.8,11.494 -61.308,21.777c0,0 -0.157,-11.891 3.166,-20.317c3.322,-8.426 22.587,-31.758 45.785,-26.749c24.006,2.408 52.978,7.043 71.226,-5.04Z" style="fill:#857100;"/><path d="M1571.63,1270.79c-0,-0 75.898,56.236 120.577,-54.67c0,0 -28.095,31.66 -62.143,33.934c-15.603,1.042 -32.883,5.632 -58.434,20.736Z" style="fill:#857100;"/></g><g><path d="M1560.76,1048.92c-0,0 -8.136,24.857 -29.936,36.593c-14.481,9.192 -27.383,20.827 -33.962,31.685c0,-0 -3.482,-7.744 -3.701,-14.206c-0.218,-6.462 5.768,-27.217 22.384,-30.53c16.406,-5.245 36.697,-10.443 45.215,-23.542Z" style="fill:#857100;"/><path d="M1499.64,1119.43c0,0 65.688,15.261 63.431,-70.07c0,0 -9.403,28.719 -31.054,39.884c-9.923,5.116 -19.935,13.033 -32.377,30.186Z" style="fill:#857100;"/></g><g><path d="M1469.61,958.978c0,0 2.873,53.753 -30.236,92.488c-20.955,28.409 -37.062,60.334 -41.613,86.063c0,-0 -12.442,-12.271 -17.667,-24.51c-5.225,-12.24 -9.172,-56.522 20.253,-75.236c27.584,-22.266 62.659,-47.332 69.263,-78.805Z" style="fill:#857100;"/><path d="M1404.74,1139.75c0,0 137.412,-19.564 69.622,-181.644c0,0 3.312,62.107 -29.937,99.635c-15.237,17.199 -28.564,39.838 -39.685,82.009Z" style="fill:#857100;"/></g><g><path d="M1273.39,972.765c-0,-0 -4.475,36.506 16.28,64.46c12.954,20.347 22.439,42.863 24.337,60.614c-0,-0 9.055,-7.782 13.19,-15.881c4.135,-8.098 8.899,-38.099 -10.283,-52.233c-17.76,-16.469 -40.496,-35.198 -43.524,-56.96Z" style="fill:#857100;"/><path d="M1309.14,1099.02c-0,0 -92.752,-19.769 -38.954,-127.078c-0,-0 -5.165,42.18 15.742,69.318c9.581,12.437 17.606,28.493 23.212,57.76Z" style="fill:#857100;"/></g><g><path d="M1288.98,1093.39c0,-0 2.819,22.994 -10.254,40.602c-8.16,12.816 -14.134,26.998 -15.33,38.179c0,0 -5.703,-4.901 -8.308,-10.003c-2.604,-5.101 -5.605,-23.997 6.477,-32.9c11.187,-10.374 25.508,-22.17 27.415,-35.878Z" style="fill:#857100;"/><path d="M1266.46,1172.92c-0,-0 58.422,-12.452 24.536,-80.044c0,0 3.254,26.568 -9.915,43.662c-6.035,7.834 -11.09,17.947 -14.621,36.382Z" style="fill:#857100;"/></g><g><path d="M1133.57,1014.1c-0,0 13.397,34.253 44.937,48.998c21.062,11.755 40.102,27.067 50.201,41.788c-0,-0 4.274,-11.149 4.067,-20.239c-0.206,-9.091 -10.26,-37.756 -33.853,-41.086c-23.451,-6.06 -52.353,-11.746 -65.352,-29.461Z" style="fill:#857100;"/><path d="M1224.99,1108.24c-0,-0 -91.015,26.645 -94.626,-93.339c-0,-0 15.484,39.573 46.77,53.529c14.338,6.395 29.025,16.715 47.856,39.81Z" style="fill:#857100;"/></g><g><path d="M1125.43,867.635c0,-0 5.811,46.769 40.317,75.049c22.439,21.255 41.243,46.286 49.131,67.759c0,0 8.831,-12.493 11.448,-23.847c2.617,-11.354 -0.808,-50.128 -29.053,-61.721c-27.205,-14.938 -61.299,-31.134 -71.843,-57.24Z" style="fill:#857100;"/><path d="M1209.2,1013.43c-0,-0 -121.444,4.321 -88.005,-145.818c0,0 6.72,54.037 41.161,81.256c15.783,12.474 30.759,29.931 46.844,64.562Z" style="fill:#857100;"/></g><g><path d="M1089.02,885.972c0,0 -7.448,15.005 -2.764,30.154c2.484,10.701 3.15,21.809 1.279,29.722c-0,-0 5.067,-1.972 8.069,-4.825c3.003,-2.853 9.59,-15.019 3.49,-23.994c-5.136,-9.763 -12.067,-21.25 -10.074,-31.057Z" style="fill:#857100;"/><path d="M1085.27,945.621c-0,-0 -36.85,-22.533 2.503,-60.485c-0,0 -8.604,17.337 -3.731,32.16c2.233,6.792 3.25,14.904 1.228,28.325Z" style="fill:#857100;"/></g><g><path d="M1122.26,766.39c-0,0 -2.765,29.171 -23.697,47.37c-13.561,13.615 -24.794,29.511 -29.308,42.998c0,0 -5.714,-7.604 -7.546,-14.613c-1.831,-7.009 -0.404,-31.167 16.939,-38.882c16.637,-9.776 37.532,-20.458 43.612,-36.873Z" style="fill:#857100;"/><path d="M1072.83,858.513c0,-0 75.551,0.488 52.054,-92.212c0,-0 -3.199,33.703 -24.11,51.241c-9.583,8.038 -18.574,19.158 -27.944,40.971Z" style="fill:#857100;"/></g><g><path d="M1231.3,684.56c-0,-0 -24.032,57.149 -3.215,112.02c11.659,38.95 16.696,79.824 11.617,109.484c0,0 18.262,-8.46 28.689,-19.694c10.427,-11.234 31.937,-57.699 7.323,-89.435c-21.236,-34.87 -49.502,-75.69 -44.414,-112.375Z" style="fill:#857100;"/><path d="M1231.27,905.752c0,0 -141.338,-74.679 -4.784,-223.99c0,-0 -27.757,66.033 -6.32,119.652c9.824,24.572 15.461,54.299 11.104,104.338Z" style="fill:#857100;"/></g><g><path d="M1035.55,456.836c-0,0 27.508,65.417 3.68,128.227c-13.347,44.586 -19.112,91.373 -13.299,125.324c0,0 -20.903,-9.683 -32.839,-22.543c-11.935,-12.859 -36.557,-66.047 -8.383,-102.374c24.309,-39.915 56.665,-86.641 50.841,-128.634Z" style="fill:#857100;"/><path d="M1035.58,710.03c-0,0 161.786,-85.483 5.476,-256.396c0,-0 31.773,75.587 7.235,136.962c-11.245,28.127 -17.698,62.155 -12.711,119.434Z" style="fill:#857100;"/></g><g><path d="M1221.07,578.392c0,0 -42.42,29.762 -52.086,77.853c-9.068,32.752 -23.679,63.92 -40.462,82.654c0,-0 16.686,2.132 29.061,-1.182c12.375,-3.314 48.261,-26.636 44.952,-60.041c0.476,-34.122 -1.378,-75.582 18.535,-99.284Z" style="fill:#857100;"/><path d="M1122.7,734.93c-0,-0 -66.825,-115.703 96.214,-160.657c0,-0 -49.008,34.392 -57.678,81.873c-3.973,21.759 -13.203,45.305 -38.536,78.784Z" style="fill:#857100;"/></g><g><path d="M1310.56,732.889c-0,-0 22.742,27.815 20.185,61.73c-0.083,23.562 3.831,47.106 11.525,62.757c-0,-0 -11.539,-1.703 -19.179,-6.234c-7.64,-4.531 -27.227,-26.823 -18.759,-48.503c6.075,-22.868 15.081,-50.197 6.228,-69.75Z" style="fill:#857100;"/><path d="M1346.9,855.818c-0,-0 66.287,-64.718 -34.129,-125.274c-0,-0 26.272,32.14 23.164,65.461c-1.424,15.27 0.325,32.717 10.965,59.813Z" style="fill:#857100;"/></g><g><path d="M1512.66,702.949c0,0 0.476,25.103 -15.579,42.627c-10.224,12.906 -18.245,27.529 -20.779,39.449c-0,-0 -5.603,-5.92 -7.842,-11.709c-2.239,-5.789 -3.368,-26.494 10.649,-34.745c13.215,-9.936 29.967,-21.057 33.551,-35.622Z" style="fill:#857100;"/><path d="M1479.52,786.171c0,-0 64.367,-6.913 35.37,-83.553c-0,-0 0.546,29.003 -15.555,45.963c-7.378,7.772 -13.954,18.111 -19.815,37.59Z" style="fill:#857100;"/></g><g><path d="M1677.41,990.282c0,0 -12.076,22.012 -34.721,29.226c-15.29,6.109 -29.523,14.803 -37.652,23.882c-0,-0 -1.915,-7.922 -0.977,-14.058c0.938,-6.136 10.26,-24.658 26.523,-24.842c16.407,-2.044 36.472,-3.357 46.827,-14.208Z" style="fill:#857100;"/><path d="M1607.26,1045.99c0,0 59.275,26.027 72.251,-54.881c0,-0 -13.956,25.431 -36.36,32.132c-10.268,3.071 -21.116,8.768 -35.891,22.749Z" style="fill:#857100;"/></g></g><g><path d="M1471.95,800.706c-0,0 -22.408,70.913 -84.052,104.916c-40.907,26.557 -77.253,60.017 -95.643,91.079c0,-0 -10.126,-21.916 -10.936,-40.284c-0.809,-18.368 15.608,-77.556 62.756,-87.458c46.495,-15.39 104.038,-30.76 127.875,-68.253Z" style="fill:#857100;"/><path d="M1300.2,1002.96c-0,-0 187.217,41.479 178.316,-201.078c0,0 -25.9,81.93 -87.138,114.306c-28.064,14.837 -56.302,37.638 -91.178,86.772Z" style="fill:#857100;"/></g><g><path d="M1613.88,718.253c-0,-0 13.694,78.117 -27.895,140.622c-25.634,45.256 -43.556,94.797 -45.67,133.235c0,-0 -20.365,-15.752 -30.17,-32.732c-9.804,-16.98 -23.397,-81.056 16.338,-113.625c36.416,-37.44 83.294,-80.299 87.397,-127.5Z" style="fill:#857100;"/><path d="M1550.92,994.122c0,-0 197.539,-52.883 69.76,-277.988c0,-0 15.812,90.259 -26.194,151.024c-19.251,27.847 -34.747,63.316 -43.566,126.964Z" style="fill:#857100;"/></g><g><path d="M1446.86,537.134c0,0 15.035,64.321 -16.631,118.239c-19.204,38.83 -31.794,80.864 -31.757,112.926c-0,-0 -17.671,-12.148 -26.617,-25.81c-8.945,-13.663 -23.24,-66.311 8.282,-95.25c28.534,-32.834 65.515,-70.662 66.723,-110.105Z" style="fill:#857100;"/><path d="M1407.38,769.477c0,-0 161.798,-53.198 45.032,-234.422c-0,-0 17.362,74.318 -14.732,126.81c-14.708,24.055 -25.938,54.273 -30.3,107.612Z" style="fill:#857100;"/></g><g><path d="M1266.32,541.177c0,0 -10.447,44.693 11.556,82.157c13.343,26.981 22.092,56.188 22.066,78.465c0,0 12.278,-8.44 18.494,-17.933c6.216,-9.494 16.149,-46.076 -5.754,-66.184c-19.826,-22.814 -45.523,-49.098 -46.362,-76.505Z" style="fill:#857100;"/><path d="M1293.75,702.618c0,-0 -112.423,-36.964 -31.29,-162.886c0,0 -12.064,51.64 10.236,88.113c10.22,16.714 18.023,37.711 21.054,74.773Z" style="fill:#857100;"/></g><g><path d="M1773.08,1032.18c0,0 -37.046,54.688 -98.139,68.012c-41.554,12.24 -80.974,31.512 -104.501,53.294c-0,0 -3.067,-21.222 0.899,-37.064c3.966,-15.842 32.941,-62.066 75.587,-58.546c43.48,-1.318 96.361,0.18 126.154,-25.696Z" style="fill:#857100;"/><path d="M1575.62,1160.83c0,0 148.862,82.757 202.756,-125.982c0,-0 -42.812,63.18 -103.147,75.222c-27.65,5.518 -57.468,17.772 -99.609,50.76Z" style="fill:#857100;"/></g></g><path d="M1199.83,1592.92c0,0 56.44,64.842 10.833,124.276c-0,-0 35.904,-81.767 -65.015,-124.276l-131.481,0c-100.919,42.509 -61.11,106.698 -61.11,106.698c-45.608,-59.434 6.927,-106.698 6.927,-106.698l-0.096,0c-100.919,17.621 -57.445,47.939 -57.445,47.939c-45.607,-24.637 3.263,-47.939 3.263,-47.939l-18.573,0c-64.147,30.881 -41.325,82.95 -41.325,82.95c-28.99,-43.176 6.885,-82.95 6.885,-82.95l-0.418,0c-0,0 27.234,-38.903 55.948,-30.136c0,0 42.881,-27.228 69.296,-23.266c4.614,0.692 10.787,-1.463 18.035,-5.214c29.402,-44.622 59.714,-115.765 26.304,-191.479l0.019,-0.017c-0.689,-0.867 -77.385,-97.173 -155.22,-74.033c-0,0 -69.735,18.72 -119.395,-13.357c0,0 80.301,19.697 120.451,-17.284c24.058,-1.951 41.314,0.1 60.877,7.876c-23.644,-12.012 -62.001,-32.546 -70.626,-43.471c-12.679,-16.06 -48.181,-35.502 -76.92,-38.037c0,-0 30.327,-6.046 74.458,15.313c-25.491,-25.258 -42.455,-56.213 -37.09,-92.574c0,-0 34.173,111.54 146.679,110.975c9.92,4.665 18.226,8.443 25.131,11.461c-4.108,-22.035 -24.382,-60.178 -74.866,-82.254c-0,-0 117.507,11.233 130.055,75.814c-0,0 0.752,-53.921 23.464,-68.863c22.712,-14.941 38.135,-30.492 39.866,-77.344c0,-0 26.599,44.781 17.706,75.852c-4.516,15.778 4.592,39.021 17.741,49.779c3.105,2.54 6.57,2.981 10.113,2.228c21.378,-52.647 102.158,-57.466 102.158,-57.466c-45.209,19.769 -66.191,52.423 -73.032,74.853c-0.13,2.34 -0.275,4.626 -0.424,6.782c6.618,-2.91 14.467,-6.49 23.72,-10.842c112.507,0.565 146.679,-110.975 146.679,-110.975c5.365,36.361 -11.598,67.316 -37.089,92.574c44.13,-21.359 74.457,-15.313 74.457,-15.313c-28.739,2.535 -64.24,21.977 -76.919,38.037c-8.626,10.925 -46.982,31.459 -70.627,43.471c19.563,-7.776 36.819,-9.827 60.877,-7.876c40.151,36.981 120.451,17.284 120.451,17.284c-49.659,32.077 -119.394,13.357 -119.394,13.357c-77.836,-23.14 -154.531,73.166 -155.22,74.033l0.018,0.017c-33.41,75.714 -3.097,146.857 26.305,191.479c7.248,3.751 13.42,5.906 18.035,5.214c26.415,-3.962 69.295,23.266 69.295,23.266c28.715,-8.767 43.512,30.136 43.512,30.136l0.018,0c-0,0 35.875,39.774 6.885,82.95c0,0 22.822,-52.069 -41.325,-82.95l-18.573,0c0,0 54.964,37.501 9.356,62.138c0,-0 37.381,-44.517 -63.538,-62.138l-0.096,0Zm-55.536,0c0,0 41.3,39.198 -15.032,62.138c-0,-0 52.937,-58.607 -39.151,-62.138l54.183,0Z"/><path d="M1014.17,1592.92c-100.919,42.509 -61.11,106.698 -61.11,106.698c-45.608,-59.434 6.927,-106.698 6.927,-106.698l-0.096,0c-100.919,17.621 -57.445,47.939 -57.445,47.939c-45.607,-24.637 3.263,-47.939 3.263,-47.939l-18.573,0c-64.147,30.881 -41.325,82.95 -41.325,82.95c-28.99,-43.176 6.885,-82.95 6.885,-82.95l-0.418,0c-0,0 27.234,-38.903 55.948,-30.136c0,0 42.881,-27.228 69.296,-23.266c4.614,0.692 10.787,-1.463 18.035,-5.214c29.402,-44.622 59.714,-115.765 26.304,-191.479l0.019,-0.017c-0.689,-0.867 -77.385,-97.173 -155.22,-74.033c-0,0 -69.735,18.72 -119.395,-13.357c0,0 80.301,19.697 120.451,-17.284c24.058,-1.951 41.314,0.1 60.877,7.876c-23.644,-12.012 -62.001,-32.546 -70.626,-43.471c-12.679,-16.06 -48.181,-35.502 -76.92,-38.037c0,-0 30.327,-6.046 74.458,15.313c-25.491,-25.258 -42.455,-56.213 -37.09,-92.574c0,-0 34.173,111.54 146.679,110.975c9.92,4.665 18.226,8.443 25.131,11.461c-4.108,-22.035 -24.382,-60.178 -74.866,-82.254c-0,-0 117.507,11.233 130.055,75.814c-0,0 0.752,-53.921 23.464,-68.863c22.712,-14.941 38.135,-30.492 39.866,-77.344c0,-0 26.599,44.781 17.706,75.852c-4.516,15.778 4.592,39.021 17.741,49.779c3.105,2.54 6.57,2.981 10.113,2.228c21.378,-52.647 102.158,-57.466 102.158,-57.466c-45.209,19.769 -66.191,52.423 -73.032,74.853c-0.13,2.34 -0.275,4.626 -0.424,6.782c6.618,-2.91 14.467,-6.49 23.72,-10.842c112.507,0.565 146.679,-110.975 146.679,-110.975c5.365,36.361 -11.598,67.316 -37.089,92.574c44.13,-21.359 74.457,-15.313 74.457,-15.313c-28.739,2.535 -64.24,21.977 -76.919,38.037c-8.626,10.925 -46.982,31.459 -70.627,43.471c19.563,-7.776 36.819,-9.827 60.877,-7.876c40.151,36.981 120.451,17.284 120.451,17.284c-49.659,32.077 -119.394,13.357 -119.394,13.357c-77.836,-23.14 -154.531,73.166 -155.22,74.033l0.018,0.017c-33.41,75.714 -3.097,146.857 26.305,191.479c7.248,3.751 13.42,5.906 18.035,5.214c26.415,-3.962 69.295,23.266 69.295,23.266c28.715,-8.767 43.512,30.136 43.512,30.136l0.018,0c-0,0 35.875,39.774 6.885,82.95c0,0 22.822,-52.069 -41.325,-82.95l-18.573,0c0,0 54.964,37.501 9.356,62.138c0,-0 37.381,-44.517 -63.538,-62.138l-0.096,0c0,0 56.44,64.842 10.833,124.276c-0,-0 35.904,-81.767 -65.015,-124.276l-104.529,0l26.952,0c-55.619,0 -39.267,62.138 -39.267,62.138c-29.871,-17.256 -14.637,-62.138 -14.637,-62.138Zm130.127,0c0,0 41.3,39.198 -15.032,62.138c-0,-0 52.937,-58.607 -39.151,-62.138l54.183,0Z" style="fill:#185000;"/></g></g></svg>