<?xml version="1.0" encoding="UTF-8" standalone="no"?><!DOCTYPE svg PUBLIC "-//W3C//DTD SVG 1.1//EN" "http://www.w3.org/Graphics/SVG/1.1/DTD/svg11.dtd"><svg width="100%" height="100%" viewBox="0 0 521 521" version="1.1" xmlns="http://www.w3.org/2000/svg" xmlns:xlink="http://www.w3.org/1999/xlink" xml:space="preserve" xmlns:serif="http://www.serif.com/" style="fill-rule:evenodd;clip-rule:evenodd;stroke-linejoin:round;stroke-miterlimit:2;"><rect id="personal-website" serif:id="personal website" x="0" y="0" width="521" height="521" style="fill:none;"/><rect x="0" y="0" width="521" height="521" style="fill:#fff9f0;"/><g><g><g><g><g><path d="M217.401,320.392c-0,-0 1.423,-3.808 4.885,-5.49c2.308,-1.334 4.387,-3.058 5.479,-4.702c-0,0 0.491,1.225 0.483,2.23c-0.008,1.005 -1.071,4.19 -3.673,4.597c-2.582,0.709 -5.767,1.385 -7.174,3.365Z" style="fill:#857100;"/><path d="M227.349,309.836c-0,-0 -10.104,-2.794 -10.304,10.473c0,-0 1.646,-4.4 5.081,-5.994c1.574,-0.73 3.18,-1.895 5.223,-4.479Z" style="fill:#857100;"/></g><g><path d="M211.68,336.085c0,0 -1.481,-3.785 -0.026,-7.348c0.828,-2.534 1.226,-5.206 0.941,-7.158c0,-0 1.184,0.584 1.849,1.338c0.665,0.753 1.998,3.835 0.333,5.875c-1.45,2.251 -3.37,4.88 -3.097,7.293Z" style="fill:#857100;"/><path d="M212.042,321.585c0,0 -9.388,4.663 -0.682,14.676c0,-0 -1.711,-4.374 -0.217,-7.854c0.684,-1.595 1.103,-3.534 0.899,-6.822Z" style="fill:#857100;"/></g><g><path d="M200.596,325.798c0,-0 -0.115,-5.935 3.679,-10.08c2.415,-3.053 4.31,-6.511 4.908,-9.329c-0,-0 1.325,1.399 1.855,2.767c0.53,1.369 0.799,6.264 -2.513,8.216c-3.124,2.351 -7.083,4.982 -7.929,8.426Z" style="fill:#857100;"/><path d="M208.422,306.118c-0,0 -15.217,1.642 -8.353,19.759c0,-0 -0.132,-6.858 3.672,-10.869c1.744,-1.839 3.297,-4.284 4.681,-8.89Z" style="fill:#857100;"/></g><g><path d="M177.574,326.098c-0,0 1.743,-6.294 7.045,-9.473c3.507,-2.46 6.591,-5.511 8.107,-8.295c0,-0 0.958,1.891 1.087,3.501c0.129,1.609 -1.125,6.856 -5.232,7.874c-4.032,1.497 -9.034,3.028 -11.007,6.393Z" style="fill:#857100;"/><path d="M192.009,307.805c-0,0 -16.562,-3.049 -15.016,18.211c0,-0 2.015,-7.273 7.287,-10.307c2.416,-1.391 4.823,-3.481 7.729,-7.904Z" style="fill:#857100;"/></g><g><path d="M188.638,346.044c0,-0 -1.806,-6.277 1.051,-11.759c1.702,-3.931 2.735,-8.145 2.571,-11.311c0,0 1.806,1.111 2.758,2.416c0.952,1.304 2.626,6.432 -0.342,9.447c-2.653,3.385 -6.116,7.306 -6.038,11.207Z" style="fill:#857100;"/><path d="M191.375,322.903c-0,-0 -15.712,6.062 -3.275,23.374c0,-0 -2.086,-7.252 0.821,-12.596c1.332,-2.449 2.29,-5.489 2.454,-10.778Z" style="fill:#857100;"/></g><g><path d="M150.024,315.922c-0,0 5.021,-6.332 12.597,-7.397c5.181,-1.112 10.167,-3.101 13.238,-5.543c-0,0 0.179,2.618 -0.45,4.514c-0.629,1.896 -4.588,7.27 -9.759,6.449c-5.317,-0.238 -11.754,-0.906 -15.626,1.977Z" style="fill:#857100;"/><path d="M175.294,302.039c-0,-0 -17.402,-11.462 -25.892,13.509c0,0 5.803,-7.315 13.274,-8.23c3.424,-0.42 7.174,-1.641 12.618,-5.279Z" style="fill:#857100;"/></g><g><path d="M149.985,340.063c-0,-0 2.427,-7.708 9.122,-11.41c4.443,-2.89 8.389,-6.53 10.384,-9.907c-0,0 1.102,2.381 1.192,4.376c0.09,1.996 -1.688,8.43 -6.81,9.511c-5.051,1.677 -11.302,3.353 -13.888,7.43Z" style="fill:#857100;"/><path d="M168.626,318.067c0,-0 -20.348,-4.488 -19.356,21.868c0,0 2.806,-8.905 9.457,-12.43c3.048,-1.615 6.114,-4.096 9.899,-9.438Z" style="fill:#857100;"/></g><g><path d="M160.603,271.12c-0,0 3.926,9.343 12.716,13.188c5.882,3.093 11.232,7.18 14.116,11.165c-0,0 1.1,-3.1 0.981,-5.603c-0.12,-2.503 -3.087,-10.33 -9.608,-11.084c-6.502,-1.508 -14.502,-2.876 -18.205,-7.666Z" style="fill:#857100;"/><path d="M186.434,296.422c0,0 -24.888,7.966 -26.708,-25.06c-0,0 4.537,10.795 13.252,14.423c3.993,1.663 8.11,4.405 13.456,10.637Z" style="fill:#857100;"/></g><g><path d="M142.051,285.139c-0,0 4.166,4.696 10.087,5.197c4.066,0.64 8.018,1.969 10.504,3.731c-0,-0 0.027,-2.038 -0.542,-3.481c-0.57,-1.444 -3.871,-5.442 -7.845,-4.583c-4.113,0.412 -9.077,1.206 -12.204,-0.864Z" style="fill:#857100;"/><path d="M162.245,294.823c-0,-0 -13.005,9.635 -20.66,-9.367c-0,0 4.814,5.424 10.647,5.814c2.674,0.179 5.635,0.965 10.013,3.553Z" style="fill:#857100;"/></g><g><path d="M115.522,291.425c0,-0 5.835,6.577 14.129,7.279c5.696,0.897 11.232,2.758 14.714,5.226c-0,0 0.037,-2.854 -0.76,-4.876c-0.798,-2.022 -5.421,-7.622 -10.989,-6.42c-5.761,0.578 -12.714,1.691 -17.094,-1.209Z" style="fill:#857100;"/><path d="M143.808,304.989c-0,0 -18.216,13.497 -28.939,-13.12c0,-0 6.743,7.598 14.915,8.144c3.744,0.25 7.892,1.351 14.024,4.976Z" style="fill:#857100;"/></g><g><path d="M146.417,251.742c0,0 1.953,5.966 7.185,8.782c3.475,2.206 6.572,4.999 8.151,7.605c-0,-0 0.835,-1.859 0.888,-3.41c0.052,-1.551 -1.384,-6.532 -5.372,-7.327c-3.938,-1.259 -8.808,-2.506 -10.852,-5.65Z" style="fill:#857100;"/><path d="M161.087,268.664c0,-0 -15.765,3.662 -15.223,-16.817c-0,0 2.256,6.893 7.453,9.572c2.381,1.228 4.784,3.128 7.77,7.245Z" style="fill:#857100;"/></g><g><path d="M168.293,230.155c0,-0 -0.689,12.9 7.257,22.197c5.029,6.818 8.895,14.48 9.987,20.655c-0,-0 2.986,-2.945 4.24,-5.882c1.254,-2.938 2.201,-13.566 -4.861,-18.057c-6.62,-5.344 -15.038,-11.36 -16.623,-18.913Z" style="fill:#857100;"/><path d="M183.862,273.539c-0,0 -32.979,-4.695 -16.71,-43.594c0,-0 -0.794,14.905 7.185,23.912c3.657,4.128 6.856,9.561 9.525,19.682Z" style="fill:#857100;"/></g><g><path d="M215.387,233.464c-0,-0 1.073,8.761 -3.908,15.47c-3.109,4.883 -5.385,10.287 -5.841,14.547c0,0 -2.173,-1.867 -3.165,-3.811c-0.993,-1.944 -2.136,-9.144 2.468,-12.536c4.262,-3.953 9.719,-8.447 10.446,-13.67Z" style="fill:#857100;"/><path d="M206.805,263.766c0,-0 22.261,-4.745 9.349,-30.499c0,0 1.24,10.123 -3.778,16.636c-2.299,2.985 -4.225,6.839 -5.571,13.863Z" style="fill:#857100;"/></g><g><path d="M211.645,262.413c-0,0 -0.677,5.519 2.461,9.745c1.958,3.076 3.392,6.479 3.679,9.163c-0,-0 1.369,-1.177 1.994,-2.401c0.625,-1.224 1.345,-5.759 -1.555,-7.896c-2.685,-2.49 -6.121,-5.321 -6.579,-8.611Z" style="fill:#857100;"/><path d="M217.05,281.5c-0,0 -14.021,-2.988 -5.889,-19.21c0,-0 -0.781,6.376 2.38,10.478c1.448,1.881 2.661,4.308 3.509,8.732Z" style="fill:#857100;"/></g><g><path d="M248.943,243.384c-0,-0 -3.216,8.221 -10.785,11.759c-5.055,2.822 -9.625,6.496 -12.048,10.029c-0,0 -1.026,-2.675 -0.977,-4.857c0.05,-2.182 2.463,-9.061 8.125,-9.861c5.628,-1.454 12.565,-2.819 15.685,-7.07Z" style="fill:#857100;"/><path d="M227.001,265.977c0,-0 21.844,6.395 22.711,-22.402c-0,0 -3.716,9.498 -11.225,12.847c-3.441,1.535 -6.966,4.012 -11.486,9.555Z" style="fill:#857100;"/></g><g><path d="M250.897,208.232c0,0 -1.394,11.225 -9.676,18.012c-5.385,5.101 -9.898,11.109 -11.791,16.262c-0,0 -2.12,-2.998 -2.748,-5.723c-0.628,-2.725 0.194,-12.031 6.973,-14.813c6.529,-3.585 14.712,-7.472 17.242,-13.738Z" style="fill:#857100;"/><path d="M230.792,243.223c-0,0 29.146,1.037 21.121,-34.996c-0,0 -1.613,12.969 -9.879,19.502c-3.788,2.993 -7.382,7.183 -11.242,15.494Z" style="fill:#857100;"/></g><g><path d="M258.131,230.339c0,-0 -0.835,5.362 2.092,9.583c1.813,3.063 3.103,6.428 3.298,9.055c0,0 1.373,-1.104 2.021,-2.278c0.649,-1.175 1.495,-5.576 -1.266,-7.752c-2.54,-2.514 -5.803,-5.384 -6.145,-8.608Z" style="fill:#857100;"/><path d="M262.798,249.129c0,-0 -13.582,-3.36 -5.135,-18.926c0,-0 -0.963,6.195 1.989,10.297c1.354,1.88 2.46,4.286 3.146,8.629Z" style="fill:#857100;"/></g><g><path d="M245.453,266.162c0,0 -0.47,3.02 1.178,5.397c1.021,1.724 1.748,3.62 1.857,5.099c0,-0 0.773,-0.622 1.138,-1.283c0.366,-0.662 0.842,-3.14 -0.713,-4.365c-1.43,-1.416 -3.267,-3.032 -3.46,-4.848Z" style="fill:#857100;"/><path d="M248.081,276.743c0,0 -7.648,-1.892 -2.891,-10.657c-0,-0 -0.543,3.488 1.12,5.798c0.762,1.059 1.385,2.414 1.771,4.859Z" style="fill:#857100;"/></g><g><path d="M255.975,255.877c-0,0 0.594,3.817 -1.489,6.823c-1.291,2.18 -2.21,4.576 -2.348,6.446c-0,-0 -0.977,-0.786 -1.439,-1.622c-0.462,-0.836 -1.064,-3.969 0.901,-5.519c1.808,-1.789 4.131,-3.833 4.375,-6.128Z" style="fill:#857100;"/><path d="M252.652,269.253c0,0 9.669,-2.391 3.656,-13.473c-0,0 0.686,4.411 -1.416,7.331c-0.964,1.338 -1.751,3.051 -2.24,6.142Z" style="fill:#857100;"/></g><g><path d="M259.705,174.286c-0,-0 -4.849,2.435 -6.585,7.27c-1.439,3.255 -3.428,6.261 -5.453,7.946c-0,-0 1.696,0.475 3.029,0.321c1.332,-0.155 5.406,-2.023 5.573,-5.535c0.57,-3.527 1.011,-7.851 3.436,-10.002Z" style="fill:#857100;"/><path d="M247.124,189.001c-0,0 -5.157,-13.006 12.42,-15.175c-0,-0 -5.602,2.815 -7.225,7.602c-0.744,2.193 -2.06,4.492 -5.195,7.573Z" style="fill:#857100;"/></g><g><path d="M225.488,164.294c0,0 5.768,13.716 0.772,26.885c-2.798,9.348 -4.007,19.158 -2.788,26.276c-0,0 -4.383,-2.03 -6.886,-4.726c-2.502,-2.696 -7.664,-13.848 -1.757,-21.465c5.096,-8.368 11.88,-18.165 10.659,-26.97Z" style="fill:#857100;"/><path d="M225.495,217.381c-0,-0 33.921,-17.923 1.148,-53.758c0,-0 6.662,15.848 1.517,28.716c-2.358,5.898 -3.711,13.032 -2.665,25.042Z" style="fill:#857100;"/></g><g><path d="M206.466,175.893c-0,0 -5.459,6.676 -4.845,14.816c0.02,5.655 -0.919,11.305 -2.766,15.061c0,0 2.77,-0.408 4.603,-1.496c1.834,-1.087 6.535,-6.437 4.502,-11.641c-1.458,-5.488 -3.619,-12.047 -1.494,-16.74Z" style="fill:#857100;"/><path d="M197.743,205.396c0,0 -15.909,-15.532 8.191,-30.066c0,0 -6.305,7.714 -5.559,15.711c0.341,3.665 -0.078,7.852 -2.632,14.355Z" style="fill:#857100;"/></g><g><path d="M157.962,168.708c-0,-0 -0.115,6.024 3.739,10.23c2.453,3.098 4.378,6.607 4.987,9.468c-0,-0 1.344,-1.421 1.882,-2.81c0.537,-1.39 0.808,-6.359 -2.556,-8.339c-3.172,-2.385 -7.192,-5.054 -8.052,-8.549Z" style="fill:#857100;"/><path d="M165.915,188.681c0,0 -15.448,-1.659 -8.489,-20.053c0,0 -0.131,6.961 3.734,11.031c1.77,1.866 3.349,4.347 4.755,9.022Z" style="fill:#857100;"/></g><g><path d="M118.421,237.668c-0,-0 2.898,5.283 8.333,7.014c3.669,1.466 7.085,3.553 9.036,5.732c0,-0 0.46,-1.902 0.235,-3.374c-0.225,-1.473 -2.463,-5.918 -6.366,-5.962c-3.938,-0.491 -8.753,-0.806 -11.238,-3.41Z" style="fill:#857100;"/><path d="M135.257,251.036c0,0 -14.226,6.247 -17.34,-13.171c-0,-0 3.349,6.103 8.726,7.712c2.464,0.737 5.068,2.104 8.614,5.459Z" style="fill:#857100;"/></g></g><g><path d="M167.732,192.169c0,0 5.378,17.019 20.173,25.18c9.817,6.374 18.54,14.404 22.954,21.859c-0,0 2.43,-5.26 2.625,-9.668c0.194,-4.408 -3.746,-18.613 -15.062,-20.99c-11.158,-3.693 -24.969,-7.382 -30.69,-16.381Z" style="fill:#857100;"/><path d="M208.951,240.711c0,-0 -44.932,9.955 -42.796,-48.259c0,0 6.216,19.663 20.913,27.434c6.736,3.56 13.513,9.033 21.883,20.825Z" style="fill:#857100;"/></g><g><path d="M140.224,172.591c0,0 -5.729,18.152 2.187,34.338c4.667,11.577 7.364,23.93 6.65,33.142c0,-0 5.344,-3.103 8.214,-6.833c2.869,-3.729 8.13,-18.543 -0.293,-27.549c-7.478,-10.059 -17.275,-21.738 -16.758,-33.098Z" style="fill:#857100;"/><path d="M146.475,240.214c0,-0 -45.322,-18.831 -7.801,-68.342c-0,0 -6.617,20.973 1.454,36.758c3.699,7.234 6.263,16.163 6.347,31.584Z" style="fill:#857100;"/></g><g><path d="M173.753,128.912c0,0 -3.608,15.437 3.991,28.378c4.609,9.319 7.631,19.407 7.622,27.102c0,-0 4.241,-2.916 6.388,-6.195c2.147,-3.279 5.578,-15.914 -1.987,-22.86c-6.848,-7.88 -15.724,-16.958 -16.014,-26.425Z" style="fill:#857100;"/><path d="M183.228,184.674c-0,0 -38.832,-12.767 -10.808,-56.261c0,0 -4.167,17.837 3.536,30.434c3.53,5.774 6.225,13.026 7.272,25.827Z" style="fill:#857100;"/></g><g><path d="M217.084,129.883c-0,-0 2.507,10.726 -2.773,19.717c-3.203,6.476 -5.303,13.485 -5.296,18.832c-0,-0 -2.947,-2.026 -4.439,-4.304c-1.492,-2.279 -3.876,-11.058 1.381,-15.884c4.758,-5.476 10.925,-11.784 11.127,-18.361Z" style="fill:#857100;"/><path d="M210.5,168.628c0,0 26.982,-8.871 7.51,-39.092c0,-0 2.895,12.393 -2.457,21.147c-2.452,4.011 -4.325,9.05 -5.053,17.945Z" style="fill:#857100;"/></g><g><path d="M95.46,247.724c-0,-0 8.891,13.125 23.553,16.323c9.973,2.937 19.434,7.563 25.08,12.79c0,0 0.736,-5.093 -0.215,-8.895c-0.952,-3.802 -7.906,-14.896 -18.141,-14.051c-10.435,-0.316 -23.127,0.043 -30.277,-6.167Z" style="fill:#857100;"/><path d="M142.85,278.6c0,0 -35.727,19.862 -48.661,-30.236c-0,0 10.275,15.164 24.755,18.054c6.636,1.324 13.792,4.265 23.906,12.182Z" style="fill:#857100;"/></g></g><g><g><g><path d="M303.599,320.392c0,-0 -1.423,-3.808 -4.885,-5.49c-2.308,-1.334 -4.387,-3.058 -5.479,-4.702c0,0 -0.491,1.225 -0.483,2.23c0.008,1.005 1.071,4.19 3.673,4.597c2.582,0.709 5.767,1.385 7.174,3.365Z" style="fill:#857100;"/><path d="M293.651,309.836c0,-0 10.104,-2.794 10.304,10.473c-0,-0 -1.646,-4.4 -5.081,-5.994c-1.574,-0.73 -3.18,-1.895 -5.223,-4.479Z" style="fill:#857100;"/></g><g><path d="M309.32,336.085c-0,0 1.481,-3.785 0.026,-7.348c-0.828,-2.534 -1.226,-5.206 -0.941,-7.158c-0,-0 -1.184,0.584 -1.849,1.338c-0.665,0.753 -1.998,3.835 -0.333,5.875c1.45,2.251 3.37,4.88 3.097,7.293Z" style="fill:#857100;"/><path d="M308.958,321.585c-0,0 9.388,4.663 0.682,14.676c-0,-0 1.711,-4.374 0.217,-7.854c-0.684,-1.595 -1.103,-3.534 -0.899,-6.822Z" style="fill:#857100;"/></g><g><path d="M320.404,325.798c-0,-0 0.115,-5.935 -3.679,-10.08c-2.415,-3.053 -4.31,-6.511 -4.908,-9.329c0,-0 -1.325,1.399 -1.855,2.767c-0.53,1.369 -0.799,6.264 2.513,8.216c3.124,2.351 7.083,4.982 7.929,8.426Z" style="fill:#857100;"/><path d="M312.578,306.118c0,0 15.217,1.642 8.353,19.759c-0,-0 0.132,-6.858 -3.672,-10.869c-1.744,-1.839 -3.297,-4.284 -4.681,-8.89Z" style="fill:#857100;"/></g><g><path d="M343.426,326.098c0,0 -1.743,-6.294 -7.045,-9.473c-3.507,-2.46 -6.591,-5.511 -8.107,-8.295c-0,-0 -0.958,1.891 -1.087,3.501c-0.129,1.609 1.125,6.856 5.232,7.874c4.032,1.497 9.034,3.028 11.007,6.393Z" style="fill:#857100;"/><path d="M328.991,307.805c0,0 16.562,-3.049 15.016,18.211c-0,-0 -2.015,-7.273 -7.287,-10.307c-2.416,-1.391 -4.823,-3.481 -7.729,-7.904Z" style="fill:#857100;"/></g><g><path d="M332.362,346.044c-0,-0 1.806,-6.277 -1.051,-11.759c-1.702,-3.931 -2.735,-8.145 -2.571,-11.311c-0,0 -1.806,1.111 -2.758,2.416c-0.952,1.304 -2.626,6.432 0.342,9.447c2.653,3.385 6.116,7.306 6.038,11.207Z" style="fill:#857100;"/><path d="M329.625,322.903c0,-0 15.712,6.062 3.275,23.374c-0,-0 2.086,-7.252 -0.821,-12.596c-1.332,-2.449 -2.29,-5.489 -2.454,-10.778Z" style="fill:#857100;"/></g><g><path d="M370.976,315.922c0,0 -5.021,-6.332 -12.597,-7.397c-5.181,-1.112 -10.167,-3.101 -13.238,-5.543c0,0 -0.179,2.618 0.45,4.514c0.629,1.896 4.588,7.27 9.759,6.449c5.317,-0.238 11.754,-0.906 15.626,1.977Z" style="fill:#857100;"/><path d="M345.706,302.039c0,-0 17.402,-11.462 25.892,13.509c-0,0 -5.803,-7.315 -13.274,-8.23c-3.424,-0.42 -7.174,-1.641 -12.618,-5.279Z" style="fill:#857100;"/></g><g><path d="M371.015,340.063c0,-0 -2.427,-7.708 -9.122,-11.41c-4.443,-2.89 -8.389,-6.53 -10.384,-9.907c0,0 -1.102,2.381 -1.192,4.376c-0.09,1.996 1.688,8.43 6.81,9.511c5.051,1.677 11.302,3.353 13.888,7.43Z" style="fill:#857100;"/><path d="M352.374,318.067c-0,-0 20.348,-4.488 19.356,21.868c-0,0 -2.806,-8.905 -9.457,-12.43c-3.048,-1.615 -6.114,-4.096 -9.899,-9.438Z" style="fill:#857100;"/></g><g><path d="M360.397,271.12c0,0 -3.926,9.343 -12.716,13.188c-5.882,3.093 -11.232,7.18 -14.116,11.165c0,0 -1.1,-3.1 -0.981,-5.603c0.12,-2.503 3.087,-10.33 9.608,-11.084c6.502,-1.508 14.502,-2.876 18.205,-7.666Z" style="fill:#857100;"/><path d="M334.566,296.422c-0,0 24.888,7.966 26.708,-25.06c0,0 -4.537,10.795 -13.252,14.423c-3.993,1.663 -8.11,4.405 -13.456,10.637Z" style="fill:#857100;"/></g><g><path d="M378.949,285.139c0,0 -4.166,4.696 -10.087,5.197c-4.066,0.64 -8.018,1.969 -10.504,3.731c0,-0 -0.027,-2.038 0.542,-3.481c0.57,-1.444 3.871,-5.442 7.845,-4.583c4.113,0.412 9.077,1.206 12.204,-0.864Z" style="fill:#857100;"/><path d="M358.755,294.823c0,-0 13.005,9.635 20.66,-9.367c0,0 -4.814,5.424 -10.647,5.814c-2.674,0.179 -5.635,0.965 -10.013,3.553Z" style="fill:#857100;"/></g><g><path d="M405.478,291.425c-0,-0 -5.835,6.577 -14.129,7.279c-5.696,0.897 -11.232,2.758 -14.714,5.226c0,0 -0.037,-2.854 0.76,-4.876c0.798,-2.022 5.421,-7.622 10.989,-6.42c5.761,0.578 12.714,1.691 17.094,-1.209Z" style="fill:#857100;"/><path d="M377.192,304.989c0,0 18.216,13.497 28.939,-13.12c-0,-0 -6.743,7.598 -14.915,8.144c-3.744,0.25 -7.892,1.351 -14.024,4.976Z" style="fill:#857100;"/></g><g><path d="M374.583,251.742c-0,0 -1.953,5.966 -7.185,8.782c-3.475,2.206 -6.572,4.999 -8.151,7.605c0,-0 -0.835,-1.859 -0.888,-3.41c-0.052,-1.551 1.384,-6.532 5.372,-7.327c3.938,-1.259 8.808,-2.506 10.852,-5.65Z" style="fill:#857100;"/><path d="M359.913,268.664c-0,-0 15.765,3.662 15.223,-16.817c0,0 -2.256,6.893 -7.453,9.572c-2.381,1.228 -4.784,3.128 -7.77,7.245Z" style="fill:#857100;"/></g><g><path d="M352.707,230.155c-0,-0 0.689,12.9 -7.257,22.197c-5.029,6.818 -8.895,14.48 -9.987,20.655c0,-0 -2.986,-2.945 -4.24,-5.882c-1.254,-2.938 -2.201,-13.566 4.861,-18.057c6.62,-5.344 15.038,-11.36 16.623,-18.913Z" style="fill:#857100;"/><path d="M337.138,273.539c0,0 32.979,-4.695 16.71,-43.594c-0,-0 0.794,14.905 -7.185,23.912c-3.657,4.128 -6.856,9.561 -9.525,19.682Z" style="fill:#857100;"/></g><g><path d="M305.613,233.464c0,-0 -1.073,8.761 3.908,15.47c3.109,4.883 5.385,10.287 5.841,14.547c-0,0 2.173,-1.867 3.165,-3.811c0.993,-1.944 2.136,-9.144 -2.468,-12.536c-4.262,-3.953 -9.719,-8.447 -10.446,-13.67Z" style="fill:#857100;"/><path d="M314.195,263.766c-0,-0 -22.261,-4.745 -9.349,-30.499c-0,0 -1.24,10.123 3.778,16.636c2.299,2.985 4.225,6.839 5.571,13.863Z" style="fill:#857100;"/></g><g><path d="M309.355,262.413c0,0 0.677,5.519 -2.461,9.745c-1.958,3.076 -3.392,6.479 -3.679,9.163c0,-0 -1.369,-1.177 -1.994,-2.401c-0.625,-1.224 -1.345,-5.759 1.555,-7.896c2.685,-2.49 6.121,-5.321 6.579,-8.611Z" style="fill:#857100;"/><path d="M303.95,281.5c0,0 14.021,-2.988 5.889,-19.21c-0,-0 0.781,6.376 -2.38,10.478c-1.448,1.881 -2.661,4.308 -3.509,8.732Z" style="fill:#857100;"/></g><g><path d="M272.057,243.384c0,-0 3.216,8.221 10.785,11.759c5.055,2.822 9.625,6.496 12.048,10.029c0,0 1.026,-2.675 0.977,-4.857c-0.05,-2.182 -2.463,-9.061 -8.125,-9.861c-5.628,-1.454 -12.565,-2.819 -15.685,-7.07Z" style="fill:#857100;"/><path d="M293.999,265.977c-0,-0 -21.844,6.395 -22.711,-22.402c0,0 3.716,9.498 11.225,12.847c3.441,1.535 6.966,4.012 11.486,9.555Z" style="fill:#857100;"/></g><g><path d="M270.103,208.232c-0,0 1.394,11.225 9.676,18.012c5.385,5.101 9.898,11.109 11.791,16.262c0,0 2.12,-2.998 2.748,-5.723c0.628,-2.725 -0.194,-12.031 -6.973,-14.813c-6.529,-3.585 -14.712,-7.472 -17.242,-13.738Z" style="fill:#857100;"/><path d="M290.208,243.223c0,0 -29.146,1.037 -21.121,-34.996c0,0 1.613,12.969 9.879,19.502c3.788,2.993 7.382,7.183 11.242,15.494Z" style="fill:#857100;"/></g><g><path d="M261.364,212.633c0,0 -1.787,3.601 -0.663,7.237c0.596,2.569 0.756,5.234 0.307,7.133c-0,0 1.216,-0.473 1.937,-1.158c0.72,-0.684 2.301,-3.604 0.837,-5.758c-1.233,-2.343 -2.896,-5.1 -2.418,-7.454Z" style="fill:#857100;"/><path d="M260.463,226.949c0,-0 -8.843,-5.408 0.601,-14.516c0,-0 -2.065,4.161 -0.895,7.718c0.536,1.63 0.78,3.577 0.294,6.798Z" style="fill:#857100;"/></g><g><path d="M269.342,183.934c-0,-0 -0.664,7.001 -5.688,11.368c-3.254,3.268 -5.95,7.083 -7.033,10.32c-0,0 -1.372,-1.825 -1.811,-3.507c-0.44,-1.682 -0.098,-7.48 4.065,-9.332c3.993,-2.346 9.007,-4.91 10.467,-8.849Z" style="fill:#857100;"/><path d="M257.48,206.043c-0,0 18.132,0.117 12.493,-22.131c-0,0 -0.768,8.089 -5.787,12.298c-2.3,1.929 -4.458,4.598 -6.706,9.833Z" style="fill:#857100;"/></g><g><path d="M295.512,164.294c-0,0 -5.768,13.716 -0.772,26.885c2.798,9.348 4.007,19.158 2.788,26.276c0,0 4.383,-2.03 6.886,-4.726c2.502,-2.696 7.664,-13.848 1.757,-21.465c-5.096,-8.368 -11.88,-18.165 -10.659,-26.97Z" style="fill:#857100;"/><path d="M295.505,217.381c0,-0 -33.921,-17.923 -1.148,-53.758c-0,-0 -6.662,15.848 -1.517,28.716c2.358,5.898 3.711,13.032 2.665,25.042Z" style="fill:#857100;"/></g><g><path d="M248.532,109.641c-0,-0 6.602,15.7 0.883,30.774c-3.203,10.701 -4.587,21.93 -3.191,30.078c-0,-0 -5.017,-2.324 -7.882,-5.41c-2.864,-3.087 -8.774,-15.852 -2.012,-24.57c5.834,-9.58 13.6,-20.794 12.202,-30.872Z" style="fill:#857100;"/><path d="M248.539,170.407c0,0 38.829,-20.516 1.315,-61.535c-0,0 7.625,18.141 1.736,32.871c-2.699,6.751 -4.247,14.917 -3.051,28.664Z" style="fill:#857100;"/></g><g><path d="M293.057,138.814c0,0 -10.18,7.143 -12.5,18.685c-2.177,7.86 -5.683,15.341 -9.711,19.837c-0,-0 4.004,0.512 6.974,-0.284c2.97,-0.795 11.583,-6.392 10.789,-14.41c0.114,-8.189 -0.331,-18.139 4.448,-23.828Z" style="fill:#857100;"/><path d="M269.447,176.383c0,0 -16.038,-27.768 23.092,-38.558c-0,0 -11.762,8.255 -13.843,19.65c-0.954,5.222 -3.169,10.873 -9.249,18.908Z" style="fill:#857100;"/></g><g><path d="M314.534,175.893c0,0 5.459,6.676 4.845,14.816c-0.02,5.655 0.919,11.305 2.766,15.061c-0,0 -2.77,-0.408 -4.603,-1.496c-1.834,-1.087 -6.535,-6.437 -4.502,-11.641c1.458,-5.488 3.619,-12.047 1.494,-16.74Z" style="fill:#857100;"/><path d="M323.257,205.396c-0,0 15.909,-15.532 -8.191,-30.066c-0,0 6.305,7.714 5.559,15.711c-0.341,3.665 0.078,7.852 2.632,14.355Z" style="fill:#857100;"/></g><g><path d="M363.038,168.708c0,-0 0.115,6.024 -3.739,10.23c-2.453,3.098 -4.378,6.607 -4.987,9.468c0,-0 -1.344,-1.421 -1.882,-2.81c-0.537,-1.39 -0.808,-6.359 2.556,-8.339c3.172,-2.385 7.192,-5.054 8.052,-8.549Z" style="fill:#857100;"/><path d="M355.085,188.681c-0,0 15.448,-1.659 8.489,-20.053c-0,0 0.131,6.961 -3.734,11.031c-1.77,1.866 -3.349,4.347 -4.755,9.022Z" style="fill:#857100;"/></g><g><path d="M402.579,237.668c0,-0 -2.898,5.283 -8.333,7.014c-3.669,1.466 -7.085,3.553 -9.036,5.732c-0,-0 -0.46,-1.902 -0.235,-3.374c0.225,-1.473 2.463,-5.918 6.366,-5.962c3.938,-0.491 8.753,-0.806 11.238,-3.41Z" style="fill:#857100;"/><path d="M385.743,251.036c-0,0 14.226,6.247 17.34,-13.171c0,-0 -3.349,6.103 -8.726,7.712c-2.464,0.737 -5.068,2.104 -8.614,5.459Z" style="fill:#857100;"/></g></g><g><path d="M353.268,192.169c-0,0 -5.378,17.019 -20.173,25.18c-9.817,6.374 -18.54,14.404 -22.954,21.859c0,0 -2.43,-5.26 -2.625,-9.668c-0.194,-4.408 3.746,-18.613 15.062,-20.99c11.158,-3.693 24.969,-7.382 30.69,-16.381Z" style="fill:#857100;"/><path d="M312.049,240.711c-0,-0 44.932,9.955 42.796,-48.259c-0,0 -6.216,19.663 -20.913,27.434c-6.736,3.56 -13.513,9.033 -21.883,20.825Z" style="fill:#857100;"/></g><g><path d="M387.332,172.381c-0,-0 3.287,18.748 -6.695,33.749c-6.152,10.861 -10.453,22.751 -10.961,31.976c0,0 -4.887,-3.78 -7.24,-7.855c-2.353,-4.075 -5.616,-19.454 3.921,-27.27c8.739,-8.986 19.99,-19.272 20.975,-30.6Z" style="fill:#857100;"/><path d="M372.221,238.589c-0,0 47.409,-12.692 16.742,-66.717c0,0 3.795,21.662 -6.286,36.246c-4.621,6.683 -8.34,15.196 -10.456,30.471Z" style="fill:#857100;"/></g><g><path d="M347.247,128.912c-0,0 3.608,15.437 -3.991,28.378c-4.609,9.319 -7.631,19.407 -7.622,27.102c-0,-0 -4.241,-2.916 -6.388,-6.195c-2.147,-3.279 -5.578,-15.914 1.987,-22.86c6.848,-7.88 15.724,-16.958 16.014,-26.425Z" style="fill:#857100;"/><path d="M337.772,184.674c0,0 38.832,-12.767 10.808,-56.261c-0,0 4.167,17.837 -3.536,30.434c-3.53,5.774 -6.225,13.026 -7.272,25.827Z" style="fill:#857100;"/></g><g><path d="M303.916,129.883c0,-0 -2.507,10.726 2.773,19.717c3.203,6.476 5.303,13.485 5.296,18.832c0,-0 2.947,-2.026 4.439,-4.304c1.492,-2.279 3.876,-11.058 -1.381,-15.884c-4.758,-5.476 -10.925,-11.784 -11.127,-18.361Z" style="fill:#857100;"/><path d="M310.5,168.628c-0,0 -26.982,-8.871 -7.51,-39.092c-0,-0 -2.895,12.393 2.457,21.147c2.452,4.011 4.325,9.05 5.053,17.945Z" style="fill:#857100;"/></g><g><path d="M425.54,247.724c0,-0 -8.891,13.125 -23.553,16.323c-9.973,2.937 -19.434,7.563 -25.08,12.79c-0,0 -0.736,-5.093 0.215,-8.895c0.952,-3.802 7.906,-14.896 18.141,-14.051c10.435,-0.316 23.127,0.043 30.277,-6.167Z" style="fill:#857100;"/><path d="M378.15,278.6c-0,0 35.727,19.862 48.661,-30.236c0,0 -10.275,15.164 -24.755,18.054c-6.636,1.324 -13.792,4.265 -23.906,12.182Z" style="fill:#857100;"/></g></g><path d="M287.96,382.302c0,-0 13.546,15.562 2.6,29.826c0,-0 8.617,-19.624 -15.604,-29.826l-31.555,-0c-24.221,10.202 -14.666,25.607 -14.666,25.607c-10.946,-14.264 1.662,-25.607 1.662,-25.607l-0.023,-0c-24.22,4.229 -13.787,11.505 -13.787,11.505c-10.945,-5.913 0.783,-11.505 0.783,-11.505l-4.457,-0c-15.395,7.411 -9.918,19.908 -9.918,19.908c-6.958,-10.362 1.652,-19.908 1.652,-19.908l-0.1,-0c-0,-0 6.536,-9.337 13.428,-7.233c-0,0 10.291,-6.535 16.63,-5.584c1.108,0.166 2.589,-0.351 4.329,-1.251c7.056,-10.709 14.331,-27.784 6.313,-45.955l0.004,-0.004c-0.165,-0.208 -18.572,-23.322 -37.252,-17.768c-0,-0 -16.737,4.493 -28.655,-3.206c-0,0 19.272,4.727 28.908,-4.148c5.774,-0.468 9.915,0.024 14.611,1.89c-5.675,-2.883 -14.881,-7.811 -16.951,-10.433c-3.043,-3.854 -11.563,-8.52 -18.46,-9.129c-0,0 7.278,-1.451 17.869,3.676c-6.117,-6.062 -10.189,-13.492 -8.901,-22.218c-0,-0 8.201,26.769 35.203,26.634c2.381,1.119 4.374,2.026 6.031,2.75c-0.986,-5.288 -5.852,-14.442 -17.968,-19.741c0,0 28.202,2.696 31.213,18.196c0,-0 0.181,-12.941 5.632,-16.527c5.451,-3.586 9.152,-7.318 9.568,-18.563c-0,0 6.384,10.747 4.249,18.205c-1.084,3.786 1.102,9.365 4.258,11.947c0.745,0.609 1.577,0.715 2.427,0.534c5.131,-12.635 24.518,-13.792 24.518,-13.792c-10.85,4.745 -15.886,12.582 -17.528,17.965c-0.031,0.562 -0.066,1.11 -0.101,1.628c1.588,-0.699 3.472,-1.558 5.693,-2.602c27.001,0.135 35.203,-26.634 35.203,-26.634c1.287,8.726 -2.784,16.156 -8.902,22.218c10.591,-5.127 17.87,-3.676 17.87,-3.676c-6.898,0.609 -15.418,5.275 -18.461,9.129c-2.07,2.622 -11.276,7.55 -16.95,10.433c4.695,-1.866 8.836,-2.358 14.61,-1.89c9.636,8.875 28.909,4.148 28.909,4.148c-11.919,7.699 -28.655,3.206 -28.655,3.206c-18.681,-5.554 -37.088,17.56 -37.253,17.768l0.004,0.004c-8.018,18.171 -0.743,35.246 6.314,45.955c1.739,0.9 3.22,1.417 4.328,1.251c6.339,-0.951 16.631,5.584 16.631,5.584c6.891,-2.104 10.443,7.233 10.443,7.233l0.004,-0c-0,-0 8.61,9.546 1.652,19.908c0,-0 5.478,-12.497 -9.918,-19.908l-4.457,-0c-0,-0 13.191,9 2.245,14.913c0,-0 8.972,-10.684 -15.249,-14.913l-0.023,-0Zm-13.328,-0c-0,-0 9.911,9.407 -3.608,14.913c-0,-0 12.705,-14.066 -9.396,-14.913l13.004,-0Z"/><path d="M243.401,382.302c-24.221,10.202 -14.666,25.607 -14.666,25.607c-10.946,-14.264 1.662,-25.607 1.662,-25.607l-0.023,-0c-24.22,4.229 -13.787,11.505 -13.787,11.505c-10.945,-5.913 0.783,-11.505 0.783,-11.505l-4.457,-0c-15.395,7.411 -9.918,19.908 -9.918,19.908c-6.958,-10.362 1.652,-19.908 1.652,-19.908l-0.1,-0c-0,-0 6.536,-9.337 13.428,-7.233c-0,0 10.291,-6.535 16.63,-5.584c1.108,0.166 2.589,-0.351 4.329,-1.251c7.056,-10.709 14.331,-27.784 6.313,-45.955l0.004,-0.004c-0.165,-0.208 -18.572,-23.322 -37.252,-17.768c-0,-0 -16.737,4.493 -28.655,-3.206c-0,0 19.272,4.727 28.908,-4.148c5.774,-0.468 9.915,0.024 14.611,1.89c-5.675,-2.883 -14.881,-7.811 -16.951,-10.433c-3.043,-3.854 -11.563,-8.52 -18.46,-9.129c-0,0 7.278,-1.451 17.869,3.676c-6.117,-6.062 -10.189,-13.492 -8.901,-22.218c-0,-0 8.201,26.769 35.203,26.634c2.381,1.119 4.374,2.026 6.031,2.75c-0.986,-5.288 -5.852,-14.442 -17.968,-19.741c0,0 28.202,2.696 31.213,18.196c0,-0 0.181,-12.941 5.632,-16.527c5.451,-3.586 9.152,-7.318 9.568,-18.563c-0,0 6.384,10.747 4.249,18.205c-1.084,3.786 1.102,9.365 4.258,11.947c0.745,0.609 1.577,0.715 2.427,0.534c5.131,-12.635 24.518,-13.792 24.518,-13.792c-10.85,4.745 -15.886,12.582 -17.528,17.965c-0.031,0.562 -0.066,1.11 -0.101,1.628c1.588,-0.699 3.472,-1.558 5.693,-2.602c27.001,0.135 35.203,-26.634 35.203,-26.634c1.287,8.726 -2.784,16.156 -8.902,22.218c10.591,-5.127 17.87,-3.676 17.87,-3.676c-6.898,0.609 -15.418,5.275 -18.461,9.129c-2.07,2.622 -11.276,7.55 -16.95,10.433c4.695,-1.866 8.836,-2.358 14.61,-1.89c9.636,8.875 28.909,4.148 28.909,4.148c-11.919,7.699 -28.655,3.206 -28.655,3.206c-18.681,-5.554 -37.088,17.56 -37.253,17.768l0.004,0.004c-8.018,18.171 -0.743,35.246 6.314,45.955c1.739,0.9 3.22,1.417 4.328,1.251c6.339,-0.951 16.631,5.584 16.631,5.584c6.891,-2.104 10.443,7.233 10.443,7.233l0.004,-0c-0,-0 8.61,9.546 1.652,19.908c0,-0 5.478,-12.497 -9.918,-19.908l-4.457,-0c-0,-0 13.191,9 2.245,14.913c0,-0 8.972,-10.684 -15.249,-14.913l-0.023,-0c0,-0 13.546,15.562 2.6,29.826c0,-0 8.617,-19.624 -15.604,-29.826l-25.086,-0l6.468,-0c-13.348,-0 -9.424,14.913 -9.424,14.913c-7.169,-4.141 -3.513,-14.913 -3.513,-14.913Zm31.231,-0c-0,-0 9.911,9.407 -3.608,14.913c-0,-0 12.705,-14.066 -9.396,-14.913l13.004,-0Z" style="fill:#185000;"/></g></g></svg>