<?xml version="1.0" encoding="UTF-8" standalone="no"?><!DOCTYPE svg PUBLIC "-//W3C//DTD SVG 1.1//EN" "http://www.w3.org/Graphics/SVG/1.1/DTD/svg11.dtd"><svg width="100%" height="100%" viewBox="0 0 2084 2084" version="1.1" xmlns="http://www.w3.org/2000/svg" xmlns:xlink="http://www.w3.org/1999/xlink" xml:space="preserve" xmlns:serif="http://www.serif.com/" style="fill-rule:evenodd;clip-rule:evenodd;stroke-linejoin:round;stroke-miterlimit:2;"><rect id="hassan" x="0" y="0" width="2083.33" height="2083.33" style="fill:none;"/><clipPath id="_clip1"><rect x="0" y="0" width="2083.33" height="2083.33"/></clipPath><g clip-path="url(#_clip1)"><rect x="4.039" y="0" width="2083.33" height="2083.33" style="fill:#fff;"/><g><g><g><g><path d="M854.719,894.824c0,-0 6.292,-16.828 21.589,-24.261c10.201,-5.896 19.387,-13.513 24.212,-20.777c-0,-0 2.169,5.413 2.135,9.855c-0.034,4.441 -4.735,18.515 -16.233,20.315c-11.409,3.132 -25.484,6.121 -31.703,14.868Z" style="fill:#857100;"/><path d="M898.68,848.176c0,-0 -44.648,-12.347 -45.531,46.282c-0,-0 7.272,-19.442 22.45,-26.488c6.956,-3.228 14.053,-8.377 23.081,-19.794Z" style="fill:#857100;"/></g><g><path d="M780.459,918.714c-0,-0 -0.511,-26.227 16.255,-44.544c10.675,-13.49 19.047,-28.772 21.689,-41.227c0,-0 5.857,6.181 8.199,12.229c2.343,6.047 3.533,27.679 -11.107,36.307c-13.802,10.388 -31.299,22.016 -35.036,37.235Z" style="fill:#857100;"/><path d="M815.04,831.747c0,-0 -67.246,7.257 -36.91,87.314c-0,0 -0.586,-30.302 16.227,-48.03c7.705,-8.124 14.57,-18.93 20.683,-39.284Z" style="fill:#857100;"/></g><g><path d="M678.718,920.041c0,0 7.703,-27.815 31.137,-41.863c15.495,-10.87 29.125,-24.354 35.825,-36.658c-0,0 4.233,8.359 4.803,15.472c0.57,7.113 -4.972,30.297 -23.121,34.795c-17.818,6.617 -39.921,13.381 -48.644,28.254Z" style="fill:#857100;"/><path d="M742.509,839.203c0,-0 -73.189,-13.478 -66.356,80.473c0,0 8.903,-32.137 32.203,-45.548c10.677,-6.145 21.312,-15.383 34.153,-34.925Z" style="fill:#857100;"/></g><g><path d="M556.972,875.072c-0,0 22.19,-27.981 55.667,-32.687c22.9,-4.915 44.933,-13.706 58.5,-24.496c0,0 0.793,11.566 -1.987,19.946c-2.781,8.38 -20.276,32.126 -43.125,28.499c-23.495,-1.052 -51.944,-4.004 -69.055,8.738Z" style="fill:#857100;"/><path d="M668.644,813.719c0,0 -76.899,-50.652 -114.419,59.7c-0,-0 25.643,-32.327 58.659,-36.372c15.131,-1.854 31.703,-7.252 55.76,-23.328Z" style="fill:#857100;"/></g><g><path d="M603.722,677.086c0,-0 17.351,41.288 56.193,58.278c25.997,13.669 49.639,31.728 62.381,49.341c-0,0 4.863,-13.701 4.335,-24.761c-0.528,-11.06 -13.638,-45.647 -42.459,-48.984c-28.731,-6.664 -64.087,-12.706 -80.45,-33.874Z" style="fill:#857100;"/><path d="M717.874,788.898c0,0 -109.982,35.205 -118.028,-110.743c0,-0 20.053,47.702 58.563,63.739c17.647,7.349 35.84,19.464 59.465,47.004Z" style="fill:#857100;"/></g><g><path d="M521.739,739.038c0,-0 18.41,20.749 44.575,22.964c17.97,2.829 35.435,8.703 46.42,16.489c-0,-0 0.118,-9.004 -2.397,-15.384c-2.516,-6.38 -17.103,-24.046 -34.668,-20.253c-18.176,1.823 -40.112,5.332 -53.93,-3.816Z" style="fill:#857100;"/><path d="M610.977,781.832c0,-0 -57.467,42.58 -91.297,-41.394c-0,0 21.273,23.971 47.053,25.693c11.814,0.789 24.898,4.265 44.244,15.701Z" style="fill:#857100;"/></g><g><path d="M541.034,591.452c0,-0 8.629,26.362 31.75,38.809c15.358,9.749 29.042,22.09 36.019,33.605c0,0 3.694,-8.213 3.925,-15.066c0.232,-6.854 -6.117,-28.867 -23.74,-32.38c-17.399,-5.563 -38.92,-11.076 -47.954,-24.968Z" style="fill:#857100;"/><path d="M605.862,666.232c0,-0 -69.668,16.185 -67.274,-74.316c-0,0 9.973,30.459 32.936,42.3c10.524,5.427 21.143,13.823 34.338,32.016Z" style="fill:#857100;"/></g><g><path d="M637.706,496.055c0,-0 -3.047,57.009 32.068,98.091c22.225,30.131 39.308,63.99 44.135,91.278c0,-0 13.196,-13.014 18.737,-25.995c5.542,-12.981 9.728,-59.947 -21.479,-79.795c-29.256,-23.615 -66.456,-50.2 -73.461,-83.579Z" style="fill:#857100;"/><path d="M706.506,687.777c-0,-0 -145.738,-20.75 -73.84,-192.65c-0,-0 -3.513,65.869 31.751,105.672c16.16,18.24 30.295,42.252 42.089,86.978Z" style="fill:#857100;"/></g><g><path d="M845.819,510.677c-0,-0 4.746,38.718 -17.268,68.365c-13.739,21.58 -23.798,45.46 -25.811,64.287c0,-0 -9.604,-8.254 -13.989,-16.843c-4.386,-8.589 -9.438,-40.407 10.906,-55.398c18.836,-17.467 42.95,-37.33 46.162,-60.411Z" style="fill:#857100;"/><path d="M807.897,644.586c-0,0 98.371,-20.967 41.314,-134.778c0,0 5.478,44.736 -16.696,73.519c-10.162,13.19 -18.673,30.219 -24.618,61.259Z" style="fill:#857100;"/></g><g><path d="M829.283,638.609c-0,0 -2.989,24.388 10.876,43.063c8.654,13.592 14.99,28.634 16.258,40.492c0,0 6.05,-5.199 8.812,-10.609c2.762,-5.41 5.944,-25.452 -6.87,-34.894c-11.864,-11.002 -27.053,-23.513 -29.076,-38.052Z" style="fill:#857100;"/><path d="M853.169,722.956c0,-0 -61.962,-13.207 -26.023,-84.894c0,0 -3.45,28.179 10.517,46.308c6.4,8.308 11.761,19.035 15.506,38.586Z" style="fill:#857100;"/></g><g><path d="M994.108,554.516c0,-0 -14.209,36.328 -47.66,51.966c-22.339,12.468 -42.531,28.707 -53.243,44.32c0,-0 -4.533,-11.824 -4.313,-21.466c0.219,-9.641 10.882,-40.043 35.904,-43.575c24.872,-6.427 55.525,-12.458 69.312,-31.245Z" style="fill:#857100;"/><path d="M897.147,654.357c-0,-0 96.529,28.26 100.359,-98.995c0,0 -16.422,41.972 -49.604,56.773c-15.207,6.783 -30.783,17.728 -50.755,42.222Z" style="fill:#857100;"/></g><g><path d="M1002.75,399.176c-0,0 -6.162,49.604 -42.759,79.597c-23.8,22.543 -43.742,49.091 -52.109,71.865c0,-0 -9.366,-13.251 -12.141,-25.293c-2.775,-12.042 0.857,-53.165 30.813,-65.46c28.854,-15.843 65.013,-33.02 76.196,-60.709Z" style="fill:#857100;"/><path d="M913.895,553.807c0,-0 128.803,4.583 93.337,-154.653c0,-0 -7.127,57.311 -43.654,86.179c-16.74,13.229 -32.623,31.745 -49.683,68.474Z" style="fill:#857100;"/></g><g><path d="M1049.04,525.906c0,0 3.69,23.695 -9.243,42.351c-8.011,13.533 -13.715,28.407 -14.575,40.014c-0,0 -6.066,-4.879 -8.932,-10.069c-2.866,-5.189 -6.606,-24.639 5.594,-34.255c11.225,-11.109 25.644,-23.795 27.156,-38.041Z" style="fill:#857100;"/><path d="M1028.41,608.941c0,-0 60.023,-14.848 22.693,-83.636c-0,0 4.259,27.377 -8.79,45.505c-5.98,8.307 -10.87,18.94 -13.903,38.131Z" style="fill:#857100;"/></g><g><path d="M1006.96,610.303c0,-0 -2.077,13.343 5.206,23.848c4.51,7.621 7.722,15.996 8.207,22.532c-0,0 3.416,-2.747 5.029,-5.67c1.614,-2.922 3.72,-13.874 -3.15,-19.289c-6.321,-6.256 -14.44,-13.399 -15.292,-21.421Z" style="fill:#857100;"/><path d="M1018.58,657.06c-0,0 -33.8,-8.36 -12.779,-47.096c0,0 -2.398,15.417 4.95,25.624c3.367,4.678 6.121,10.666 7.829,21.472Z" style="fill:#857100;"/></g><g><path d="M1037.65,314.731c0,-0 -21.428,10.764 -29.098,32.129c-6.36,14.383 -15.151,27.667 -24.099,35.112c0,-0 7.496,2.102 13.385,1.419c5.889,-0.683 23.891,-8.939 24.63,-24.456c2.519,-15.59 4.466,-34.696 15.182,-44.204Z" style="fill:#857100;"/><path d="M982.057,379.762c-0,-0 -22.79,-57.479 54.886,-67.063c-0,-0 -24.757,12.44 -31.929,33.593c-3.287,9.694 -9.101,19.851 -22.957,33.47Z" style="fill:#857100;"/></g><g><path d="M890.46,205.009c-0,-0 25.487,60.611 3.409,118.807c-12.366,41.311 -17.707,84.661 -12.321,116.118c0,0 -19.368,-8.972 -30.427,-20.887c-11.058,-11.914 -33.872,-61.195 -7.767,-94.854c22.523,-36.982 52.502,-80.276 47.106,-119.184Z" style="fill:#857100;"/><path d="M890.489,439.604c-0,-0 149.901,-79.204 5.074,-237.563c-0,0 29.439,70.035 6.703,126.902c-10.419,26.061 -16.397,57.589 -11.777,110.661Z" style="fill:#857100;"/></g><g><path d="M806.396,256.266c-0,0 -24.12,29.501 -21.408,65.471c0.088,24.99 -4.063,49.96 -12.223,66.559c-0,-0 12.238,-1.806 20.341,-6.611c8.103,-4.806 28.876,-28.448 19.895,-51.442c-6.443,-24.253 -15.994,-53.239 -6.605,-73.977Z" style="fill:#857100;"/><path d="M767.85,386.644c0,-0 -70.303,-68.64 36.197,-132.865c0,-0 -27.864,34.088 -24.568,69.428c1.511,16.195 -0.345,34.7 -11.629,63.437Z" style="fill:#857100;"/></g><g><path d="M1238.49,254.191c0,0 34.776,15.578 48.457,48.955c11.112,22.384 26.004,42.853 40.733,54.041c-0,-0 -11.751,3.865 -21.148,3.196c-9.397,-0.668 -38.558,-12.507 -40.824,-37.088c-5.098,-24.571 -9.537,-54.765 -27.218,-69.104Z" style="fill:#857100;"/><path d="M1331.34,353.509c0,-0 32.128,-92.854 -91.858,-102.593c0,-0 40.179,18.003 53.055,51.078c5.901,15.157 15.846,30.872 38.803,51.515Z" style="fill:#857100;"/></g><g><path d="M1490.02,443.721c0,-0 -8.884,30.384 -34.805,45.421c-17.164,11.678 -32.324,26.251 -39.865,39.639c0,0 -4.511,-9.233 -5.024,-17.043c-0.513,-7.809 5.929,-33.148 25.903,-37.795c19.645,-6.977 43.992,-14.047 53.791,-30.222Z" style="fill:#857100;"/><path d="M1418.79,531.373c-0,-0 80.054,15.931 74.037,-87.211c-0,-0 -10.269,35.104 -36.033,49.445c-11.806,6.572 -23.614,16.536 -38.004,37.766Z" style="fill:#857100;"/></g></g><g><path d="M635.229,328.193c-0,-0 23.765,75.209 89.144,111.273c43.386,28.166 81.934,63.653 101.438,96.597c-0,-0 10.74,-23.244 11.599,-42.725c0.858,-19.481 -16.553,-82.255 -66.559,-92.756c-49.311,-16.323 -110.341,-32.625 -135.622,-72.389Z" style="fill:#857100;"/><path d="M817.38,542.703c-0,0 -198.561,43.993 -189.121,-213.261c-0,0 27.47,86.894 92.418,121.231c29.764,15.736 59.713,39.92 96.703,92.03Z" style="fill:#857100;"/></g></g><g><g><g><path d="M1228.61,894.824c0,-0 -6.292,-16.828 -21.588,-24.261c-10.201,-5.896 -19.388,-13.513 -24.213,-20.777c0,-0 -2.169,5.413 -2.134,9.855c0.034,4.441 4.734,18.515 16.232,20.315c11.409,3.132 25.484,6.121 31.703,14.868Z" style="fill:#857100;"/><path d="M1184.65,848.176c0,-0 44.648,-12.347 45.532,46.282c-0,-0 -7.273,-19.442 -22.451,-26.488c-6.956,-3.228 -14.053,-8.377 -23.081,-19.794Z" style="fill:#857100;"/></g><g><path d="M1302.88,918.714c-0,-0 0.51,-26.227 -16.255,-44.544c-10.676,-13.49 -19.048,-28.772 -21.69,-41.227c0,-0 -5.856,6.181 -8.199,12.229c-2.342,6.047 -3.533,27.679 11.108,36.307c13.802,10.388 31.299,22.016 35.036,37.235Z" style="fill:#857100;"/><path d="M1268.29,831.747c0,-0 67.247,7.257 36.911,87.314c-0,0 0.586,-30.302 -16.228,-48.03c-7.705,-8.124 -14.57,-18.93 -20.683,-39.284Z" style="fill:#857100;"/></g><g><path d="M1404.62,920.041c-0,0 -7.702,-27.815 -31.136,-41.863c-15.496,-10.87 -29.126,-24.354 -35.825,-36.658c-0,0 -4.234,8.359 -4.804,15.472c-0.57,7.113 4.972,30.297 23.121,34.795c17.818,6.617 39.922,13.381 48.644,28.254Z" style="fill:#857100;"/><path d="M1340.82,839.203c0,-0 73.19,-13.478 66.356,80.473c0,0 -8.903,-32.137 -32.203,-45.548c-10.677,-6.145 -21.311,-15.383 -34.153,-34.925Z" style="fill:#857100;"/></g><g><path d="M1526.36,875.072c0,0 -22.19,-27.981 -55.667,-32.687c-22.899,-4.915 -44.933,-13.706 -58.5,-24.496c-0,0 -0.793,11.566 1.988,19.946c2.78,8.38 20.276,32.126 43.125,28.499c23.494,-1.052 51.943,-4.004 69.054,8.738Z" style="fill:#857100;"/><path d="M1414.69,813.719c-0,0 76.9,-50.652 114.419,59.7c0,-0 -25.642,-32.327 -58.659,-36.372c-15.131,-1.854 -31.703,-7.252 -55.76,-23.328Z" style="fill:#857100;"/></g><g><path d="M1479.61,677.086c0,-0 -17.35,41.288 -56.193,58.278c-25.997,13.669 -49.639,31.728 -62.381,49.341c0,0 -4.863,-13.701 -4.335,-24.761c0.528,-11.06 13.639,-45.647 42.459,-48.984c28.731,-6.664 64.087,-12.706 80.45,-33.874Z" style="fill:#857100;"/><path d="M1365.46,788.898c0,0 109.982,35.205 118.028,-110.743c0,-0 -20.053,47.702 -58.562,63.739c-17.648,7.349 -35.84,19.464 -59.466,47.004Z" style="fill:#857100;"/></g><g><path d="M1561.59,739.038c-0,-0 -18.409,20.749 -44.574,22.964c-17.97,2.829 -35.436,8.703 -46.42,16.489c-0,-0 -0.119,-9.004 2.397,-15.384c2.515,-6.38 17.102,-24.046 34.667,-20.253c18.176,1.823 40.113,5.332 53.93,-3.816Z" style="fill:#857100;"/><path d="M1472.36,781.832c0,-0 57.468,42.58 91.297,-41.394c0,0 -21.273,23.971 -47.052,25.693c-11.814,0.789 -24.898,4.265 -44.245,15.701Z" style="fill:#857100;"/></g><g><path d="M1529.24,583.077c0,-0 -0.252,27.738 -18.526,46.594c-11.691,13.937 -21.002,29.838 -24.171,42.924c0,-0 -6.004,-6.711 -8.297,-13.174c-2.294,-6.463 -2.899,-29.365 12.836,-38.043c14.903,-10.564 33.749,-22.327 38.158,-38.301Z" style="fill:#857100;"/><path d="M1490.06,673.96c-0,0 71.301,-5.641 41.651,-91.18c-0,-0 -0.295,32.048 -18.603,50.279c-8.389,8.355 -15.972,19.57 -23.048,40.901Z" style="fill:#857100;"/></g><g><path d="M1498.84,523.556c0,-0 -24.083,51.763 -74.378,71.541c-33.772,16.164 -64.756,38.034 -81.832,59.859c-0,-0 -5.538,-17.687 -4.334,-31.75c1.203,-14.063 19.564,-57.494 56.437,-60.36c36.919,-7.11 82.247,-13.11 104.107,-39.29Z" style="fill:#857100;"/><path d="M1348.06,660.51c0,-0 138.411,50.123 155.665,-135.406c0,-0 -27.833,59.803 -77.658,78.383c-22.834,8.514 -46.59,23.075 -78.007,57.023Z" style="fill:#857100;"/></g><g><path d="M1217.44,520.169c0,-0 7.393,38.301 37.458,59.741c19.71,16.308 36.627,35.936 44.333,53.231c-0,0 6.6,-10.807 8.131,-20.329c1.531,-9.521 -3.449,-41.352 -27.417,-49.358c-23.296,-10.827 -52.349,-22.311 -62.505,-43.285Z" style="fill:#857100;"/><path d="M1294.71,635.923c-0,0 -100.052,10.306 -80.766,-115.537c-0,-0 8.547,44.252 38.499,64.819c13.726,9.426 27.062,23.012 42.267,50.718Z" style="fill:#857100;"/></g><g><path d="M1268.31,638.913c0,0 1.745,24.819 -13.256,42.976c-9.464,13.292 -16.66,28.17 -18.564,40.096c0,-0 -5.845,-5.574 -8.355,-11.19c-2.509,-5.616 -4.676,-26.05 8.777,-34.927c12.575,-10.503 28.59,-22.359 31.398,-36.955Z" style="fill:#857100;"/><path d="M1239.73,722.956c0,-0 63.351,-10.106 30.767,-84.484c-0,-0 2.012,28.676 -13.063,46.277c-6.908,8.066 -12.892,18.632 -17.704,38.207Z" style="fill:#857100;"/></g><g><path d="M1092.61,561.041c-0,0 14.209,36.329 47.66,51.967c22.338,12.468 42.531,28.707 53.242,44.32c0,-0 4.533,-11.824 4.314,-21.466c-0.219,-9.641 -10.882,-40.043 -35.904,-43.575c-24.872,-6.427 -55.525,-12.458 -69.312,-31.246Z" style="fill:#857100;"/><path d="M1189.57,660.883c0,-0 -96.529,28.26 -100.359,-98.995c-0,0 16.422,41.972 49.604,56.773c15.206,6.783 30.783,17.728 50.755,42.222Z" style="fill:#857100;"/></g><g><path d="M1080.59,399.176c-0,0 6.162,49.604 42.759,79.597c23.799,22.543 43.741,49.091 52.108,71.865c-0,-0 9.366,-13.251 12.141,-25.293c2.776,-12.042 -0.857,-53.165 -30.813,-65.46c-28.854,-15.843 -65.013,-33.02 -76.195,-60.709Z" style="fill:#857100;"/><path d="M1169.44,553.807c-0,-0 -128.803,4.583 -93.337,-154.653c0,-0 7.127,57.311 43.654,86.179c16.74,13.229 32.624,31.745 49.683,68.474Z" style="fill:#857100;"/></g><g><path d="M1037.23,434.351c-0,0 -3.79,18.167 5.468,33.097c5.655,10.776 9.475,22.497 9.68,31.503c0,-0 4.882,-3.531 7.302,-7.429c2.421,-3.898 6.081,-18.781 -2.968,-26.696c-8.235,-9.03 -18.877,-19.405 -19.482,-30.475Z" style="fill:#857100;"/><path d="M1049.88,499.341c-0,0 -45.802,-13.85 -14.228,-65.537c-0,0 -4.376,20.991 4.992,35.517c4.293,6.657 7.651,15.069 9.236,30.02Z" style="fill:#857100;"/></g><g><path d="M1091.89,307.377c0,-0 -16.743,17.167 -17.021,39.866c-1.319,15.671 -5.295,31.096 -11.323,41.053c-0,-0 7.771,-0.459 13.115,-3.026c5.344,-2.567 19.667,-16.246 15.302,-31.155c-2.706,-15.558 -7.1,-34.254 -0.073,-46.738Z" style="fill:#857100;"/><path d="M1060.56,386.99c-0,-0 -40.298,-46.896 29.998,-81.302c0,0 -19.342,19.838 -19.219,42.173c0.056,10.236 -2.125,21.734 -10.779,39.129Z" style="fill:#857100;"/></g><g><path d="M1192.87,205.009c0,-0 -25.487,60.611 -3.409,118.807c12.366,41.311 17.708,84.661 12.321,116.118c0,0 19.368,-8.972 30.427,-20.887c11.059,-11.914 33.872,-61.195 7.767,-94.854c-22.522,-36.982 -52.502,-80.276 -47.106,-119.184Z" style="fill:#857100;"/><path d="M1192.85,439.604c-0,-0 -149.902,-79.204 -5.074,-237.563c-0,0 -29.44,70.035 -6.704,126.902c10.419,26.061 16.398,57.589 11.778,110.661Z" style="fill:#857100;"/></g><g><path d="M1075.8,190.219c0,0 12.224,29.071 1.635,56.983c-5.931,19.813 -8.493,40.605 -5.909,55.693c-0,-0 -9.289,-4.304 -14.593,-10.018c-5.304,-5.715 -16.246,-29.351 -3.726,-45.494c10.803,-17.738 25.181,-38.502 22.593,-57.164Z" style="fill:#857100;"/><path d="M1075.82,302.736c-0,-0 71.896,-37.988 2.434,-113.94c-0,-0 14.119,33.59 3.215,60.865c-4.998,12.499 -7.865,27.621 -5.649,53.075Z" style="fill:#857100;"/></g><g><path d="M991.542,132.628c0,-0 -17.685,42.057 -2.366,82.437c8.581,28.664 12.287,58.744 8.55,80.572c-0,-0 13.439,-6.226 21.112,-14.493c7.673,-8.268 23.503,-42.463 5.39,-65.817c-15.628,-25.662 -36.43,-55.702 -32.686,-82.699Z" style="fill:#857100;"/><path d="M991.522,295.407c0,0 -104.013,-54.957 -3.521,-164.838c0,-0 -20.427,48.595 -4.651,88.054c7.23,18.082 11.378,39.959 8.172,76.784Z" style="fill:#857100;"/></g></g><g><path d="M1408.45,294.658c-0,-0 -5.678,78.67 -60.911,128.911c-35.672,37.46 -64.94,80.918 -76.273,117.487c-0,0 -15.838,-20.119 -21.19,-38.87c-5.353,-18.751 -2.973,-83.851 43.235,-105.663c44.182,-27.312 99.768,-57.322 115.139,-101.865Z" style="fill:#857100;"/><path d="M1281,545.561c0,-0 203.35,-3.251 134.512,-251.304c0,0 -6.571,90.895 -61.786,139.358c-25.304,22.209 -48.829,52.678 -72.726,111.946Z" style="fill:#857100;"/></g></g><path d="M1166.53,1168.41c0,-0 59.86,68.771 11.489,131.806c-0,-0 38.079,-86.722 -68.955,-131.806l-139.447,-0c-107.034,45.084 -64.812,113.162 -64.812,113.162c-48.371,-63.034 7.346,-113.162 7.346,-113.162l-0.101,-0c-107.034,18.689 -60.926,50.844 -60.926,50.844c-48.371,-26.13 3.46,-50.844 3.46,-50.844l-19.697,-0c-68.034,32.752 -43.83,87.976 -43.83,87.976c-30.746,-45.792 7.303,-87.976 7.303,-87.976l-0.444,-0c0,-0 28.884,-41.261 59.339,-31.962c-0,-0 45.478,-28.878 73.493,-24.676c4.895,0.734 11.441,-1.552 19.128,-5.53c31.184,-47.326 63.333,-122.779 27.899,-203.081l0.019,-0.017c-0.73,-0.92 -82.073,-103.062 -164.625,-78.519c0,-0 -73.96,19.854 -126.628,-14.166c-0,-0 85.166,20.889 127.749,-18.332c25.516,-2.069 43.817,0.106 64.565,8.353c-25.077,-12.74 -65.757,-34.517 -74.905,-46.105c-13.448,-17.033 -51.1,-37.652 -81.581,-40.342c0,0 32.165,-6.411 78.969,16.241c-27.035,-26.788 -45.026,-59.618 -39.336,-98.183c-0,-0 36.243,118.299 155.566,117.699c10.521,4.948 19.33,8.955 26.654,12.155c-4.357,-23.369 -25.86,-63.824 -79.403,-87.238c-0,0 124.627,11.914 137.935,80.409c0,0 0.799,-57.188 24.886,-73.035c24.088,-15.848 40.446,-32.34 42.282,-82.032c-0,0 28.21,47.495 18.779,80.448c-4.79,16.735 4.87,41.386 18.816,52.796c3.292,2.694 6.967,3.161 10.726,2.362c22.672,-55.837 108.347,-60.948 108.347,-60.948c-47.948,20.967 -70.202,55.6 -77.457,79.389c-0.138,2.482 -0.291,4.906 -0.45,7.193c7.02,-3.086 15.344,-6.883 25.158,-11.499c119.323,0.6 155.566,-117.699 155.566,-117.699c5.69,38.565 -12.301,71.395 -39.337,98.183c46.805,-22.652 78.97,-16.241 78.97,-16.241c-30.481,2.69 -68.133,23.309 -81.581,40.342c-9.148,11.588 -49.828,33.365 -74.905,46.105c20.748,-8.247 39.049,-10.422 64.565,-8.353c42.583,39.221 127.749,18.332 127.749,18.332c-52.668,34.02 -126.628,14.166 -126.628,14.166c-82.552,-24.543 -163.895,77.599 -164.625,78.519l0.019,0.017c-35.434,80.302 -3.285,155.755 27.898,203.081c7.688,3.978 14.234,6.264 19.128,5.53c28.016,-4.202 73.494,24.676 73.494,24.676c30.455,-9.299 46.148,31.962 46.148,31.962l0.02,-0c-0,-0 38.048,42.184 7.302,87.976c0,0 24.204,-55.224 -43.829,-87.976l-19.698,-0c0,-0 58.294,39.773 9.923,65.903c-0,-0 39.645,-47.214 -67.389,-65.903l-0.101,-0Zm-58.901,-0c-0,-0 43.802,41.573 -15.943,65.903c-0,-0 56.144,-62.158 -41.523,-65.903l57.466,-0Zm-138.012,-0c-0,-0 -16.157,47.602 15.525,65.903c-0,-0 -17.343,-65.903 41.646,-65.903l-57.171,-0Z" style="fill:#185000;"/></g><path d="M796.274,1446.89l-0,-56.702l-3.402,0c-1.512,32.005 -11.341,53.3 -49.898,53.3l-33.391,-0l0,-182.202l22.555,0l-0,-3.402l-75.224,-0l-0,3.402l22.554,0l0,182.202l-22.554,-0l-0,3.402l139.36,-0Z" style="fill:#757575;fill-rule:nonzero;"/><path d="M913.332,1412.49l-3.78,-0c-6.301,18.774 -21.799,32.761 -44.984,32.761c-25.327,-0 -31.249,-27.091 -31.249,-57.332c0,-2.268 0,-4.662 0.126,-6.93l78.753,-0c-0,-27.469 -15.121,-52.544 -52.166,-52.544c-33.643,0 -57.962,22.177 -57.962,60.482c0,38.305 25.579,60.482 59.222,60.482c28.603,-0 45.487,-15.877 52.04,-36.919Zm-53.3,-80.643c19.279,0 21.295,26.839 21.295,45.74l-47.756,-0c1.26,-24.571 7.686,-45.74 26.461,-45.74Z" style="fill:#757575;fill-rule:nonzero;"/><path d="M926.688,1429.62c0,12.349 9.702,18.901 25.327,21.169c-12.223,1.134 -33.391,8.19 -33.391,28.351c-0,23.437 26.965,33.265 57.206,33.265c30.493,-0 58.465,-13.231 58.465,-44.857c0,-34.148 -22.806,-39.944 -41.707,-39.944c-7.182,0 -13.86,0.252 -22.681,0.252c-13.734,0 -23.562,-0.756 -23.562,-8.694c-0,-7.686 11.34,-12.348 21.168,-13.734c1.764,0.126 3.402,0.252 5.04,0.252c21.673,-0 46.622,-10.837 46.622,-38.684c-0,-8.82 -2.52,-15.876 -6.678,-21.42c6.804,-9.577 16.254,-12.601 23.436,-12.601c6.931,0 12.097,2.898 15.247,6.93c-2.394,-1.134 -5.166,-1.764 -7.686,-1.764c-6.804,0 -13.987,3.781 -13.987,12.979c0,9.072 6.931,13.986 13.987,13.986c7.056,0 14.616,-3.654 14.616,-15.12c0,-10.081 -8.568,-20.287 -22.429,-20.287c-7.56,0 -18.018,3.276 -25.2,13.357c-9.199,-10.207 -24.193,-14.491 -37.928,-14.491c-21.672,0 -47.629,10.584 -47.629,38.431c-0,21.799 15.75,33.139 33.013,37.046c-17.263,2.898 -31.249,10.962 -31.249,25.578Zm26.839,-62.624c-0,-19.404 5.922,-35.029 19.026,-35.029c13.105,0 18.901,15.625 18.901,35.029c0,18.901 -5.796,35.155 -18.901,35.155c-17.388,0 -19.026,-16.254 -19.026,-35.155Zm-8.82,109.12c-0,-11.089 3.15,-19.405 12.096,-24.823c3.024,0.252 6.174,0.378 9.45,0.378l28.729,0c16.381,0 30.997,7.56 30.997,23.059c0,21.546 -21.421,33.769 -45.613,33.769c-24.067,-0 -35.659,-16.129 -35.659,-32.383Z" style="fill:#757575;fill-rule:nonzero;"/><path d="M1114.69,1382.63c-35.785,-0 -55.82,13.23 -55.82,35.659c0,19.153 14.113,31.123 35.911,31.123c19.783,-0 32.257,-11.34 36.919,-29.989l0,7.938c0,16.633 11.215,22.051 24.823,22.051c13.105,-0 23.311,-6.048 27.973,-15.247l-1.89,-2.646c-3.528,7.309 -10.584,11.593 -15.246,11.593c-6.553,-0 -8.317,-4.536 -8.317,-10.207l0,-62.75c0,-21.672 -8.946,-41.203 -45.109,-41.203c-22.933,0 -46.244,9.324 -46.244,26.209c0,9.828 7.057,15.372 16.255,15.372c8.442,0 16.885,-5.04 16.885,-15.876c-0,-9.576 -8.191,-14.869 -16.885,-14.869c-1.008,0 -1.89,0.126 -2.772,0.252c7.434,-5.04 18.396,-7.434 27.469,-7.434c20.16,0 23.058,19.405 23.058,37.549l0,12.475l-17.01,-0Zm-8.694,58.466c-12.097,-0 -16.759,-12.853 -16.759,-25.201c0,-13.231 7.812,-30.367 28.729,-30.367l13.734,-0l0,15.498c0,27.469 -12.726,40.07 -25.704,40.07Z" style="fill:#757575;fill-rule:nonzero;"/><path d="M1287.18,1412.49l-3.654,-0c-6.552,18.648 -18.396,32.131 -39.187,32.131c-24.949,-0 -30.997,-26.839 -30.997,-55.694c0,-23.689 4.536,-56.576 31.879,-56.576c12.222,0 25.579,5.544 32.257,15.247c-2.394,-1.386 -5.292,-2.016 -8.316,-2.016c-8.946,-0 -16.885,5.67 -16.885,15.75c0,11.341 9.325,16.255 16.885,16.255c8.946,-0 16.128,-6.175 16.128,-16.507c0,-17.514 -17.388,-32.635 -44.605,-32.635c-38.557,0 -59.852,26.461 -59.852,60.482c0,39.061 25.453,60.482 58.97,60.482c26.713,-0 40.825,-15.499 47.377,-36.919Z" style="fill:#757575;fill-rule:nonzero;"/><path d="M1351.83,1334.37l0,-3.402l-66.53,0l0,3.402l13.231,0l56.954,115.42l-19.783,45.613c-1.134,-8.568 -8.442,-14.49 -16.255,-14.49c-9.324,-0 -16.506,6.804 -16.506,16.38c-0,10.837 8.946,15.751 16.506,15.751c10.459,-0 15.499,-6.804 20.287,-17.263l70.184,-161.411l16.507,0l-0,-3.402l-42.464,0l0,3.402l21.925,0l-35.533,81.399l-39.943,-81.399l21.42,0Z" style="fill:#757575;fill-rule:nonzero;"/><path d="M796.274,1673.88l-0,-56.702l-3.402,0c-1.512,32.005 -11.341,53.3 -49.898,53.3l-33.391,-0l0,-182.202l22.555,-0l-0,-3.402l-75.224,-0l-0,3.402l22.554,-0l0,182.202l-22.554,-0l-0,3.402l139.36,-0Z" style="fill:#757575;fill-rule:nonzero;"/><path d="M913.332,1639.48l-3.78,-0c-6.301,18.774 -21.799,32.761 -44.984,32.761c-25.327,-0 -31.249,-27.091 -31.249,-57.332c0,-2.268 0,-4.662 0.126,-6.93l78.753,-0c-0,-27.469 -15.121,-52.544 -52.166,-52.544c-33.643,0 -57.962,22.177 -57.962,60.482c0,38.305 25.579,60.482 59.222,60.482c28.603,-0 45.487,-15.877 52.04,-36.919Zm-53.3,-80.643c19.279,0 21.295,26.839 21.295,45.74l-47.756,-0c1.26,-24.571 7.686,-45.74 26.461,-45.74Z" style="fill:#757575;fill-rule:nonzero;"/><path d="M977.72,1609.62c-35.785,-0 -55.82,13.23 -55.82,35.659c-0,19.153 14.112,31.123 35.911,31.123c19.783,-0 32.257,-11.34 36.919,-29.989l0,7.938c0,16.633 11.215,22.051 24.823,22.051c13.104,-0 23.311,-6.048 27.973,-15.247l-1.89,-2.646c-3.528,7.309 -10.585,11.593 -15.247,11.593c-6.552,-0 -8.316,-4.536 -8.316,-10.207l0,-62.75c0,-21.672 -8.946,-41.203 -45.109,-41.203c-22.933,0 -46.244,9.324 -46.244,26.209c0,9.828 7.056,15.372 16.255,15.372c8.442,0 16.884,-5.04 16.884,-15.876c0,-9.576 -8.19,-14.869 -16.884,-14.869c-1.008,0 -1.89,0.126 -2.772,0.252c7.434,-5.04 18.396,-7.434 27.468,-7.434c20.161,0 23.059,19.405 23.059,37.549l0,12.475l-17.01,-0Zm-8.695,58.466c-12.096,-0 -16.758,-12.853 -16.758,-25.201c-0,-13.231 7.812,-30.367 28.729,-30.367l13.734,-0l0,15.498c0,27.469 -12.726,40.07 -25.705,40.07Z" style="fill:#757575;fill-rule:nonzero;"/><path d="M1180.33,1670.48l-16.254,-0l-0,-185.604l-44.228,-0l0,3.402l16.381,-0l-0,103.953c-5.545,-22.554 -19.657,-36.667 -39.692,-36.667c-26.964,0 -52.669,22.681 -52.669,60.482c-0,37.801 25.705,60.23 52.669,60.23c20.035,-0 34.147,-13.987 39.692,-36.541l-0,34.147l44.101,-0l0,-3.402Zm-44.101,-54.434c-0,35.659 -16.255,54.686 -33.895,54.686c-17.893,-0 -26.713,-20.035 -26.713,-54.686c-0,-34.651 8.82,-54.938 26.713,-54.938c17.64,0 33.895,19.153 33.895,54.938Z" style="fill:#757575;fill-rule:nonzero;"/><path d="M1294.37,1639.48l-3.781,-0c-6.3,18.774 -21.798,32.761 -44.983,32.761c-25.327,-0 -31.249,-27.091 -31.249,-57.332c0,-2.268 0,-4.662 0.126,-6.93l78.753,-0c-0,-27.469 -15.121,-52.544 -52.166,-52.544c-33.643,0 -57.962,22.177 -57.962,60.482c0,38.305 25.579,60.482 59.222,60.482c28.603,-0 45.487,-15.877 52.04,-36.919Zm-53.3,-80.643c19.279,0 21.295,26.839 21.295,45.74l-47.756,-0c1.26,-24.571 7.686,-45.74 26.461,-45.74Z" style="fill:#757575;fill-rule:nonzero;"/><path d="M1296.13,1670.48l-0,3.402l61.616,-0l-0,-3.402l-17.893,-0l0,-51.158c0,-30.871 11.34,-60.356 34.021,-60.356c6.048,0 11.088,2.016 14.743,5.292c-2.268,-1.008 -4.789,-1.512 -7.435,-1.512c-9.198,0 -17.262,6.301 -17.262,17.011c-0,8.82 6.93,15.75 17.388,15.75c10.333,0 17.011,-8.064 17.011,-17.892c-0,-11.467 -8.82,-22.177 -24.067,-22.177c-19.782,0 -30.367,17.767 -34.399,39.943l0,-37.423l-43.723,0l-0,3.402l16.38,0l0,109.12l-16.38,-0Z" style="fill:#757575;fill-rule:nonzero;"/><path d="M760.741,1816.05l-0,3.781l26.461,-0l-0,38.431c-3.024,7.56 -12.097,30.619 -39.314,30.619c-40.069,-0 -49.897,-47.756 -49.897,-93.621c-0,-45.866 15.12,-92.613 56.45,-92.613c28.855,-0 53.929,22.429 56.575,51.283l3.529,0l-0,-53.173l-3.025,-0l-17.766,13.104c-11.34,-9.702 -26.335,-15.624 -42.085,-15.624c-51.158,-0 -88.707,39.817 -88.707,97.023c-0,57.206 30.997,97.023 84.926,97.023c41.078,-0 60.608,-26.713 71.823,-43.094l-0,-29.358l14.112,-0l0,-3.781l-73.082,0Z" style="fill:#757575;fill-rule:nonzero;"/><path d="M833.193,1886.36l0,3.402l61.616,-0l0,-3.402l-17.893,-0l0,-51.158c0,-30.871 11.341,-60.356 34.022,-60.356c6.048,0 11.088,2.016 14.742,5.292c-2.268,-1.008 -4.788,-1.512 -7.434,-1.512c-9.199,0 -17.263,6.3 -17.263,17.011c0,8.82 6.93,15.75 17.389,15.75c10.332,0 17.01,-8.064 17.01,-17.892c0,-11.467 -8.82,-22.177 -24.066,-22.177c-19.783,0 -30.367,17.767 -34.4,39.943l0,-37.423l-43.723,0l0,3.402l16.381,0l-0,109.12l-16.381,-0Z" style="fill:#757575;fill-rule:nonzero;"/><path d="M939.792,1831.8c0,32.761 22.681,60.482 59.222,60.482c36.541,-0 59.222,-27.721 59.222,-60.482c0,-32.761 -22.681,-60.482 -59.222,-60.482c-36.541,0 -59.222,27.721 -59.222,60.482Zm30.745,-0c0,-26.209 4.789,-57.08 28.477,-57.08c23.815,0 28.603,30.871 28.603,57.08c0,26.209 -4.788,57.08 -28.603,57.08c-23.688,-0 -28.477,-30.871 -28.477,-57.08Z" style="fill:#757575;fill-rule:nonzero;"/><path d="M1106.12,1773.84l-43.976,0l0,3.402l16.381,0l-0,76.989c-0,21.924 6.3,38.053 35.281,38.053c26.461,-0 37.297,-19.657 41.455,-39.439l0,36.919l44.102,-0l-0,-3.402l-16.255,-0l0,-112.522l-44.983,0l-0,3.402l17.136,0l0,52.922c0,22.429 -8.316,55.568 -35.029,55.568c-12.474,-0 -14.112,-13.231 -14.112,-34.399l-0,-77.493Z" style="fill:#757575;fill-rule:nonzero;"/><path d="M1194.32,1949.36l0,3.402l60.23,-0l0,-3.402l-16.254,-0l-0,-93.873c5.67,22.68 19.782,36.793 39.817,36.793c26.965,-0 52.67,-22.681 52.67,-60.482c-0,-37.801 -25.705,-60.23 -52.67,-60.23c-20.035,0 -34.147,13.986 -39.817,36.541l-0,-34.273l-43.976,0l0,3.402l16.381,0l-0,172.122l-16.381,-0Zm43.976,-117.562c-0,-35.659 16.38,-54.686 34.021,-54.686c17.766,0 26.839,20.035 26.839,54.686c-0,34.651 -9.073,54.938 -26.839,54.938c-17.641,-0 -34.021,-19.153 -34.021,-54.938Z" style="fill:#757575;fill-rule:nonzero;"/></g></svg>