<?xml version="1.0" encoding="UTF-8" standalone="no"?><!DOCTYPE svg PUBLIC "-//W3C//DTD SVG 1.1//EN" "http://www.w3.org/Graphics/SVG/1.1/DTD/svg11.dtd"><svg width="100%" height="100%" viewBox="0 0 2084 2084" version="1.1" xmlns="http://www.w3.org/2000/svg" xmlns:xlink="http://www.w3.org/1999/xlink" xml:space="preserve" xmlns:serif="http://www.serif.com/" style="fill-rule:evenodd;clip-rule:evenodd;stroke-linejoin:round;stroke-miterlimit:2;"><rect id="tree-rev-2-color" serif:id="tree rev 2 color" x="0" y="0" width="2083.33" height="2083.33" style="fill:none;"/><clipPath id="_clip1"><rect x="0" y="0" width="2083.33" height="2083.33"/></clipPath><g clip-path="url(#_clip1)"><rect x="0" y="15.209" width="2083.33" height="2083.33" style="fill:#fff;"/><g><g><g><g><g><path d="M849.765,1308.34c-0,-0 6.339,-16.955 21.752,-24.444c10.278,-5.941 19.534,-13.616 24.395,-20.935c-0,-0 2.185,5.455 2.151,9.93c-0.035,4.475 -4.77,18.655 -16.356,20.468c-11.495,3.156 -25.676,6.168 -31.942,14.981Z" style="fill:#857100;"/><path d="M894.058,1261.34c0,-0 -44.985,-12.44 -45.876,46.632c0,-0 7.328,-19.589 22.621,-26.688c7.008,-3.253 14.159,-8.44 23.255,-19.944Z" style="fill:#857100;"/></g><g><path d="M824.295,1378.21c-0,0 -6.596,-16.856 -0.118,-32.72c3.688,-11.284 5.458,-23.177 4.192,-31.872c0,0 5.269,2.603 8.23,5.958c2.961,3.356 8.899,17.076 1.483,26.159c-6.454,10.022 -15.004,21.73 -13.787,32.475Z" style="fill:#857100;"/><path d="M825.906,1313.65c0,0 -41.801,20.763 -3.036,65.345c-0,-0 -7.619,-19.478 -0.969,-34.971c3.048,-7.1 4.911,-15.736 4.005,-30.374Z" style="fill:#857100;"/></g><g><path d="M774.943,1332.41c-0,0 -0.515,-26.424 16.377,-44.88c10.757,-13.592 19.192,-28.99 21.854,-41.539c-0,-0 5.901,6.228 8.261,12.321c2.36,6.093 3.559,27.889 -11.191,36.582c-13.907,10.467 -31.536,22.183 -35.301,37.516Z" style="fill:#857100;"/><path d="M809.786,1244.78c-0,-0 -67.755,7.311 -37.19,87.975c-0,-0 -0.591,-30.532 16.35,-48.394c7.763,-8.185 14.68,-19.073 20.84,-39.581Z" style="fill:#857100;"/></g><g><path d="M672.433,1333.75c0,0 7.761,-28.026 31.372,-42.18c15.613,-10.952 29.346,-24.538 36.096,-36.935c-0,0 4.265,8.422 4.839,15.589c0.575,7.166 -5.009,30.526 -23.295,35.058c-17.953,6.667 -40.224,13.482 -49.012,28.468Z" style="fill:#857100;"/><path d="M736.706,1252.3c0,0 -73.743,-13.579 -66.858,81.082c0,-0 8.971,-32.38 32.447,-45.892c10.758,-6.192 21.473,-15.5 34.411,-35.19Z" style="fill:#857100;"/></g><g><path d="M721.698,1422.55c0,0 -8.043,-27.946 4.68,-52.358c7.579,-17.501 12.179,-36.263 11.448,-50.36c0,0 8.041,4.948 12.278,10.756c4.238,5.808 11.695,28.639 -1.52,42.064c-11.815,15.072 -27.233,32.529 -26.886,49.898Z" style="fill:#857100;"/><path d="M733.883,1319.52c-0,-0 -69.956,26.993 -14.58,104.075c-0,0 -9.289,-32.29 3.653,-56.085c5.931,-10.904 10.196,-24.441 10.927,-47.99Z" style="fill:#857100;"/></g><g><path d="M549.766,1288.44c-0,-0 22.358,-28.193 56.088,-32.935c23.073,-4.952 45.273,-13.81 58.943,-24.681c-0,0 0.799,11.654 -2.003,20.097c-2.802,8.443 -20.429,32.369 -43.451,28.715c-23.672,-1.061 -52.336,-4.035 -69.577,8.804Z" style="fill:#857100;"/><path d="M662.283,1226.62c-0,0 -77.481,-51.035 -115.285,60.151c0,-0 25.837,-32.571 59.103,-36.647c15.245,-1.868 31.943,-7.307 56.182,-23.504Z" style="fill:#857100;"/></g><g><path d="M549.592,1395.92c0,0 10.809,-34.32 40.618,-50.801c19.78,-12.869 37.35,-29.074 46.233,-44.112c0,0 4.91,10.599 5.31,19.486c0.401,8.887 -7.515,37.531 -30.322,42.344c-22.489,7.468 -50.323,14.932 -61.839,33.083Z" style="fill:#857100;"/><path d="M632.594,1297.98c0,0 -90.601,-19.982 -86.182,97.372c-0,0 12.493,-39.652 42.107,-55.346c13.572,-7.191 27.224,-18.237 44.075,-42.026Z" style="fill:#857100;"/></g><g><path d="M596.87,1088.95c-0,-0 17.481,41.601 56.618,58.719c26.193,13.772 50.014,31.968 62.852,49.714c0,0 4.9,-13.805 4.368,-24.948c-0.532,-11.143 -13.742,-45.993 -42.78,-49.354c-28.948,-6.714 -64.571,-12.803 -81.058,-34.131Z" style="fill:#857100;"/><path d="M711.885,1201.61c-0,0 -110.814,35.471 -118.921,-111.581c0,0 20.205,48.063 59.006,64.221c17.781,7.405 36.111,19.612 59.915,47.36Z" style="fill:#857100;"/></g><g><path d="M514.267,1151.37c0,-0 18.549,20.906 44.911,23.137c18.106,2.851 35.704,8.769 46.771,16.614c0,0 0.12,-9.072 -2.415,-15.5c-2.534,-6.428 -17.231,-24.228 -34.929,-20.406c-18.314,1.837 -40.416,5.373 -54.338,-3.845Z" style="fill:#857100;"/><path d="M604.18,1194.49c-0,0 -57.902,42.903 -91.988,-41.707c-0,0 21.434,24.153 47.409,25.888c11.903,0.795 25.086,4.297 44.579,15.819Z" style="fill:#857100;"/></g><g><path d="M396.146,1179.36c-0,0 25.981,29.284 62.909,32.41c25.362,3.993 50.011,12.283 65.514,23.271c-0,0 0.167,-12.708 -3.383,-21.711c-3.551,-9.004 -24.137,-33.937 -48.927,-28.585c-25.653,2.574 -56.613,7.527 -76.113,-5.385Z" style="fill:#857100;"/><path d="M522.09,1239.76c-0,0 -81.106,60.095 -128.851,-58.42c0,0 30.024,33.831 66.407,36.261c16.674,1.114 35.139,6.019 62.444,22.159Z" style="fill:#857100;"/></g><g><path d="M533.708,1002.67c-0,0 8.693,26.563 31.989,39.104c15.475,9.822 29.262,22.256 36.292,33.859c0,-0 3.721,-8.275 3.955,-15.181c0.234,-6.906 -6.163,-29.085 -23.92,-32.624c-17.531,-5.605 -39.214,-11.16 -48.316,-25.158Z" style="fill:#857100;"/><path d="M599.026,1078.02c-0,0 -70.195,16.308 -67.783,-74.877c-0,-0 10.048,30.688 33.185,42.619c10.603,5.468 21.303,13.928 34.598,32.258Z" style="fill:#857100;"/></g><g><path d="M631.111,906.553c-0,0 -3.07,57.441 32.31,98.833c22.393,30.359 39.606,64.474 44.469,91.968c-0,0 13.295,-13.112 18.879,-26.191c5.584,-13.08 9.801,-60.401 -21.642,-80.399c-29.477,-23.793 -66.959,-50.579 -74.016,-84.211Z" style="fill:#857100;"/><path d="M700.431,1099.73c-0,-0 -146.84,-20.907 -74.399,-194.107c-0,0 -3.539,66.368 31.991,106.471c16.282,18.379 30.524,42.572 42.408,87.636Z" style="fill:#857100;"/></g><g><path d="M840.797,921.286c-0,-0 4.782,39.011 -17.398,68.882c-13.843,21.743 -23.979,45.804 -26.006,64.773c-0,0 -9.677,-8.316 -14.096,-16.97c-4.418,-8.654 -9.509,-40.713 10.989,-55.817c18.979,-17.599 43.275,-37.613 46.511,-60.868Z" style="fill:#857100;"/><path d="M802.588,1056.21c0,-0 99.115,-21.126 41.627,-135.797c0,-0 5.519,45.074 -16.822,74.074c-10.239,13.29 -18.814,30.448 -24.805,61.723Z" style="fill:#857100;"/></g><g><path d="M824.136,1050.19c0,-0 -3.012,24.572 10.959,43.388c8.719,13.695 15.103,28.85 16.381,40.798c-0,0 6.095,-5.238 8.878,-10.689c2.783,-5.451 5.989,-25.644 -6.922,-35.157c-11.954,-11.086 -27.257,-23.692 -29.296,-38.34Z" style="fill:#857100;"/><path d="M848.203,1135.17c-0,0 -62.431,-13.306 -26.22,-85.535c0,-0 -3.476,28.391 10.596,46.658c6.449,8.371 11.851,19.178 15.624,38.877Z" style="fill:#857100;"/></g><g><path d="M990.208,965.456c-0,0 -14.317,36.603 -48.021,52.36c-22.507,12.561 -42.853,28.923 -53.645,44.654c-0,0 -4.567,-11.913 -4.346,-21.627c0.22,-9.715 10.964,-40.346 36.175,-43.905c25.06,-6.476 55.945,-12.552 69.837,-31.482Z" style="fill:#857100;"/><path d="M892.513,1066.05c0,0 97.259,28.474 101.119,-99.743c-0,0 -16.547,42.289 -49.98,57.202c-15.321,6.834 -31.016,17.862 -51.139,42.541Z" style="fill:#857100;"/></g><g><path d="M998.91,808.942c-0,0 -6.209,49.979 -43.083,80.199c-23.979,22.713 -44.072,49.462 -52.502,72.408c-0,0 -9.437,-13.35 -12.233,-25.484c-2.797,-12.133 0.863,-53.567 31.046,-65.955c29.072,-15.962 65.505,-33.27 76.772,-61.168Z" style="fill:#857100;"/><path d="M909.388,964.742c0,-0 129.777,4.617 94.043,-155.823c0,0 -7.181,57.745 -43.984,86.831c-16.866,13.33 -32.87,31.985 -50.059,68.992Z" style="fill:#857100;"/></g><g><path d="M1031.12,907.373c0,-0 -3.717,23.874 9.314,42.67c8.071,13.636 13.818,28.622 14.685,40.318c-0,-0 6.112,-4.917 8.999,-10.146c2.888,-5.229 6.656,-24.825 -5.636,-34.514c-11.31,-11.193 -25.838,-23.975 -27.362,-38.328Z" style="fill:#857100;"/><path d="M1051.9,991.035c0,-0 -60.476,-14.96 -22.864,-84.268c0,-0 -4.291,27.584 8.857,45.849c6.025,8.37 10.951,19.084 14.007,38.419Z" style="fill:#857100;"/></g><g><path d="M974.67,1066.88c-0,0 -2.094,13.444 5.244,24.029c4.545,7.678 7.781,16.117 8.27,22.703c-0,-0 3.441,-2.769 5.067,-5.713c1.626,-2.945 3.748,-13.98 -3.174,-19.436c-6.368,-6.302 -14.549,-13.5 -15.407,-21.583Z" style="fill:#857100;"/><path d="M986.372,1113.99c-0,0 -34.055,-8.424 -12.875,-47.452c-0,0 -2.417,15.533 4.987,25.818c3.393,4.714 6.167,10.746 7.888,21.634Z" style="fill:#857100;"/></g><g><path d="M1021.52,1021.08c-0,0 2.646,16.996 -6.631,30.377c-5.745,9.707 -9.836,20.375 -10.454,28.701c0,-0 -4.35,-3.5 -6.406,-7.222c-2.056,-3.723 -4.738,-17.673 4.012,-24.571c8.052,-7.967 18.394,-17.067 19.479,-27.285Z" style="fill:#857100;"/><path d="M1006.72,1080.64c-0,0 43.052,-10.65 16.276,-59.989c0,-0 3.055,19.637 -6.304,32.639c-4.29,5.959 -7.797,13.585 -9.972,27.35Z" style="fill:#857100;"/></g><g><path d="M1038.13,657.793c-0,0 -21.591,10.846 -29.318,32.373c-6.409,14.491 -15.266,27.876 -24.281,35.377c-0,-0 7.552,2.118 13.485,1.43c5.934,-0.688 24.073,-9.007 24.817,-24.642c2.538,-15.707 4.5,-34.958 15.297,-44.538Z" style="fill:#857100;"/><path d="M982.108,723.316c0,-0 -22.962,-57.913 55.301,-67.57c-0,-0 -24.944,12.534 -32.17,33.847c-3.312,9.767 -9.169,20.001 -23.131,33.723Z" style="fill:#857100;"/></g><g><path d="M885.776,613.306c-0,0 25.68,61.07 3.435,119.707c-12.46,41.622 -17.842,85.3 -12.415,116.995c0,0 -19.514,-9.04 -30.656,-21.044c-11.143,-12.005 -34.129,-61.659 -7.826,-95.572c22.693,-37.262 52.899,-80.883 47.462,-120.086Z" style="fill:#857100;"/><path d="M885.805,849.675c-0,0 151.035,-79.802 5.112,-239.358c0,-0 29.662,70.564 6.754,127.861c-10.498,26.258 -16.521,58.024 -11.866,111.497Z" style="fill:#857100;"/></g><g><path d="M801.076,664.952c0,-0 -24.302,29.723 -21.57,65.965c0.089,25.179 -4.093,50.338 -12.315,67.063c-0,-0 12.33,-1.82 20.494,-6.662c8.165,-4.842 29.095,-28.663 20.046,-51.831c-6.492,-24.436 -16.115,-53.641 -6.655,-74.535Z" style="fill:#857100;"/><path d="M762.239,796.315c-0,-0 -70.835,-69.159 36.471,-133.87c-0,0 -28.075,34.347 -24.754,69.953c1.522,16.318 -0.348,34.962 -11.717,63.917Z" style="fill:#857100;"/></g><g><path d="M585.109,632.958c0,0 -0.508,26.825 16.648,45.551c10.926,13.792 19.497,29.418 22.205,42.156c0,-0 5.987,-6.326 8.38,-12.512c2.393,-6.187 3.599,-28.313 -11.379,-37.129c-14.122,-10.618 -32.024,-22.502 -35.854,-38.066Z" style="fill:#857100;"/><path d="M620.523,721.889c0,0 -68.782,-7.387 -37.796,-89.285c-0,-0 -0.584,30.993 16.622,49.116c7.885,8.306 14.912,19.354 21.174,40.169Z" style="fill:#857100;"/></g><g><path d="M409.052,940.005c-0,0 12.904,23.522 37.103,31.231c16.34,6.528 31.549,15.818 40.236,25.52c-0,0 2.046,-8.465 1.044,-15.022c-1.003,-6.557 -10.964,-26.35 -28.344,-26.547c-17.532,-2.184 -38.974,-3.587 -50.039,-15.182Z" style="fill:#857100;"/><path d="M484.017,999.53c-0,-0 -63.342,27.812 -77.208,-58.647c-0,0 14.913,27.176 38.855,34.337c10.972,3.281 22.564,9.369 38.353,24.31Z" style="fill:#857100;"/></g></g><g><path d="M628.615,737.422c-0,-0 23.945,75.778 89.818,112.114c43.714,28.38 82.553,64.135 102.205,97.328c-0,-0 10.821,-23.419 11.686,-43.048c0.865,-19.628 -16.678,-82.877 -67.062,-93.458c-49.684,-16.446 -111.175,-32.871 -136.647,-72.936Z" style="fill:#857100;"/><path d="M812.143,953.555c-0,-0 -200.062,44.325 -190.551,-214.874c-0,-0 27.677,87.551 93.117,122.148c29.989,15.855 60.165,40.221 97.434,92.726Z" style="fill:#857100;"/></g><g><path d="M506.133,650.249c-0,0 -25.511,80.82 9.739,152.888c20.779,51.55 32.785,106.554 29.609,147.567c0,0 23.792,-13.816 36.57,-30.422c12.777,-16.605 36.202,-82.565 -1.301,-122.663c-33.3,-44.789 -76.921,-96.792 -74.617,-147.37Z" style="fill:#857100;"/><path d="M533.967,951.342c0,0 -201.801,-83.844 -34.736,-304.295c-0,-0 -29.464,93.383 6.473,163.668c16.469,32.21 27.887,71.964 28.263,140.627Z" style="fill:#857100;"/></g><g><path d="M655.422,455.766c0,0 -16.066,68.734 17.772,126.351c20.521,41.495 33.976,86.412 33.936,120.674c0,-0 18.883,-12.981 28.443,-27.581c9.56,-14.6 24.835,-70.861 -8.849,-101.785c-30.492,-35.086 -70.011,-75.51 -71.302,-117.659Z" style="fill:#857100;"/><path d="M697.609,704.05c-0,-0 -172.899,-56.848 -48.122,-250.506c0,-0 -18.553,79.417 15.743,135.51c15.717,25.706 27.718,57.997 32.379,114.996Z" style="fill:#857100;"/></g><g><path d="M848.355,460.086c-0,0 11.163,47.759 -12.349,87.794c-14.259,28.832 -23.608,60.043 -23.58,83.849c-0,-0 -13.121,-9.02 -19.763,-19.164c-6.643,-10.145 -17.257,-49.237 6.148,-70.724c21.187,-24.38 48.647,-52.468 49.544,-81.755Z" style="fill:#857100;"/><path d="M819.041,632.604c0,-0 120.137,-39.5 33.437,-174.062c0,0 12.892,55.183 -10.938,94.158c-10.921,17.862 -19.26,40.299 -22.499,79.904Z" style="fill:#857100;"/></g><g><path d="M306.817,984.781c0,-0 39.589,58.439 104.874,72.678c44.405,13.08 86.529,33.674 111.67,56.951c0,-0 3.277,-22.679 -0.961,-39.608c-4.238,-16.928 -35.201,-66.324 -80.773,-62.563c-46.463,-1.408 -102.972,0.193 -134.81,-27.458Z" style="fill:#857100;"/><path d="M517.825,1122.26c0,0 -159.075,88.435 -216.667,-134.626c0,0 45.749,67.516 110.225,80.384c29.547,5.896 61.41,18.991 106.442,54.242Z" style="fill:#857100;"/></g></g><g><g><g><path d="M1233.57,1308.34c-0,-0 -6.34,-16.955 -21.752,-24.444c-10.278,-5.941 -19.534,-13.616 -24.395,-20.935c-0,-0 -2.186,5.455 -2.152,9.93c0.035,4.475 4.771,18.655 16.356,20.468c11.495,3.156 25.676,6.168 31.943,14.981Z" style="fill:#857100;"/><path d="M1189.28,1261.34c0,-0 44.986,-12.44 45.876,46.632c0,-0 -7.327,-19.589 -22.62,-26.688c-7.009,-3.253 -14.16,-8.44 -23.256,-19.944Z" style="fill:#857100;"/></g><g><path d="M1259.04,1378.21c0,0 6.596,-16.856 0.119,-32.72c-3.689,-11.284 -5.458,-23.177 -4.193,-31.872c0,0 -5.268,2.603 -8.229,5.958c-2.962,3.356 -8.9,17.076 -1.483,26.159c6.453,10.022 15.003,21.73 13.786,32.475Z" style="fill:#857100;"/><path d="M1257.43,1313.65c-0,0 41.801,20.763 3.036,65.345c0,-0 7.619,-19.478 0.969,-34.971c-3.047,-7.1 -4.91,-15.736 -4.005,-30.374Z" style="fill:#857100;"/></g><g><path d="M1308.39,1332.41c-0,0 0.514,-26.424 -16.378,-44.88c-10.756,-13.592 -19.192,-28.99 -21.854,-41.539c0,-0 -5.9,6.228 -8.261,12.321c-2.36,6.093 -3.559,27.889 11.192,36.582c13.906,10.467 31.535,22.183 35.301,37.516Z" style="fill:#857100;"/><path d="M1273.55,1244.78c-0,-0 67.755,7.311 37.189,87.975c0,-0 0.591,-30.532 -16.35,-48.394c-7.763,-8.185 -14.68,-19.073 -20.839,-39.581Z" style="fill:#857100;"/></g><g><path d="M1410.9,1333.75c0,0 -7.76,-28.026 -31.371,-42.18c-15.613,-10.952 -29.346,-24.538 -36.096,-36.935c-0,0 -4.266,8.422 -4.84,15.589c-0.574,7.166 5.01,30.526 23.295,35.058c17.953,6.667 40.224,13.482 49.012,28.468Z" style="fill:#857100;"/><path d="M1346.63,1252.3c0,0 73.743,-13.579 66.858,81.082c-0,-0 -8.971,-32.38 -32.446,-45.892c-10.759,-6.192 -21.473,-15.5 -34.412,-35.19Z" style="fill:#857100;"/></g><g><path d="M1361.63,1422.55c-0,0 8.043,-27.946 -4.679,-52.358c-7.579,-17.501 -12.179,-36.263 -11.449,-50.36c-0,0 -8.04,4.948 -12.278,10.756c-4.237,5.808 -11.695,28.639 1.52,42.064c11.815,15.072 27.233,32.529 26.886,49.898Z" style="fill:#857100;"/><path d="M1349.45,1319.52c-0,-0 69.956,26.993 14.58,104.075c-0,0 9.288,-32.29 -3.654,-56.085c-5.931,-10.904 -10.196,-24.441 -10.926,-47.99Z" style="fill:#857100;"/></g><g><path d="M1533.57,1288.44c0,-0 -22.358,-28.193 -56.088,-32.935c-23.072,-4.952 -45.273,-13.81 -58.942,-24.681c-0,0 -0.799,11.654 2.002,20.097c2.802,8.443 20.43,32.369 43.451,28.715c23.673,-1.061 52.337,-4.035 69.577,8.804Z" style="fill:#857100;"/><path d="M1421.05,1226.62c-0,0 77.481,-51.035 115.284,60.151c0,-0 -25.837,-32.571 -59.103,-36.647c-15.245,-1.868 -31.943,-7.307 -56.181,-23.504Z" style="fill:#857100;"/></g><g><path d="M1533.74,1395.92c0,0 -10.809,-34.32 -40.618,-50.801c-19.78,-12.869 -37.35,-29.074 -46.233,-44.112c-0,0 -4.91,10.599 -5.31,19.486c-0.4,8.887 7.515,37.531 30.323,42.344c22.488,7.468 50.323,14.932 61.838,33.083Z" style="fill:#857100;"/><path d="M1450.74,1297.98c0,0 90.602,-19.982 86.182,97.372c0,0 -12.493,-39.652 -42.107,-55.346c-13.571,-7.191 -27.223,-18.237 -44.075,-42.026Z" style="fill:#857100;"/></g><g><path d="M1486.46,1088.95c-0,-0 -17.482,41.601 -56.618,58.719c-26.194,13.772 -50.015,31.968 -62.853,49.714c0,0 -4.9,-13.805 -4.368,-24.948c0.532,-11.143 13.742,-45.993 42.78,-49.354c28.949,-6.714 64.572,-12.803 81.059,-34.131Z" style="fill:#857100;"/><path d="M1371.45,1201.61c0,0 110.814,35.471 118.921,-111.581c-0,0 -20.204,48.063 -59.005,64.221c-17.782,7.405 -36.111,19.612 -59.916,47.36Z" style="fill:#857100;"/></g><g><path d="M1569.07,1151.37c0,-0 -18.548,20.906 -44.911,23.137c-18.106,2.851 -35.703,8.769 -46.771,16.614c0,0 -0.12,-9.072 2.415,-15.5c2.535,-6.428 17.232,-24.228 34.93,-20.406c18.313,1.837 40.416,5.373 54.337,-3.845Z" style="fill:#857100;"/><path d="M1479.15,1194.49c-0,0 57.902,42.903 91.987,-41.707c0,0 -21.434,24.153 -47.408,25.888c-11.904,0.795 -25.086,4.297 -44.579,15.819Z" style="fill:#857100;"/></g><g><path d="M1687.19,1179.36c-0,0 -25.982,29.284 -62.909,32.41c-25.362,3.993 -50.011,12.283 -65.514,23.271c-0,0 -0.168,-12.708 3.382,-21.711c3.551,-9.004 24.138,-33.937 48.928,-28.585c25.652,2.574 56.612,7.527 76.113,-5.385Z" style="fill:#857100;"/><path d="M1561.24,1239.76c0,0 81.106,60.095 128.851,-58.42c0,0 -30.023,33.831 -66.407,36.261c-16.673,1.114 -35.139,6.019 -62.444,22.159Z" style="fill:#857100;"/></g><g><path d="M1549.62,1002.67c0,0 -8.693,26.563 -31.989,39.104c-15.475,9.822 -29.262,22.256 -36.292,33.859c0,-0 -3.721,-8.275 -3.955,-15.181c-0.233,-6.906 6.164,-29.085 23.92,-32.624c17.531,-5.605 39.215,-11.16 48.316,-25.158Z" style="fill:#857100;"/><path d="M1484.31,1078.02c0,0 70.195,16.308 67.784,-74.877c-0,-0 -10.049,30.688 -33.186,42.619c-10.603,5.468 -21.303,13.928 -34.598,32.258Z" style="fill:#857100;"/></g><g><path d="M1452.22,906.553c-0,0 3.069,57.441 -32.311,98.833c-22.393,30.359 -39.605,64.474 -44.469,91.968c0,0 -13.295,-13.112 -18.879,-26.191c-5.583,-13.08 -9.801,-60.401 21.643,-80.399c29.476,-23.793 66.958,-50.579 74.016,-84.211Z" style="fill:#857100;"/><path d="M1382.9,1099.73c-0,-0 146.839,-20.907 74.398,-194.107c0,0 3.539,66.368 -31.991,106.471c-16.282,18.379 -30.524,42.572 -42.407,87.636Z" style="fill:#857100;"/></g><g><path d="M1242.54,921.286c0,-0 -4.781,39.011 17.398,68.882c13.843,21.743 23.979,45.804 26.007,64.773c-0,0 9.676,-8.316 14.095,-16.97c4.419,-8.654 9.509,-40.713 -10.989,-55.817c-18.979,-17.599 -43.274,-37.613 -46.511,-60.868Z" style="fill:#857100;"/><path d="M1280.75,1056.21c0,-0 -99.115,-21.126 -41.627,-135.797c0,-0 -5.519,45.074 16.823,74.074c10.238,13.29 18.814,30.448 24.804,61.723Z" style="fill:#857100;"/></g><g><path d="M1259.2,1050.19c0,-0 3.012,24.572 -10.958,43.388c-8.72,13.695 -15.104,28.85 -16.381,40.798c-0,0 -6.095,-5.238 -8.878,-10.689c-2.784,-5.451 -5.99,-25.644 6.921,-35.157c11.954,-11.086 27.258,-23.692 29.296,-38.34Z" style="fill:#857100;"/><path d="M1235.13,1135.17c0,0 62.431,-13.306 26.22,-85.535c0,-0 3.477,28.391 -10.596,46.658c-6.449,8.371 -11.85,19.178 -15.624,38.877Z" style="fill:#857100;"/></g><g><path d="M1093.13,965.456c-0,0 14.316,36.603 48.02,52.36c22.508,12.561 42.853,28.923 53.645,44.654c0,0 4.568,-11.913 4.347,-21.627c-0.221,-9.715 -10.965,-40.346 -36.176,-43.905c-25.06,-6.476 -55.945,-12.552 -69.836,-31.482Z" style="fill:#857100;"/><path d="M1190.82,1066.05c0,0 -97.259,28.474 -101.118,-99.743c-0,0 16.546,42.289 49.979,57.202c15.322,6.834 31.016,17.862 51.139,42.541Z" style="fill:#857100;"/></g><g><path d="M1084.42,808.942c-0,0 6.208,49.979 43.082,80.199c23.979,22.713 44.073,49.462 52.502,72.408c0,0 9.438,-13.35 12.234,-25.484c2.796,-12.133 -0.864,-53.567 -31.046,-65.955c-29.072,-15.962 -65.505,-33.27 -76.772,-61.168Z" style="fill:#857100;"/><path d="M1173.94,964.742c-0,-0 -129.777,4.617 -94.043,-155.823c0,0 7.181,57.745 43.985,86.831c16.866,13.33 32.87,31.985 50.058,68.992Z" style="fill:#857100;"/></g><g><path d="M1045.52,828.538c0,0 -7.959,16.034 -2.954,32.223c2.655,11.435 3.367,23.305 1.367,31.761c-0,-0 5.415,-2.108 8.623,-5.156c3.208,-3.049 10.248,-16.05 3.729,-25.641c-5.488,-10.432 -12.895,-22.707 -10.765,-33.187Z" style="fill:#857100;"/><path d="M1041.5,892.279c0,0 -39.378,-24.078 2.675,-64.634c0,-0 -9.194,18.526 -3.987,34.366c2.387,7.259 3.473,15.927 1.312,30.268Z" style="fill:#857100;"/></g><g><path d="M1081.04,700.752c-0,-0 -2.955,31.172 -25.324,50.619c-14.491,14.549 -26.494,31.536 -31.318,45.949c0,-0 -6.106,-8.126 -8.064,-15.616c-1.957,-7.49 -0.432,-33.305 18.101,-41.55c17.779,-10.446 40.107,-21.861 46.605,-39.402Z" style="fill:#857100;"/><path d="M1028.22,799.194c-0,0 80.735,0.522 55.625,-98.538c0,-0 -3.418,36.016 -25.764,54.757c-10.24,8.589 -19.849,20.472 -29.861,43.781Z" style="fill:#857100;"/></g><g><path d="M1197.56,613.306c-0,0 -25.68,61.07 -3.436,119.707c12.46,41.622 17.842,85.3 12.415,116.995c-0,0 19.514,-9.04 30.657,-21.044c11.142,-12.005 34.128,-61.659 7.826,-95.572c-22.693,-37.262 -52.899,-80.883 -47.462,-120.086Z" style="fill:#857100;"/><path d="M1197.53,849.675c-0,0 -151.036,-79.802 -5.113,-239.358c0,-0 -29.662,70.564 -6.754,127.861c10.498,26.258 16.522,58.024 11.867,111.497Z" style="fill:#857100;"/></g><g><path d="M988.378,369.959c0,-0 29.396,69.905 3.933,137.025c-14.263,47.644 -20.423,97.641 -14.211,133.922c-0,0 -22.338,-10.348 -35.092,-24.09c-12.754,-13.741 -39.066,-70.579 -8.958,-109.398c25.976,-42.653 60.552,-92.585 54.328,-137.459Z" style="fill:#857100;"/><path d="M988.411,640.525c0,-0 172.887,-91.349 5.853,-273.989c-0,0 33.953,80.773 7.731,146.36c-12.017,30.057 -18.912,66.42 -13.584,127.629Z" style="fill:#857100;"/></g><g><path d="M1186.63,499.855c-0,0 -45.331,31.803 -55.661,83.194c-9.689,34.999 -25.302,68.306 -43.237,88.325c-0,-0 17.831,2.279 31.055,-1.263c13.224,-3.542 51.572,-28.463 48.036,-64.161c0.508,-36.463 -1.473,-80.767 19.807,-106.095Z" style="fill:#857100;"/><path d="M1081.5,667.132c0,0 -71.41,-123.64 102.816,-171.679c0,-0 -52.37,36.752 -61.635,87.49c-4.246,23.252 -14.109,48.414 -41.181,84.189Z" style="fill:#857100;"/></g><g><path d="M1282.26,664.952c0,-0 24.303,29.723 21.57,65.965c-0.089,25.179 4.094,50.338 12.316,67.063c-0,-0 -12.331,-1.82 -20.495,-6.662c-8.164,-4.842 -29.094,-28.663 -20.046,-51.831c6.492,-24.436 16.116,-53.641 6.655,-74.535Z" style="fill:#857100;"/><path d="M1321.09,796.315c0,-0 70.836,-69.159 -36.47,-133.87c-0,0 28.075,34.347 24.753,69.953c-1.522,16.318 0.348,34.962 11.717,63.917Z" style="fill:#857100;"/></g><g><path d="M1498.22,632.958c-0,0 0.509,26.825 -16.648,45.551c-10.926,13.792 -19.497,29.418 -22.205,42.156c-0,-0 -5.987,-6.326 -8.38,-12.512c-2.393,-6.187 -3.599,-28.313 11.379,-37.129c14.122,-10.618 32.024,-22.502 35.854,-38.066Z" style="fill:#857100;"/><path d="M1462.81,721.889c-0,0 68.783,-7.387 37.796,-89.285c0,-0 0.584,30.993 -16.621,49.116c-7.885,8.306 -14.912,19.354 -21.175,40.169Z" style="fill:#857100;"/></g><g><path d="M1674.28,940.005c-0,0 -12.905,23.522 -37.104,31.231c-16.339,6.528 -31.548,15.818 -40.235,25.52c-0,0 -2.046,-8.465 -1.044,-15.022c1.002,-6.557 10.964,-26.35 28.343,-26.547c17.533,-2.184 38.974,-3.587 50.04,-15.182Z" style="fill:#857100;"/><path d="M1599.32,999.53c-0,-0 63.341,27.812 77.208,-58.647c-0,0 -14.914,27.176 -38.855,34.337c-10.972,3.281 -22.565,9.369 -38.353,24.31Z" style="fill:#857100;"/></g></g><g><path d="M1454.72,737.422c-0,-0 -23.946,75.778 -89.818,112.114c-43.714,28.38 -82.554,64.135 -102.205,97.328c-0,-0 -10.822,-23.419 -11.687,-43.048c-0.865,-19.628 16.678,-82.877 67.062,-93.458c49.684,-16.446 111.176,-32.871 136.648,-72.936Z" style="fill:#857100;"/><path d="M1271.19,953.555c-0,-0 200.062,44.325 190.551,-214.874c-0,-0 -27.678,87.551 -93.117,122.148c-29.99,15.855 -60.165,40.221 -97.434,92.726Z" style="fill:#857100;"/></g><g><path d="M1606.39,649.311c0,0 14.634,83.478 -29.808,150.271c-27.393,48.361 -46.545,101.301 -48.804,142.376c0,-0 -21.762,-16.832 -32.239,-34.978c-10.478,-18.145 -25.003,-86.617 17.458,-121.421c38.914,-40.008 89.009,-85.807 93.393,-136.248Z" style="fill:#857100;"/><path d="M1539.11,944.108c-0,-0 211.092,-56.511 74.546,-297.061c0,-0 16.896,96.452 -27.992,161.386c-20.571,29.758 -37.13,67.66 -46.554,135.675Z" style="fill:#857100;"/></g><g><path d="M1427.91,455.766c0,0 16.067,68.734 -17.772,126.351c-20.521,41.495 -33.976,86.412 -33.936,120.674c-0,-0 -18.883,-12.981 -28.443,-27.581c-9.559,-14.6 -24.835,-70.861 8.85,-101.785c30.491,-35.086 70.01,-75.51 71.301,-117.659Z" style="fill:#857100;"/><path d="M1385.73,704.05c-0,-0 172.898,-56.848 48.121,-250.506c-0,-0 18.553,79.417 -15.743,135.51c-15.716,25.706 -27.717,57.997 -32.378,114.996Z" style="fill:#857100;"/></g><g><path d="M1234.98,460.086c-0,0 -11.164,47.759 12.348,87.794c14.26,28.832 23.608,60.043 23.581,83.849c-0,-0 13.12,-9.02 19.763,-19.164c6.642,-10.145 17.256,-49.237 -6.149,-70.724c-21.187,-24.38 -48.646,-52.468 -49.543,-81.755Z" style="fill:#857100;"/><path d="M1264.29,632.604c-0,-0 -120.137,-39.5 -33.437,-174.062c0,0 -12.891,55.183 10.939,94.158c10.92,17.862 19.259,40.299 22.498,79.904Z" style="fill:#857100;"/></g><g><path d="M1776.52,984.781c-0,-0 -39.589,58.439 -104.873,72.678c-44.405,13.08 -86.53,33.674 -111.671,56.951c0,-0 -3.277,-22.679 0.961,-39.608c4.238,-16.928 35.201,-66.324 80.773,-62.563c46.463,-1.408 102.972,0.193 134.81,-27.458Z" style="fill:#857100;"/><path d="M1565.51,1122.26c-0,0 159.075,88.435 216.667,-134.626c0,0 -45.749,67.516 -110.224,80.384c-29.547,5.896 -61.411,18.991 -106.443,54.242Z" style="fill:#857100;"/></g></g><path d="M1163.93,1584c0,-0 60.313,69.291 11.576,132.802c0,-0 38.368,-87.377 -69.476,-132.802l-140.502,-0c-107.843,45.425 -65.302,114.018 -65.302,114.018c-48.737,-63.512 7.402,-114.018 7.402,-114.018l-0.102,-0c-107.843,18.83 -61.386,51.228 -61.386,51.228c-48.737,-26.328 3.486,-51.228 3.486,-51.228l-19.847,-0c-68.548,32.999 -44.161,88.641 -44.161,88.641c-30.978,-46.138 7.358,-88.641 7.358,-88.641l-0.447,-0c0,-0 29.103,-41.573 59.787,-32.204c0,-0 45.823,-29.096 74.05,-24.862c4.931,0.739 11.527,-1.564 19.273,-5.572c31.419,-47.684 63.811,-123.708 28.109,-204.617l0.019,-0.017c-0.736,-0.927 -82.694,-103.841 -165.87,-79.113c0,-0 -74.519,20.004 -127.586,-14.273c0,-0 85.811,21.047 128.716,-18.471c25.709,-2.084 44.148,0.107 65.053,8.417c-25.266,-12.837 -66.255,-34.779 -75.472,-46.454c-13.549,-17.162 -51.486,-37.937 -82.197,-40.647c0,-0 32.408,-6.46 79.566,16.364c-27.24,-26.991 -45.367,-60.07 -39.634,-98.926c0,-0 36.517,119.193 156.743,118.589c10.6,4.986 19.476,9.023 26.855,12.247c-4.39,-23.545 -26.055,-64.306 -80.003,-87.897c-0,-0 125.57,12.004 138.978,81.017c-0,-0 0.805,-57.621 25.075,-73.588c24.269,-15.967 40.751,-32.584 42.601,-82.652c-0,0 28.424,47.854 18.92,81.057c-4.825,16.86 4.908,41.698 18.959,53.194c3.317,2.715 7.02,3.186 10.807,2.381c22.844,-56.259 109.167,-61.409 109.167,-61.409c-48.311,21.125 -70.733,56.02 -78.043,79.989c-0.139,2.501 -0.294,4.943 -0.454,7.248c7.073,-3.111 15.461,-6.936 25.349,-11.587c120.225,0.604 156.742,-118.589 156.742,-118.589c5.733,38.856 -12.394,71.935 -39.634,98.926c47.158,-22.824 79.566,-16.364 79.566,-16.364c-30.711,2.71 -68.648,23.485 -82.197,40.647c-9.217,11.675 -50.205,33.617 -75.472,46.454c20.905,-8.31 39.345,-10.501 65.054,-8.417c42.905,39.518 128.715,18.471 128.715,18.471c-53.067,34.277 -127.586,14.273 -127.586,14.273c-83.176,-24.728 -165.134,78.186 -165.87,79.113l0.02,0.017c-35.703,80.909 -3.311,156.933 28.109,204.617c7.745,4.008 14.341,6.311 19.273,5.572c28.226,-4.234 74.049,24.862 74.049,24.862c30.685,-9.369 46.497,32.204 46.497,32.204l0.019,-0c0,-0 38.337,42.503 7.358,88.641c0,0 24.388,-55.642 -44.161,-88.641l-19.846,-0c-0,-0 58.735,40.073 9.998,66.401c-0,-0 39.945,-47.571 -67.898,-66.401l-0.103,-0Zm-59.346,-0c-0,-0 44.133,41.887 -16.064,66.401c0,-0 56.569,-62.628 -41.836,-66.401l57.9,-0Z"/><path d="M965.532,1584c-107.843,45.425 -65.302,114.018 -65.302,114.018c-48.737,-63.512 7.402,-114.018 7.402,-114.018l-0.102,-0c-107.843,18.83 -61.386,51.228 -61.386,51.228c-48.737,-26.328 3.486,-51.228 3.486,-51.228l-19.847,-0c-68.548,32.999 -44.161,88.641 -44.161,88.641c-30.978,-46.138 7.358,-88.641 7.358,-88.641l-0.447,-0c0,-0 29.103,-41.573 59.787,-32.204c0,-0 45.823,-29.096 74.05,-24.862c4.931,0.739 11.527,-1.564 19.273,-5.572c31.419,-47.684 63.811,-123.708 28.109,-204.617l0.019,-0.017c-0.736,-0.927 -82.694,-103.841 -165.87,-79.113c0,-0 -74.519,20.004 -127.586,-14.273c0,-0 85.811,21.047 128.716,-18.471c25.709,-2.084 44.148,0.107 65.053,8.417c-25.266,-12.837 -66.255,-34.779 -75.472,-46.454c-13.549,-17.162 -51.486,-37.937 -82.197,-40.647c0,-0 32.408,-6.46 79.566,16.364c-27.24,-26.991 -45.367,-60.07 -39.634,-98.926c0,-0 36.517,119.193 156.743,118.589c10.6,4.986 19.476,9.023 26.855,12.247c-4.39,-23.545 -26.055,-64.306 -80.003,-87.897c-0,-0 125.57,12.004 138.978,81.017c-0,-0 0.805,-57.621 25.075,-73.588c24.269,-15.967 40.751,-32.584 42.601,-82.652c-0,0 28.424,47.854 18.92,81.057c-4.825,16.86 4.908,41.698 18.959,53.194c3.317,2.715 7.02,3.186 10.807,2.381c22.844,-56.259 109.167,-61.409 109.167,-61.409c-48.311,21.125 -70.733,56.02 -78.043,79.989c-0.139,2.501 -0.294,4.943 -0.454,7.248c7.073,-3.111 15.461,-6.936 25.349,-11.587c120.225,0.604 156.742,-118.589 156.742,-118.589c5.733,38.856 -12.394,71.935 -39.634,98.926c47.158,-22.824 79.566,-16.364 79.566,-16.364c-30.711,2.71 -68.648,23.485 -82.197,40.647c-9.217,11.675 -50.205,33.617 -75.472,46.454c20.905,-8.31 39.345,-10.501 65.054,-8.417c42.905,39.518 128.715,18.471 128.715,18.471c-53.067,34.277 -127.586,14.273 -127.586,14.273c-83.176,-24.728 -165.134,78.186 -165.87,79.113l0.02,0.017c-35.703,80.909 -3.311,156.933 28.109,204.617c7.745,4.008 14.341,6.311 19.273,5.572c28.226,-4.234 74.049,24.862 74.049,24.862c30.685,-9.369 46.497,32.204 46.497,32.204l0.019,-0c0,-0 38.337,42.503 7.358,88.641c0,0 24.388,-55.642 -44.161,-88.641l-19.846,-0c-0,-0 58.735,40.073 9.998,66.401c-0,-0 39.945,-47.571 -67.898,-66.401l-0.103,-0c0,-0 60.313,69.291 11.576,132.802c0,-0 38.368,-87.377 -69.476,-132.802l-111.7,-0l28.801,-0c-59.435,-0 -41.961,66.401 -41.961,66.401c-31.921,-18.44 -15.642,-66.401 -15.642,-66.401Zm139.056,-0c-0,-0 44.133,41.887 -16.064,66.401c0,-0 56.569,-62.628 -41.836,-66.401l57.9,-0Z" style="fill:#185000;"/></g></g></g></svg>