<?xml version="1.0" encoding="UTF-8" standalone="no"?><!DOCTYPE svg PUBLIC "-//W3C//DTD SVG 1.1//EN" "http://www.w3.org/Graphics/SVG/1.1/DTD/svg11.dtd"><svg width="100%" height="100%" viewBox="0 0 2084 2084" version="1.1" xmlns="http://www.w3.org/2000/svg" xmlns:xlink="http://www.w3.org/1999/xlink" xml:space="preserve" xmlns:serif="http://www.serif.com/" style="fill-rule:evenodd;clip-rule:evenodd;stroke-linejoin:round;stroke-miterlimit:2;"><rect id="tree-rev-1-bw" serif:id="tree rev 1 bw" x="0" y="0" width="2083.33" height="2083.33" style="fill:none;"/><rect x="0" y="0" width="2083.33" height="2083.33" style="fill:#fff;"/><g><g><g><path d="M745.514,1266.31c0,-0 9.757,-26.094 33.476,-37.62c15.818,-9.142 30.063,-20.955 37.545,-32.219c-0,-0 3.363,8.395 3.31,15.282c-0.053,6.887 -7.341,28.711 -25.171,31.501c-17.692,4.857 -39.516,9.492 -49.16,23.056Z"/><path d="M813.682,1193.97c0,-0 -69.233,-19.145 -70.604,71.767c0,-0 11.277,-30.148 34.813,-41.073c10.786,-5.007 21.792,-12.99 35.791,-30.694Z"/></g><g><path d="M630.362,1303.35c0,-0 -0.792,-40.669 25.206,-69.072c16.553,-20.919 29.536,-44.616 33.632,-63.93c0,0 9.082,9.586 12.714,18.964c3.633,9.377 5.478,42.921 -17.223,56.299c-21.403,16.109 -48.534,34.14 -54.329,57.739Z"/><path d="M683.986,1168.5c-0,0 -104.276,11.253 -57.236,135.395c0,-0 -0.908,-46.989 25.163,-74.478c11.948,-12.598 22.593,-29.354 32.073,-60.917Z"/></g><g><path d="M472.598,1305.41c0,0 11.944,-43.132 48.282,-64.915c24.028,-16.856 45.164,-37.765 55.552,-56.843c0,-0 6.564,12.961 7.448,23.991c0.884,11.029 -7.71,46.98 -35.852,53.954c-27.629,10.261 -61.904,20.749 -75.43,43.813Z"/><path d="M571.516,1180.06c-0,-0 -113.492,-20.899 -102.895,124.786c-0,-0 13.805,-49.834 49.935,-70.629c16.557,-9.53 33.047,-23.854 52.96,-54.157Z"/></g><g><path d="M283.812,1235.68c0,0 34.41,-43.389 86.321,-50.686c35.509,-7.621 69.675,-21.254 90.713,-37.984c0,-0 1.229,17.935 -3.082,30.929c-4.312,12.994 -31.441,49.816 -66.872,44.192c-36.432,-1.632 -80.546,-6.209 -107.08,13.549Z"/><path d="M456.977,1140.54c0,0 -119.244,-78.544 -177.424,92.573c-0,-0 39.763,-50.127 90.96,-56.4c23.462,-2.875 49.16,-11.245 86.464,-36.173Z"/></g><g><path d="M356.306,928.671c-0,-0 26.904,64.024 87.135,90.369c40.312,21.196 76.973,49.2 96.731,76.511c-0,-0 7.542,-21.246 6.723,-38.396c-0.819,-17.15 -21.149,-70.783 -65.84,-75.957c-44.552,-10.333 -99.376,-19.703 -124.749,-52.527Z"/><path d="M533.315,1102.05c0,0 -170.543,54.59 -183.02,-171.724c0,-0 31.095,73.969 90.81,98.836c27.366,11.396 55.575,30.183 92.21,72.888Z"/></g><g><path d="M229.179,1024.74c0,0 28.547,32.175 69.119,35.609c27.866,4.388 54.948,13.496 71.981,25.569c0,-0 0.185,-13.962 -3.716,-23.855c-3.902,-9.893 -26.52,-37.286 -53.757,-31.406c-28.185,2.828 -62.201,8.269 -83.627,-5.917Z"/><path d="M367.556,1091.1c-0,0 -89.112,66.028 -141.57,-64.187c-0,0 32.987,37.171 72.962,39.841c18.319,1.224 38.608,6.613 68.608,24.346Z"/></g><g><path d="M259.099,795.883c-0,-0 13.379,40.879 49.232,60.18c23.816,15.117 45.034,34.253 55.854,52.109c-0,0 5.727,-12.735 6.086,-23.363c0.359,-10.628 -9.485,-44.762 -36.812,-50.209c-26.981,-8.626 -60.352,-17.175 -74.36,-38.717Z"/><path d="M359.624,911.84c0,0 -108.031,25.098 -104.319,-115.237c0,-0 15.465,47.23 51.073,65.592c16.318,8.415 32.785,21.435 53.246,49.645Z"/></g><g><path d="M409.003,647.955c0,0 -4.725,88.402 49.727,152.105c34.463,46.723 60.952,99.227 68.437,141.541c-0,-0 20.461,-20.181 29.055,-40.31c8.594,-20.129 15.084,-92.957 -33.308,-123.733c-45.364,-36.619 -103.049,-77.843 -113.911,-129.603Z"/><path d="M515.687,945.249c-0,-0 -225.988,-32.175 -114.5,-298.733c-0,0 -5.446,102.141 49.234,163.861c25.059,28.284 46.978,65.517 65.266,134.872Z"/></g><g><path d="M731.712,670.629c0,-0 7.36,60.039 -26.775,106.011c-21.305,33.463 -36.903,70.493 -40.024,99.686c-0,0 -14.893,-12.798 -21.693,-26.117c-6.8,-13.319 -14.634,-62.658 16.911,-85.903c29.209,-27.085 66.601,-57.886 71.581,-93.677Z"/><path d="M672.909,878.275c-0,0 152.539,-32.512 64.064,-208.993c0,0 8.494,69.37 -25.89,114.002c-15.757,20.453 -28.955,46.859 -38.174,94.991Z"/></g><g><path d="M706.071,869.008c0,-0 -4.635,37.817 16.865,66.774c13.42,21.077 23.245,44.401 25.211,62.79c-0,-0 9.38,-8.061 13.664,-16.451c4.283,-8.389 9.218,-39.467 -10.653,-54.108c-18.398,-17.06 -41.949,-36.461 -45.087,-59.005Z"/><path d="M743.11,999.8c0,-0 -96.081,-20.479 -40.352,-131.64c-0,-0 -5.351,43.694 16.307,71.807c9.925,12.883 18.238,29.515 24.045,59.833Z"/></g><g><path d="M961.657,738.608c0,-0 -22.033,56.332 -73.904,80.582c-34.639,19.332 -65.951,44.514 -82.56,68.724c-0,-0 -7.029,-18.335 -6.69,-33.286c0.34,-14.95 16.875,-62.092 55.675,-67.569c38.568,-9.967 86.1,-19.318 107.479,-48.451Z"/><path d="M811.304,893.426c0,0 149.683,43.822 155.623,-153.505c-0,-0 -25.466,65.083 -76.92,88.034c-23.579,10.518 -47.733,27.49 -78.703,65.471Z"/></g><g><path d="M975.05,497.731c-0,0 -9.556,76.918 -66.305,123.427c-36.904,34.956 -67.828,76.123 -80.801,111.437c-0,-0 -14.524,-20.547 -18.828,-39.22c-4.303,-18.673 1.329,-82.44 47.781,-101.506c44.742,-24.566 100.813,-51.203 118.153,-94.138Z"/><path d="M837.275,737.509c0,-0 199.728,7.106 144.733,-239.813c0,-0 -11.051,88.87 -67.692,133.634c-25.957,20.514 -50.587,49.225 -77.041,106.179Z"/></g><g><path d="M1046.83,694.245c0,0 5.721,36.742 -14.334,65.67c-12.421,20.986 -21.266,44.05 -22.6,62.049c-0,0 -9.406,-7.566 -13.85,-15.613c-4.445,-8.048 -10.244,-38.207 8.675,-53.119c17.405,-17.225 39.764,-36.897 42.109,-58.987Z"/><path d="M1014.85,823.002c-0,-0 93.074,-23.023 35.188,-129.69c-0,0 6.604,42.453 -13.63,70.563c-9.273,12.881 -16.855,29.37 -21.558,59.127Z"/></g><g><path d="M981.591,825.114c0,0 -3.221,20.69 8.072,36.98c6.994,11.817 11.975,24.804 12.726,34.94c0,0 5.297,-4.26 7.799,-8.792c2.503,-4.532 5.769,-21.514 -4.884,-29.912c-9.802,-9.699 -22.392,-20.777 -23.713,-33.216Z"/><path d="M999.601,897.619c-0,-0 -52.411,-12.965 -19.815,-73.03c0,0 -3.719,23.906 7.675,39.734c5.222,7.254 9.491,16.539 12.14,33.296Z"/></g><g><path d="M1029.18,366.785c0,0 -33.228,16.692 -45.12,49.822c-9.863,22.303 -23.496,42.902 -37.37,54.446c0,-0 11.623,3.259 20.755,2.201c9.132,-1.059 37.047,-13.862 38.192,-37.924c3.907,-24.174 6.927,-53.801 23.543,-68.545Z"/><path d="M942.97,467.625c0,0 -35.339,-89.129 85.109,-103.99c-0,-0 -38.39,19.29 -49.511,52.091c-5.097,15.032 -14.111,30.782 -35.598,51.899Z"/></g><g><path d="M800.935,196.645c0,0 39.522,93.988 5.287,184.229c-19.175,64.058 -27.458,131.279 -19.106,180.058c0,0 -30.033,-13.912 -47.181,-32.388c-17.148,-18.475 -52.524,-94.893 -12.044,-147.086c34.925,-57.346 81.412,-124.479 73.044,-184.813Z"/><path d="M800.98,560.42c-0,-0 232.445,-122.818 7.868,-368.376c0,-0 45.65,108.599 10.395,196.78c-16.157,40.411 -25.427,89.3 -18.263,171.596Z"/></g><g><path d="M670.582,276.128c-0,-0 -37.402,45.745 -33.197,101.521c0.137,38.751 -6.3,77.472 -18.954,103.21c0,0 18.977,-2.8 31.542,-10.251c12.565,-7.452 44.777,-44.113 30.851,-79.769c-9.991,-37.608 -24.802,-82.554 -10.242,-114.711Z"/><path d="M610.811,478.297c-0,0 -109.016,-106.435 56.128,-206.026c0,-0 -43.207,52.859 -38.096,107.658c2.343,25.113 -0.535,53.807 -18.032,98.368Z"/></g><g><path d="M1340.61,272.91c-0,0 53.925,24.156 75.14,75.912c17.229,34.71 40.322,66.45 63.162,83.798c-0,-0 -18.222,5.994 -32.794,4.957c-14.571,-1.037 -59.789,-19.394 -63.303,-57.511c-7.906,-38.101 -14.788,-84.922 -42.205,-107.156Z"/><path d="M1484.58,426.917c-0,-0 49.818,-143.983 -142.44,-159.086c0,-0 62.303,27.917 82.27,79.204c9.15,23.504 24.571,47.872 60.17,79.882Z"/></g><g><path d="M1730.64,566.804c0,0 -13.776,47.115 -53.97,70.432c-26.616,18.109 -50.124,40.707 -61.817,61.467c0,-0 -6.995,-14.318 -7.791,-26.428c-0.796,-12.11 9.194,-51.402 40.167,-58.608c30.462,-10.818 68.216,-21.782 83.411,-46.863Z"/><path d="M1620.19,702.721c0,0 124.137,24.704 114.806,-135.233c0,0 -15.924,54.435 -55.874,76.672c-18.307,10.191 -36.617,25.641 -58.932,58.561Z"/></g></g><g><path d="M405.161,387.66c0,0 36.852,116.624 138.231,172.545c67.277,43.677 127.051,98.704 157.295,149.789c0,0 16.655,-36.043 17.986,-66.251c1.331,-30.209 -25.668,-127.548 -103.209,-143.833c-76.465,-25.31 -171.101,-50.589 -210.303,-112.25Z"/><path d="M687.613,720.291c0,0 -307.898,68.217 -293.26,-330.693c0,0 42.596,134.741 143.308,187.987c46.154,24.401 92.595,61.901 149.952,142.706Z"/></g></g><g><g><g><path d="M1325.29,1266.31c-0,-0 -9.757,-26.094 -33.476,-37.62c-15.818,-9.142 -30.064,-20.955 -37.545,-32.219c0,-0 -3.364,8.395 -3.31,15.282c0.053,6.887 7.341,28.711 25.171,31.501c17.692,4.857 39.516,9.492 49.16,23.056Z"/><path d="M1257.13,1193.97c-0,-0 69.233,-19.145 70.603,71.767c0,-0 -11.276,-30.148 -34.813,-41.073c-10.786,-5.007 -21.791,-12.99 -35.79,-30.694Z"/></g><g><path d="M1440.45,1303.35c-0,-0 0.791,-40.669 -25.206,-69.072c-16.553,-20.919 -29.536,-44.616 -33.633,-63.93c0,0 -9.081,9.586 -12.713,18.964c-3.633,9.377 -5.478,42.921 17.223,56.299c21.403,16.109 48.534,34.14 54.329,57.739Z"/><path d="M1386.82,1168.5c0,0 104.276,11.253 57.235,135.395c0,-0 0.909,-46.989 -25.162,-74.478c-11.948,-12.598 -22.594,-29.354 -32.073,-60.917Z"/></g><g><path d="M1598.21,1305.41c0,0 -11.943,-43.132 -48.281,-64.915c-24.028,-16.856 -45.164,-37.765 -55.552,-56.843c-0,-0 -6.564,12.961 -7.448,23.991c-0.884,11.029 7.71,46.98 35.852,53.954c27.629,10.261 61.904,20.749 75.429,43.813Z"/><path d="M1499.29,1180.06c0,-0 113.492,-20.899 102.895,124.786c0,-0 -13.806,-49.834 -49.935,-70.629c-16.557,-9.53 -33.047,-23.854 -52.96,-54.157Z"/></g><g><path d="M1787,1235.68c-0,0 -34.41,-43.389 -86.321,-50.686c-35.509,-7.621 -69.676,-21.254 -90.713,-37.984c-0,-0 -1.23,17.935 3.082,30.929c4.312,12.994 31.441,49.816 66.872,44.192c36.432,-1.632 80.546,-6.209 107.08,13.549Z"/><path d="M1613.83,1140.54c-0,0 119.244,-78.544 177.424,92.573c0,-0 -39.763,-50.127 -90.96,-56.4c-23.463,-2.875 -49.16,-11.245 -86.464,-36.173Z"/></g><g><path d="M1714.5,928.671c0,-0 -26.904,64.024 -87.135,90.369c-40.312,21.196 -76.973,49.2 -96.731,76.511c0,-0 -7.542,-21.246 -6.723,-38.396c0.819,-17.15 21.149,-70.783 65.84,-75.957c44.551,-10.333 99.376,-19.703 124.749,-52.527Z"/><path d="M1537.49,1102.05c0,0 170.544,54.59 183.021,-171.724c-0,-0 -31.095,73.969 -90.81,98.836c-27.366,11.396 -55.576,30.183 -92.211,72.888Z"/></g><g><path d="M1841.63,1024.74c-0,0 -28.547,32.175 -69.119,35.609c-27.866,4.388 -54.948,13.496 -71.981,25.569c-0,-0 -0.185,-13.962 3.716,-23.855c3.901,-9.893 26.52,-37.286 53.757,-31.406c28.185,2.828 62.201,8.269 83.627,-5.917Z"/><path d="M1703.25,1091.1c0,0 89.112,66.028 141.57,-64.187c0,0 -32.987,37.171 -72.962,39.841c-18.319,1.224 -38.608,6.613 -68.608,24.346Z"/></g><g><path d="M1791.45,782.896c-0,0 -0.391,43.012 -28.728,72.251c-18.129,21.612 -32.567,46.268 -37.48,66.56c-0,0 -9.31,-10.406 -12.867,-20.428c-3.557,-10.022 -4.495,-45.535 19.905,-58.991c23.109,-16.381 52.332,-34.622 59.17,-59.392Z"/><path d="M1730.7,923.824c-0,0 110.562,-8.747 64.586,-141.388c-0,-0 -0.458,49.695 -28.846,77.966c-13.01,12.955 -24.768,30.346 -35.74,63.422Z"/></g><g><path d="M1744.32,690.6c0,0 -37.345,80.266 -115.335,110.935c-52.368,25.065 -100.412,58.978 -126.892,92.82c0,0 -8.587,-27.426 -6.721,-49.233c1.866,-21.807 30.338,-89.152 87.515,-93.597c57.248,-11.025 127.536,-20.329 161.433,-60.925Z"/><path d="M1510.52,902.967c0,0 214.626,77.725 241.382,-209.967c-0,0 -43.16,92.734 -120.421,121.545c-35.407,13.203 -72.244,35.781 -120.961,88.422Z"/></g><g><path d="M1307.97,685.348c-0,0 11.464,59.392 58.084,92.637c30.563,25.288 56.795,55.725 68.744,82.543c0,0 10.235,-16.758 12.609,-31.523c2.374,-14.764 -5.347,-64.122 -42.514,-76.537c-36.123,-16.788 -81.175,-34.596 -96.923,-67.12Z"/><path d="M1427.79,864.843c0,-0 -155.145,15.98 -125.239,-179.158c-0,-0 13.254,68.619 59.699,100.512c21.284,14.615 41.964,35.682 65.54,78.646Z"/></g><g><path d="M1386.84,869.479c-0,-0 2.705,38.485 -20.556,66.641c-14.675,20.61 -25.834,43.682 -28.786,62.174c-0,0 -9.063,-8.644 -12.955,-17.352c-3.892,-8.708 -7.252,-40.394 13.609,-54.159c19.499,-16.287 44.333,-34.671 48.688,-57.304Z"/><path d="M1342.53,999.8c-0,-0 98.235,-15.672 47.708,-131.005c0,-0 3.12,44.466 -20.255,71.759c-10.713,12.508 -19.991,28.892 -27.453,59.246Z"/></g><g><path d="M1114.39,748.727c0,0 22.033,56.332 73.904,80.582c34.64,19.333 65.951,44.514 82.561,68.724c-0,0 7.029,-18.335 6.689,-33.285c-0.34,-14.951 -16.875,-62.093 -55.675,-67.57c-38.567,-9.966 -86.1,-19.318 -107.479,-48.451Z"/><path d="M1264.75,903.546c0,-0 -149.683,43.821 -155.622,-153.506c-0,-0 25.465,65.083 76.919,88.034c23.58,10.518 47.734,27.491 78.703,65.472Z"/></g><g><path d="M1095.76,497.731c0,0 9.555,76.918 66.304,123.427c36.905,34.956 67.829,76.123 80.802,111.437c0,-0 14.524,-20.547 18.827,-39.22c4.304,-18.673 -1.328,-82.44 -47.78,-101.506c-44.742,-24.566 -100.813,-51.203 -118.153,-94.138Z"/><path d="M1233.53,737.509c0,-0 -199.727,7.106 -144.732,-239.813c-0,-0 11.051,88.87 67.692,133.634c25.957,20.514 50.587,49.225 77.04,106.179Z"/></g><g><path d="M1028.52,552.275c-0,-0 -5.876,28.17 8.479,51.321c8.769,16.711 14.692,34.886 15.011,48.85c0,-0 7.569,-5.475 11.322,-11.519c3.754,-6.044 9.429,-29.123 -4.602,-41.397c-12.77,-14.001 -29.272,-30.09 -30.21,-47.255Z"/><path d="M1048.15,653.052c-0,0 -71.022,-21.477 -22.063,-101.625c0,0 -6.784,32.549 7.742,55.074c6.657,10.323 11.864,23.366 14.321,46.551Z"/></g><g><path d="M1113.28,355.382c0,0 -25.962,26.62 -26.393,61.818c-2.046,24.3 -8.21,48.22 -17.558,63.659c-0,0 12.05,-0.711 20.337,-4.692c8.286,-3.98 30.496,-25.191 23.727,-48.31c-4.196,-24.125 -11.009,-53.116 -0.113,-72.475Z"/><path d="M1064.7,478.834c0,0 -62.488,-72.719 46.517,-126.07c0,-0 -29.993,30.761 -29.803,65.395c0.088,15.872 -3.294,33.702 -16.714,60.675Z"/></g><g><path d="M1269.87,196.645c-0,0 -39.522,93.988 -5.287,184.229c19.175,64.058 27.458,131.279 19.106,180.058c-0,0 30.033,-13.912 47.181,-32.388c17.148,-18.475 52.524,-94.893 12.044,-147.086c-34.925,-57.346 -81.412,-124.479 -73.044,-184.813Z"/><path d="M1269.83,560.42c0,-0 -232.445,-122.818 -7.868,-368.376c-0,-0 -45.65,108.599 -10.395,196.78c16.157,40.411 25.427,89.3 18.263,171.596Z"/></g><g><path d="M1088.34,173.712c-0,-0 18.955,45.078 2.535,88.36c-9.197,30.723 -13.169,62.964 -9.163,86.36c-0,-0 -14.405,-6.673 -22.629,-15.534c-8.225,-8.861 -25.192,-45.513 -5.777,-70.546c16.751,-27.505 39.047,-59.703 35.034,-88.64Z"/><path d="M1088.36,348.186c-0,-0 111.486,-58.906 3.774,-176.681c-0,-0 21.895,52.086 4.985,94.38c-7.749,19.382 -12.195,42.83 -8.759,82.301Z"/></g><g><path d="M957.678,84.408c0,-0 -27.423,65.215 -3.668,127.831c13.305,44.448 19.052,91.091 13.257,124.938c-0,0 20.839,-9.654 32.738,-22.473c11.898,-12.82 36.445,-65.844 8.357,-102.059c-24.233,-39.792 -56.49,-86.374 -50.684,-128.237Z"/><path d="M957.647,336.821c0,0 -161.287,-85.219 -5.459,-255.606c-0,-0 -31.676,75.354 -7.213,136.541c11.211,28.04 17.643,61.963 12.672,119.065Z"/></g></g><g><path d="M1604.15,335.66c0,-0 -8.803,121.99 -94.451,199.896c-55.314,58.087 -100.699,125.476 -118.272,182.181c-0,0 -24.559,-31.198 -32.859,-60.274c-8.3,-29.077 -4.609,-130.024 67.042,-163.846c68.511,-42.352 154.706,-88.887 178.54,-157.957Z"/><path d="M1406.53,724.722c-0,-0 315.324,-5.042 208.581,-389.684c0,0 -10.189,140.947 -95.809,216.095c-39.237,34.438 -75.716,81.686 -112.772,173.589Z"/></g></g><path d="M579.191,1690.55c0,0 -33.803,103.123 -94.462,103.123c-60.658,-0 -215.778,23.037 -235.744,59.898" style="fill:none;"/><path d="M935.358,1040.36l13.925,-55.642c-0,-0 23.099,-58.528 60.451,-83.102c37.352,-24.573 32.83,-5.608 54.455,-32.489c21.624,-26.88 9.046,-47.169 15.031,-59.907c-0,-0 43.744,73.647 29.118,124.747c-7.426,25.948 7.553,64.174 29.178,81.867c5.106,4.177 10.804,4.902 16.632,3.663c35.157,-86.583 168.009,-94.509 168.009,-94.509c-74.35,32.513 -108.859,86.216 -120.109,123.105c-0.213,3.848 -0.452,7.607 -0.698,11.153c10.885,-4.786 23.794,-10.674 39.011,-17.831c185.029,0.93 241.229,-182.51 241.229,-182.51c8.823,59.8 -19.075,110.708 -60.997,152.248c72.577,-35.126 122.453,-25.184 122.453,-25.184c-47.265,4.17 -105.65,36.143 -126.502,62.556c-14.186,17.968 -77.267,51.737 -116.153,71.493c32.173,-12.788 60.552,-16.161 100.119,-12.953c66.031,60.818 198.094,28.426 198.094,28.426c-81.671,52.753 -196.357,21.966 -196.357,21.966c-128.008,-38.056 -254.143,120.329 -255.275,121.756l0.03,0.027c-54.946,124.52 -5.095,241.521 43.26,314.907c11.92,6.169 22.072,9.714 29.661,8.575c43.442,-6.516 113.963,38.264 113.963,38.264c47.224,-14.419 71.559,49.561 71.559,49.561l-363.778,0l-0,-350.786l-0,350.786l-384.233,0c-0,0 44.789,-63.98 92.013,-49.561c0,-0 70.522,-44.78 113.963,-38.264c7.589,1.139 17.741,-2.406 29.661,-8.575c48.355,-73.386 98.207,-190.387 43.26,-314.907l0.031,-0.027c-1.133,-1.427 -127.267,-159.812 -255.276,-121.756c-0,0 -114.686,30.787 -196.357,-21.966c0,-0 132.063,32.392 198.095,-28.426c39.566,-3.208 67.945,0.165 100.118,12.953c-38.885,-19.756 -101.967,-53.525 -116.152,-71.493c-20.852,-26.413 -79.238,-58.386 -126.503,-62.556c0,-0 49.877,-9.942 122.454,25.184c-41.923,-41.54 -69.821,-92.448 -60.998,-152.248c0,-0 56.2,183.44 241.229,182.51c16.314,7.673 29.974,13.887 41.331,18.849c-6.756,-36.238 -40.1,-98.969 -123.126,-135.276c-0,0 153.545,9.16 174.181,115.372Zm0.581,3.229c0.196,1.17 0.374,2.352 0.536,3.545c0,0 0.458,0.139 1.314,0.363l-1.85,-3.908Z"/><path d="M658.122,1690.55c-0,0 -59,109.487 -11.324,180.494c0,0 -37.532,-129.707 67.964,-180.494l-56.64,0Z"/><path d="M834.573,1690.55c-0,0 -92.822,150.714 -17.816,248.458c0,0 -59.047,-178.547 106.925,-248.458l-89.109,0Z"/><path d="M745.306,1690.55c0,0 -92.821,62.476 -17.815,102.995c0,-0 -59.048,-74.014 106.924,-102.995l-89.109,0Z"/><path d="M925.908,1690.55c-0,0 -92.822,88.566 -17.816,146.005c0,0 -59.047,-104.922 106.925,-146.005l-89.109,0Z"/><path d="M1405.48,1690.55c-0,0 59,109.487 11.323,180.494c0,0 37.533,-129.707 -67.964,-180.494l56.641,0Z"/><path d="M1229.03,1690.55c-0,0 92.822,150.714 17.815,248.458c0,0 59.048,-178.547 -106.924,-248.458l89.109,0Z"/><path d="M1318.29,1690.55c0,0 92.822,62.476 17.815,102.995c0,-0 59.048,-74.014 -106.924,-102.995l89.109,0Z"/><path d="M1137.69,1690.55c-0,0 92.822,88.566 17.815,146.005c0,0 59.048,-104.922 -106.924,-146.005l89.109,0Z"/></svg>