<?xml version="1.0" encoding="UTF-8" standalone="no"?><!DOCTYPE svg PUBLIC "-//W3C//DTD SVG 1.1//EN" "http://www.w3.org/Graphics/SVG/1.1/DTD/svg11.dtd"><svg width="100%" height="100%" viewBox="0 0 2084 2084" version="1.1" xmlns="http://www.w3.org/2000/svg" xmlns:xlink="http://www.w3.org/1999/xlink" xml:space="preserve" xmlns:serif="http://www.serif.com/" style="fill-rule:evenodd;clip-rule:evenodd;stroke-linecap:round;stroke-linejoin:round;stroke-miterlimit:1.5;"><rect id="Artboard2" x="-0" y="-0" width="2083.33" height="2083.33" style="fill:none;"/><rect x="0" y="-0" width="2083.33" height="2083.33" style="fill:#fff;"/><g><g><g><path d="M1147.96,1866.46c0,-0 -13.117,31.867 -42.908,45.16c-19.926,10.664 -38.015,24.694 -47.719,38.318c-0,0 -3.82,-10.515 -3.476,-19.028c0.344,-8.512 10.236,-35.2 32.393,-37.93c22.069,-5.29 49.239,-10.14 61.71,-26.52Z" style="fill:#857100;"/><path d="M1060.76,1953.14c-0,-0 84.824,26.465 90.19,-85.879c-0,-0 -15.16,36.818 -44.7,49.375c-13.538,5.754 -27.467,15.179 -45.49,36.504Z" style="fill:#857100;"/></g><g><path d="M975.953,1868.4c0,-0 9.799,23.807 32.055,33.737c14.885,7.967 28.399,18.448 35.649,28.626c-0,-0 2.854,-7.855 2.597,-14.215c-0.257,-6.359 -7.647,-26.297 -24.2,-28.336c-16.487,-3.952 -36.784,-7.575 -46.101,-19.812Z" style="fill:#185000;"/><path d="M1041.1,1933.15c-0,-0 -63.369,19.771 -67.377,-64.157c-0,0 11.325,27.505 33.393,36.886c10.113,4.299 20.519,11.34 33.984,27.271Z" style="fill:#185000;"/></g><path d="M534.74,1788.82l-0,-75.938l-12.319,-0c-6.075,42.863 -24.807,63.788 -73.407,63.788l-27.844,-0l0,-228.826l30.375,-0l0,-12.15l-117.45,-0l-0,12.15l30.713,-0l-0,228.826l-30.713,-0l-0,12.15l200.645,-0Z" style="fill:#757575;fill-rule:nonzero;"/><path d="M687.796,1701.07l12.488,0l-0,-84.712l-12.488,-0c-6.075,22.612 -21.262,35.437 -40.331,35.437l-6.75,0l-0,-103.95l31.894,-0c39.488,-0 60.581,20.925 66.656,57.037l12.319,0l0,-69.187l-197.944,-0l-0,12.15l30.712,-0l0,228.826l-30.712,-0l-0,12.15l201.319,-0l0,-75.938l-12.319,-0c-6.075,42.863 -27.506,63.788 -73.575,63.788l-28.35,-0l-0,-112.726l6.75,0c19.069,0 34.256,14.513 40.331,37.125Z" style="fill:#757575;fill-rule:nonzero;"/><path d="M912.066,1686.22l0,12.994l35.607,0l-0,47.419c-5.401,15.525 -17.551,33.75 -43.201,33.75c-46.912,0 -58.894,-56.7 -58.894,-118.125c0,-61.426 20.588,-115.088 69.188,-115.088c39.15,-0 64.463,30.206 73.913,63.956l12.487,0l0,-75.431l-10.631,-0l-27.675,14.006c-16.031,-10.8 -35.269,-17.381 -53.494,-17.381c-68.513,-0 -126.732,50.625 -126.732,129.938c0,79.313 45.563,129.938 121.838,129.938c55.013,-0 78.469,-31.725 102.77,-55.013l-0,-37.969l16.368,0l0,-12.994l-111.544,0Z" style="fill:#757575;fill-rule:nonzero;"/><path d="M1010.45,1776.67l-0,12.15l74.756,-0l0,-12.15l-31.05,-0l21.938,-62.776l79.988,0l20.418,62.776l-28.181,-0l0,12.15l121.501,-0l-0,-12.15l-28.182,-0l-85.219,-245.701l-29.362,-0l-87.076,245.701l-29.531,-0Zm107.156,-181.576l34.426,106.65l-71.719,0l37.293,-106.65Z" style="fill:#757575;fill-rule:nonzero;"/><path d="M1479.41,1713.38l-12.656,0c-16.032,36.788 -32.738,63.957 -75.263,63.957c-48.6,-0 -63.113,-53.663 -63.113,-115.088c0,-61.426 14.513,-115.088 63.113,-115.088c33.581,-0 55.688,23.456 71.888,63.956l12.487,0l0,-75.431l-10.631,-0l-24.975,16.368c-14.344,-12.487 -31.894,-19.743 -52.144,-19.743c-76.613,-0 -122.682,55.012 -122.682,129.938c0,74.925 46.069,129.938 122.682,129.938c22.781,-0 42.019,-7.425 57.038,-20.082l23.287,16.707l10.969,-0l0,-75.432Z" style="fill:#757575;fill-rule:nonzero;"/><path d="M1572.56,1776.67l0,12.15l120.32,-0l-0,-12.15l-33.75,-0l-0,-113.907l66.656,-114.919l23.456,-0l0,-12.15l-69.187,-0l-0,12.15l31.219,-0l-57.038,97.875l-55.688,-97.875l29.531,-0l0,-12.15l-122.175,-0l-0,12.15l27.338,-0l69.525,119.475l-0,109.351l-30.207,-0Z" style="fill:#757575;fill-rule:nonzero;"/><path d="M334.095,1845.75l19.89,-0l0,112.141l51.784,-0l0,12.86l-69.274,0l0,-113.856l-2.4,-11.145Z" style="fill:#757575;fill-rule:nonzero;"/><path d="M422.23,1845.75l75.79,-0l-0,12.86l-55.899,-0l-0,41.496l43.21,-0l0,12.86l-43.21,-0l-0,44.925l55.899,-0l-0,12.86l-73.389,0l-0,-113.856l-2.401,-11.145Z" style="fill:#757575;fill-rule:nonzero;"/><path d="M567.122,1845.75l43.382,125.001l-19.205,0l-14.06,-41.496l-40.295,0l-14.232,41.496l-15.433,0l43.554,-125.001l16.289,-0Zm-9.945,22.805l-15.947,48.012l31.722,-0l-15.775,-48.012Z" style="fill:#757575;fill-rule:nonzero;"/><path d="M725.903,1908.51c0,12.117 -2.115,22.834 -6.344,32.15c-4.23,9.317 -10.603,16.661 -19.119,22.034c-8.516,5.373 -19.176,8.059 -31.979,8.059l-41.496,0l0,-113.856c0,-0.114 -0.2,-1 -0.6,-2.658c-0.4,-1.657 -0.772,-3.4 -1.115,-5.229c-0.342,-1.829 -0.571,-2.915 -0.685,-3.258l35.322,-0c13.604,-0 25.321,2.2 35.152,6.601c9.831,4.401 17.432,11.232 22.805,20.491c5.373,9.259 8.059,21.148 8.059,35.666Zm-18.519,-0c0,-8.345 -1.028,-15.633 -3.086,-21.863c-2.058,-6.23 -5.115,-11.431 -9.174,-15.604c-4.058,-4.172 -9.116,-7.287 -15.175,-9.345c-6.058,-2.057 -13.203,-3.086 -21.433,-3.086l-14.061,-0l0,99.281l22.12,-0c10.059,-0 18.061,-2.258 24.005,-6.773c5.945,-4.516 10.231,-10.517 12.861,-18.005c2.629,-7.487 3.943,-15.689 3.943,-24.605Z" style="fill:#757575;fill-rule:nonzero;"/><path d="M744.422,1845.75l75.79,-0l-0,12.86l-55.9,-0l0,41.496l43.211,-0l-0,12.86l-43.211,-0l0,44.925l55.9,-0l-0,12.86l-73.389,0l-0,-113.856l-2.401,-11.145Z" style="fill:#757575;fill-rule:nonzero;"/><path d="M838.387,1845.75l38.41,-0c7.887,-0 15.032,1.028 21.433,3.086c6.402,2.058 11.46,5.573 15.175,10.546c3.716,4.972 5.573,11.917 5.573,20.833c0,4.573 -1.114,9.002 -3.344,13.289c-2.229,4.287 -5.201,8.002 -8.916,11.146c-3.715,3.143 -7.745,5.401 -12.089,6.773l35.666,59.328l-20.233,0l-32.751,-56.071l-19.033,0l-0,56.071l-17.49,0l-0,-113.856l-2.401,-11.145Zm19.891,13.031l-0,43.211l13.203,-0c5.487,-0 10.431,-0.629 14.832,-1.886c4.401,-1.258 7.888,-3.544 10.46,-6.859c2.572,-3.315 3.858,-7.945 3.858,-13.889c-0,-4.687 -1.143,-8.545 -3.43,-11.574c-2.286,-3.03 -5.258,-5.287 -8.916,-6.774c-3.658,-1.486 -7.659,-2.229 -12.003,-2.229l-18.004,0Z" style="fill:#757575;fill-rule:nonzero;"/><path d="M1256.04,1843.9c4.456,-0 9.282,0.485 14.481,1.457c5.198,0.971 10.224,2.484 15.08,4.541c4.855,2.056 8.882,4.741 12.081,8.054l-9.768,11.31c-3.541,-2.856 -6.854,-5.169 -9.939,-6.94c-3.085,-1.771 -6.283,-3.113 -9.597,-4.027c-3.313,-0.914 -7.425,-1.371 -12.338,-1.371c-7.426,-0 -13.681,1.428 -18.765,4.284c-5.084,2.856 -9.225,6.683 -12.424,11.482c-3.199,4.798 -5.541,10.253 -7.026,16.365c-1.485,6.112 -2.228,12.424 -2.228,18.936c0,6.055 0.686,12.11 2.057,18.165c1.371,6.055 3.57,11.568 6.597,16.537c3.028,4.97 6.969,8.94 11.825,11.91c4.855,2.971 10.882,4.456 18.079,4.456c5.826,-0 10.91,-1.285 15.252,-3.856c4.341,-2.57 7.711,-6.083 10.11,-10.539c2.399,-4.456 3.599,-9.597 3.599,-15.423l0,-11.139l-29.646,0l2.056,-12.338l45.412,-0l-0.171,34.959c-0,4.912 0.171,9.882 0.514,14.908c0.343,5.027 0.685,9.997 1.028,14.909l-9.425,0l-5.484,-13.023c-5.141,5.369 -10.596,9.225 -16.365,11.567c-5.77,2.342 -12.424,3.513 -19.965,3.513c-9.025,-0 -16.908,-1.685 -23.648,-5.055c-6.741,-3.371 -12.367,-7.998 -16.88,-13.881c-4.513,-5.884 -7.854,-12.596 -10.025,-20.136c-2.171,-7.54 -3.256,-15.537 -3.256,-23.991c-0,-12.453 2.199,-23.621 6.598,-33.503c4.398,-9.882 10.967,-17.708 19.707,-23.477c8.74,-5.769 19.564,-8.654 32.474,-8.654Z" style="fill:#757575;fill-rule:nonzero;"/><path d="M1322.7,1845.61l38.386,-0c7.883,-0 15.023,1.028 21.421,3.084c6.398,2.057 11.453,5.57 15.166,10.539c3.713,4.97 5.57,11.91 5.57,20.821c-0,4.57 -1.114,8.997 -3.342,13.281c-2.228,4.285 -5.198,7.998 -8.911,11.139c-3.713,3.142 -7.74,5.398 -12.082,6.769l35.645,59.293l-20.221,0l-32.732,-56.037l-19.021,0l-0,56.037l-17.48,0l0,-113.788l-2.399,-11.138Zm19.879,13.024l-0,43.184l13.195,0c5.484,0 10.425,-0.628 14.823,-1.885c4.399,-1.257 7.883,-3.542 10.454,-6.855c2.57,-3.313 3.855,-7.94 3.855,-13.88c0,-4.684 -1.142,-8.54 -3.427,-11.568c-2.285,-3.027 -5.255,-5.284 -8.911,-6.769c-3.656,-1.485 -7.655,-2.227 -11.996,-2.227l-17.993,-0Z" style="fill:#757575;fill-rule:nonzero;"/><path d="M1472.65,1972.42c-9.253,0 -17.393,-1.713 -24.419,-5.141c-7.026,-3.427 -12.882,-8.111 -17.566,-14.052c-4.684,-5.94 -8.197,-12.767 -10.539,-20.478c-2.342,-7.712 -3.513,-15.909 -3.513,-24.591c0,-8.683 1.171,-16.88 3.513,-24.592c2.342,-7.711 5.827,-14.566 10.454,-20.564c4.627,-5.997 10.482,-10.682 17.565,-14.052c7.083,-3.37 15.309,-5.055 24.677,-5.055c9.482,-0 17.736,1.685 24.762,5.055c7.026,3.37 12.881,8.026 17.566,13.967c4.684,5.94 8.197,12.795 10.539,20.564c2.342,7.768 3.513,16.051 3.513,24.848c-0,8.683 -1.2,16.88 -3.599,24.591c-2.399,7.712 -5.941,14.538 -10.625,20.479c-4.684,5.94 -10.539,10.596 -17.565,13.966c-7.026,3.37 -15.28,5.055 -24.763,5.055Zm0.343,-12.681c7.198,0 13.195,-1.513 17.994,-4.541c4.798,-3.027 8.654,-7.055 11.567,-12.081c2.913,-5.027 4.998,-10.568 6.255,-16.623c1.257,-6.055 1.885,-12.11 1.885,-18.165c-0,-6.055 -0.628,-12.11 -1.885,-18.165c-1.257,-6.055 -3.342,-11.596 -6.255,-16.623c-2.913,-5.026 -6.798,-9.082 -11.653,-12.167c-4.855,-3.084 -10.825,-4.627 -17.908,-4.627c-7.083,0 -13.052,1.514 -17.908,4.542c-4.855,3.027 -8.711,7.054 -11.567,12.081c-2.856,5.027 -4.941,10.568 -6.255,16.623c-1.314,6.055 -1.971,12.11 -1.971,18.165c0,6.055 0.657,12.11 1.971,18.165c1.314,6.055 3.399,11.624 6.255,16.708c2.856,5.084 6.712,9.14 11.567,12.167c4.856,3.028 10.825,4.541 17.908,4.541Z" style="fill:#757575;fill-rule:nonzero;"/><path d="M1568.1,1845.61l0,83.113c0,9.368 2.428,16.879 7.283,22.535c4.856,5.655 12.196,8.482 22.021,8.482c10.168,0 17.908,-3.027 23.22,-9.082c5.313,-6.055 7.969,-13.995 7.969,-23.82l-0,-81.228l14.566,-0l-0,80.028c-0,10.054 -1.885,18.565 -5.655,25.534c-3.77,6.969 -9.14,12.281 -16.109,15.937c-6.969,3.656 -15.308,5.484 -25.019,5.484c-14.624,-0 -25.991,-3.827 -34.102,-11.482c-8.112,-7.654 -12.168,-18.85 -12.168,-33.588l0,-70.775l-2.57,-11.138l20.564,-0Z" style="fill:#757575;fill-rule:nonzero;"/><path d="M1668.7,1845.61l37.872,-0c8.226,-0 15.566,1.256 22.021,3.77c6.454,2.513 11.51,6.512 15.166,11.995c3.656,5.484 5.483,12.796 5.483,21.935c0,8.455 -1.942,15.452 -5.826,20.993c-3.884,5.541 -9.025,9.711 -15.423,12.51c-6.398,2.799 -13.481,4.198 -21.25,4.198l-17.993,0l-0,49.525l-17.48,0l0,-113.788l-2.57,-11.138Zm20.05,12.852l-0,49.868l17.822,0c7.54,0 13.481,-2.313 17.822,-6.94c4.341,-4.627 6.512,-10.654 6.512,-18.08c0,-7.768 -2.056,-13.852 -6.169,-18.25c-4.113,-4.399 -10.111,-6.598 -17.994,-6.598l-17.993,0Z" style="fill:#757575;fill-rule:nonzero;"/><path d="M335.28,1480.33l1413.96,0" style="fill:none;stroke:#757575;stroke-width:8.33px;"/><g><g><g><g><g><path d="M852.376,1039.72c-0,-0 6.253,-16.725 21.456,-24.112c10.138,-5.86 19.268,-13.431 24.063,-20.65c-0,-0 2.156,5.38 2.122,9.795c-0.034,4.414 -4.706,18.401 -16.133,20.19c-11.339,3.112 -25.327,6.083 -31.508,14.777Z" style="fill:#857100;"/><path d="M896.067,993.362c-0,0 -44.374,-12.27 -45.252,45.997c-0,0 7.227,-19.322 22.312,-26.324c6.913,-3.209 13.967,-8.325 22.94,-19.673Z" style="fill:#857100;"/></g><g><path d="M827.252,1108.65c0,0 -6.506,-16.627 -0.116,-32.275c3.638,-11.13 5.384,-22.862 4.135,-31.438c0,-0 5.197,2.567 8.118,5.877c2.921,3.31 8.779,16.843 1.463,25.803c-6.366,9.886 -14.799,21.434 -13.6,32.033Z" style="fill:#857100;"/><path d="M828.842,1044.96c0,-0 -41.232,20.48 -2.995,64.455c-0,0 -7.515,-19.212 -0.956,-34.495c3.006,-7.004 4.844,-15.522 3.951,-29.96Z" style="fill:#857100;"/></g><g><path d="M778.572,1063.47c-0,-0 -0.507,-26.066 16.155,-44.271c10.61,-13.407 18.93,-28.595 21.556,-40.973c-0,-0 5.82,6.143 8.149,12.154c2.328,6.01 3.511,27.509 -11.039,36.084c-13.718,10.324 -31.107,21.88 -34.821,37.006Z" style="fill:#857100;"/><path d="M812.941,977.034c-0,0 -66.833,7.212 -36.684,86.778c0,0 -0.582,-30.116 16.128,-47.735c7.657,-8.074 14.48,-18.813 20.556,-39.043Z" style="fill:#857100;"/></g><g><path d="M677.457,1064.79c-0,0 7.655,-27.645 30.945,-41.606c15.4,-10.803 28.947,-24.204 35.605,-36.432c-0,-0 4.207,8.307 4.773,15.376c0.567,7.069 -4.941,30.111 -22.978,34.581c-17.709,6.577 -39.676,13.299 -48.345,28.081Z" style="fill:#857100;"/><path d="M740.856,984.444c-0,0 -72.74,-13.394 -65.949,79.979c0,-0 8.849,-31.94 32.005,-45.268c10.612,-6.108 21.181,-15.288 33.944,-34.711Z" style="fill:#857100;"/></g><g><path d="M726.052,1152.39c-0,-0 -7.934,-27.566 4.616,-51.646c7.476,-17.263 12.013,-35.77 11.293,-49.675c-0,0 7.93,4.881 12.11,10.61c4.18,5.729 11.536,28.249 -1.499,41.492c-11.654,14.867 -26.863,32.086 -26.52,49.219Z" style="fill:#857100;"/><path d="M738.07,1050.75c0,0 -69.004,26.626 -14.381,102.659c-0,0 -9.162,-31.85 3.604,-55.321c5.85,-10.756 10.057,-24.109 10.777,-47.338Z" style="fill:#857100;"/></g><g><path d="M556.459,1020.09c-0,0 22.054,-27.809 55.325,-32.486c22.759,-4.885 44.657,-13.622 58.141,-24.345c-0,-0 0.788,11.495 -1.976,19.823c-2.763,8.328 -20.151,31.928 -42.86,28.324c-23.35,-1.046 -51.624,-3.98 -68.63,8.684Z" style="fill:#857100;"/><path d="M667.445,959.118c-0,-0 -76.427,-50.341 -113.716,59.332c-0,-0 25.485,-32.128 58.299,-36.148c15.037,-1.843 31.508,-7.207 55.417,-23.184Z" style="fill:#857100;"/></g><g><path d="M556.287,1126.12c0,0 10.662,-33.854 40.066,-50.11c19.511,-12.693 36.842,-28.679 45.604,-43.512c-0,0 4.843,10.455 5.238,19.221c0.395,8.766 -7.413,37.021 -29.911,41.768c-22.182,7.366 -49.638,14.729 -60.997,32.633Z" style="fill:#857100;"/><path d="M638.16,1029.51c0,-0 -89.369,-19.71 -85.01,96.047c0,-0 12.324,-39.113 41.535,-54.593c13.387,-7.094 26.853,-17.989 43.475,-41.454Z" style="fill:#857100;"/></g><g><path d="M602.922,823.324c-0,-0 17.244,41.034 55.847,57.92c25.837,13.585 49.334,31.533 61.998,49.038c-0,-0 4.833,-13.617 4.308,-24.609c-0.524,-10.992 -13.554,-45.367 -42.198,-48.683c-28.554,-6.623 -63.693,-12.628 -79.955,-33.666Z" style="fill:#857100;"/><path d="M716.372,934.449c0,0 -109.306,34.988 -117.302,-110.063c-0,0 19.929,47.409 58.202,63.347c17.539,7.304 35.62,19.345 59.1,46.716Z" style="fill:#857100;"/></g><g><path d="M521.443,884.895c0,0 18.296,20.622 44.3,22.823c17.86,2.812 35.218,8.65 46.135,16.388c-0,-0 0.118,-8.949 -2.382,-15.29c-2.501,-6.34 -16.998,-23.898 -34.455,-20.128c-18.064,1.812 -39.866,5.299 -53.598,-3.793Z" style="fill:#857100;"/><path d="M610.132,927.426c0,-0 -57.114,42.319 -90.736,-41.139c0,-0 21.143,23.824 46.764,25.535c11.741,0.784 24.745,4.238 43.972,15.604Z" style="fill:#857100;"/></g><g><path d="M404.929,912.502c-0,-0 25.628,28.885 62.053,31.968c25.017,3.939 49.331,12.116 64.622,22.955c0,0 0.166,-12.535 -3.336,-21.416c-3.502,-8.882 -23.809,-33.475 -48.262,-28.195c-25.303,2.538 -55.842,7.423 -75.077,-5.312Z" style="fill:#857100;"/><path d="M529.159,972.076c0,-0 -80.002,59.277 -127.097,-57.625c-0,-0 29.615,33.371 65.503,35.768c16.447,1.098 34.662,5.936 61.594,21.857Z" style="fill:#857100;"/></g><g><path d="M540.619,738.216c0,0 8.576,26.201 31.554,38.571c15.265,9.689 28.864,21.954 35.799,33.398c-0,0 3.67,-8.162 3.901,-14.973c0.23,-6.812 -6.08,-28.689 -23.594,-32.181c-17.293,-5.528 -38.682,-11.008 -47.66,-24.815Z" style="fill:#857100;"/><path d="M605.049,812.536c-0,0 -69.24,16.086 -66.861,-73.858c-0,-0 9.911,30.271 32.734,42.04c10.459,5.393 21.012,13.738 34.127,31.818Z" style="fill:#857100;"/></g><g><path d="M636.697,643.406c-0,-0 -3.028,56.659 31.871,97.488c22.088,29.946 39.066,63.597 43.863,90.717c0,-0 13.115,-12.934 18.623,-25.836c5.507,-12.901 9.668,-59.578 -21.348,-79.304c-29.076,-23.47 -66.047,-49.891 -73.009,-83.065Z" style="fill:#857100;"/><path d="M705.074,833.949c-0,-0 -144.842,-20.622 -73.387,-191.466c0,0 -3.49,65.465 31.556,105.023c16.061,18.128 30.109,41.992 41.831,86.443Z" style="fill:#857100;"/></g><g><path d="M843.53,657.938c-0,-0 4.717,38.48 -17.161,67.945c-13.655,21.447 -23.652,45.181 -25.653,63.892c0,-0 -9.545,-8.203 -13.903,-16.74c-4.359,-8.536 -9.38,-40.159 10.839,-55.057c18.721,-17.36 42.686,-37.101 45.878,-60.04Z" style="fill:#857100;"/><path d="M805.841,791.024c0,-0 97.767,-20.838 41.061,-133.95c-0,0 5.444,44.461 -16.594,73.067c-10.099,13.109 -18.558,30.034 -24.467,60.883Z" style="fill:#857100;"/></g><g><path d="M827.096,785.084c-0,0 -2.971,24.238 10.809,42.797c8.601,13.509 14.898,28.458 16.158,40.244c0,0 6.013,-5.167 8.758,-10.543c2.745,-5.377 5.908,-25.296 -6.827,-34.68c-11.792,-10.934 -26.887,-23.369 -28.898,-37.818Z" style="fill:#857100;"/><path d="M850.835,868.912c0,0 -61.581,-13.125 -25.863,-84.372c0,0 -3.429,28.005 10.452,46.023c6.361,8.258 11.689,18.918 15.411,38.349Z" style="fill:#857100;"/></g><g><path d="M990.908,701.507c-0,0 -14.122,36.105 -47.367,51.647c-22.202,12.391 -42.27,28.531 -52.916,44.047c0,0 -4.505,-11.751 -4.287,-21.333c0.218,-9.582 10.816,-39.797 35.684,-43.307c24.718,-6.388 55.184,-12.382 68.886,-31.054Z" style="fill:#857100;"/><path d="M894.542,800.735c0,-0 95.936,28.086 99.743,-98.386c0,-0 -16.321,41.713 -49.299,56.423c-15.113,6.741 -30.594,17.619 -50.444,41.963Z" style="fill:#857100;"/></g><g><path d="M999.491,547.123c0,-0 -6.124,49.299 -42.496,79.107c-23.653,22.404 -43.473,48.79 -51.788,71.423c0,0 -9.308,-13.169 -12.067,-25.137c-2.758,-11.968 0.852,-52.838 30.624,-65.057c28.677,-15.746 64.614,-32.818 75.727,-60.336Z" style="fill:#857100;"/><path d="M911.188,700.803c0,-0 128.011,4.554 92.763,-153.703c0,0 -7.083,56.959 -43.386,85.65c-16.636,13.148 -32.422,31.549 -49.377,68.053Z" style="fill:#857100;"/></g><g><path d="M1031.26,644.214c-0,0 -3.667,23.549 9.187,42.09c7.961,13.45 13.63,28.232 14.485,39.769c-0,-0 6.028,-4.85 8.877,-10.007c2.848,-5.158 6.565,-24.488 -5.56,-34.045c-11.156,-11.04 -25.486,-23.649 -26.989,-37.807Z" style="fill:#857100;"/><path d="M1051.76,726.738c0,-0 -59.654,-14.756 -22.553,-83.122c0,0 -4.233,27.209 8.736,45.226c5.943,8.256 10.803,18.824 13.817,37.896Z" style="fill:#857100;"/></g><g><path d="M975.581,801.549c0,0 -2.065,13.261 5.173,23.702c4.484,7.574 7.676,15.898 8.157,22.394c0,-0 3.395,-2.731 4.999,-5.635c1.604,-2.905 3.697,-13.789 -3.131,-19.171c-6.282,-6.217 -14.351,-13.317 -15.198,-21.29Z" style="fill:#857100;"/><path d="M987.124,848.019c0,0 -33.591,-8.309 -12.7,-46.806c0,-0 -2.383,15.322 4.92,25.467c3.346,4.649 6.083,10.6 7.78,21.339Z" style="fill:#857100;"/></g><g><path d="M1021.79,756.378c-0,0 2.61,16.764 -6.54,29.964c-5.668,9.575 -9.703,20.098 -10.312,28.31c-0,0 -4.292,-3.452 -6.319,-7.124c-2.028,-3.672 -4.674,-17.432 3.958,-24.236c7.941,-7.859 18.143,-16.835 19.213,-26.914Z" style="fill:#857100;"/><path d="M1007.2,815.126c0,-0 42.467,-10.505 16.055,-59.173c0,-0 3.014,19.369 -6.219,32.195c-4.231,5.877 -7.69,13.4 -9.836,26.978Z" style="fill:#857100;"/></g><g><path d="M1038.17,398.03c0,0 -21.297,10.698 -28.919,31.932c-6.321,14.295 -15.059,27.497 -23.951,34.896c0,0 7.449,2.089 13.302,1.411c5.853,-0.679 23.745,-8.885 24.479,-24.306c2.504,-15.494 4.439,-34.483 15.089,-43.933Z" style="fill:#857100;"/><path d="M982.919,462.661c-0,0 -22.65,-57.125 54.548,-66.65c-0,-0 -24.605,12.364 -31.733,33.387c-3.266,9.634 -9.044,19.729 -22.815,33.263Z" style="fill:#857100;"/></g><g><path d="M887.897,354.149c-0,-0 25.33,60.239 3.388,118.077c-12.29,41.056 -17.599,84.14 -12.245,115.404c-0,0 -19.249,-8.917 -30.24,-20.758c-10.99,-11.842 -33.664,-60.82 -7.719,-94.271c22.384,-36.756 52.179,-79.783 46.816,-118.452Z" style="fill:#857100;"/><path d="M887.925,587.302c0,-0 148.981,-78.717 5.043,-236.102c0,-0 29.259,69.604 6.663,126.122c-10.356,25.9 -16.297,57.234 -11.706,109.98Z" style="fill:#857100;"/></g><g><path d="M804.35,405.091c-0,0 -23.972,29.319 -21.277,65.068c0.088,24.837 -4.038,49.654 -12.148,66.15c0,0 12.163,-1.794 20.216,-6.57c8.053,-4.776 28.699,-28.273 19.773,-51.126c-6.404,-24.104 -15.896,-52.911 -6.564,-73.522Z" style="fill:#857100;"/><path d="M766.041,534.667c-0,0 -69.871,-68.217 35.974,-132.048c0,0 -27.692,33.879 -24.417,69.001c1.502,16.096 -0.342,34.487 -11.557,63.047Z" style="fill:#857100;"/></g><g><path d="M591.321,373.533c0,0 -0.501,26.46 16.422,44.931c10.777,13.604 19.231,29.018 21.903,41.582c-0,0 5.905,-6.239 8.266,-12.341c2.36,-6.103 3.55,-27.927 -11.225,-36.624c-13.93,-10.474 -31.588,-22.196 -35.366,-37.548Z" style="fill:#857100;"/><path d="M626.254,461.254c-0,0 -67.847,-7.287 -37.283,-88.07c0,-0 -0.576,30.571 16.396,48.448c7.778,8.192 14.709,19.09 20.887,39.622Z" style="fill:#857100;"/></g><g><path d="M417.659,676.402c0,0 12.729,23.203 36.599,30.806c16.117,6.439 31.119,15.604 39.688,25.174c-0,-0 2.018,-8.351 1.03,-14.819c-0.989,-6.467 -10.815,-25.991 -27.958,-26.185c-17.294,-2.155 -38.444,-3.538 -49.359,-14.976Z" style="fill:#857100;"/><path d="M491.604,735.117c0,0 -62.479,27.434 -76.157,-57.849c-0,0 14.71,26.806 38.326,33.87c10.823,3.237 22.257,9.242 37.831,23.979Z" style="fill:#857100;"/></g></g><g><path d="M634.235,476.576c-0,-0 23.619,74.747 88.596,110.588c43.119,27.994 81.43,63.262 100.814,96.004c0,-0 10.674,-23.101 11.528,-42.462c0.853,-19.362 -16.452,-81.749 -66.15,-92.187c-49.008,-16.222 -109.663,-32.424 -134.788,-71.943Z" style="fill:#857100;"/><path d="M815.266,689.768c-0,-0 -197.34,43.722 -187.959,-211.95c0,-0 27.301,86.359 91.851,120.485c29.581,15.64 59.346,39.674 96.108,91.465Z" style="fill:#857100;"/></g><g><path d="M513.419,390.589c0,0 -25.163,79.72 9.607,150.808c20.496,50.849 32.339,105.103 29.206,145.559c0,0 23.468,-13.628 36.072,-30.008c12.604,-16.38 35.71,-81.442 -1.282,-120.994c-32.848,-44.18 -75.875,-95.475 -73.603,-145.365Z" style="fill:#857100;"/><path d="M540.875,687.585c0,0 -199.055,-82.703 -34.264,-300.155c0,0 -29.062,92.113 6.386,161.441c16.244,31.772 27.507,70.985 27.878,138.714Z" style="fill:#857100;"/></g><g><path d="M660.677,198.752c0,0 -15.847,67.799 17.53,124.632c20.243,40.93 33.514,85.236 33.475,119.032c0,-0 18.626,-12.805 28.056,-27.206c9.429,-14.401 24.497,-69.896 -8.729,-100.4c-30.077,-34.609 -69.058,-74.482 -70.332,-116.058Z" style="fill:#857100;"/><path d="M702.29,443.658c0,-0 -170.546,-56.074 -47.466,-247.098c-0,0 -18.301,78.337 15.528,133.667c15.503,25.356 27.34,57.208 31.938,113.431Z" style="fill:#857100;"/></g><g><path d="M850.985,203.014c-0,-0 11.012,47.109 -12.181,86.599c-14.065,28.44 -23.286,59.225 -23.259,82.708c-0,-0 -12.942,-8.897 -19.494,-18.904c-6.552,-10.006 -17.022,-48.567 6.065,-69.761c20.898,-24.048 47.984,-51.754 48.869,-80.642Z" style="fill:#857100;"/><path d="M822.071,373.184c-0,-0 118.502,-38.963 32.981,-171.693c0,-0 12.716,54.431 -10.789,92.876c-10.773,17.619 -18.998,39.751 -22.192,78.817Z" style="fill:#857100;"/></g><g><path d="M316.816,720.569c0,-0 39.05,57.644 103.446,71.689c43.801,12.902 85.353,33.216 110.152,56.176c-0,0 3.232,-22.37 -0.948,-39.068c-4.181,-16.698 -34.723,-65.422 -79.675,-61.712c-45.831,-1.39 -101.571,0.19 -132.975,-27.085Z" style="fill:#857100;"/><path d="M524.953,856.176c0,-0 -156.911,87.231 -213.719,-132.794c-0,-0 45.127,66.597 108.724,79.289c29.146,5.817 60.575,18.734 104.995,53.505Z" style="fill:#857100;"/></g></g><g><g><g><path d="M1230.96,1039.72c0,-0 -6.253,-16.725 -21.455,-24.112c-10.138,-5.86 -19.269,-13.431 -24.064,-20.65c0,-0 -2.155,5.38 -2.121,9.795c0.034,4.414 4.705,18.401 16.133,20.19c11.339,3.112 25.327,6.083 31.507,14.777Z" style="fill:#857100;"/><path d="M1187.27,993.362c-0,0 44.373,-12.27 45.252,45.997c-0,0 -7.228,-19.322 -22.313,-26.324c-6.913,-3.209 -13.967,-8.325 -22.939,-19.673Z" style="fill:#857100;"/></g><g><path d="M1256.08,1108.65c-0,0 6.506,-16.627 0.116,-32.275c-3.638,-11.13 -5.383,-22.862 -4.135,-31.438c-0,-0 -5.197,2.567 -8.118,5.877c-2.921,3.31 -8.778,16.843 -1.462,25.803c6.366,9.886 14.799,21.434 13.599,32.033Z" style="fill:#857100;"/><path d="M1254.49,1044.96c0,-0 41.233,20.48 2.995,64.455c0,0 7.515,-19.212 0.956,-34.495c-3.006,-7.004 -4.844,-15.522 -3.951,-29.96Z" style="fill:#857100;"/></g><g><path d="M1304.76,1063.47c0,-0 0.508,-26.066 -16.154,-44.271c-10.61,-13.407 -18.931,-28.595 -21.557,-40.973c0,-0 -5.82,6.143 -8.148,12.154c-2.328,6.01 -3.511,27.509 11.039,36.084c13.717,10.324 31.107,21.88 34.82,37.006Z" style="fill:#857100;"/><path d="M1270.39,977.034c-0,0 66.833,7.212 36.683,86.778c0,0 0.583,-30.116 -16.127,-47.735c-7.658,-8.074 -14.481,-18.813 -20.556,-39.043Z" style="fill:#857100;"/></g><g><path d="M1405.88,1064.79c0,0 -7.655,-27.645 -30.945,-41.606c-15.4,-10.803 -28.946,-24.204 -35.604,-36.432c-0,-0 -4.208,8.307 -4.774,15.376c-0.567,7.069 4.941,30.111 22.978,34.581c17.709,6.577 39.677,13.299 48.345,28.081Z" style="fill:#857100;"/><path d="M1342.48,984.444c-0,0 72.739,-13.394 65.948,79.979c-0,-0 -8.849,-31.94 -32.005,-45.268c-10.612,-6.108 -21.181,-15.288 -33.943,-34.711Z" style="fill:#857100;"/></g><g><path d="M1357.28,1152.39c0,-0 7.934,-27.566 -4.615,-51.646c-7.476,-17.263 -12.014,-35.77 -11.293,-49.675c-0,0 -7.931,4.881 -12.111,10.61c-4.18,5.729 -11.536,28.249 1.5,41.492c11.654,14.867 26.862,32.086 26.519,49.219Z" style="fill:#857100;"/><path d="M1345.26,1050.75c-0,0 69.004,26.626 14.381,102.659c0,0 9.163,-31.85 -3.604,-55.321c-5.85,-10.756 -10.057,-24.109 -10.777,-47.338Z" style="fill:#857100;"/></g><g><path d="M1526.87,1020.09c0,0 -22.053,-27.809 -55.325,-32.486c-22.758,-4.885 -44.657,-13.622 -58.14,-24.345c-0,-0 -0.788,11.495 1.975,19.823c2.764,8.328 20.152,31.928 42.86,28.324c23.35,-1.046 51.624,-3.98 68.63,8.684Z" style="fill:#857100;"/><path d="M1415.89,959.118c0,-0 76.428,-50.341 113.717,59.332c-0,-0 -25.486,-32.128 -58.299,-36.148c-15.038,-1.843 -31.508,-7.207 -55.418,-23.184Z" style="fill:#857100;"/></g><g><path d="M1527.05,1126.12c-0,0 -10.662,-33.854 -40.066,-50.11c-19.511,-12.693 -36.841,-28.679 -45.604,-43.512c0,0 -4.843,10.455 -5.238,19.221c-0.394,8.766 7.414,37.021 29.911,41.768c22.182,7.366 49.638,14.729 60.997,32.633Z" style="fill:#857100;"/><path d="M1445.17,1029.51c0,-0 89.369,-19.71 85.01,96.047c-0,-0 -12.324,-39.113 -41.535,-54.593c-13.386,-7.094 -26.853,-17.989 -43.475,-41.454Z" style="fill:#857100;"/></g><g><path d="M1480.41,823.324c-0,-0 -17.244,41.034 -55.848,57.92c-25.837,13.585 -49.334,31.533 -61.997,49.038c-0,-0 -4.834,-13.617 -4.309,-24.609c0.525,-10.992 13.555,-45.367 42.198,-48.683c28.555,-6.623 63.693,-12.628 79.956,-33.666Z" style="fill:#857100;"/><path d="M1366.96,934.449c0,0 109.306,34.988 117.303,-110.063c-0,0 -19.93,47.409 -58.203,63.347c-17.539,7.304 -35.619,19.345 -59.1,46.716Z" style="fill:#857100;"/></g><g><path d="M1561.89,884.895c0,0 -18.296,20.622 -44.3,22.823c-17.86,2.812 -35.217,8.65 -46.134,16.388c-0,-0 -0.119,-8.949 2.382,-15.29c2.5,-6.34 16.997,-23.898 34.454,-20.128c18.064,1.812 39.866,5.299 53.598,-3.793Z" style="fill:#857100;"/><path d="M1473.2,927.426c0,-0 57.114,42.319 90.736,-41.139c0,-0 -21.142,23.824 -46.763,25.535c-11.742,0.784 -24.745,4.238 -43.973,15.604Z" style="fill:#857100;"/></g><g><path d="M1678.4,912.502c0,-0 -25.628,28.885 -62.053,31.968c-25.016,3.939 -49.33,12.116 -64.622,22.955c-0,0 -0.166,-12.535 3.337,-21.416c3.502,-8.882 23.808,-33.475 48.261,-28.195c25.303,2.538 55.842,7.423 75.077,-5.312Z" style="fill:#857100;"/><path d="M1554.17,972.076c-0,-0 80.002,59.277 127.097,-57.625c0,-0 -29.615,33.371 -65.503,35.768c-16.447,1.098 -34.661,5.936 -61.594,21.857Z" style="fill:#857100;"/></g><g><path d="M1542.71,738.216c-0,0 -8.575,26.201 -31.554,38.571c-15.264,9.689 -28.864,21.954 -35.798,33.398c-0,0 -3.671,-8.162 -3.901,-14.973c-0.231,-6.812 6.079,-28.689 23.594,-32.181c17.293,-5.528 38.681,-11.008 47.659,-24.815Z" style="fill:#857100;"/><path d="M1478.29,812.536c-0,0 69.24,16.086 66.861,-73.858c-0,-0 -9.912,30.271 -32.734,42.04c-10.459,5.393 -21.013,13.738 -34.127,31.818Z" style="fill:#857100;"/></g><g><path d="M1446.64,643.406c0,-0 3.029,56.659 -31.871,97.488c-22.088,29.946 -39.066,63.597 -43.863,90.717c-0,-0 -13.114,-12.934 -18.622,-25.836c-5.508,-12.901 -9.668,-59.578 21.348,-79.304c29.075,-23.47 66.047,-49.891 73.008,-83.065Z" style="fill:#857100;"/><path d="M1378.26,833.949c-0,-0 144.841,-20.622 73.386,-191.466c0,0 3.491,65.465 -31.556,105.023c-16.061,18.128 -30.109,41.992 -41.83,86.443Z" style="fill:#857100;"/></g><g><path d="M1239.8,657.938c0,-0 -4.716,38.48 17.161,67.945c13.655,21.447 23.653,45.181 25.653,63.892c0,-0 9.545,-8.203 13.904,-16.74c4.358,-8.536 9.379,-40.159 -10.84,-55.057c-18.72,-17.36 -42.685,-37.101 -45.878,-60.04Z" style="fill:#857100;"/><path d="M1277.49,791.024c0,-0 -97.767,-20.838 -41.06,-133.95c-0,0 -5.445,44.461 16.593,73.067c10.099,13.109 18.558,30.034 24.467,60.883Z" style="fill:#857100;"/></g><g><path d="M1256.24,785.084c0,0 2.971,24.238 -10.809,42.797c-8.601,13.509 -14.898,28.458 -16.158,40.244c-0,0 -6.012,-5.167 -8.757,-10.543c-2.746,-5.377 -5.908,-25.296 6.827,-34.68c11.792,-10.934 26.887,-23.369 28.897,-37.818Z" style="fill:#857100;"/><path d="M1232.5,868.912c0,0 61.581,-13.125 25.863,-84.372c0,0 3.429,28.005 -10.452,46.023c-6.361,8.258 -11.689,18.918 -15.411,38.349Z" style="fill:#857100;"/></g><g><path d="M1092.43,701.507c-0,0 14.121,36.105 47.367,51.647c22.201,12.391 42.269,28.531 52.915,44.047c-0,0 4.505,-11.751 4.287,-21.333c-0.218,-9.582 -10.815,-39.797 -35.683,-43.307c-24.719,-6.388 -55.184,-12.382 -68.886,-31.054Z" style="fill:#857100;"/><path d="M1188.79,800.735c-0,-0 -95.936,28.086 -99.743,-98.386c0,-0 16.322,41.713 49.3,56.423c15.113,6.741 30.594,17.619 50.443,41.963Z" style="fill:#857100;"/></g><g><path d="M1083.84,547.123c-0,-0 6.124,49.299 42.496,79.107c23.653,22.404 43.473,48.79 51.788,71.423c0,0 9.309,-13.169 12.067,-25.137c2.758,-11.968 -0.852,-52.838 -30.624,-65.057c-28.676,-15.746 -64.613,-32.818 -75.727,-60.336Z" style="fill:#857100;"/><path d="M1172.14,700.803c0,-0 -128.011,4.554 -92.763,-153.703c0,0 7.083,56.959 43.386,85.65c16.637,13.148 32.423,31.549 49.377,68.053Z" style="fill:#857100;"/></g><g><path d="M1045.46,566.452c-0,0 -7.851,15.816 -2.914,31.785c2.619,11.279 3.321,22.988 1.348,31.328c-0,0 5.342,-2.079 8.506,-5.086c3.165,-3.007 10.108,-15.831 3.679,-25.291c-5.414,-10.291 -12.72,-22.399 -10.619,-32.736Z" style="fill:#857100;"/><path d="M1041.51,629.326c0,-0 -38.842,-23.751 2.639,-63.755c0,-0 -9.069,18.274 -3.933,33.898c2.354,7.16 3.426,15.711 1.294,29.857Z" style="fill:#857100;"/></g><g><path d="M1080.5,440.404c-0,0 -2.914,30.748 -24.979,49.931c-14.294,14.351 -26.134,31.107 -30.892,45.324c0,-0 -6.023,-8.016 -7.954,-15.404c-1.93,-7.387 -0.426,-32.852 17.855,-40.984c17.536,-10.304 39.561,-21.564 45.97,-38.867Z" style="fill:#857100;"/><path d="M1028.4,537.508c-0,-0 79.636,0.515 54.868,-97.198c0,-0 -3.371,35.526 -25.413,54.012c-10.101,8.472 -19.579,20.194 -29.455,43.186Z" style="fill:#857100;"/></g><g><path d="M1195.44,354.149c-0,-0 -25.331,60.239 -3.389,118.077c12.29,41.056 17.599,84.14 12.246,115.404c-0,0 19.248,-8.917 30.239,-20.758c10.991,-11.842 33.664,-60.82 7.72,-94.271c-22.385,-36.756 -52.18,-79.783 -46.816,-118.452Z" style="fill:#857100;"/><path d="M1195.41,587.302c0,-0 -148.98,-78.717 -5.043,-236.102c-0,-0 -29.258,69.604 -6.662,126.122c10.355,25.9 16.297,57.234 11.705,109.98Z" style="fill:#857100;"/></g><g><path d="M989.103,114.112c0,0 28.996,68.955 3.879,135.161c-14.068,46.996 -20.145,96.313 -14.017,132.1c-0,0 -22.034,-10.207 -34.615,-23.762c-12.58,-13.554 -38.534,-69.619 -8.836,-107.91c25.623,-42.073 59.728,-91.325 53.589,-135.589Z" style="fill:#857100;"/><path d="M989.136,380.997c-0,-0 170.534,-90.105 5.773,-270.261c-0,0 33.491,79.675 7.626,144.369c-11.854,29.648 -18.655,65.516 -13.399,125.892Z" style="fill:#857100;"/></g><g><path d="M1184.66,242.241c0,0 -44.714,31.371 -54.903,82.063c-9.558,34.522 -24.958,67.375 -42.649,87.122c-0,0 17.588,2.248 30.633,-1.245c13.044,-3.494 50.87,-28.076 47.382,-63.288c0.502,-35.967 -1.453,-79.669 19.537,-104.652Z" style="fill:#857100;"/><path d="M1080.96,407.242c0,0 -70.438,-121.958 101.417,-169.343c0,-0 -51.658,36.252 -60.797,86.3c-4.188,22.936 -13.916,47.755 -40.62,83.043Z" style="fill:#857100;"/></g><g><path d="M1278.98,405.091c-0,0 23.972,29.319 21.276,65.068c-0.087,24.837 4.038,49.654 12.148,66.15c0,0 -12.163,-1.794 -20.216,-6.57c-8.053,-4.776 -28.698,-28.273 -19.773,-51.126c6.404,-24.104 15.896,-52.911 6.565,-73.522Z" style="fill:#857100;"/><path d="M1317.29,534.667c0,0 69.872,-68.217 -35.974,-132.048c-0,0 27.693,33.879 24.417,69.001c-1.501,16.096 0.343,34.487 11.557,63.047Z" style="fill:#857100;"/></g><g><path d="M1492.01,373.533c-0,0 0.502,26.46 -16.422,44.931c-10.777,13.604 -19.231,29.018 -21.903,41.582c0,0 -5.905,-6.239 -8.265,-12.341c-2.36,-6.103 -3.55,-27.927 11.224,-36.624c13.93,-10.474 31.588,-22.196 35.366,-37.548Z" style="fill:#857100;"/><path d="M1457.08,461.254c-0,0 67.847,-7.287 37.282,-88.07c-0,-0 0.576,30.571 -16.396,48.448c-7.777,8.192 -14.709,19.09 -20.886,39.622Z" style="fill:#857100;"/></g><g><path d="M1665.67,676.402c-0,0 -12.729,23.203 -36.599,30.806c-16.117,6.439 -31.119,15.604 -39.687,25.174c-0,-0 -2.019,-8.351 -1.03,-14.819c0.988,-6.467 10.814,-25.991 27.957,-26.185c17.295,-2.155 38.444,-3.538 49.359,-14.976Z" style="fill:#857100;"/><path d="M1591.73,735.117c0,0 62.48,27.434 76.157,-57.849c0,0 -14.71,26.806 -38.326,33.87c-10.822,3.237 -22.257,9.242 -37.831,23.979Z" style="fill:#857100;"/></g></g><g><path d="M1449.1,476.576c-0,-0 -23.62,74.747 -88.596,110.588c-43.12,27.994 -81.431,63.262 -100.815,96.004c0,-0 -10.674,-23.101 -11.527,-42.462c-0.853,-19.362 16.451,-81.749 66.149,-92.187c49.008,-16.222 109.663,-32.424 134.789,-71.943Z" style="fill:#857100;"/><path d="M1268.07,689.768c-0,-0 197.34,43.722 187.958,-211.95c-0,-0 -27.301,86.359 -91.85,120.485c-29.581,15.64 -59.347,39.674 -96.108,91.465Z" style="fill:#857100;"/></g><g><path d="M1598.71,389.664c0,0 14.435,82.342 -29.402,148.226c-27.021,47.703 -45.912,99.923 -48.14,140.438c0,0 -21.466,-16.603 -31.801,-34.501c-10.335,-17.898 -24.663,-85.439 17.221,-119.769c38.385,-39.464 87.798,-84.64 92.122,-134.394Z" style="fill:#857100;"/><path d="M1532.34,680.449c-0,0 208.22,-55.742 73.531,-293.019c0,0 16.667,95.14 -27.611,159.191c-20.291,29.353 -36.625,66.739 -45.92,133.828Z" style="fill:#857100;"/></g><g><path d="M1422.66,198.752c-0,0 15.848,67.799 -17.53,124.632c-20.242,40.93 -33.514,85.236 -33.475,119.032c0,-0 -18.626,-12.805 -28.055,-27.206c-9.43,-14.401 -24.498,-69.896 8.729,-100.4c30.076,-34.609 69.058,-74.482 70.331,-116.058Z" style="fill:#857100;"/><path d="M1381.04,443.658c0,-0 170.546,-56.074 47.467,-247.098c-0,0 18.301,78.337 -15.529,133.667c-15.503,25.356 -27.34,57.208 -31.938,113.431Z" style="fill:#857100;"/></g><g><path d="M1232.35,203.014c-0,-0 -11.012,47.109 12.18,86.599c14.065,28.44 23.287,59.225 23.26,82.708c-0,-0 12.942,-8.897 19.494,-18.904c6.552,-10.006 17.022,-48.567 -6.065,-69.761c-20.899,-24.048 -47.985,-51.754 -48.869,-80.642Z" style="fill:#857100;"/><path d="M1261.26,373.184c-0,-0 -118.502,-38.963 -32.982,-171.693c0,-0 -12.716,54.431 10.79,92.876c10.772,17.619 18.997,39.751 22.192,78.817Z" style="fill:#857100;"/></g><g><path d="M1766.52,720.569c0,-0 -39.05,57.644 -103.446,71.689c-43.801,12.902 -85.352,33.216 -110.151,56.176c-0,0 -3.233,-22.37 0.948,-39.068c4.18,-16.698 34.722,-65.422 79.674,-61.712c45.831,-1.39 101.571,0.19 132.975,-27.085Z" style="fill:#857100;"/><path d="M1558.38,856.176c0,-0 156.911,87.231 213.719,-132.794c0,-0 -45.126,66.597 -108.724,79.289c-29.145,5.817 -60.575,18.734 -104.995,53.505Z" style="fill:#857100;"/></g></g><path d="M1162.27,1311.63c-0,-0 59.492,68.348 11.418,130.995c0,-0 37.845,-86.188 -68.531,-130.995l-138.59,-0c-106.376,44.807 -64.413,112.466 -64.413,112.466c-48.074,-62.647 7.301,-112.466 7.301,-112.466l-0.101,-0c-106.376,18.574 -60.551,50.531 -60.551,50.531c-48.074,-25.97 3.439,-50.531 3.439,-50.531l-19.577,-0c-67.615,32.55 -43.56,87.435 -43.56,87.435c-30.557,-45.51 7.258,-87.435 7.258,-87.435l-0.441,-0c-0,-0 28.706,-41.008 58.974,-31.766c-0,0 45.199,-28.7 73.042,-24.524c4.864,0.73 11.37,-1.542 19.01,-5.496c30.992,-47.035 62.943,-122.024 27.727,-201.832l0.019,-0.018c-0.726,-0.914 -81.569,-102.428 -163.613,-78.036c0,-0 -73.505,19.732 -125.85,-14.079c0,-0 84.643,20.761 126.964,-18.219c25.359,-2.056 43.548,0.106 64.169,8.302c-24.923,-12.662 -65.354,-34.306 -74.446,-45.822c-13.364,-16.929 -50.785,-37.421 -81.078,-40.094c-0,-0 31.967,-6.372 78.483,16.141c-26.869,-26.624 -44.75,-59.252 -39.095,-97.58c0,0 36.02,117.572 154.61,116.976c10.456,4.918 19.211,8.901 26.49,12.081c-4.33,-23.226 -25.701,-63.432 -78.914,-86.702c-0,0 123.861,11.841 137.087,79.914c-0,0 0.793,-56.836 24.733,-72.586c23.94,-15.75 40.197,-32.141 42.022,-81.527c-0,0 28.037,47.202 18.663,79.954c-4.76,16.631 4.841,41.13 18.7,52.47c3.273,2.678 6.925,3.143 10.66,2.348c22.533,-55.493 107.682,-60.573 107.682,-60.573c-47.653,20.838 -69.771,55.258 -76.981,78.901c-0.137,2.466 -0.29,4.876 -0.448,7.149c6.977,-3.068 15.25,-6.842 25.004,-11.429c118.59,0.596 154.61,-116.976 154.61,-116.976c5.655,38.328 -12.226,70.956 -39.095,97.58c46.516,-22.513 78.483,-16.141 78.483,-16.141c-30.293,2.673 -67.714,23.165 -81.078,40.094c-9.092,11.516 -49.523,33.16 -74.446,45.822c20.621,-8.196 38.81,-10.358 64.169,-8.302c42.321,38.98 126.964,18.219 126.964,18.219c-52.345,33.811 -125.85,14.079 -125.85,14.079c-82.044,-24.392 -162.887,77.122 -163.613,78.036l0.019,0.018c-35.216,79.808 -3.265,154.797 27.727,201.832c7.64,3.954 14.146,6.226 19.01,5.496c27.843,-4.176 73.042,24.524 73.042,24.524c30.268,-9.242 45.865,31.766 45.865,31.766l0.019,-0c-0,-0 37.815,41.925 7.258,87.435c-0,0 24.055,-54.885 -43.56,-87.435l-19.577,-0c-0,-0 57.936,39.528 9.862,65.497c-0,0 39.401,-46.923 -66.974,-65.497l-0.101,-0Zm-58.539,-0c-0,-0 43.533,41.317 -15.845,65.497c-0,0 55.799,-61.775 -41.268,-65.497l57.113,-0Z"/><path d="M966.568,1311.63c-106.376,44.807 -64.413,112.466 -64.413,112.466c-48.074,-62.647 7.301,-112.466 7.301,-112.466l-0.101,-0c-106.376,18.574 -60.551,50.531 -60.551,50.531c-48.074,-25.97 3.439,-50.531 3.439,-50.531l-19.577,-0c-67.615,32.55 -43.56,87.435 -43.56,87.435c-30.557,-45.51 7.258,-87.435 7.258,-87.435l-0.441,-0c-0,-0 28.706,-41.008 58.974,-31.766c-0,0 45.199,-28.7 73.042,-24.524c4.864,0.73 11.37,-1.542 19.01,-5.496c30.992,-47.035 62.943,-122.024 27.727,-201.832l0.019,-0.018c-0.726,-0.914 -81.569,-102.428 -163.613,-78.036c0,-0 -73.505,19.732 -125.85,-14.079c0,-0 84.643,20.761 126.964,-18.219c25.359,-2.056 43.548,0.106 64.169,8.302c-24.923,-12.662 -65.354,-34.306 -74.446,-45.822c-13.364,-16.929 -50.785,-37.421 -81.078,-40.094c-0,-0 31.967,-6.372 78.483,16.141c-26.869,-26.624 -44.75,-59.252 -39.095,-97.58c0,0 36.02,117.572 154.61,116.976c10.456,4.918 19.211,8.901 26.49,12.081c-4.33,-23.226 -25.701,-63.432 -78.914,-86.702c-0,0 123.861,11.841 137.087,79.914c-0,0 0.793,-56.836 24.733,-72.586c23.94,-15.75 40.197,-32.141 42.022,-81.527c-0,0 28.037,47.202 18.663,79.954c-4.76,16.631 4.841,41.13 18.7,52.47c3.273,2.678 6.925,3.143 10.66,2.348c22.533,-55.493 107.682,-60.573 107.682,-60.573c-47.653,20.838 -69.771,55.258 -76.981,78.901c-0.137,2.466 -0.29,4.876 -0.448,7.149c6.977,-3.068 15.25,-6.842 25.004,-11.429c118.59,0.596 154.61,-116.976 154.61,-116.976c5.655,38.328 -12.226,70.956 -39.095,97.58c46.516,-22.513 78.483,-16.141 78.483,-16.141c-30.293,2.673 -67.714,23.165 -81.078,40.094c-9.092,11.516 -49.523,33.16 -74.446,45.822c20.621,-8.196 38.81,-10.358 64.169,-8.302c42.321,38.98 126.964,18.219 126.964,18.219c-52.345,33.811 -125.85,14.079 -125.85,14.079c-82.044,-24.392 -162.887,77.122 -163.613,78.036l0.019,0.018c-35.216,79.808 -3.265,154.797 27.727,201.832c7.64,3.954 14.146,6.226 19.01,5.496c27.843,-4.176 73.042,24.524 73.042,24.524c30.268,-9.242 45.865,31.766 45.865,31.766l0.019,-0c-0,-0 37.815,41.925 7.258,87.435c-0,0 24.055,-54.885 -43.56,-87.435l-19.577,-0c-0,-0 57.936,39.528 9.862,65.497c-0,0 39.401,-46.923 -66.974,-65.497l-0.101,-0c-0,-0 59.492,68.348 11.418,130.995c0,-0 37.845,-86.188 -68.531,-130.995l-110.18,-0l28.41,-0c-58.627,-0 -41.39,65.497 -41.39,65.497c-31.487,-18.188 -15.43,-65.497 -15.43,-65.497Zm137.164,-0c-0,-0 43.533,41.317 -15.845,65.497c-0,0 55.799,-61.775 -41.268,-65.497l57.113,-0Z" style="fill:#185000;"/></g></g></g></g></svg>