<?xml version="1.0" encoding="UTF-8" standalone="no"?><!DOCTYPE svg PUBLIC "-//W3C//DTD SVG 1.1//EN" "http://www.w3.org/Graphics/SVG/1.1/DTD/svg11.dtd"><svg width="100%" height="100%" viewBox="0 0 2084 2084" version="1.1" xmlns="http://www.w3.org/2000/svg" xmlns:xlink="http://www.w3.org/1999/xlink" xml:space="preserve" xmlns:serif="http://www.serif.com/" style="fill-rule:evenodd;clip-rule:evenodd;stroke-linecap:round;stroke-linejoin:round;stroke-miterlimit:1.5;"><rect id="hassan1" x="0" y="0" width="2083.33" height="2083.33" style="fill:none;"/><rect x="0" y="0" width="2083.33" height="2083.33" style="fill:#fff;"/><g><g><path d="M889.52,942.304c0,0 5.023,-13.432 17.233,-19.366c8.143,-4.706 15.476,-10.787 19.328,-16.586c-0,0 1.731,4.322 1.704,7.867c-0.027,3.546 -3.779,14.78 -12.958,16.217c-9.107,2.5 -20.342,4.886 -25.307,11.868Z" style="fill:#857100;"/><path d="M924.612,905.067c0,0 -35.64,-9.855 -36.346,36.945c0,-0 5.806,-15.52 17.922,-21.144c5.552,-2.577 11.218,-6.687 18.424,-15.801Z" style="fill:#857100;"/></g><g><path d="M869.341,997.665c0,-0 -5.225,-13.355 -0.093,-25.923c2.922,-8.94 4.324,-18.363 3.321,-25.251c0,-0 4.174,2.062 6.52,4.72c2.346,2.659 7.051,13.529 1.175,20.725c-5.113,7.94 -11.886,17.216 -10.923,25.729Z" style="fill:#857100;"/><path d="M870.618,946.514c0,-0 -33.117,16.45 -2.406,51.77c0,-0 -6.035,-15.431 -0.767,-27.706c2.414,-5.625 3.89,-12.467 3.173,-24.064Z" style="fill:#857100;"/></g><g><path d="M830.242,961.375c-0,-0 -0.408,-20.936 12.975,-35.558c8.522,-10.768 15.205,-22.967 17.314,-32.91c-0,0 4.675,4.935 6.545,9.762c1.87,4.828 2.82,22.096 -8.867,28.983c-11.017,8.292 -24.984,17.574 -27.967,29.723Z" style="fill:#857100;"/><path d="M857.846,891.953c0,-0 -53.679,5.793 -29.464,69.699c0,-0 -0.468,-24.189 12.954,-38.34c6.15,-6.485 11.63,-15.111 16.51,-31.359Z" style="fill:#857100;"/></g><g><path d="M749.027,962.434c0,0 6.148,-22.204 24.855,-33.417c12.369,-8.677 23.249,-19.441 28.597,-29.262c0,-0 3.379,6.672 3.834,12.35c0.455,5.678 -3.969,24.185 -18.456,27.775c-14.223,5.282 -31.867,10.681 -38.83,22.554Z" style="fill:#857100;"/><path d="M799.948,897.905c0,-0 -58.424,-10.759 -52.969,64.238c0,-0 7.107,-25.654 25.706,-36.359c8.524,-4.906 17.013,-12.279 27.263,-27.879Z" style="fill:#857100;"/></g><g><path d="M788.058,1032.79c0,0 -6.372,-22.14 3.707,-41.481c6.005,-13.865 9.649,-28.73 9.071,-39.898c-0,0 6.37,3.92 9.727,8.521c3.357,4.602 9.266,22.69 -1.204,33.326c-9.361,11.941 -21.576,25.771 -21.301,39.532Z" style="fill:#857100;"/><path d="M797.711,951.161c0,-0 -55.423,21.386 -11.551,82.455c0,-0 -7.359,-25.583 2.895,-44.434c4.699,-8.639 8.078,-19.364 8.656,-38.021Z" style="fill:#857100;"/></g><g><path d="M651.843,926.537c-0,0 17.713,-22.336 44.436,-26.093c18.28,-3.922 35.868,-10.94 46.698,-19.553c0,-0 0.633,9.233 -1.587,15.922c-2.219,6.689 -16.185,25.644 -34.424,22.749c-18.755,-0.84 -41.464,-3.196 -55.123,6.975Z" style="fill:#857100;"/><path d="M740.986,877.562c-0,0 -61.386,-40.433 -91.336,47.656c-0,-0 20.469,-25.805 46.825,-29.034c12.078,-1.48 25.307,-5.789 44.511,-18.622Z" style="fill:#857100;"/></g><g><path d="M651.705,1011.7c0,-0 8.563,-27.191 32.18,-40.248c15.671,-10.195 29.591,-23.035 36.629,-34.948c-0,-0 3.89,8.397 4.207,15.438c0.317,7.04 -5.954,29.734 -24.024,33.547c-17.817,5.917 -39.869,11.83 -48.992,26.211Z" style="fill:#857100;"/><path d="M717.464,934.102c0,-0 -71.78,-15.831 -68.279,77.143c0,0 9.899,-31.415 33.361,-43.848c10.752,-5.697 21.568,-14.448 34.918,-33.295Z" style="fill:#857100;"/></g><g><path d="M689.161,768.494c0,0 13.85,32.959 44.856,46.521c20.752,10.911 39.625,25.327 49.796,39.387c-0,-0 3.882,-10.937 3.461,-19.766c-0.422,-8.828 -10.887,-36.438 -33.893,-39.101c-22.935,-5.32 -51.158,-10.143 -64.22,-27.041Z" style="fill:#857100;"/><path d="M780.283,857.749c0,0 -87.793,28.102 -94.216,-88.401c0,-0 16.007,38.078 46.748,50.879c14.087,5.867 28.609,15.538 47.468,37.522Z" style="fill:#857100;"/></g><g><path d="M623.718,817.948c0,-0 14.696,16.563 35.582,18.331c14.345,2.258 28.286,6.947 37.055,13.162c-0,0 0.095,-7.187 -1.914,-12.28c-2.008,-5.093 -13.652,-19.195 -27.673,-16.167c-14.509,1.455 -32.02,4.257 -43.05,-3.046Z" style="fill:#857100;"/><path d="M694.953,852.108c-0,-0 -45.874,33.99 -72.879,-33.043c0,0 16.982,19.136 37.56,20.51c9.431,0.63 19.875,3.404 35.319,12.533Z" style="fill:#857100;"/></g><g><path d="M530.135,840.121c0,-0 20.585,23.201 49.841,25.677c20.093,3.164 39.622,9.731 51.904,18.437c-0,0 0.133,-10.068 -2.68,-17.201c-2.813,-7.134 -19.123,-26.887 -38.763,-22.646c-20.324,2.039 -44.852,5.962 -60.302,-4.267Z" style="fill:#857100;"/><path d="M629.916,887.97c0,0 -64.257,47.611 -102.083,-46.284c-0,0 23.786,26.804 52.611,28.729c13.21,0.882 27.84,4.768 49.472,17.555Z" style="fill:#857100;"/></g><g><path d="M639.121,700.137c-0,-0 6.887,21.044 25.343,30.98c12.261,7.782 23.184,17.633 28.753,26.825c0,-0 2.948,-6.556 3.133,-12.027c0.185,-5.471 -4.883,-23.043 -18.95,-25.847c-13.889,-4.441 -31.068,-8.841 -38.279,-19.931Z" style="fill:#857100;"/><path d="M690.87,759.83c-0,0 -55.613,12.92 -53.702,-59.322c-0,-0 7.96,24.313 26.291,33.766c8.401,4.331 16.877,11.034 27.411,25.556Z" style="fill:#857100;"/></g><g><path d="M716.289,623.986c0,-0 -2.432,45.508 25.599,78.301c17.741,24.053 31.377,51.081 35.23,72.863c0,0 10.534,-10.388 14.957,-20.75c4.424,-10.363 7.766,-47.853 -17.146,-63.697c-23.353,-18.85 -53.048,-40.072 -58.64,-66.717Z" style="fill:#857100;"/><path d="M771.208,777.028c0,0 -116.335,-16.563 -58.943,-153.783c0,0 -2.803,52.581 25.346,84.353c12.9,14.561 24.183,33.728 33.597,69.43Z" style="fill:#857100;"/></g><g><path d="M882.415,635.658c0,-0 3.789,30.907 -13.783,54.573c-10.968,17.226 -18.998,36.288 -20.604,51.317c-0,-0 -7.667,-6.588 -11.167,-13.445c-3.501,-6.856 -7.534,-32.255 8.705,-44.221c15.037,-13.943 34.285,-29.799 36.849,-48.224Z" style="fill:#857100;"/><path d="M852.144,742.551c0,0 78.525,-16.737 32.979,-107.586c0,-0 4.373,35.71 -13.327,58.686c-8.112,10.529 -14.906,24.123 -19.652,48.9Z" style="fill:#857100;"/></g><g><path d="M869.216,737.781c-0,-0 -2.387,19.467 8.682,34.374c6.908,10.85 11.966,22.857 12.978,32.323c-0,0 4.828,-4.15 7.033,-8.468c2.205,-4.319 4.746,-20.317 -5.483,-27.854c-9.471,-8.783 -21.595,-18.77 -23.21,-30.375Z" style="fill:#857100;"/><path d="M888.283,805.11c-0,0 -49.461,-10.542 -20.773,-67.766c-0,-0 -2.754,22.493 8.395,36.965c5.109,6.632 9.388,15.194 12.378,30.801Z" style="fill:#857100;"/></g><g><path d="M1000.79,670.652c-0,0 -11.343,29 -38.045,41.483c-17.832,9.952 -33.951,22.915 -42.501,35.378c-0,0 -3.619,-9.439 -3.444,-17.135c0.175,-7.696 8.687,-31.964 28.661,-34.784c19.854,-5.13 44.323,-9.944 55.329,-24.942Z" style="fill:#857100;"/><path d="M923.388,750.351c-0,-0 77.055,22.559 80.112,-79.023c0,0 -13.109,33.504 -39.597,45.319c-12.138,5.415 -24.572,14.152 -40.515,33.704Z" style="fill:#857100;"/></g><g><path d="M1007.68,546.653c-0,-0 -4.919,39.596 -34.133,63.538c-18.998,17.995 -34.917,39.187 -41.595,57.366c-0,0 -7.477,-10.577 -9.692,-20.19c-2.216,-9.612 0.684,-42.439 24.596,-52.253c23.033,-12.647 51.897,-26.359 60.824,-48.461Z" style="fill:#857100;"/><path d="M936.758,670.087c-0,-0 102.817,3.658 74.506,-123.453c-0,0 -5.689,45.749 -34.847,68.793c-13.363,10.561 -26.042,25.341 -39.659,54.66Z" style="fill:#857100;"/></g><g><path d="M1033.2,624.635c0,0 -2.945,18.915 7.379,33.807c6.394,10.803 10.948,22.675 11.635,31.941c-0,0 4.842,-3.895 7.129,-8.037c2.288,-4.143 5.273,-19.668 -4.465,-27.345c-8.96,-8.867 -20.47,-18.994 -21.678,-30.366Z" style="fill:#857100;"/><path d="M1049.66,690.918c0,-0 -47.913,-11.852 -18.114,-66.763c0,0 -3.4,21.854 7.017,36.325c4.773,6.631 8.676,15.119 11.097,30.438Z" style="fill:#857100;"/></g><g><path d="M988.477,751.005c0,0 -1.658,10.651 4.156,19.037c3.6,6.083 6.164,12.769 6.551,17.987c0,-0 2.727,-2.194 4.015,-4.526c1.288,-2.333 2.969,-11.076 -2.515,-15.398c-5.045,-4.994 -11.527,-10.696 -12.207,-17.1Z" style="fill:#857100;"/><path d="M997.749,788.33c-0,-0 -26.981,-6.674 -10.201,-37.595c0,0 -1.914,12.306 3.951,20.455c2.688,3.734 4.886,8.513 6.25,17.14Z" style="fill:#857100;"/></g><g><path d="M1025.59,714.724c0,0 2.097,13.465 -5.253,24.067c-4.552,7.69 -7.793,16.142 -8.282,22.738c0,0 -3.447,-2.772 -5.076,-5.722c-1.628,-2.949 -3.753,-14.001 3.18,-19.466c6.378,-6.312 14.572,-13.521 15.431,-21.617Z" style="fill:#857100;"/><path d="M1013.87,761.91c-0,-0 34.108,-8.438 12.895,-47.527c0,-0 2.42,15.557 -4.995,25.858c-3.398,4.721 -6.177,10.764 -7.9,21.669Z" style="fill:#857100;"/></g><g><path d="M1038.75,426.903c0,0 -17.105,8.593 -23.227,25.648c-5.077,11.481 -12.095,22.085 -19.237,28.027c-0,0 5.983,1.678 10.684,1.133c4.701,-0.545 19.071,-7.135 19.661,-19.522c2.011,-12.445 3.566,-27.696 12.119,-35.286Z" style="fill:#857100;"/><path d="M994.371,478.814c-0,0 -18.192,-45.882 43.812,-53.533c0,0 -19.762,9.93 -25.487,26.816c-2.624,7.738 -7.264,15.846 -18.325,26.717Z" style="fill:#857100;"/></g><g><path d="M918.05,391.658c0,-0 20.346,48.383 2.722,94.838c-9.871,32.976 -14.135,67.581 -9.836,92.692c0,-0 -15.46,-7.162 -24.288,-16.673c-8.827,-9.511 -27.038,-48.85 -6.2,-75.718c17.979,-29.521 41.91,-64.08 37.602,-95.139Z" style="fill:#857100;"/><path d="M918.073,578.924c0,-0 119.66,-63.225 4.051,-189.635c-0,0 23.5,55.905 5.351,101.3c-8.318,20.803 -13.09,45.97 -9.402,88.335Z" style="fill:#857100;"/></g><g><path d="M850.946,432.574c0,0 -19.254,23.549 -17.089,52.262c0.07,19.949 -3.243,39.881 -9.757,53.131c-0,0 9.769,-1.441 16.237,-5.277c6.468,-3.836 23.05,-22.709 15.882,-41.064c-5.144,-19.36 -12.768,-42.498 -5.273,-59.052Z" style="fill:#857100;"/><path d="M820.177,536.648c-0,0 -56.12,-54.791 28.894,-106.059c0,-0 -22.242,27.211 -19.611,55.421c1.206,12.928 -0.276,27.699 -9.283,50.638Z" style="fill:#857100;"/></g><g><path d="M679.844,407.227c-0,0 -0.403,21.252 13.19,36.088c8.656,10.927 15.446,23.307 17.592,33.399c-0,-0 4.743,-5.012 6.639,-9.913c1.895,-4.901 2.851,-22.431 -9.016,-29.416c-11.188,-8.412 -25.371,-17.827 -28.405,-30.158Z" style="fill:#857100;"/><path d="M707.901,477.684c0,-0 -54.494,-5.853 -29.945,-70.738c0,0 -0.462,24.555 13.169,38.913c6.247,6.581 11.814,15.334 16.776,31.825Z" style="fill:#857100;"/></g><g><path d="M540.36,650.489c0,-0 10.224,18.635 29.396,24.742c12.945,5.172 24.995,12.533 31.877,20.219c-0,0 1.621,-6.707 0.827,-11.901c-0.794,-5.195 -8.686,-20.877 -22.455,-21.032c-13.891,-1.731 -30.878,-2.842 -39.645,-12.028Z" style="fill:#857100;"/><path d="M599.752,697.648c0,-0 -50.183,22.034 -61.169,-46.464c0,0 11.815,21.53 30.784,27.204c8.692,2.6 17.876,7.423 30.385,19.26Z" style="fill:#857100;"/></g></g><g><path d="M714.311,489.99c0,-0 18.971,60.036 71.16,88.823c34.633,22.484 65.404,50.812 80.973,77.11c-0,-0 8.573,-18.555 9.259,-34.106c0.685,-15.551 -13.214,-65.66 -53.131,-74.043c-39.363,-13.029 -88.08,-26.042 -108.261,-57.784Z" style="fill:#857100;"/><path d="M859.714,661.223c-0,0 -158.502,35.117 -150.966,-170.236c-0,0 21.927,69.363 73.773,96.773c23.759,12.562 47.666,31.866 77.193,73.463Z" style="fill:#857100;"/></g><g><path d="M617.274,420.926c-0,0 -20.211,64.031 7.716,121.128c16.462,40.841 25.974,84.418 23.458,116.911c0,0 18.849,-10.946 28.973,-24.102c10.123,-13.156 28.682,-65.414 -1.031,-97.181c-26.382,-35.485 -60.941,-76.685 -59.116,-116.756Z" style="fill:#857100;"/><path d="M639.326,659.471c0,-0 -159.879,-66.427 -27.52,-241.082c-0,0 -23.343,73.984 5.128,129.668c13.048,25.518 22.094,57.014 22.392,111.414Z" style="fill:#857100;"/></g><g><path d="M735.55,266.845c-0,-0 -12.729,54.455 14.08,100.103c16.258,32.874 26.918,68.461 26.886,95.605c0,0 14.961,-10.284 22.534,-21.851c7.574,-11.567 19.677,-56.14 -7.011,-80.64c-24.157,-27.798 -55.466,-59.824 -56.489,-93.217Z" style="fill:#857100;"/><path d="M768.973,463.55c-0,0 -136.981,-45.038 -38.125,-198.466c0,0 -14.699,62.92 12.472,107.36c12.452,20.366 21.96,45.949 25.653,91.106Z" style="fill:#857100;"/></g><g><path d="M888.403,270.268c-0,-0 8.844,37.837 -9.783,69.555c-11.297,22.843 -18.704,47.57 -18.682,66.43c-0,0 -10.395,-7.146 -15.658,-15.183c-5.262,-8.037 -13.671,-39.008 4.872,-56.032c16.785,-19.315 38.54,-41.568 39.251,-64.77Z" style="fill:#857100;"/><path d="M865.179,406.946c0,0 95.18,-31.294 26.491,-137.902c-0,0 10.213,43.719 -8.666,74.598c-8.652,14.151 -15.259,31.927 -17.825,63.304Z" style="fill:#857100;"/></g><g><path d="M459.364,685.963c0,-0 31.365,46.299 83.087,57.579c35.18,10.364 68.554,26.68 88.472,45.121c0,-0 2.597,-17.968 -0.761,-31.38c-3.358,-13.412 -27.889,-52.546 -63.994,-49.566c-36.81,-1.116 -81.58,0.152 -106.804,-21.754Z" style="fill:#857100;"/><path d="M626.538,794.881c-0,-0 -126.03,70.063 -171.657,-106.659c-0,-0 36.245,53.49 87.326,63.684c23.409,4.672 48.653,15.047 84.331,42.975Z" style="fill:#857100;"/></g><g><g><path d="M1193.59,942.304c-0,0 -5.023,-13.432 -17.233,-19.366c-8.143,-4.706 -15.476,-10.787 -19.327,-16.586c-0,0 -1.732,4.322 -1.705,7.867c0.028,3.546 3.78,14.78 12.958,16.217c9.108,2.5 20.343,4.886 25.307,11.868Z" style="fill:#857100;"/><path d="M1158.5,905.067c-0,0 35.64,-9.855 36.346,36.945c-0,-0 -5.805,-15.52 -17.921,-21.144c-5.553,-2.577 -11.218,-6.687 -18.425,-15.801Z" style="fill:#857100;"/></g><g><path d="M1213.77,997.665c-0,-0 5.226,-13.355 0.093,-25.923c-2.922,-8.94 -4.324,-18.363 -3.321,-25.251c-0,-0 -4.174,2.062 -6.52,4.72c-2.346,2.659 -7.051,13.529 -1.175,20.725c5.113,7.94 11.887,17.216 10.923,25.729Z" style="fill:#857100;"/><path d="M1212.5,946.514c0,-0 33.118,16.45 2.406,51.77c-0,-0 6.036,-15.431 0.767,-27.706c-2.414,-5.625 -3.89,-12.467 -3.173,-24.064Z" style="fill:#857100;"/></g><g><path d="M1252.87,961.375c-0,-0 0.407,-20.936 -12.976,-35.558c-8.521,-10.768 -15.205,-22.967 -17.314,-32.91c0,0 -4.675,4.935 -6.544,9.762c-1.87,4.828 -2.82,22.096 8.866,28.983c11.018,8.292 24.985,17.574 27.968,29.723Z" style="fill:#857100;"/><path d="M1225.27,891.953c-0,-0 53.68,5.793 29.464,69.699c-0,-0 0.468,-24.189 -12.954,-38.34c-6.15,-6.485 -11.63,-15.111 -16.51,-31.359Z" style="fill:#857100;"/></g><g><path d="M1334.09,962.434c0,0 -6.148,-22.204 -24.855,-33.417c-12.369,-8.677 -23.249,-19.441 -28.597,-29.262c0,-0 -3.379,6.672 -3.834,12.35c-0.455,5.678 3.969,24.185 18.456,27.775c14.223,5.282 31.867,10.681 38.83,22.554Z" style="fill:#857100;"/><path d="M1283.16,897.905c-0,-0 58.424,-10.759 52.969,64.238c-0,-0 -7.107,-25.654 -25.706,-36.359c-8.523,-4.906 -17.012,-12.279 -27.263,-27.879Z" style="fill:#857100;"/></g><g><path d="M1295.06,1032.79c0,0 6.372,-22.14 -3.707,-41.481c-6.005,-13.865 -9.649,-28.73 -9.071,-39.898c0,0 -6.369,3.92 -9.727,8.521c-3.357,4.602 -9.266,22.69 1.205,33.326c9.36,11.941 21.575,25.771 21.3,39.532Z" style="fill:#857100;"/><path d="M1285.4,951.161c0,-0 55.423,21.386 11.551,82.455c-0,-0 7.359,-25.583 -2.895,-44.434c-4.699,-8.639 -8.078,-19.364 -8.656,-38.021Z" style="fill:#857100;"/></g><g><path d="M1431.27,926.537c0,0 -17.713,-22.336 -44.436,-26.093c-18.28,-3.922 -35.868,-10.94 -46.698,-19.553c-0,-0 -0.633,9.233 1.587,15.922c2.219,6.689 16.185,25.644 34.424,22.749c18.755,-0.84 41.464,-3.196 55.123,6.975Z" style="fill:#857100;"/><path d="M1342.13,877.562c-0,0 61.385,-40.433 91.335,47.656c0,-0 -20.469,-25.805 -46.825,-29.034c-12.078,-1.48 -25.307,-5.789 -44.51,-18.622Z" style="fill:#857100;"/></g><g><path d="M1431.41,1011.7c0,-0 -8.563,-27.191 -32.18,-40.248c-15.671,-10.195 -29.591,-23.035 -36.629,-34.948c0,-0 -3.89,8.397 -4.207,15.438c-0.317,7.04 5.954,29.734 24.024,33.547c17.817,5.917 39.869,11.83 48.992,26.211Z" style="fill:#857100;"/><path d="M1365.65,934.102c-0,-0 71.78,-15.831 68.279,77.143c-0,0 -9.898,-31.415 -33.36,-43.848c-10.752,-5.697 -21.568,-14.448 -34.919,-33.295Z" style="fill:#857100;"/></g><g><path d="M1393.95,768.494c-0,0 -13.85,32.959 -44.856,46.521c-20.752,10.911 -39.625,25.327 -49.796,39.387c0,-0 -3.882,-10.937 -3.461,-19.766c0.422,-8.828 10.888,-36.438 33.894,-39.101c22.934,-5.32 51.157,-10.143 64.219,-27.041Z" style="fill:#857100;"/><path d="M1302.83,857.749c-0,0 87.793,28.102 94.216,-88.401c-0,-0 -16.007,38.078 -46.748,50.879c-14.087,5.867 -28.609,15.538 -47.468,37.522Z" style="fill:#857100;"/></g><g><path d="M1459.39,817.948c-0,-0 -14.696,16.563 -35.582,18.331c-14.344,2.258 -28.286,6.947 -37.054,13.162c-0,0 -0.095,-7.187 1.913,-12.28c2.008,-5.093 13.652,-19.195 27.673,-16.167c14.509,1.455 32.02,4.257 43.05,-3.046Z" style="fill:#857100;"/><path d="M1388.16,852.108c-0,-0 45.873,33.99 72.878,-33.043c-0,0 -16.982,19.136 -37.56,20.51c-9.431,0.63 -19.875,3.404 -35.318,12.533Z" style="fill:#857100;"/></g><g><path d="M1552.98,840.121c-0,-0 -20.585,23.201 -49.841,25.677c-20.093,3.164 -39.621,9.731 -51.904,18.437c0,0 -0.133,-10.068 2.68,-17.201c2.813,-7.134 19.123,-26.887 38.763,-22.646c20.324,2.039 44.852,5.962 60.302,-4.267Z" style="fill:#857100;"/><path d="M1453.2,887.97c0,0 64.257,47.611 102.084,-46.284c-0,0 -23.787,26.804 -52.612,28.729c-13.21,0.882 -27.84,4.768 -49.472,17.555Z" style="fill:#857100;"/></g><g><path d="M1443.99,700.137c-0,-0 -6.888,21.044 -25.344,30.98c-12.26,7.782 -23.183,17.633 -28.753,26.825c-0,-0 -2.948,-6.556 -3.133,-12.027c-0.185,-5.471 4.883,-23.043 18.95,-25.847c13.89,-4.441 31.069,-8.841 38.28,-19.931Z" style="fill:#857100;"/><path d="M1392.24,759.83c-0,0 55.612,12.92 53.702,-59.322c-0,-0 -7.961,24.313 -26.292,33.766c-8.4,4.331 -16.877,11.034 -27.41,25.556Z" style="fill:#857100;"/></g><g><path d="M1366.82,623.986c0,-0 2.432,45.508 -25.598,78.301c-17.742,24.053 -31.378,51.081 -35.231,72.863c-0,0 -10.533,-10.388 -14.957,-20.75c-4.424,-10.363 -7.765,-47.853 17.146,-63.697c23.353,-18.85 53.049,-40.072 58.64,-66.717Z" style="fill:#857100;"/><path d="M1311.9,777.028c-0,0 116.335,-16.563 58.943,-153.783c-0,0 2.803,52.581 -25.346,84.353c-12.899,14.561 -24.183,33.728 -33.597,69.43Z" style="fill:#857100;"/></g><g><path d="M1200.7,635.658c-0,-0 -3.789,30.907 13.784,54.573c10.967,17.226 18.997,36.288 20.603,51.317c0,-0 7.667,-6.588 11.168,-13.445c3.5,-6.856 7.533,-32.255 -8.706,-44.221c-15.037,-13.943 -34.285,-29.799 -36.849,-48.224Z" style="fill:#857100;"/><path d="M1230.97,742.551c0,0 -78.525,-16.737 -32.979,-107.586c-0,-0 -4.373,35.71 13.327,58.686c8.112,10.529 14.906,24.123 19.652,48.9Z" style="fill:#857100;"/></g><g><path d="M1213.9,737.781c-0,-0 2.386,19.467 -8.682,34.374c-6.908,10.85 -11.966,22.857 -12.978,32.323c-0,0 -4.829,-4.15 -7.034,-8.468c-2.205,-4.319 -4.745,-20.317 5.483,-27.854c9.471,-8.783 21.596,-18.77 23.211,-30.375Z" style="fill:#857100;"/><path d="M1194.83,805.11c0,0 49.462,-10.542 20.773,-67.766c0,-0 2.755,22.493 -8.394,36.965c-5.11,6.632 -9.389,15.194 -12.379,30.801Z" style="fill:#857100;"/></g><g><path d="M1082.33,670.652c-0,0 11.342,29 38.044,41.483c17.832,9.952 33.951,22.915 42.501,35.378c0,0 3.619,-9.439 3.444,-17.135c-0.175,-7.696 -8.687,-31.964 -28.661,-34.784c-19.854,-5.13 -44.323,-9.944 -55.328,-24.942Z" style="fill:#857100;"/><path d="M1159.73,750.351c0,-0 -77.054,22.559 -80.112,-79.023c-0,0 13.109,33.504 39.597,45.319c12.138,5.415 24.573,14.152 40.515,33.704Z" style="fill:#857100;"/></g><g><path d="M1075.43,546.653c0,-0 4.919,39.596 34.133,63.538c18.998,17.995 34.917,39.187 41.595,57.366c0,0 7.477,-10.577 9.692,-20.19c2.216,-9.612 -0.684,-42.439 -24.596,-52.253c-23.033,-12.647 -51.897,-26.359 -60.824,-48.461Z" style="fill:#857100;"/><path d="M1146.36,670.087c-0,-0 -102.818,3.658 -74.507,-123.453c0,0 5.689,45.749 34.847,68.793c13.363,10.561 26.042,25.341 39.66,54.66Z" style="fill:#857100;"/></g><g><path d="M1044.61,562.178c-0,-0 -6.306,12.703 -2.341,25.529c2.104,9.059 2.668,18.463 1.083,25.162c-0,0 4.29,-1.669 6.832,-4.085c2.542,-2.415 8.119,-12.715 2.954,-20.313c-4.348,-8.266 -10.216,-17.991 -8.528,-26.293Z" style="fill:#857100;"/><path d="M1041.43,612.677c-0,0 -31.198,-19.076 2.119,-51.207c0,-0 -7.284,14.678 -3.158,27.227c1.89,5.751 2.751,12.618 1.039,23.98Z" style="fill:#857100;"/></g><g><path d="M1072.75,460.937c0,0 -2.34,24.697 -20.062,40.104c-11.481,11.527 -20.991,24.985 -24.813,36.404c0,-0 -4.837,-6.438 -6.388,-12.372c-1.551,-5.934 -0.343,-26.387 14.34,-32.919c14.086,-8.276 31.776,-17.319 36.923,-31.217Z" style="fill:#857100;"/><path d="M1030.9,538.93c0,-0 63.963,0.413 44.07,-78.069c0,0 -2.708,28.534 -20.412,43.383c-8.113,6.804 -15.725,16.219 -23.658,34.686Z" style="fill:#857100;"/></g><g><path d="M1165.06,391.658c-0,-0 -20.345,48.383 -2.722,94.838c9.872,32.976 14.136,67.581 9.836,92.692c-0,-0 15.46,-7.162 24.288,-16.673c8.828,-9.511 27.039,-48.85 6.2,-75.718c-17.979,-29.521 -41.91,-64.08 -37.602,-95.139Z" style="fill:#857100;"/><path d="M1165.04,578.924c0,-0 -119.659,-63.225 -4.05,-189.635c-0,0 -23.5,55.905 -5.351,101.3c8.317,20.803 13.089,45.97 9.401,88.335Z" style="fill:#857100;"/></g><g><path d="M999.338,198.863c0,0 23.289,55.383 3.116,108.559c-11.3,37.747 -16.181,77.358 -11.259,106.102c0,0 -17.697,-8.198 -27.802,-19.085c-10.105,-10.887 -30.95,-55.917 -7.097,-86.672c20.58,-33.793 47.973,-73.352 43.042,-108.904Z" style="fill:#857100;"/><path d="M999.364,413.222c0,-0 136.972,-72.372 4.637,-217.07c-0,-0 26.9,63.993 6.125,115.955c-9.52,23.813 -14.983,52.621 -10.762,101.115Z" style="fill:#857100;"/></g><g><path d="M1156.4,301.775c0,-0 -35.914,25.196 -44.097,65.911c-7.677,27.729 -20.047,54.116 -34.256,69.976c0,0 14.127,1.806 24.604,-1c10.477,-2.806 40.858,-22.55 38.057,-50.832c0.403,-28.888 -1.167,-63.989 15.692,-84.055Z" style="fill:#857100;"/><path d="M1073.12,434.302c0,0 -56.575,-97.956 81.458,-136.015c-0,-0 -41.492,29.117 -48.832,69.315c-3.364,18.422 -11.177,38.356 -32.626,66.7Z" style="fill:#857100;"/></g><g><path d="M1232.17,432.574c0,0 19.254,23.549 17.089,52.262c-0.07,19.949 3.243,39.881 9.757,53.131c0,0 -9.769,-1.441 -16.237,-5.277c-6.468,-3.836 -23.05,-22.709 -15.882,-41.064c5.144,-19.36 12.768,-42.498 5.273,-59.052Z" style="fill:#857100;"/><path d="M1262.94,536.648c0,0 56.12,-54.791 -28.894,-106.059c0,-0 22.243,27.211 19.611,55.421c-1.205,12.928 0.276,27.699 9.283,50.638Z" style="fill:#857100;"/></g><g><path d="M1403.27,407.227c0,0 0.403,21.252 -13.189,36.088c-8.656,10.927 -15.447,23.307 -17.593,33.399c0,-0 -4.743,-5.012 -6.638,-9.913c-1.896,-4.901 -2.852,-22.431 9.015,-29.416c11.188,-8.412 25.371,-17.827 28.405,-30.158Z" style="fill:#857100;"/><path d="M1375.21,477.684c-0,-0 54.494,-5.853 29.945,-70.738c-0,0 0.462,24.555 -13.169,38.913c-6.247,6.581 -11.814,15.334 -16.776,31.825Z" style="fill:#857100;"/></g><g><path d="M1542.75,650.489c-0,-0 -10.224,18.635 -29.396,24.742c-12.945,5.172 -24.995,12.533 -31.877,20.219c0,0 -1.621,-6.707 -0.827,-11.901c0.794,-5.195 8.686,-20.877 22.455,-21.032c13.891,-1.731 30.878,-2.842 39.645,-12.028Z" style="fill:#857100;"/><path d="M1483.36,697.648c0,-0 50.183,22.034 61.169,-46.464c-0,0 -11.815,21.53 -30.783,27.204c-8.693,2.6 -17.877,7.423 -30.386,19.26Z" style="fill:#857100;"/></g></g><g><path d="M1368.8,489.99c-0,-0 -18.971,60.036 -71.16,88.823c-34.633,22.484 -65.404,50.812 -80.973,77.11c0,-0 -8.573,-18.555 -9.259,-34.106c-0.685,-15.551 13.214,-65.66 53.131,-74.043c39.363,-13.029 88.08,-26.042 108.261,-57.784Z" style="fill:#857100;"/><path d="M1223.4,661.223c0,0 158.502,35.117 150.967,-170.236c-0,0 -21.928,69.363 -73.773,96.773c-23.76,12.562 -47.667,31.866 -77.194,73.463Z" style="fill:#857100;"/></g><g><path d="M1488.97,420.183c-0,0 11.594,66.136 -23.616,119.053c-21.703,38.315 -36.876,80.258 -38.665,112.8c-0,-0 -17.242,-13.336 -25.543,-27.712c-8.3,-14.375 -19.808,-68.623 13.832,-96.197c30.83,-31.697 70.519,-67.982 73.992,-107.944Z" style="fill:#857100;"/><path d="M1435.66,653.739c-0,-0 167.24,-44.771 59.06,-235.35c-0,0 13.386,76.415 -22.177,127.86c-16.298,23.576 -29.417,53.605 -36.883,107.49Z" style="fill:#857100;"/></g><g><path d="M1347.56,266.845c0,-0 12.729,54.455 -14.08,100.103c-16.258,32.874 -26.918,68.461 -26.886,95.605c-0,0 -14.961,-10.284 -22.534,-21.851c-7.574,-11.567 -19.676,-56.14 7.011,-80.64c24.157,-27.798 55.467,-59.824 56.489,-93.217Z" style="fill:#857100;"/><path d="M1314.14,463.55c0,0 136.981,-45.038 38.125,-198.466c-0,0 14.699,62.92 -12.472,107.36c-12.452,20.366 -21.96,45.949 -25.653,91.106Z" style="fill:#857100;"/></g><g><path d="M1194.71,270.268c0,-0 -8.844,37.837 9.784,69.555c11.297,22.843 18.703,47.57 18.681,66.43c0,0 10.395,-7.146 15.658,-15.183c5.262,-8.037 13.672,-39.008 -4.872,-56.032c-16.785,-19.315 -38.54,-41.568 -39.251,-64.77Z" style="fill:#857100;"/><path d="M1217.93,406.946c-0,0 -95.18,-31.294 -26.491,-137.902c0,0 -10.213,43.719 8.667,74.598c8.652,14.151 15.258,31.927 17.824,63.304Z" style="fill:#857100;"/></g><g><path d="M1623.75,685.963c0,-0 -31.364,46.299 -83.087,57.579c-35.18,10.364 -68.554,26.68 -88.472,45.121c-0,-0 -2.596,-17.968 0.761,-31.38c3.358,-13.412 27.889,-52.546 63.994,-49.566c36.811,-1.116 81.581,0.152 106.804,-21.754Z" style="fill:#857100;"/><path d="M1456.58,794.881c-0,-0 126.029,70.063 171.657,-106.659c-0,-0 -36.246,53.49 -87.327,63.684c-23.409,4.672 -48.653,15.047 -84.33,42.975Z" style="fill:#857100;"/></g><g><path d="M1136.42,1792.57c-0,0 -11.693,28.408 -38.249,40.257c-17.762,9.506 -33.888,22.013 -42.538,34.158c-0,-0 -3.405,-9.374 -3.099,-16.962c0.307,-7.589 9.125,-31.379 28.876,-33.812c19.673,-4.716 43.893,-9.039 55.01,-23.641Z" style="fill:#857100;"/><path d="M1058.69,1869.84c-0,-0 75.614,23.592 80.397,-76.555c-0,0 -13.514,32.82 -39.847,44.014c-12.067,5.13 -24.484,13.532 -40.55,32.541Z" style="fill:#857100;"/></g><g><path d="M983.088,1794.3c0,-0 8.735,21.222 28.574,30.074c13.27,7.102 25.316,16.445 31.779,25.518c-0,-0 2.544,-7.003 2.315,-12.672c-0.229,-5.669 -6.817,-23.441 -21.572,-25.26c-14.697,-3.522 -32.791,-6.752 -41.096,-17.66Z" style="fill:#185000;"/><path d="M1041.16,1852.02c0,-0 -56.488,17.624 -60.061,-57.191c0,-0 10.096,24.519 29.768,32.881c9.015,3.832 18.291,10.109 30.293,24.31Z" style="fill:#185000;"/></g><path d="M981.238,1269.93c-85.44,35.989 -51.736,90.333 -51.736,90.333c-38.612,-50.318 5.864,-90.333 5.864,-90.333l-0.081,0c-85.44,14.919 -48.634,40.587 -48.634,40.587c-38.612,-20.859 2.762,-40.587 2.762,-40.587l-15.723,0c-54.309,26.145 -34.987,70.228 -34.987,70.228c-24.543,-36.554 5.829,-70.228 5.829,-70.228l-0.354,0c-0,0 23.057,-32.936 47.367,-25.513c-0,-0 36.303,-23.052 58.666,-19.698c3.907,0.586 9.133,-1.239 15.269,-4.414c24.893,-37.778 50.556,-207.246 22.27,-271.347l0.016,-0.014c-0.583,-0.734 -65.515,-82.269 -131.412,-62.678c-0,0 -59.039,15.849 -101.082,-11.308c-0,0 67.984,16.675 101.976,-14.633c20.368,-1.652 34.977,0.085 51.54,6.668c-20.018,-10.17 -52.492,-27.554 -59.794,-36.804c-10.734,-13.597 -40.79,-30.056 -65.122,-32.203c0,0 25.676,-5.118 63.038,12.965c-21.582,-21.384 -35.943,-47.591 -31.401,-78.375c-0,-0 28.931,94.432 124.181,93.953c8.398,3.95 15.43,7.149 21.277,9.703c-3.478,-18.654 -20.643,-50.947 -63.384,-69.638c0,0 99.484,9.511 110.107,64.187c0,-0 0.637,-45.651 19.866,-58.301c19.228,-12.65 32.285,-25.815 33.751,-65.482c0,0 22.519,37.913 14.99,64.218c-3.823,13.358 3.888,33.036 15.02,42.144c2.628,2.151 5.562,2.524 8.562,1.886c18.098,-44.572 86.489,-48.652 86.489,-48.652c-38.275,16.737 -56.039,44.383 -61.831,63.373c-0.11,1.981 -0.232,3.916 -0.359,5.742c5.604,-2.464 12.249,-5.495 20.083,-9.18c95.25,0.479 124.181,-93.953 124.181,-93.953c4.542,30.784 -9.82,56.991 -31.401,78.375c37.362,-18.083 63.037,-12.965 63.037,-12.965c-24.331,2.147 -54.387,18.606 -65.121,32.203c-7.303,9.25 -39.776,26.634 -59.794,36.804c16.562,-6.583 31.171,-8.32 51.54,-6.668c33.992,31.308 101.976,14.633 101.976,14.633c-42.043,27.157 -101.082,11.308 -101.082,11.308c-65.897,-19.591 -130.829,61.944 -131.412,62.678l0.015,0.014c-28.285,64.101 -2.622,233.569 22.27,271.347c6.136,3.175 11.362,5 15.269,4.414c22.363,-3.354 58.667,19.698 58.667,19.698c24.31,-7.423 36.837,25.513 36.837,25.513l0.016,0c-0,0 30.372,33.674 5.829,70.228c0,-0 19.321,-44.083 -34.987,-70.228l-15.723,0c-0,0 46.533,31.749 7.921,52.608c-0,-0 31.647,-37.689 -53.794,-52.608l-0.08,0c-0,0 47.783,54.897 9.171,105.215c-0,-0 30.397,-69.226 -55.043,-105.215l-88.496,0l22.818,0c-47.088,0 -33.244,52.608 -33.244,52.608c-25.29,-14.609 -12.393,-52.608 -12.393,-52.608Zm110.169,0c-0,0 34.965,33.186 -12.727,52.608c0,-0 44.817,-49.618 -33.145,-52.608l45.872,0Z" style="fill:#185000;"/><path d="M410.922,1449.53l45.674,0l0,234.899l108.024,-0l0,29.724l-148.624,0l0,-241.423l-5.074,-23.2Z" style="fill:#757575;fill-rule:nonzero;"/><path d="M597.245,1449.53l161.674,0l-0,29.725l-115.999,0l-0,84.1l89.537,-0l-0,29.362l-89.537,-0l-0,91.712l115.999,-0l-0,29.724l-156.599,0l0,-241.423l-5.075,-23.2Z" style="fill:#757575;fill-rule:nonzero;"/><path d="M907.905,1445.54c9.425,-0 19.696,1.027 30.812,3.081c11.117,2.054 21.932,5.256 32.444,9.606c10.512,4.35 19.152,10.029 25.919,17.038l-22.113,25.374c-7.491,-5.799 -14.439,-10.572 -20.843,-14.318c-6.405,-3.746 -13.171,-6.525 -20.3,-8.338c-7.129,-1.812 -15.769,-2.718 -25.919,-2.718c-15.466,-0 -28.577,2.9 -39.331,8.7c-10.754,5.8 -19.393,13.775 -25.918,23.924c-6.525,10.15 -11.298,21.569 -14.319,34.256c-3.021,12.688 -4.531,25.798 -4.531,39.331c-0,12.567 1.389,25.073 4.169,37.519c2.779,12.446 7.25,23.925 13.412,34.437c6.162,10.512 14.319,18.91 24.469,25.194c10.149,6.283 22.474,9.425 36.974,9.425c12.325,-0 22.958,-2.598 31.9,-7.794c8.942,-5.196 15.95,-12.385 21.025,-21.569c5.075,-9.183 7.612,-19.816 7.612,-31.899l0,-23.2l-60.899,-0l4.712,-27.55l97.149,-0l-0.362,71.774c-0.242,11.117 -0,22.234 0.725,33.35c0.725,11.117 1.329,22.112 1.812,32.987l-21.387,0l-11.962,-27.549c-11.117,11.358 -22.717,19.514 -34.8,24.468c-12.083,4.954 -26.221,7.431 -42.412,7.431c-19.333,0 -36.19,-3.564 -50.569,-10.693c-14.379,-7.129 -26.341,-16.856 -35.887,-29.181c-9.546,-12.325 -16.675,-26.523 -21.387,-42.594c-4.713,-16.071 -7.069,-33.168 -7.069,-51.293c0,-26.583 4.833,-50.327 14.5,-71.231c9.667,-20.904 23.925,-37.458 42.775,-49.662c18.85,-12.204 42.049,-18.306 69.599,-18.306Z" style="fill:#757575;fill-rule:nonzero;"/><path d="M1156.58,1449.53l92.437,264.623l-44.225,0l-28.637,-84.461l-83.374,-0l-29,84.461l-35.525,0l92.8,-264.623l35.524,0Zm-21.75,52.2l-32.262,98.599l63.8,0l-31.538,-98.599Z" style="fill:#757575;fill-rule:nonzero;"/><path d="M1378.43,1718.5c-21.025,0 -39.211,-3.564 -54.556,-10.693c-15.346,-7.129 -28.154,-16.917 -38.425,-29.363c-10.271,-12.445 -17.883,-26.764 -22.837,-42.956c-4.954,-16.191 -7.431,-33.349 -7.431,-51.474c-0,-18.608 2.779,-36.25 8.337,-52.925c5.558,-16.675 13.594,-31.416 24.106,-44.224c10.512,-12.809 23.562,-22.898 39.15,-30.269c15.587,-7.371 33.41,-11.056 53.468,-11.056c8.7,-0 18.185,0.967 28.456,2.9c10.271,1.933 20.24,4.894 29.906,8.881c9.667,3.988 17.521,9.123 23.562,15.406l-21.749,26.463c-7.009,-7.734 -16.192,-13.715 -27.55,-17.944c-11.358,-4.229 -22.113,-6.344 -32.262,-6.344c-14.017,0 -26.1,3.021 -36.25,9.063c-10.15,6.041 -18.548,14.258 -25.194,24.649c-6.646,10.392 -11.6,21.992 -14.862,34.8c-3.263,12.808 -4.894,25.858 -4.894,39.15c0,21.75 3.323,40.479 9.969,56.187c6.646,15.708 16.131,27.791 28.456,36.25c12.325,8.458 26.946,12.687 43.862,12.687c10.15,0 21.025,-1.39 32.625,-4.169c11.6,-2.779 23.683,-7.431 36.25,-13.956l12.687,23.2c-7.975,5.558 -16.675,10.21 -26.1,13.956c-9.425,3.746 -19.091,6.646 -29,8.7c-9.908,2.054 -19.816,3.081 -29.724,3.081Z" style="fill:#757575;fill-rule:nonzero;"/><path d="M1522.34,1449.53l57.637,101.137l55.825,-101.137l36.612,0l-77.212,138.112l-0,126.511l-40.237,0l-0,-126.511l-77.937,-138.112l45.312,0Z" style="fill:#757575;fill-rule:nonzero;"/><path d="M410.922,1774.11l17.73,-0l0,99.965l46.162,-0l-0,11.464l-61.753,-0l0,-101.494l-2.139,-9.935Z" style="fill:#757575;fill-rule:nonzero;"/><path d="M489.487,1774.11l67.561,-0l-0,11.463l-49.83,0l0,36.991l38.519,-0l-0,11.464l-38.519,-0l0,40.047l49.83,-0l-0,11.464l-65.421,-0l0,-101.494l-2.14,-9.935Z" style="fill:#757575;fill-rule:nonzero;"/><path d="M618.647,1774.11l38.672,111.429l-17.12,-0l-12.533,-36.991l-35.921,0l-12.686,36.991l-13.757,-0l38.824,-111.429l14.521,-0Zm-8.865,20.329l-14.215,42.798l28.277,0l-14.062,-42.798Z" style="fill:#757575;fill-rule:nonzero;"/><path d="M760.188,1830.05c0,10.802 -1.885,20.355 -5.655,28.66c-3.771,8.305 -9.452,14.852 -17.043,19.642c-7.592,4.789 -17.094,7.184 -28.507,7.184l-36.99,-0l-0,-101.494c-0,-0.102 -0.179,-0.892 -0.535,-2.369c-0.357,-1.478 -0.688,-3.032 -0.994,-4.662c-0.306,-1.631 -0.509,-2.599 -0.611,-2.904l31.487,-0c12.126,-0 22.571,1.961 31.335,5.884c8.763,3.924 15.54,10.012 20.329,18.266c4.789,8.254 7.184,18.852 7.184,31.793Zm-16.508,0c0,-7.438 -0.917,-13.935 -2.751,-19.488c-1.834,-5.554 -4.56,-10.19 -8.178,-13.91c-3.617,-3.719 -8.126,-6.496 -13.527,-8.33c-5.401,-1.834 -11.77,-2.752 -19.107,-2.752l-12.534,0l0,88.502l19.718,-0c8.968,-0 16.101,-2.013 21.4,-6.038c5.299,-4.025 9.12,-9.375 11.464,-16.049c2.343,-6.675 3.515,-13.986 3.515,-21.935Z" style="fill:#757575;fill-rule:nonzero;"/><path d="M776.696,1774.11l67.561,-0l-0,11.463l-49.83,0l-0,36.991l38.519,-0l-0,11.464l-38.519,-0l-0,40.047l49.83,-0l-0,11.464l-65.421,-0l0,-101.494l-2.14,-9.935Z" style="fill:#757575;fill-rule:nonzero;"/><path d="M860.459,1774.11l34.239,-0c7.031,-0 13.4,0.917 19.106,2.751c5.707,1.834 10.216,4.968 13.528,9.4c3.311,4.433 4.967,10.624 4.967,18.572c0,4.076 -0.993,8.025 -2.98,11.846c-1.987,3.821 -4.637,7.133 -7.949,9.935c-3.311,2.803 -6.903,4.815 -10.776,6.038l31.794,52.887l-18.037,-0l-29.195,-49.983l-16.966,0l-0,49.983l-15.591,-0l-0,-101.494l-2.14,-9.935Zm17.731,11.616l-0,38.519l11.769,0c4.892,0 9.299,-0.56 13.222,-1.681c3.923,-1.121 7.031,-3.159 9.324,-6.114c2.293,-2.956 3.439,-7.083 3.439,-12.381c0,-4.178 -1.019,-7.618 -3.057,-10.318c-2.038,-2.7 -4.687,-4.713 -7.948,-6.038c-3.261,-1.324 -6.827,-1.987 -10.7,-1.987l-16.049,0Z" style="fill:#757575;fill-rule:nonzero;"/><path d="M1232.77,1772.46c3.972,0 8.275,0.433 12.909,1.299c4.634,0.866 9.114,2.215 13.443,4.048c4.328,1.833 7.918,4.226 10.769,7.18l-8.707,10.082c-3.157,-2.546 -6.11,-4.608 -8.86,-6.187c-2.75,-1.578 -5.601,-2.775 -8.555,-3.59c-2.953,-0.814 -6.619,-1.222 -10.999,-1.222c-6.619,0 -12.195,1.273 -16.727,3.819c-4.532,2.546 -8.223,5.958 -11.075,10.235c-2.851,4.278 -4.939,9.14 -6.263,14.589c-1.324,5.448 -1.986,11.075 -1.986,16.88c-0,5.398 0.611,10.795 1.833,16.193c1.222,5.397 3.183,10.311 5.881,14.741c2.699,4.43 6.213,7.969 10.541,10.617c4.328,2.648 9.7,3.972 16.116,3.972c5.194,-0 9.726,-1.146 13.596,-3.437c3.87,-2.292 6.874,-5.423 9.013,-9.395c2.138,-3.972 3.208,-8.555 3.208,-13.749l-0,-9.929l-26.428,-0l1.833,-10.999l40.482,0l-0.153,31.163c0,4.379 0.153,8.809 0.458,13.29c0.306,4.481 0.611,8.911 0.917,13.291l-8.402,-0l-4.888,-11.61c-4.583,4.786 -9.446,8.223 -14.589,10.311c-5.143,2.088 -11.075,3.132 -17.797,3.132c-8.045,-0 -15.072,-1.502 -21.081,-4.507c-6.008,-3.004 -11.024,-7.129 -15.046,-12.373c-4.023,-5.245 -7.002,-11.228 -8.937,-17.95c-1.935,-6.721 -2.902,-13.85 -2.902,-21.386c-0,-11.101 1.96,-21.056 5.881,-29.865c3.921,-8.809 9.777,-15.785 17.567,-20.928c7.791,-5.143 17.441,-7.715 28.948,-7.715Z" style="fill:#757575;fill-rule:nonzero;"/><path d="M1292.19,1773.99l34.219,0c7.027,0 13.392,0.917 19.095,2.75c5.703,1.833 10.209,4.965 13.519,9.395c3.31,4.43 4.965,10.616 4.965,18.56c-0,4.074 -0.993,8.02 -2.979,11.839c-1.986,3.819 -4.634,7.129 -7.943,9.929c-3.31,2.801 -6.9,4.812 -10.77,6.034l31.774,52.856l-18.026,-0l-29.177,-49.953l-16.956,-0l-0,49.953l-15.582,-0l0,-101.433l-2.139,-9.93Zm17.721,11.61l-0,38.496l11.762,-0c4.889,-0 9.293,-0.561 13.214,-1.681c3.921,-1.12 7.027,-3.157 9.318,-6.11c2.292,-2.954 3.438,-7.078 3.438,-12.374c-0,-4.175 -1.019,-7.612 -3.056,-10.311c-2.036,-2.699 -4.684,-4.71 -7.943,-6.034c-3.259,-1.324 -6.824,-1.986 -10.693,-1.986l-16.04,-0Z" style="fill:#757575;fill-rule:nonzero;"/><path d="M1425.86,1887.03c-8.249,0 -15.505,-1.528 -21.768,-4.583c-6.264,-3.055 -11.483,-7.23 -15.658,-12.526c-4.176,-5.296 -7.307,-11.381 -9.395,-18.255c-2.088,-6.874 -3.132,-14.181 -3.132,-21.921c0,-7.74 1.044,-15.047 3.132,-21.921c2.088,-6.875 5.194,-12.985 9.318,-18.332c4.125,-5.346 9.344,-9.522 15.658,-12.526c6.314,-3.004 13.647,-4.507 21.998,-4.507c8.453,0 15.811,1.503 22.074,4.507c6.263,3.004 11.482,7.154 15.658,12.45c4.175,5.296 7.307,11.406 9.394,18.331c2.088,6.925 3.132,14.309 3.132,22.151c0,7.739 -1.069,15.046 -3.208,21.921c-2.139,6.874 -5.296,12.959 -9.471,18.255c-4.176,5.295 -9.395,9.445 -15.658,12.45c-6.263,3.004 -13.621,4.506 -22.074,4.506Zm0.306,-11.304c6.415,-0 11.762,-1.35 16.039,-4.048c4.278,-2.699 7.715,-6.289 10.312,-10.77c2.597,-4.481 4.455,-9.42 5.576,-14.818c1.12,-5.397 1.68,-10.795 1.68,-16.192c-0,-5.398 -0.56,-10.796 -1.68,-16.193c-1.121,-5.398 -2.979,-10.337 -5.576,-14.818c-2.597,-4.481 -6.06,-8.096 -10.388,-10.846c-4.328,-2.75 -9.649,-4.124 -15.963,-4.124c-6.315,-0 -11.636,1.349 -15.964,4.048c-4.328,2.698 -7.765,6.288 -10.311,10.769c-2.546,4.481 -4.405,9.421 -5.576,14.818c-1.171,5.398 -1.757,10.795 -1.757,16.193c0,5.397 0.586,10.795 1.757,16.192c1.171,5.398 3.03,10.363 5.576,14.895c2.546,4.531 5.983,8.147 10.311,10.846c4.328,2.698 9.649,4.048 15.964,4.048Z" style="fill:#757575;fill-rule:nonzero;"/><path d="M1510.94,1773.99l-0,74.089c-0,8.351 2.164,15.047 6.492,20.088c4.328,5.041 10.872,7.562 19.63,7.562c9.064,-0 15.963,-2.699 20.699,-8.097c4.735,-5.397 7.103,-12.475 7.103,-21.233l0,-72.409l12.985,0l-0,71.339c-0,8.962 -1.68,16.549 -5.041,22.762c-3.361,6.212 -8.147,10.948 -14.36,14.206c-6.212,3.259 -13.646,4.889 -22.303,4.889c-13.035,-0 -23.168,-3.412 -30.399,-10.235c-7.231,-6.824 -10.846,-16.804 -10.846,-29.941l-0,-63.09l-2.292,-9.93l18.332,0Z" style="fill:#757575;fill-rule:nonzero;"/><path d="M1600.61,1773.99l33.76,0c7.333,0 13.876,1.12 19.63,3.361c5.754,2.24 10.261,5.805 13.519,10.693c3.259,4.888 4.889,11.406 4.889,19.553c-0,7.537 -1.731,13.774 -5.194,18.714c-3.463,4.939 -8.045,8.656 -13.749,11.151c-5.703,2.495 -12.017,3.743 -18.942,3.743l-16.04,-0l0,44.148l-15.581,-0l-0,-101.433l-2.292,-9.93Zm17.873,11.457l0,44.454l15.887,-0c6.722,-0 12.018,-2.063 15.888,-6.187c3.869,-4.125 5.804,-9.497 5.804,-16.117c0,-6.925 -1.833,-12.348 -5.499,-16.269c-3.666,-3.92 -9.013,-5.881 -16.04,-5.881l-16.04,0Z" style="fill:#757575;fill-rule:nonzero;"/><path d="M411.978,1397.17l1260.43,-0" style="fill:none;stroke:#757575;stroke-width:8.33px;"/></svg>