<?xml version="1.0" encoding="UTF-8" standalone="no"?><!DOCTYPE svg PUBLIC "-//W3C//DTD SVG 1.1//EN" "http://www.w3.org/Graphics/SVG/1.1/DTD/svg11.dtd"><svg width="100%" height="100%" viewBox="0 0 2084 2084" version="1.1" xmlns="http://www.w3.org/2000/svg" xmlns:xlink="http://www.w3.org/1999/xlink" xml:space="preserve" xmlns:serif="http://www.serif.com/" style="fill-rule:evenodd;clip-rule:evenodd;stroke-linejoin:round;stroke-miterlimit:2;"><rect id="tree-rev-1-color" serif:id="tree rev 1 color" x="0" y="0" width="2083.33" height="2083.33" style="fill:none;"/><clipPath id="_clip1"><rect x="0" y="0" width="2083.33" height="2083.33"/></clipPath><g clip-path="url(#_clip1)"><rect x="-0" y="15.209" width="2083.33" height="2083.33" style="fill:#fff;"/><g><g><g><path d="M820.331,1237.28c-0,0 7.449,-19.923 25.559,-28.723c12.078,-6.981 22.954,-16 28.666,-24.6c0,-0 2.569,6.41 2.528,11.668c-0.041,5.259 -5.605,21.921 -19.219,24.052c-13.508,3.708 -30.171,7.247 -37.534,17.603Z" style="fill:#857100;"/><path d="M872.378,1182.05c0,0 -52.861,-14.617 -53.907,54.795c0,0 8.61,-23.018 26.58,-31.359c8.236,-3.823 16.639,-9.918 27.327,-23.436Z" style="fill:#857100;"/></g><g><path d="M732.41,1265.56c0,-0 -0.604,-31.051 19.245,-52.738c12.639,-15.972 22.552,-34.065 25.679,-48.811c0,-0 6.934,7.319 9.708,14.479c2.773,7.159 4.182,32.771 -13.151,42.985c-16.341,12.299 -37.057,26.066 -41.481,44.085Z" style="fill:#857100;"/><path d="M773.353,1162.6c-0,0 -79.617,8.592 -43.7,103.376c-0,0 -0.694,-35.876 19.212,-56.865c9.122,-9.619 17.25,-22.412 24.488,-46.511Z" style="fill:#857100;"/></g><g><path d="M611.955,1267.13c-0,0 9.119,-32.932 36.864,-49.563c18.346,-12.87 34.483,-28.835 42.415,-43.402c-0,0 5.012,9.897 5.686,18.318c0.675,8.421 -5.886,35.87 -27.373,41.195c-21.096,7.835 -47.265,15.843 -57.592,33.452Z" style="fill:#857100;"/><path d="M687.48,1171.43c0,-0 -86.653,-15.957 -78.562,95.276c-0,-0 10.541,-38.049 38.126,-53.926c12.642,-7.277 25.232,-18.213 40.436,-41.35Z" style="fill:#857100;"/></g><g><path d="M467.813,1213.89c0,-0 26.273,-33.129 65.908,-38.7c27.111,-5.819 53.198,-16.228 69.261,-29.002c-0,0 0.938,13.694 -2.354,23.615c-3.292,9.922 -24.005,38.036 -51.057,33.742c-27.817,-1.246 -61.498,-4.741 -81.758,10.345Z" style="fill:#857100;"/><path d="M600.028,1141.26c-0,-0 -91.045,-59.97 -135.467,70.68c0,0 30.36,-38.273 69.45,-43.062c17.914,-2.195 37.535,-8.585 66.017,-27.618Z" style="fill:#857100;"/></g><g><path d="M523.163,979.487c0,0 20.542,48.884 66.53,68.999c30.779,16.183 58.77,37.565 73.855,58.417c0,0 5.759,-16.221 5.133,-29.316c-0.625,-13.094 -16.147,-54.044 -50.269,-57.994c-34.016,-7.89 -75.876,-15.044 -95.249,-40.106Z" style="fill:#857100;"/><path d="M658.313,1111.87c0,-0 -130.212,41.68 -139.739,-131.115c0,0 23.742,56.477 69.335,75.463c20.894,8.701 42.433,23.046 70.404,55.652Z" style="fill:#857100;"/></g><g><path d="M426.1,1052.84c0,-0 21.796,24.566 52.774,27.188c21.275,3.35 41.953,10.304 54.958,19.522c0,-0 0.141,-10.661 -2.837,-18.214c-2.979,-7.553 -20.249,-28.469 -41.045,-23.979c-21.519,2.159 -47.491,6.314 -63.85,-4.517Z" style="fill:#857100;"/><path d="M531.753,1103.5c0,0 -68.039,50.413 -108.091,-49.008c-0,0 25.186,28.381 55.708,30.419c13.987,0.935 29.478,5.049 52.383,18.589Z" style="fill:#857100;"/></g><g><path d="M448.944,878.101c0,0 10.216,31.212 37.59,45.949c18.184,11.542 34.384,26.153 42.645,39.786c0,0 4.373,-9.723 4.647,-17.838c0.275,-8.115 -7.242,-34.176 -28.107,-38.336c-20.6,-6.585 -46.08,-13.113 -56.775,-29.561Z" style="fill:#857100;"/><path d="M525.697,966.637c0,-0 -82.483,19.162 -79.649,-87.986c-0,0 11.807,36.061 38.995,50.081c12.459,6.425 25.031,16.366 40.654,37.905Z" style="fill:#857100;"/></g><g><path d="M563.399,765.156c-0,0 -3.608,67.497 37.967,116.135c26.313,35.674 46.538,75.761 52.253,108.068c-0,0 15.623,-15.408 22.184,-30.777c6.561,-15.368 11.517,-70.974 -25.431,-94.472c-34.637,-27.959 -78.68,-59.434 -86.973,-98.954Z" style="fill:#857100;"/><path d="M644.854,992.145c-0,-0 -172.546,-24.566 -87.423,-228.088c-0,0 -4.158,77.987 37.591,125.111c19.133,21.595 35.868,50.024 49.832,102.977Z" style="fill:#857100;"/></g><g><path d="M809.793,782.468c-0,-0 5.619,45.84 -20.444,80.941c-16.266,25.549 -28.176,53.822 -30.559,76.112c0,0 -11.371,-9.771 -16.563,-19.941c-5.192,-10.169 -11.173,-47.84 12.913,-65.588c22.301,-20.68 50.85,-44.197 54.653,-71.524Z" style="fill:#857100;"/><path d="M764.895,941.01c0,-0 116.467,-24.824 48.915,-159.571c-0,0 6.485,52.966 -19.768,87.043c-12.031,15.616 -22.107,35.778 -29.147,72.528Z" style="fill:#857100;"/></g><g><path d="M790.216,933.934c-0,-0 -3.54,28.873 12.876,50.983c10.246,16.093 17.748,33.901 19.249,47.941c-0,-0 7.162,-6.155 10.432,-12.56c3.271,-6.406 7.038,-30.134 -8.133,-41.313c-14.047,-13.026 -32.029,-27.839 -34.424,-45.051Z" style="fill:#857100;"/><path d="M818.495,1033.8c0,0 -73.359,-15.636 -30.81,-100.509c0,-0 -4.085,33.361 12.451,54.826c7.578,9.836 13.926,22.536 18.359,45.683Z" style="fill:#857100;"/></g><g><path d="M985.36,834.371c-0,-0 -16.823,43.011 -56.427,61.526c-26.448,14.76 -50.355,33.987 -63.037,52.472c0,-0 -5.366,-13.999 -5.107,-25.414c0.26,-11.415 12.884,-47.409 42.509,-51.591c29.447,-7.61 65.739,-14.75 82.062,-36.993Z" style="fill:#857100;"/><path d="M870.563,952.578c-0,-0 114.285,33.458 118.82,-117.205c0,0 -19.443,49.692 -58.729,67.216c-18.004,8.031 -36.446,20.989 -60.091,49.989Z" style="fill:#857100;"/></g><g><path d="M995.585,650.457c0,0 -7.295,58.728 -50.624,94.239c-28.177,26.689 -51.788,58.121 -61.694,85.084c0,-0 -11.089,-15.688 -14.375,-29.945c-3.285,-14.257 1.015,-62.945 36.481,-77.501c34.162,-18.758 76.973,-39.095 90.212,-71.877Z" style="fill:#857100;"/><path d="M890.392,833.532c0,-0 152.496,5.425 110.506,-183.102c0,0 -8.438,67.854 -51.684,102.032c-19.819,15.663 -38.624,37.584 -58.822,81.07Z" style="fill:#857100;"/></g><g><path d="M1050.39,800.499c-0,0 4.368,28.053 -10.944,50.141c-9.484,16.022 -16.237,33.632 -17.256,47.375c-0,-0 -7.182,-5.777 -10.575,-11.921c-3.393,-6.145 -7.821,-29.172 6.623,-40.557c13.29,-13.152 30.361,-28.172 32.152,-45.038Z" style="fill:#857100;"/><path d="M1025.97,898.807c-0,0 71.063,-17.578 26.866,-99.02c0,0 5.043,32.413 -10.407,53.875c-7.08,9.836 -12.868,22.425 -16.459,45.145Z" style="fill:#857100;"/></g><g><path d="M1000.58,900.42c-0,0 -2.46,15.797 6.162,28.235c5.341,9.022 9.144,18.938 9.717,26.677c0,0 4.044,-3.253 5.955,-6.713c1.911,-3.46 4.404,-16.426 -3.729,-22.838c-7.484,-7.406 -17.097,-15.863 -18.105,-25.361Z" style="fill:#857100;"/><path d="M1014.33,955.778c0,0 -40.016,-9.898 -15.128,-55.759c-0,0 -2.84,18.252 5.86,30.338c3.987,5.538 7.246,12.627 9.268,25.421Z" style="fill:#857100;"/></g><g><path d="M1036.92,550.478c0,-0 -25.37,12.744 -34.45,38.04c-7.531,17.028 -17.939,32.756 -28.532,41.57c-0,-0 8.874,2.489 15.846,1.68c6.973,-0.808 28.287,-10.583 29.161,-28.955c2.983,-18.457 5.288,-41.078 17.975,-52.335Z" style="fill:#857100;"/><path d="M971.092,627.471c-0,0 -26.982,-68.051 64.982,-79.399c-0,0 -29.311,14.729 -37.803,39.773c-3.891,11.477 -10.774,23.503 -27.179,39.626Z" style="fill:#857100;"/></g><g><path d="M862.646,420.573c-0,0 30.175,71.761 4.037,140.662c-14.641,48.909 -20.966,100.234 -14.588,137.478c-0,-0 -22.931,-10.623 -36.024,-24.729c-13.093,-14.107 -40.103,-72.453 -9.196,-112.303c26.666,-43.785 62.16,-95.042 55.771,-141.108Z" style="fill:#857100;"/><path d="M862.68,698.321c-0,0 177.476,-93.773 6.007,-281.261c0,-0 34.855,82.917 7.937,150.245c-12.336,30.855 -19.414,68.182 -13.944,131.016Z" style="fill:#857100;"/></g><g><path d="M763.118,481.259c0,0 -28.556,34.927 -25.345,77.514c0.104,29.587 -4.811,59.151 -14.472,78.802c-0,0 14.489,-2.137 24.082,-7.827c9.594,-5.689 34.188,-33.681 23.556,-60.905c-7.629,-28.714 -18.937,-63.031 -7.821,-87.584Z" style="fill:#857100;"/><path d="M717.482,635.619c0,0 -83.235,-81.265 42.856,-157.305c-0,0 -32.99,40.359 -29.087,82.2c1.788,19.174 -0.409,41.082 -13.769,75.105Z" style="fill:#857100;"/></g><g><path d="M1274.7,478.803c0,-0 41.174,18.443 57.371,57.959c13.155,26.502 30.787,50.736 48.225,63.982c0,-0 -13.912,4.576 -25.038,3.784c-11.125,-0.791 -45.65,-14.807 -48.333,-43.91c-6.036,-29.091 -11.291,-64.839 -32.225,-81.815Z" style="fill:#857100;"/><path d="M1384.62,596.389c0,0 38.038,-109.933 -108.755,-121.465c0,0 47.569,21.316 62.815,60.474c6.986,17.946 18.76,36.552 45.94,60.991Z" style="fill:#857100;"/></g><g><path d="M1572.49,703.196c0,-0 -10.518,35.973 -41.207,53.776c-20.322,13.826 -38.271,31.08 -47.198,46.931c-0,-0 -5.341,-10.932 -5.949,-20.178c-0.607,-9.246 7.02,-39.246 30.668,-44.748c23.258,-8.261 52.084,-16.631 63.686,-35.781Z" style="fill:#857100;"/><path d="M1488.16,806.971c0,-0 94.78,18.862 87.656,-103.253c0,-0 -12.158,41.562 -42.66,58.541c-13.979,7.781 -27.958,19.576 -44.996,44.712Z" style="fill:#857100;"/></g></g><g><path d="M560.465,566.416c0,0 28.138,89.044 105.542,131.742c51.367,33.347 97.006,75.362 120.098,114.366c-0,-0 12.716,-27.519 13.732,-50.584c1.016,-23.065 -19.598,-97.386 -78.802,-109.819c-58.382,-19.325 -130.638,-38.626 -160.57,-85.705Z" style="fill:#857100;"/><path d="M776.123,820.386c-0,-0 -235.086,52.085 -223.91,-252.49c0,-0 32.523,102.877 109.419,143.531c35.239,18.631 70.697,47.263 114.491,108.959Z" style="fill:#857100;"/></g></g><g><g><g><path d="M1263,1237.28c-0,0 -7.45,-19.923 -25.56,-28.723c-12.077,-6.981 -22.954,-16 -28.666,-24.6c0,-0 -2.568,6.41 -2.528,11.668c0.041,5.259 5.606,21.921 19.219,24.052c13.508,3.708 30.171,7.247 37.535,17.603Z" style="fill:#857100;"/><path d="M1210.95,1182.05c0,0 52.861,-14.617 53.907,54.795c0,0 -8.61,-23.018 -26.58,-31.359c-8.235,-3.823 -16.638,-9.918 -27.327,-23.436Z" style="fill:#857100;"/></g><g><path d="M1350.92,1265.56c0,-0 0.605,-31.051 -19.245,-52.738c-12.639,-15.972 -22.551,-34.065 -25.679,-48.811c0,-0 -6.934,7.319 -9.707,14.479c-2.774,7.159 -4.183,32.771 13.15,42.985c16.341,12.299 37.057,26.066 41.481,44.085Z" style="fill:#857100;"/><path d="M1309.98,1162.6c-0,0 79.616,8.592 43.7,103.376c-0,0 0.694,-35.876 -19.213,-56.865c-9.122,-9.619 -17.25,-22.412 -24.487,-46.511Z" style="fill:#857100;"/></g><g><path d="M1471.38,1267.13c0,0 -9.119,-32.932 -36.863,-49.563c-18.346,-12.87 -34.484,-28.835 -42.415,-43.402c-0,0 -5.012,9.897 -5.687,18.318c-0.675,8.421 5.887,35.87 27.373,41.195c21.096,7.835 47.266,15.843 57.592,33.452Z" style="fill:#857100;"/><path d="M1395.85,1171.43c0,-0 86.653,-15.957 78.563,95.276c-0,-0 -10.541,-38.049 -38.127,-53.926c-12.641,-7.277 -25.232,-18.213 -40.436,-41.35Z" style="fill:#857100;"/></g><g><path d="M1615.52,1213.89c-0,-0 -26.272,-33.129 -65.907,-38.7c-27.112,-5.819 -53.199,-16.228 -69.262,-29.002c0,0 -0.938,13.694 2.354,23.615c3.292,9.922 24.006,38.036 51.058,33.742c27.816,-1.246 61.498,-4.741 81.757,10.345Z" style="fill:#857100;"/><path d="M1483.31,1141.26c-0,-0 91.045,-59.97 135.466,70.68c0,0 -30.36,-38.273 -69.45,-43.062c-17.914,-2.195 -37.534,-8.585 -66.016,-27.618Z" style="fill:#857100;"/></g><g><path d="M1560.17,979.487c-0,0 -20.542,48.884 -66.529,68.999c-30.779,16.183 -58.77,37.565 -73.856,58.417c-0,0 -5.758,-16.221 -5.133,-29.316c0.625,-13.094 16.147,-54.044 50.27,-57.994c34.016,-7.89 75.875,-15.044 95.248,-40.106Z" style="fill:#857100;"/><path d="M1425.02,1111.87c-0,-0 130.213,41.68 139.739,-131.115c-0,0 -23.741,56.477 -69.335,75.463c-20.894,8.701 -42.433,23.046 -70.404,55.652Z" style="fill:#857100;"/></g><g><path d="M1657.23,1052.84c0,-0 -21.795,24.566 -52.773,27.188c-21.276,3.35 -41.954,10.304 -54.959,19.522c-0,-0 -0.141,-10.661 2.838,-18.214c2.978,-7.553 20.248,-28.469 41.044,-23.979c21.52,2.159 47.491,6.314 63.85,-4.517Z" style="fill:#857100;"/><path d="M1551.58,1103.5c0,0 68.039,50.413 108.092,-49.008c-0,0 -25.187,28.381 -55.708,30.419c-13.988,0.935 -29.478,5.049 -52.384,18.589Z" style="fill:#857100;"/></g><g><path d="M1618.92,868.186c0,-0 -0.298,32.84 -21.934,55.165c-13.842,16.5 -24.865,35.326 -28.617,50.819c0,0 -7.108,-7.945 -9.824,-15.597c-2.715,-7.652 -3.432,-34.766 15.198,-45.041c17.644,-12.507 39.957,-26.434 45.177,-45.346Z" style="fill:#857100;"/><path d="M1572.54,975.787c0,-0 84.417,-6.679 49.312,-107.953c0,0 -0.349,37.944 -22.024,59.529c-9.933,9.892 -18.91,23.169 -27.288,48.424Z" style="fill:#857100;"/></g><g><path d="M1582.94,797.716c0,0 -28.513,61.284 -88.06,84.701c-39.984,19.137 -76.667,45.031 -96.884,70.87c-0,-0 -6.557,-20.94 -5.132,-37.59c1.425,-16.65 23.163,-68.07 66.819,-71.464c43.71,-8.417 97.376,-15.521 123.257,-46.517Z" style="fill:#857100;"/><path d="M1404.42,959.862c-0,0 163.871,59.344 184.299,-160.313c0,-0 -32.953,70.804 -91.944,92.801c-27.033,10.081 -55.159,27.319 -92.355,67.512Z" style="fill:#857100;"/></g><g><path d="M1249.78,793.706c-0,0 8.752,45.347 44.347,70.73c23.336,19.308 43.365,42.547 52.488,63.023c0,0 7.814,-12.795 9.627,-24.068c1.813,-11.273 -4.083,-48.958 -32.46,-58.438c-27.581,-12.818 -61.979,-26.414 -74.002,-51.247Z" style="fill:#857100;"/><path d="M1341.26,930.753c-0,0 -118.456,12.202 -95.623,-136.79c0,0 10.12,52.392 45.581,76.743c16.251,11.159 32.041,27.244 50.042,60.047Z" style="fill:#857100;"/></g><g><path d="M1310,934.293c-0,0 2.065,29.384 -15.695,50.882c-11.205,15.736 -19.725,33.352 -21.979,47.471c0,-0 -6.92,-6.6 -9.891,-13.249c-2.971,-6.649 -5.537,-30.842 10.391,-41.351c14.888,-12.436 33.849,-26.472 37.174,-43.753Z" style="fill:#857100;"/><path d="M1276.16,1033.8c0,0 75.005,-11.965 36.426,-100.024c0,-0 2.382,33.951 -15.465,54.789c-8.179,9.55 -15.264,22.06 -20.961,45.235Z" style="fill:#857100;"/></g><g><path d="M1101.98,842.097c0,0 16.823,43.011 56.427,61.526c26.448,14.761 50.355,33.987 63.037,52.472c-0,-0 5.366,-13.999 5.107,-25.414c-0.26,-11.415 -12.884,-47.409 -42.509,-51.591c-29.447,-7.609 -65.739,-14.749 -82.062,-36.993Z" style="fill:#857100;"/><path d="M1216.77,960.304c0,-0 -114.285,33.458 -118.82,-117.205c-0,0 19.443,49.693 58.729,67.216c18.004,8.031 36.446,20.989 60.091,49.989Z" style="fill:#857100;"/></g><g><path d="M1087.75,650.457c0,0 7.296,58.728 50.625,94.239c28.177,26.689 51.788,58.121 61.693,85.084c0,-0 11.089,-15.688 14.375,-29.945c3.286,-14.257 -1.015,-62.945 -36.481,-77.501c-34.162,-18.758 -76.972,-39.095 -90.212,-71.877Z" style="fill:#857100;"/><path d="M1192.94,833.532c0,-0 -152.495,5.425 -110.506,-183.102c0,0 8.438,67.854 51.685,102.032c19.818,15.663 38.624,37.584 58.821,81.07Z" style="fill:#857100;"/></g><g><path d="M1036.41,692.102c0,0 -4.486,21.509 6.474,39.185c6.696,12.759 11.218,26.636 11.462,37.298c-0,-0 5.779,-4.181 8.645,-8.795c2.865,-4.615 7.199,-22.236 -3.514,-31.607c-9.751,-10.691 -22.35,-22.975 -23.067,-36.081Z" style="fill:#857100;"/><path d="M1051.39,769.048c0,-0 -54.226,-16.399 -16.845,-77.593c0,0 -5.18,24.852 5.911,42.05c5.083,7.882 9.058,17.841 10.934,35.543Z" style="fill:#857100;"/></g><g><path d="M1101.13,541.771c-0,0 -19.823,20.325 -20.152,47.199c-1.562,18.554 -6.269,36.817 -13.406,48.605c-0,0 9.2,-0.543 15.527,-3.582c6.327,-3.039 23.285,-19.234 18.117,-36.886c-3.204,-18.42 -8.406,-40.555 -0.086,-55.336Z" style="fill:#857100;"/><path d="M1064.03,636.029c-0,0 -47.711,-55.522 35.516,-96.257c0,0 -22.9,23.487 -22.755,49.931c0.067,12.118 -2.515,25.732 -12.761,46.326Z" style="fill:#857100;"/></g><g><path d="M1220.69,420.573c-0,0 -30.176,71.761 -4.037,140.662c14.641,48.909 20.965,100.234 14.588,137.478c-0,-0 22.93,-10.623 36.023,-24.729c13.093,-14.107 40.103,-72.453 9.196,-112.303c-26.665,-43.785 -62.159,-95.042 -55.77,-141.108Z" style="fill:#857100;"/><path d="M1220.65,698.321c-0,0 -177.476,-93.773 -6.008,-281.261c-0,-0 -34.855,82.917 -7.936,150.245c12.335,30.855 19.413,68.182 13.944,131.016Z" style="fill:#857100;"/></g><g><path d="M1082.08,403.063c0,-0 14.473,34.418 1.937,67.465c-7.022,23.457 -10.056,48.074 -6.997,65.937c-0,-0 -10.998,-5.095 -17.278,-11.861c-6.279,-6.766 -19.234,-34.75 -4.41,-53.863c12.789,-21 29.813,-45.584 26.748,-67.678Z" style="fill:#857100;"/><path d="M1082.1,536.277c-0,-0 85.121,-44.976 2.881,-134.899c0,-0 16.717,39.769 3.807,72.061c-5.917,14.798 -9.312,32.701 -6.688,62.838Z" style="fill:#857100;"/></g><g><path d="M982.322,334.878c-0,-0 -20.938,49.793 -2.801,97.601c10.159,33.937 14.547,69.55 10.122,95.393c-0,-0 15.911,-7.371 24.996,-17.159c9.085,-9.788 27.826,-50.273 6.381,-77.924c-18.503,-30.382 -43.131,-65.948 -38.698,-97.911Z" style="fill:#857100;"/><path d="M982.298,527.6c0,-0 -123.146,-65.067 -4.168,-195.16c-0,-0 -24.185,57.534 -5.507,104.251c8.559,21.409 13.471,47.31 9.675,90.909Z" style="fill:#857100;"/></g></g><g><path d="M1475.91,526.713c-0,-0 -6.722,93.141 -72.115,152.624c-42.234,44.351 -76.886,95.803 -90.303,139.099c-0,-0 -18.751,-23.821 -25.089,-46.021c-6.337,-22.2 -3.519,-99.275 51.188,-125.099c52.31,-32.336 118.12,-67.867 136.319,-120.603Z" style="fill:#857100;"/><path d="M1325.03,823.769c0,-0 240.756,-3.85 159.256,-297.53c-0,-0 -7.78,107.614 -73.152,164.992c-29.958,26.294 -57.811,62.368 -86.104,132.538Z" style="fill:#857100;"/></g></g><path d="M753.605,1561.19l-0.525,-0c-0,-0 34.197,-48.851 70.254,-37.841c-0,-0 53.844,-34.19 87.012,-29.215c5.795,0.869 13.546,-1.838 22.647,-6.548c36.92,-56.031 74.983,-145.364 33.03,-240.436l0.023,-0.021c-0.865,-1.089 -97.17,-122.02 -194.907,-92.963c-0,0 -87.565,23.506 -149.922,-16.772c0,0 100.832,24.733 151.249,-21.703c30.209,-2.45 51.877,0.126 76.442,9.889c-29.69,-15.083 -77.854,-40.867 -88.685,-54.586c-15.921,-20.166 -60.499,-44.578 -96.586,-47.763c-0,0 38.081,-7.59 93.495,19.229c-32.009,-31.716 -53.309,-70.585 -46.573,-116.244c0,0 42.91,140.06 184.183,139.35c12.456,5.858 22.885,10.603 31.556,14.391c-5.158,-27.668 -30.617,-75.564 -94.009,-103.285c0,0 117.235,6.994 132.991,88.088l10.632,-42.484c-0,0 17.636,-44.687 46.155,-63.449c28.519,-18.762 25.067,-4.282 41.577,-24.806c16.511,-20.524 6.908,-36.015 11.477,-45.74c-0,-0 33.399,56.23 22.232,95.246c-5.67,19.812 5.767,48.998 22.278,62.507c3.898,3.189 8.249,3.743 12.699,2.797c26.843,-66.108 128.277,-72.159 128.277,-72.159c-56.767,24.824 -83.115,65.827 -91.705,93.992c-0.163,2.939 -0.345,5.809 -0.532,8.516c8.311,-3.654 18.166,-8.15 29.785,-13.614c141.273,0.71 184.183,-139.35 184.183,-139.35c6.736,45.659 -14.564,84.528 -46.573,116.244c55.414,-26.819 93.495,-19.229 93.495,-19.229c-36.087,3.185 -80.666,27.597 -96.586,47.763c-10.831,13.719 -58.995,39.503 -88.685,54.586c24.565,-9.763 46.233,-12.339 76.442,-9.889c50.416,46.436 151.249,21.703 151.249,21.703c-62.357,40.278 -149.922,16.772 -149.922,16.772c-97.737,-29.057 -194.043,91.874 -194.907,92.963l0.023,0.021c-41.953,95.072 -3.89,184.405 33.03,240.436c9.101,4.71 16.852,7.417 22.646,6.548c33.169,-4.975 87.013,29.215 87.013,29.215c36.057,-11.01 54.637,37.841 54.637,37.841l0.023,-0c-0,-0 45.047,83.595 8.646,137.81c-0,-0 28.656,-99.034 -51.892,-137.81l-91.477,-0c-0,-0 70.871,115.072 13.602,189.702c-0,-0 45.084,-136.324 -81.639,-189.702l-75.015,-0l0,-267.832l0,267.832l-90.083,-0c-126.723,53.378 -81.639,189.702 -81.639,189.702c-57.269,-74.63 13.602,-189.702 13.602,-189.702l-91.477,-0c-80.548,38.776 -51.892,137.81 -51.892,137.81c-36.401,-54.215 8.646,-137.81 8.646,-137.81Zm204.459,-0c0,-0 -70.871,67.621 -13.602,111.477c0,-0 -45.084,-80.11 81.639,-111.477l-68.037,-0Zm161.7,-0c-0,-0 70.871,67.621 13.602,111.477c-0,-0 45.084,-80.11 -81.639,-111.477l68.037,-0Zm-299.592,-0c0,-0 -70.871,47.701 -13.602,78.638c-0,-0 -45.084,-56.511 81.639,-78.638l-68.037,-0Zm437.484,-0c-0,-0 70.871,47.701 13.602,78.638c0,-0 45.084,-56.511 -81.638,-78.638l68.036,-0Zm-291.932,-493.964c0.149,0.893 0.285,1.795 0.409,2.707c0,-0 0.35,0.105 1.003,0.277l-1.412,-2.984Z" style="fill:#185000;"/></g></svg>