<?xml version="1.0" encoding="UTF-8" standalone="no"?><!DOCTYPE svg PUBLIC "-//W3C//DTD SVG 1.1//EN" "http://www.w3.org/Graphics/SVG/1.1/DTD/svg11.dtd"><svg width="100%" height="100%" viewBox="0 0 2084 2084" version="1.1" xmlns="http://www.w3.org/2000/svg" xmlns:xlink="http://www.w3.org/1999/xlink" xml:space="preserve" xmlns:serif="http://www.serif.com/" style="fill-rule:evenodd;clip-rule:evenodd;stroke-linecap:round;stroke-linejoin:round;stroke-miterlimit:1.5;"><rect id="Artboard2" x="-0" y="-0" width="2083.33" height="2083.33" style="fill:none;"/><rect x="0" y="-0" width="2083.33" height="2083.33" style="fill:#fff;"/><g><path d="M1145.3,1845.84c-0,-0 -12.789,31.07 -41.835,44.031c-19.428,10.398 -37.065,24.077 -46.527,37.36c0,0 -3.724,-10.252 -3.389,-18.552c0.335,-8.3 9.98,-34.321 31.583,-36.983c21.518,-5.157 48.009,-9.885 60.168,-25.856Z" style="fill:#cfb000;"/><path d="M1060.28,1930.35c0,-0 82.704,25.804 87.936,-83.733c-0,0 -14.781,35.898 -43.583,48.141c-13.199,5.611 -26.78,14.8 -44.353,35.592Z" style="fill:#cfb000;"/></g><g><path d="M977.596,1847.73c-0,0 9.554,23.212 31.253,32.894c14.514,7.768 27.69,17.987 34.758,27.91c0,0 2.782,-7.659 2.532,-13.859c-0.25,-6.201 -7.456,-25.64 -23.594,-27.628c-16.075,-3.853 -35.866,-7.386 -44.949,-19.317Z" style="fill:#185000;"/><path d="M1041.11,1910.86c-0,0 -61.785,19.277 -65.693,-62.553c0,0 11.042,26.818 32.559,35.964c9.86,4.192 20.006,11.057 33.134,26.589Z" style="fill:#185000;"/></g><path d="M547.412,1770.14l0,-74.039l-12.01,0c-5.924,41.791 -24.187,62.193 -71.572,62.193l-27.148,0l0,-223.105l29.616,-0l0,-11.847l-114.514,0l-0,11.847l29.945,-0l-0,223.105l-29.945,0l-0,11.846l195.628,0Z" style="fill:#757575;fill-rule:nonzero;"/><path d="M696.643,1684.58l12.175,-0l0,-82.595l-12.175,-0c-5.923,22.047 -20.731,34.551 -39.323,34.551l-6.581,0l-0,-101.351l31.096,-0c38.501,-0 59.067,20.402 64.99,55.612l12.011,-0l0,-67.459l-192.996,0l-0,11.847l29.945,-0l-0,223.105l-29.945,0l-0,11.846l196.287,0l-0,-74.039l-12.011,0c-5.923,41.791 -26.819,62.193 -71.736,62.193l-27.641,0l-0,-109.907l6.581,-0c18.592,-0 33.4,14.15 39.323,36.197Z" style="fill:#757575;fill-rule:nonzero;"/><path d="M915.306,1670.1l0,12.669l34.716,-0l0,46.233c-5.265,15.137 -17.111,32.907 -42.12,32.907c-45.74,-0 -57.422,-55.283 -57.422,-115.173c0,-59.889 20.073,-112.21 67.459,-112.21c38.171,-0 62.851,29.451 72.065,62.357l12.175,0l-0,-73.546l-10.366,0l-26.983,13.657c-15.63,-10.53 -34.387,-16.947 -52.156,-16.947c-66.8,-0 -123.564,49.359 -123.564,126.689c-0,77.331 44.424,126.69 118.792,126.69c53.638,0 76.508,-30.932 100.2,-53.637l0,-37.02l15.96,-0l-0,-12.669l-108.756,0Z" style="fill:#757575;fill-rule:nonzero;"/><path d="M1011.23,1758.29l0,11.846l72.888,0l-0,-11.846l-30.274,0l21.389,-61.206l77.988,0l19.909,61.206l-27.477,0l-0,11.846l118.463,0l0,-11.846l-27.477,0l-83.089,-239.558l-28.628,-0l-84.899,239.558l-28.793,0Zm104.478,-177.036l33.565,103.984l-69.926,-0l36.361,-103.984Z" style="fill:#757575;fill-rule:nonzero;"/><path d="M1468.46,1696.59l-12.34,-0c-15.631,35.868 -31.919,62.357 -73.381,62.357c-47.386,0 -61.535,-52.321 -61.535,-112.211c-0,-59.889 14.149,-112.21 61.535,-112.21c32.741,-0 54.295,22.87 70.09,62.357l12.176,0l-0,-73.546l-10.366,0l-24.351,15.96c-13.985,-12.175 -31.096,-19.25 -50.84,-19.25c-74.698,-0 -119.615,53.637 -119.615,126.689c0,73.053 44.917,126.69 119.615,126.69c22.212,0 40.968,-7.239 55.612,-19.579l22.705,16.288l10.695,0l-0,-73.545Z" style="fill:#757575;fill-rule:nonzero;"/><path d="M1559.29,1758.29l-0,11.846l117.311,0l-0,-11.846l-32.907,0l0,-111.059l64.991,-112.046l22.87,-0l-0,-11.847l-67.459,0l0,11.847l30.439,-0l-55.612,95.428l-54.296,-95.428l28.794,-0l-0,-11.847l-119.122,0l0,11.847l26.655,-0l67.787,116.488l-0,106.617l-29.451,0Z" style="fill:#757575;fill-rule:nonzero;"/><path d="M351.784,1825.65l19.393,0l-0,109.338l50.489,-0l0,12.539l-67.542,-0l0,-111.01l-2.34,-10.867Z" style="fill:#757575;fill-rule:nonzero;"/><path d="M437.716,1825.65l73.895,0l-0,12.539l-54.502,-0l0,40.458l42.13,0l0,12.539l-42.13,-0l0,43.802l54.502,-0l-0,12.539l-71.555,-0l0,-111.01l-2.34,-10.867Z" style="fill:#757575;fill-rule:nonzero;"/><path d="M578.986,1825.65l42.297,121.877l-18.725,-0l-13.709,-40.459l-39.288,0l-13.876,40.459l-15.046,-0l42.464,-121.877l15.883,0Zm-9.697,22.236l-15.548,46.811l30.929,-0l-15.381,-46.811Z" style="fill:#757575;fill-rule:nonzero;"/><path d="M733.797,1886.84c0,11.814 -2.062,22.263 -6.186,31.347c-4.124,9.084 -10.337,16.245 -18.641,21.483c-8.303,5.238 -18.696,7.858 -31.179,7.858l-40.459,-0l0,-111.01c0,-0.111 -0.195,-0.975 -0.585,-2.591c-0.39,-1.616 -0.752,-3.316 -1.086,-5.099c-0.335,-1.784 -0.558,-2.842 -0.669,-3.177l34.44,0c13.263,0 24.687,2.146 34.272,6.437c9.585,4.291 16.997,10.95 22.236,19.978c5.238,9.028 7.857,20.619 7.857,34.774Zm-18.056,0c0,-8.136 -1.003,-15.241 -3.009,-21.316c-2.006,-6.074 -4.988,-11.145 -8.944,-15.213c-3.957,-4.068 -8.889,-7.106 -14.796,-9.112c-5.907,-2.006 -12.873,-3.009 -20.898,-3.009l-13.709,-0l0,96.799l21.567,-0c9.808,-0 17.61,-2.201 23.405,-6.604c5.796,-4.402 9.976,-10.254 12.539,-17.554c2.564,-7.3 3.845,-15.297 3.845,-23.991Z" style="fill:#757575;fill-rule:nonzero;"/><path d="M751.853,1825.65l73.895,0l-0,12.539l-54.502,-0l0,40.458l42.13,0l0,12.539l-42.13,-0l0,43.802l54.502,-0l-0,12.539l-71.555,-0l0,-111.01l-2.34,-10.867Z" style="fill:#757575;fill-rule:nonzero;"/><path d="M843.469,1825.65l37.449,0c7.691,0 14.657,1.003 20.898,3.009c6.242,2.007 11.174,5.434 14.796,10.282c3.622,4.849 5.433,11.619 5.433,20.313c0,4.458 -1.086,8.777 -3.26,12.957c-2.173,4.179 -5.071,7.802 -8.693,10.867c-3.623,3.065 -7.551,5.266 -11.787,6.603l34.774,57.846l-19.727,-0l-31.932,-54.669l-18.558,-0l0,54.669l-17.052,-0l-0,-111.01l-2.341,-10.867Zm19.393,12.706l0,42.13l12.874,0c5.349,0 10.17,-0.613 14.461,-1.839c4.291,-1.226 7.69,-3.455 10.198,-6.687c2.508,-3.232 3.762,-7.746 3.762,-13.542c-0,-4.57 -1.115,-8.331 -3.344,-11.285c-2.229,-2.953 -5.127,-5.155 -8.694,-6.604c-3.566,-1.448 -7.467,-2.173 -11.702,-2.173l-17.555,0Z" style="fill:#757575;fill-rule:nonzero;"/><path d="M1250.68,1823.85c4.344,-0 9.05,0.473 14.118,1.42c5.068,0.947 9.97,2.423 14.704,4.428c4.734,2.005 8.66,4.622 11.779,7.852l-9.524,11.028c-3.453,-2.785 -6.683,-5.04 -9.691,-6.767c-3.007,-1.726 -6.126,-3.035 -9.356,-3.926c-3.231,-0.892 -7.241,-1.337 -12.03,-1.337c-7.241,-0 -13.339,1.392 -18.296,4.177c-4.957,2.785 -8.995,6.516 -12.113,11.195c-3.119,4.678 -5.403,9.997 -6.851,15.956c-1.448,5.959 -2.172,12.114 -2.172,18.463c0,5.903 0.668,11.807 2.005,17.711c1.337,5.903 3.481,11.278 6.433,16.123c2.952,4.846 6.795,8.716 11.529,11.612c4.734,2.897 10.609,4.345 17.627,4.345c5.681,-0 10.637,-1.254 14.87,-3.76c4.233,-2.506 7.519,-5.931 9.858,-10.275c2.339,-4.345 3.509,-9.357 3.509,-15.038l-0,-10.86l-28.906,-0l2.005,-12.03l44.278,-0l-0.168,34.085c0,4.789 0.168,9.635 0.502,14.536c0.334,4.901 0.668,9.746 1.002,14.536l-9.189,0l-5.347,-12.698c-5.013,5.235 -10.331,8.994 -15.956,11.278c-5.626,2.283 -12.114,3.425 -19.466,3.425c-8.799,0 -16.485,-1.643 -23.057,-4.929c-6.572,-3.286 -12.058,-7.797 -16.458,-13.534c-4.4,-5.736 -7.658,-12.28 -9.774,-19.632c-2.117,-7.351 -3.175,-15.149 -3.175,-23.391c0,-12.142 2.144,-23.03 6.433,-32.665c4.288,-9.635 10.693,-17.266 19.214,-22.891c8.522,-5.625 19.076,-8.437 31.663,-8.437Z" style="fill:#757575;fill-rule:nonzero;"/><path d="M1315.68,1825.52l37.427,0c7.686,0 14.647,1.003 20.885,3.008c6.238,2.005 11.167,5.43 14.787,10.276c3.62,4.845 5.43,11.612 5.43,20.3c0,4.456 -1.086,8.772 -3.258,12.949c-2.172,4.177 -5.068,7.797 -8.688,10.861c-3.62,3.063 -7.547,5.263 -11.78,6.599l34.754,57.811l-19.716,0l-31.913,-54.636l-18.546,-0l-0,54.636l-17.043,0l0,-110.943l-2.339,-10.861Zm19.382,12.699l-0,42.105l12.865,-0c5.347,-0 10.164,-0.613 14.453,-1.838c4.288,-1.225 7.686,-3.453 10.192,-6.683c2.506,-3.231 3.759,-7.742 3.759,-13.534c0,-4.567 -1.113,-8.327 -3.341,-11.278c-2.228,-2.952 -5.124,-5.152 -8.689,-6.6c-3.564,-1.448 -7.463,-2.172 -11.695,-2.172l-17.544,-0Z" style="fill:#757575;fill-rule:nonzero;"/><path d="M1461.88,1949.16c-9.022,0 -16.959,-1.671 -23.809,-5.012c-6.851,-3.342 -12.559,-7.909 -17.126,-13.701c-4.567,-5.792 -7.992,-12.448 -10.276,-19.967c-2.283,-7.518 -3.425,-15.511 -3.425,-23.976c-0,-8.466 1.142,-16.458 3.425,-23.977c2.284,-7.518 5.681,-14.202 10.192,-20.05c4.511,-5.848 10.22,-10.414 17.126,-13.7c6.906,-3.286 14.926,-4.929 24.06,-4.929c9.245,-0 17.293,1.643 24.144,4.929c6.85,3.286 12.559,7.825 17.126,13.617c4.567,5.792 7.992,12.475 10.275,20.05c2.284,7.574 3.426,15.65 3.426,24.227c-0,8.465 -1.17,16.458 -3.509,23.976c-2.339,7.519 -5.792,14.175 -10.359,19.967c-4.567,5.792 -10.276,10.331 -17.126,13.617c-6.851,3.286 -14.899,4.929 -24.144,4.929Zm0.334,-12.364c7.018,-0 12.866,-1.476 17.544,-4.428c4.678,-2.952 8.438,-6.878 11.278,-11.779c2.841,-4.901 4.873,-10.304 6.099,-16.207c1.225,-5.904 1.838,-11.807 1.838,-17.711c-0,-5.904 -0.613,-11.807 -1.838,-17.711c-1.226,-5.904 -3.258,-11.306 -6.099,-16.207c-2.84,-4.901 -6.628,-8.855 -11.362,-11.863c-4.734,-3.007 -10.554,-4.511 -17.46,-4.511c-6.906,-0 -12.726,1.476 -17.46,4.428c-4.734,2.951 -8.493,6.878 -11.278,11.779c-2.785,4.901 -4.818,10.303 -6.099,16.207c-1.281,5.904 -1.921,11.807 -1.921,17.711c-0,5.903 0.64,11.807 1.921,17.711c1.281,5.903 3.314,11.333 6.099,16.29c2.785,4.957 6.544,8.911 11.278,11.863c4.734,2.952 10.554,4.428 17.46,4.428Z" style="fill:#757575;fill-rule:nonzero;"/><path d="M1554.94,1825.52l0,81.036c0,9.134 2.368,16.458 7.102,21.971c4.734,5.514 11.89,8.271 21.47,8.271c9.913,-0 17.46,-2.952 22.64,-8.855c5.179,-5.904 7.769,-13.646 7.769,-23.225l-0,-79.198l14.202,0l-0,78.028c-0,9.803 -1.838,18.101 -5.514,24.896c-3.676,6.794 -8.911,11.974 -15.706,15.539c-6.794,3.564 -14.926,5.346 -24.394,5.346c-14.258,0 -25.341,-3.731 -33.249,-11.194c-7.909,-7.463 -11.863,-18.38 -11.863,-32.749l-0,-69.005l-2.507,-10.861l20.05,0Z" style="fill:#757575;fill-rule:nonzero;"/><path d="M1653.02,1825.52l36.926,0c8.02,0 15.177,1.226 21.47,3.676c6.294,2.451 11.222,6.349 14.787,11.696c3.564,5.347 5.347,12.476 5.347,21.387c-0,8.243 -1.894,15.065 -5.681,20.467c-3.787,5.403 -8.8,9.469 -15.038,12.198c-6.238,2.729 -13.144,4.093 -20.718,4.093l-17.544,0l0,48.287l-17.042,0l-0,-110.943l-2.507,-10.861Zm19.549,12.532l0,48.621l17.377,-0c7.351,-0 13.144,-2.256 17.376,-6.767c4.233,-4.511 6.35,-10.387 6.35,-17.627c-0,-7.575 -2.005,-13.506 -6.015,-17.795c-4.01,-4.288 -9.858,-6.432 -17.544,-6.432l-17.544,-0Z" style="fill:#757575;fill-rule:nonzero;"/><path d="M352.939,1469.36l1378.61,-0" style="fill:none;stroke:#757575;stroke-width:8.33px;"/><g><g><g><g><g><path d="M857.108,1039.77c0,0 6.097,-16.306 20.919,-23.509c9.885,-5.713 18.787,-13.095 23.462,-20.133c0,-0 2.102,5.246 2.069,9.549c-0.033,4.304 -4.588,17.942 -15.73,19.686c-11.055,3.034 -24.694,5.931 -30.72,14.407Z" style="fill:#857100;"/><path d="M899.707,994.57c-0,-0 -43.265,-11.964 -44.121,44.847c0,0 7.047,-18.839 21.755,-25.666c6.74,-3.129 13.618,-8.118 22.366,-19.181Z" style="fill:#857100;"/></g><g><path d="M832.613,1106.98c-0,-0 -6.344,-16.212 -0.114,-31.469c3.547,-10.852 5.249,-22.29 4.032,-30.652c0,0 5.067,2.503 7.915,5.73c2.848,3.227 8.559,16.423 1.426,25.158c-6.207,9.639 -14.429,20.899 -13.259,31.233Z" style="fill:#857100;"/><path d="M834.163,1044.88c-0,0 -40.202,19.969 -2.921,62.844c0,0 -7.327,-18.732 -0.931,-33.632c2.93,-6.829 4.722,-15.134 3.852,-29.212Z" style="fill:#857100;"/></g><g><path d="M785.149,1062.92c0,-0 -0.495,-25.414 15.751,-43.164c10.345,-13.072 18.457,-27.88 21.017,-39.949c0,-0 5.675,5.99 7.945,11.85c2.27,5.86 3.424,26.821 -10.763,35.182c-13.374,10.066 -30.329,21.334 -33.95,36.081Z" style="fill:#857100;"/><path d="M818.659,978.65c-0,-0 -65.163,7.032 -35.767,84.608c0,0 -0.568,-29.363 15.724,-46.541c7.467,-7.873 14.119,-18.343 20.043,-38.067Z" style="fill:#857100;"/></g><g><path d="M686.562,1064.21c-0,0 7.464,-26.953 30.171,-40.566c15.016,-10.533 28.223,-23.599 34.715,-35.521c-0,-0 4.102,8.099 4.654,14.992c0.553,6.892 -4.818,29.358 -22.404,33.716c-17.265,6.412 -38.684,12.966 -47.136,27.379Z" style="fill:#857100;"/><path d="M748.376,985.875c-0,-0 -70.922,-13.06 -64.3,77.979c0,0 8.628,-31.141 31.205,-44.136c10.346,-5.955 20.651,-14.906 33.095,-33.843Z" style="fill:#857100;"/></g><g><path d="M733.942,1149.62c0,-0 -7.735,-26.877 4.5,-50.355c7.289,-16.831 11.713,-34.876 11.011,-48.432c0,-0 7.732,4.758 11.808,10.344c4.075,5.585 11.248,27.542 -1.462,40.454c-11.363,14.496 -26.191,31.284 -25.857,47.989Z" style="fill:#cfb000;"/><path d="M745.66,1050.52c0,0 -67.279,25.961 -14.022,100.093c0,-0 -8.933,-31.055 3.514,-53.939c5.704,-10.487 9.806,-23.505 10.508,-46.154Z" style="fill:#cfb000;"/></g><g><path d="M568.589,1020.63c-0,0 21.502,-27.114 53.942,-31.674c22.189,-4.762 43.54,-13.281 56.687,-23.736c-0,-0 0.768,11.207 -1.926,19.328c-2.695,8.12 -19.648,31.13 -41.789,27.615c-22.766,-1.019 -50.333,-3.88 -66.914,8.467Z" style="fill:#857100;"/><path d="M676.8,961.181c0,0 -74.516,-49.082 -110.873,57.849c-0,0 24.848,-31.324 56.841,-35.244c14.662,-1.797 30.721,-7.027 54.032,-22.605Z" style="fill:#857100;"/></g><g><path d="M568.422,1124.01c-0,-0 10.395,-33.007 39.064,-48.857c19.023,-12.377 35.92,-27.962 44.463,-42.424c0,-0 4.723,10.193 5.107,18.74c0.385,8.547 -7.227,36.095 -29.162,40.724c-21.628,7.182 -48.397,14.36 -59.472,31.817Z" style="fill:#857100;"/><path d="M648.248,1029.82c-0,-0 -87.135,-19.218 -82.885,93.646c0,-0 12.015,-38.136 40.496,-53.228c13.052,-6.917 26.182,-17.54 42.389,-40.418Z" style="fill:#857100;"/></g><g><path d="M613.89,828.782c0,0 16.813,40.009 54.451,56.472c25.192,13.245 48.101,30.745 60.448,47.812c-0,0 4.713,-13.276 4.201,-23.993c-0.512,-10.717 -13.216,-44.233 -41.143,-47.466c-27.841,-6.457 -62.101,-12.313 -77.957,-32.825Z" style="fill:#857100;"/><path d="M724.504,937.129c0,0 -106.573,34.114 -114.37,-107.311c0,0 19.431,46.224 56.748,61.763c17.1,7.122 34.729,18.862 57.622,45.548Z" style="fill:#857100;"/></g><g><path d="M534.448,888.814c0,0 17.839,20.107 43.193,22.253c17.413,2.741 34.337,8.433 44.981,15.978c0,-0 0.115,-8.725 -2.322,-14.907c-2.438,-6.182 -16.573,-23.301 -33.593,-19.626c-17.613,1.767 -38.87,5.167 -52.259,-3.698Z" style="fill:#cfb000;"/><path d="M620.92,930.282c0,-0 -55.686,41.261 -88.467,-40.111c-0,0 20.614,23.228 45.594,24.897c11.448,0.764 24.126,4.132 42.873,15.214Z" style="fill:#cfb000;"/></g><g><path d="M420.847,915.731c-0,-0 24.988,28.163 60.502,31.169c24.391,3.841 48.097,11.813 63.007,22.381c-0,0 0.161,-12.221 -3.254,-20.881c-3.414,-8.659 -23.213,-32.638 -47.054,-27.49c-24.671,2.475 -54.447,7.238 -73.201,-5.179Z" style="fill:#857100;"/><path d="M541.972,973.816c-0,-0 -78.002,57.795 -123.92,-56.185c-0,-0 28.874,32.537 63.865,34.874c16.036,1.071 33.795,5.788 60.055,21.311Z" style="fill:#857100;"/></g><g><path d="M553.145,745.802c0,0 8.361,25.546 30.765,37.607c14.883,9.447 28.143,21.405 34.904,32.563c-0,0 3.579,-7.958 3.803,-14.599c0.225,-6.642 -5.927,-27.972 -23.004,-31.376c-16.861,-5.39 -37.714,-10.733 -46.468,-24.195Z" style="fill:#857100;"/><path d="M615.964,818.265c-0,-0 -67.509,15.683 -65.19,-72.013c0,0 9.664,29.515 31.916,40.989c10.197,5.259 20.488,13.395 33.274,31.024Z" style="fill:#857100;"/></g><g><path d="M646.821,653.362c-0,-0 -2.953,55.243 31.074,95.051c21.536,29.197 38.09,62.007 42.767,88.449c0,0 12.787,-12.611 18.157,-25.19c5.37,-12.578 9.426,-58.089 -20.814,-77.321c-28.349,-22.883 -64.397,-48.644 -71.184,-80.989Z" style="fill:#857100;"/><path d="M713.488,839.142c0,-0 -141.22,-20.107 -71.552,-186.679c0,-0 -3.403,63.828 30.767,102.397c15.66,17.675 29.357,40.942 40.785,84.282Z" style="fill:#857100;"/></g><g><path d="M848.483,667.531c0,-0 4.599,37.518 -16.732,66.247c-13.313,20.91 -23.061,44.05 -25.011,62.294c-0,-0 -9.307,-7.998 -13.556,-16.321c-4.249,-8.323 -9.145,-39.155 10.568,-53.681c18.253,-16.926 41.619,-36.173 44.731,-58.539Z" style="fill:#857100;"/><path d="M811.737,797.29c-0,-0 95.322,-20.317 40.034,-130.601c-0,0 5.308,43.35 -16.179,71.24c-9.847,12.782 -18.094,29.283 -23.855,59.361Z" style="fill:#857100;"/></g><g><path d="M832.46,791.498c0,0 -2.897,23.632 10.539,41.728c8.386,13.171 14.526,27.747 15.754,39.238c0,-0 5.862,-5.038 8.539,-10.28c2.676,-5.243 5.76,-24.664 -6.657,-33.813c-11.497,-10.661 -26.214,-22.785 -28.175,-36.873Z" style="fill:#857100;"/><path d="M855.606,873.231c-0,-0 -60.042,-12.797 -25.217,-82.263c0,0 -3.343,27.305 10.191,44.873c6.202,8.051 11.397,18.444 15.026,37.39Z" style="fill:#857100;"/></g><g><path d="M992.177,710.011c-0,-0 -13.769,35.202 -46.183,50.356c-21.646,12.081 -41.213,27.817 -51.593,42.946c0,-0 -4.392,-11.458 -4.18,-20.8c0.213,-9.343 10.545,-38.802 34.792,-42.225c24.101,-6.228 53.804,-12.072 67.164,-30.277Z" style="fill:#857100;"/><path d="M898.22,806.758c0,-0 93.538,27.384 97.25,-95.927c-0,0 -15.914,40.671 -48.067,55.013c-14.736,6.573 -29.83,17.179 -49.183,40.914Z" style="fill:#857100;"/></g><g><path d="M1000.55,559.486c-0,0 -5.971,48.066 -41.434,77.13c-23.062,21.844 -42.386,47.57 -50.493,69.637c-0,0 -9.076,-12.839 -11.766,-24.508c-2.689,-11.669 0.831,-51.517 29.858,-63.431c27.96,-15.352 62.999,-31.998 73.835,-58.828Z" style="fill:#857100;"/><path d="M914.45,709.324c0,0 124.811,4.441 90.444,-149.86c0,0 -6.906,55.535 -42.301,83.509c-16.221,12.819 -31.612,30.76 -48.143,66.351Z" style="fill:#857100;"/></g><g><path d="M1031.52,654.15c-0,0 -3.575,22.96 8.957,41.038c7.762,13.114 13.289,27.526 14.123,38.774c0,0 5.878,-4.728 8.655,-9.757c2.777,-5.028 6.401,-23.875 -5.421,-33.194c-10.877,-10.764 -24.849,-23.056 -26.314,-36.861Z" style="fill:#cfb000;"/><path d="M1051.51,734.611c-0,-0 -58.163,-14.387 -21.989,-81.044c-0,0 -4.128,26.529 8.517,44.095c5.795,8.05 10.533,18.353 13.472,36.949Z" style="fill:#cfb000;"/></g><g><path d="M977.233,807.552c0,0 -2.013,12.929 5.044,23.109c4.371,7.385 7.484,15.5 7.953,21.834c0,0 3.31,-2.662 4.874,-5.494c1.564,-2.832 3.604,-13.444 -3.053,-18.692c-6.125,-6.061 -13.992,-12.983 -14.818,-20.757Z" style="fill:#857100;"/><path d="M988.488,852.86c-0,0 -32.752,-8.101 -12.383,-45.636c0,0 -2.324,14.939 4.797,24.83c3.263,4.533 5.931,10.335 7.586,20.806Z" style="fill:#857100;"/></g><g><path d="M1022.29,763.51c-0,0 2.545,16.345 -6.377,29.215c-5.526,9.335 -9.46,19.595 -10.054,27.602c0,0 -4.184,-3.365 -6.161,-6.945c-1.977,-3.58 -4.557,-16.997 3.859,-23.631c7.743,-7.662 17.689,-16.414 18.733,-26.241Z" style="fill:#857100;"/><path d="M1008.06,820.789c0,0 41.405,-10.242 15.654,-57.694c-0,0 2.938,18.886 -6.064,31.391c-4.125,5.73 -7.498,13.065 -9.59,26.303Z" style="fill:#857100;"/></g><g><path d="M1038.26,414.121c0,-0 -20.764,10.43 -28.196,31.134c-6.163,13.937 -14.682,26.809 -23.352,34.023c0,-0 7.263,2.037 12.97,1.375c5.706,-0.661 23.151,-8.662 23.866,-23.698c2.442,-15.107 4.329,-33.621 14.712,-42.834Z" style="fill:#cfb000;"/><path d="M984.387,477.136c0,0 -22.083,-55.697 53.185,-64.984c-0,-0 -23.99,12.054 -30.94,32.552c-3.184,9.393 -8.818,19.236 -22.245,32.432Z" style="fill:#cfb000;"/></g><g><path d="M891.741,371.336c-0,0 24.697,58.734 3.304,115.126c-11.983,40.03 -17.159,82.036 -11.94,112.519c0,-0 -18.767,-8.694 -29.483,-20.24c-10.716,-11.545 -32.823,-59.299 -7.527,-91.914c21.825,-35.836 50.875,-77.788 45.646,-115.491Z" style="fill:#857100;"/><path d="M891.769,598.66c-0,0 145.256,-76.748 4.917,-230.199c-0,-0 28.527,67.864 6.495,122.969c-10.096,25.253 -15.889,55.804 -11.412,107.23Z" style="fill:#857100;"/></g><g><path d="M810.282,421.005c0,0 -23.372,28.586 -20.744,63.442c0.085,24.215 -3.937,48.412 -11.844,64.496c-0,-0 11.858,-1.75 19.71,-6.406c7.852,-4.657 27.981,-27.567 19.279,-49.848c-6.244,-23.501 -15.499,-51.588 -6.401,-71.684Z" style="fill:#857100;"/><path d="M772.931,547.342c0,-0 -68.124,-66.512 35.075,-128.747c0,0 -27,33.032 -23.806,67.276c1.464,15.694 -0.334,33.624 -11.269,61.471Z" style="fill:#857100;"/></g><g><path d="M602.58,390.236c-0,0 -0.489,25.798 16.011,43.808c10.507,13.264 18.75,28.292 21.355,40.542c0,0 5.758,-6.083 8.059,-12.033c2.301,-5.949 3.461,-27.229 -10.944,-35.708c-13.581,-10.211 -30.798,-21.641 -34.481,-36.609Z" style="fill:#cfb000;"/><path d="M636.639,475.764c-0,0 -66.151,-7.105 -36.35,-85.869c-0,0 -0.562,29.808 15.985,47.237c7.583,7.988 14.342,18.614 20.365,38.632Z" style="fill:#cfb000;"/></g><g><path d="M433.259,685.534c0,-0 12.411,22.622 35.684,30.035c15.714,6.279 30.341,15.214 38.695,24.545c0,-0 1.968,-8.142 1.005,-14.448c-0.964,-6.306 -10.545,-25.342 -27.259,-25.531c-16.862,-2.101 -37.483,-3.45 -48.125,-14.601Z" style="fill:#cfb000;"/><path d="M505.355,742.781c0,-0 -60.917,26.748 -74.253,-56.403c0,0 14.342,26.136 37.368,33.023c10.552,3.156 21.701,9.011 36.885,23.38Z" style="fill:#cfb000;"/></g></g><g><path d="M644.42,490.703c0,-0 23.029,72.878 86.381,107.824c42.042,27.293 79.395,61.68 98.294,93.603c0,0 10.408,-22.523 11.24,-41.4c0.832,-18.878 -16.04,-79.706 -64.496,-89.882c-47.783,-15.817 -106.921,-31.614 -131.419,-70.145Z" style="fill:#857100;"/><path d="M820.926,698.565c-0,-0 -192.407,42.629 -183.26,-206.652c0,0 26.619,84.201 89.554,117.474c28.842,15.248 57.863,38.682 93.706,89.178Z" style="fill:#857100;"/></g><g><path d="M526.625,406.866c0,-0 -24.534,77.727 9.367,147.037c19.984,49.578 31.53,102.476 28.476,141.921c-0,-0 22.881,-13.288 35.17,-29.258c12.289,-15.97 34.817,-79.407 -1.251,-117.97c-32.026,-43.075 -73.977,-93.088 -71.762,-141.73Z" style="fill:#857100;"/><path d="M553.395,696.437c-0,0 -194.079,-80.636 -33.408,-292.651c0,-0 -28.335,89.809 6.226,157.405c15.839,30.977 26.82,69.21 27.182,135.246Z" style="fill:#857100;"/></g><g><path d="M670.202,219.825c-0,-0 -15.452,66.103 17.092,121.516c19.736,39.906 32.676,83.105 32.638,116.056c-0,-0 18.16,-12.485 27.354,-26.526c9.194,-14.041 23.885,-68.149 -8.511,-97.89c-29.325,-33.743 -67.332,-72.62 -68.573,-113.156Z" style="fill:#857100;"/><path d="M710.774,458.607c0,0 -166.282,-54.672 -46.28,-240.92c0,0 -17.843,76.379 15.141,130.325c15.115,24.722 26.657,55.778 31.139,110.595Z" style="fill:#857100;"/></g><g><path d="M855.752,223.98c-0,-0 10.736,45.931 -11.876,84.434c-13.714,27.728 -22.705,57.745 -22.678,80.64c-0,0 -12.619,-8.675 -19.007,-18.431c-6.388,-9.756 -16.596,-47.353 5.913,-68.018c20.377,-23.446 46.785,-50.459 47.648,-78.625Z" style="fill:#857100;"/><path d="M827.56,389.895c0,0 115.54,-37.988 32.158,-167.4c-0,-0 12.398,53.07 -10.52,90.554c-10.503,17.178 -18.523,38.757 -21.638,76.846Z" style="fill:#857100;"/></g><g><path d="M334.937,728.596c-0,0 38.074,56.204 100.86,69.897c42.706,12.58 83.219,32.386 107.398,54.772c-0,-0 3.151,-21.811 -0.925,-38.092c-4.076,-16.281 -33.854,-63.786 -77.682,-60.169c-44.685,-1.355 -99.032,0.185 -129.651,-26.408Z" style="fill:#857100;"/><path d="M537.871,860.813c-0,0 -152.989,85.051 -208.377,-129.474c0,-0 43.999,64.932 106.007,77.307c28.416,5.671 59.06,18.265 102.37,52.167Z" style="fill:#857100;"/></g></g><g><g><g><path d="M1226.23,1039.77c0,0 -6.097,-16.306 -20.919,-23.509c-9.885,-5.713 -18.787,-13.095 -23.462,-20.133c0,-0 -2.102,5.246 -2.069,9.549c0.034,4.304 4.588,17.942 15.73,19.686c11.056,3.034 24.694,5.931 30.72,14.407Z" style="fill:#857100;"/><path d="M1183.63,994.57c-0,-0 43.264,-11.964 44.12,44.847c0,0 -7.047,-18.839 -21.754,-25.666c-6.741,-3.129 -13.618,-8.118 -22.366,-19.181Z" style="fill:#857100;"/></g><g><path d="M1250.72,1106.98c-0,-0 6.343,-16.212 0.113,-31.469c-3.547,-10.852 -5.249,-22.29 -4.032,-30.652c0,0 -5.067,2.503 -7.915,5.73c-2.847,3.227 -8.559,16.423 -1.426,25.158c6.207,9.639 14.43,20.899 13.26,31.233Z" style="fill:#857100;"/><path d="M1249.17,1044.88c-0,0 40.201,19.969 2.92,62.844c-0,0 7.327,-18.732 0.932,-33.632c-2.931,-6.829 -4.723,-15.134 -3.852,-29.212Z" style="fill:#857100;"/></g><g><path d="M1298.18,1062.92c0,-0 0.495,-25.414 -15.751,-43.164c-10.344,-13.072 -18.457,-27.88 -21.017,-39.949c-0,-0 -5.675,5.99 -7.945,11.85c-2.27,5.86 -3.423,26.821 10.763,35.182c13.375,10.066 30.329,21.334 33.95,36.081Z" style="fill:#857100;"/><path d="M1264.67,978.65c-0,-0 65.162,7.032 35.766,84.608c0,0 0.568,-29.363 -15.724,-46.541c-7.466,-7.873 -14.119,-18.343 -20.042,-38.067Z" style="fill:#857100;"/></g><g><path d="M1396.77,1064.21c0,0 -7.463,-26.953 -30.171,-40.566c-15.015,-10.533 -28.223,-23.599 -34.715,-35.521c0,-0 -4.102,8.099 -4.654,14.992c-0.552,6.892 4.818,29.358 22.404,33.716c17.266,6.412 38.684,12.966 47.136,27.379Z" style="fill:#857100;"/><path d="M1334.96,985.875c-0,-0 70.921,-13.06 64.299,77.979c0,0 -8.627,-31.141 -31.205,-44.136c-10.346,-5.955 -20.651,-14.906 -33.094,-33.843Z" style="fill:#857100;"/></g><g><path d="M1349.39,1149.62c0,-0 7.735,-26.877 -4.5,-50.355c-7.289,-16.831 -11.713,-34.876 -11.011,-48.432c0,-0 -7.732,4.758 -11.808,10.344c-4.075,5.585 -11.247,27.542 1.462,40.454c11.363,14.496 26.191,31.284 25.857,47.989Z" style="fill:#cfb000;"/><path d="M1337.67,1050.52c0,0 67.279,25.961 14.022,100.093c0,-0 8.933,-31.055 -3.514,-53.939c-5.704,-10.487 -9.806,-23.505 -10.508,-46.154Z" style="fill:#cfb000;"/></g><g><path d="M1514.75,1020.63c-0,0 -21.503,-27.114 -53.943,-31.674c-22.189,-4.762 -43.54,-13.281 -56.687,-23.736c0,-0 -0.768,11.207 1.927,19.328c2.694,8.12 19.647,31.13 41.788,27.615c22.766,-1.019 50.333,-3.88 66.915,8.467Z" style="fill:#857100;"/><path d="M1406.53,961.181c0,0 74.517,-49.082 110.873,57.849c0,0 -24.848,-31.324 -56.841,-35.244c-14.662,-1.797 -30.72,-7.027 -54.032,-22.605Z" style="fill:#857100;"/></g><g><path d="M1514.91,1124.01c-0,-0 -10.395,-33.007 -39.064,-48.857c-19.023,-12.377 -35.921,-27.962 -44.464,-42.424c-0,-0 -4.722,10.193 -5.107,18.74c-0.385,8.547 7.228,36.095 29.163,40.724c21.627,7.182 48.397,14.36 59.472,31.817Z" style="fill:#857100;"/><path d="M1435.09,1029.82c-0,-0 87.135,-19.218 82.884,93.646c0,-0 -12.015,-38.136 -40.496,-53.228c-13.052,-6.917 -26.182,-17.54 -42.388,-40.418Z" style="fill:#857100;"/></g><g><path d="M1469.44,828.782c0,0 -16.812,40.009 -54.451,56.472c-25.191,13.245 -48.101,30.745 -60.448,47.812c0,0 -4.712,-13.276 -4.201,-23.993c0.512,-10.717 13.216,-44.233 41.144,-47.466c27.84,-6.457 62.1,-12.313 77.956,-32.825Z" style="fill:#857100;"/><path d="M1358.83,937.129c0,0 106.573,34.114 114.37,-107.311c0,0 -19.431,46.224 -56.747,61.763c-17.101,7.122 -34.73,18.862 -57.623,45.548Z" style="fill:#857100;"/></g><g><path d="M1548.88,888.814c0,0 -17.839,20.107 -43.193,22.253c-17.413,2.741 -34.337,8.433 -44.981,15.978c0,-0 -0.115,-8.725 2.323,-14.907c2.437,-6.182 16.572,-23.301 33.593,-19.626c17.612,1.767 38.869,5.167 52.258,-3.698Z" style="fill:#cfb000;"/><path d="M1462.41,930.282c-0,-0 55.686,41.261 88.468,-40.111c-0,0 -20.614,23.228 -45.595,24.897c-11.448,0.764 -24.126,4.132 -42.873,15.214Z" style="fill:#cfb000;"/></g><g><path d="M1662.49,915.731c0,-0 -24.987,28.163 -60.501,31.169c-24.392,3.841 -48.098,11.813 -63.007,22.381c-0,0 -0.162,-12.221 3.253,-20.881c3.415,-8.659 23.214,-32.638 47.055,-27.49c24.671,2.475 54.446,7.238 73.2,-5.179Z" style="fill:#857100;"/><path d="M1541.36,973.816c0,-0 78.003,57.795 123.921,-56.185c-0,-0 -28.875,32.537 -63.866,34.874c-16.036,1.071 -33.795,5.788 -60.055,21.311Z" style="fill:#857100;"/></g><g><path d="M1530.19,745.802c0,0 -8.361,25.546 -30.765,37.607c-14.883,9.447 -28.142,21.405 -34.903,32.563c-0,0 -3.579,-7.958 -3.804,-14.599c-0.224,-6.642 5.928,-27.972 23.004,-31.376c16.861,-5.39 37.715,-10.733 46.468,-24.195Z" style="fill:#857100;"/><path d="M1467.37,818.265c0,-0 67.509,15.683 65.19,-72.013c-0,0 -9.664,29.515 -31.916,40.989c-10.197,5.259 -20.487,13.395 -33.274,31.024Z" style="fill:#857100;"/></g><g><path d="M1436.51,653.362c0,-0 2.953,55.243 -31.074,95.051c-21.536,29.197 -38.09,62.007 -42.767,88.449c0,0 -12.786,-12.611 -18.156,-25.19c-5.37,-12.578 -9.427,-58.089 20.814,-77.321c28.348,-22.883 64.396,-48.644 71.183,-80.989Z" style="fill:#857100;"/><path d="M1369.85,839.142c0,-0 141.221,-20.107 71.552,-186.679c-0,-0 3.403,63.828 -30.767,102.397c-15.659,17.675 -29.356,40.942 -40.785,84.282Z" style="fill:#857100;"/></g><g><path d="M1234.85,667.531c0,-0 -4.599,37.518 16.732,66.247c13.313,20.91 23.061,44.05 25.011,62.294c0,-0 9.307,-7.998 13.556,-16.321c4.25,-8.323 9.145,-39.155 -10.568,-53.681c-18.252,-16.926 -41.618,-36.173 -44.731,-58.539Z" style="fill:#857100;"/><path d="M1271.6,797.29c-0,-0 -95.323,-20.317 -40.034,-130.601c-0,0 -5.308,43.35 16.178,71.24c9.847,12.782 18.094,29.283 23.856,59.361Z" style="fill:#857100;"/></g><g><path d="M1250.87,791.498c0,0 2.897,23.632 -10.539,41.728c-8.386,13.171 -14.526,27.747 -15.754,39.238c0,-0 -5.862,-5.038 -8.539,-10.28c-2.676,-5.243 -5.76,-24.664 6.657,-33.813c11.497,-10.661 26.215,-22.785 28.175,-36.873Z" style="fill:#857100;"/><path d="M1227.73,873.231c0,-0 60.042,-12.797 25.217,-82.263c-0,0 3.343,27.305 -10.191,44.873c-6.202,8.051 -11.397,18.444 -15.026,37.39Z" style="fill:#857100;"/></g><g><path d="M1091.16,710.011c-0,-0 13.768,35.202 46.183,50.356c21.646,12.081 41.213,27.817 51.592,42.946c-0,-0 4.392,-11.458 4.18,-20.8c-0.212,-9.343 -10.545,-38.802 -34.791,-42.225c-24.101,-6.228 -53.805,-12.072 -67.164,-30.277Z" style="fill:#857100;"/><path d="M1185.11,806.758c-0,-0 -93.538,27.384 -97.249,-95.927c-0,0 15.913,40.671 48.067,55.013c14.735,6.573 29.829,17.179 49.182,40.914Z" style="fill:#857100;"/></g><g><path d="M1082.79,559.486c-0,0 5.971,48.066 41.433,77.13c23.062,21.844 42.386,47.57 50.494,69.637c-0,0 9.076,-12.839 11.765,-24.508c2.689,-11.669 -0.83,-51.517 -29.858,-63.431c-27.96,-15.352 -62.999,-31.998 -73.834,-58.828Z" style="fill:#857100;"/><path d="M1168.88,709.324c0,0 -124.81,4.441 -90.444,-149.86c0,0 6.906,55.535 42.302,83.509c16.22,12.819 31.612,30.76 48.142,66.351Z" style="fill:#857100;"/></g><g><path d="M1045.37,578.332c-0,0 -7.655,15.42 -2.841,30.99c2.554,10.998 3.238,22.414 1.314,30.545c0,0 5.208,-2.026 8.294,-4.958c3.085,-2.932 9.855,-15.436 3.586,-24.659c-5.278,-10.034 -12.402,-21.839 -10.353,-31.918Z" style="fill:#857100;"/><path d="M1041.51,639.634c0,0 -37.871,-23.157 2.573,-62.161c0,-0 -8.842,17.818 -3.834,33.051c2.295,6.981 3.34,15.318 1.261,29.11Z" style="fill:#857100;"/></g><g><path d="M1079.53,455.436c0,-0 -2.841,29.979 -24.354,48.682c-13.937,13.993 -25.481,30.33 -30.12,44.191c0,-0 -5.873,-7.816 -7.755,-15.019c-1.882,-7.203 -0.416,-32.031 17.408,-39.96c17.098,-10.046 38.572,-21.024 44.821,-37.894Z" style="fill:#857100;"/><path d="M1028.73,550.111c-0,0 77.645,0.502 53.496,-94.768c0,0 -3.287,34.638 -24.778,52.663c-9.849,8.26 -19.089,19.688 -28.718,42.105Z" style="fill:#857100;"/></g><g><path d="M1191.59,371.336c0,0 -24.697,58.734 -3.304,115.126c11.983,40.03 17.159,82.036 11.94,112.519c-0,-0 18.768,-8.694 29.484,-20.24c10.716,-11.545 32.822,-59.299 7.526,-91.914c-21.824,-35.836 -50.875,-77.788 -45.646,-115.491Z" style="fill:#857100;"/><path d="M1191.57,598.66c-0,0 -145.256,-76.748 -4.917,-230.199c-0,-0 -28.527,67.864 -6.496,122.969c10.096,25.253 15.889,55.804 11.413,107.23Z" style="fill:#857100;"/></g><g><path d="M990.417,137.301c0,-0 28.271,67.23 3.782,131.781c-13.716,45.821 -19.641,93.905 -13.667,128.798c0,-0 -21.483,-9.952 -33.749,-23.168c-12.266,-13.216 -37.571,-67.878 -8.615,-105.212c24.982,-41.021 58.235,-89.042 52.249,-132.199Z" style="fill:#857100;"/><path d="M990.449,397.513c0,0 166.271,-87.853 5.628,-263.504c0,0 32.655,77.682 7.436,140.76c-11.557,28.906 -18.188,63.877 -13.064,122.744Z" style="fill:#857100;"/></g><g><path d="M1181.08,262.226c-0,0 -43.596,30.587 -53.531,80.011c-9.319,33.66 -24.334,65.692 -41.583,84.945c0,-0 17.149,2.192 29.867,-1.215c12.718,-3.406 49.598,-27.373 46.198,-61.705c0.489,-35.068 -1.417,-77.677 19.049,-102.036Z" style="fill:#857100;"/><path d="M1079.98,423.103c-0,-0 -68.677,-118.91 98.882,-165.111c-0,0 -50.367,35.346 -59.278,84.143c-4.083,22.363 -13.568,46.561 -39.604,80.968Z" style="fill:#857100;"/></g><g><path d="M1273.05,421.005c-0,0 23.372,28.586 20.744,63.442c-0.085,24.215 3.937,48.412 11.845,64.496c-0,-0 -11.859,-1.75 -19.711,-6.406c-7.852,-4.657 -27.981,-27.567 -19.279,-49.848c6.244,-23.501 15.499,-51.588 6.401,-71.684Z" style="fill:#857100;"/><path d="M1310.4,547.342c0,-0 68.125,-66.512 -35.075,-128.747c-0,0 27,33.032 23.806,67.276c-1.463,15.694 0.335,33.624 11.269,61.471Z" style="fill:#857100;"/></g><g><path d="M1480.75,390.236c-0,0 0.489,25.798 -16.011,43.808c-10.508,13.264 -18.751,28.292 -21.356,40.542c0,0 -5.758,-6.083 -8.059,-12.033c-2.301,-5.949 -3.461,-27.229 10.944,-35.708c13.582,-10.211 30.798,-21.641 34.482,-36.609Z" style="fill:#cfb000;"/><path d="M1446.69,475.764c-0,0 66.15,-7.105 36.35,-85.869c-0,0 0.561,29.808 -15.986,47.237c-7.583,7.988 -14.341,18.614 -20.364,38.632Z" style="fill:#cfb000;"/></g><g><path d="M1650.07,685.534c0,-0 -12.41,22.622 -35.684,30.035c-15.714,6.279 -30.341,15.214 -38.695,24.545c-0,-0 -1.968,-8.142 -1.004,-14.448c0.964,-6.306 10.544,-25.342 27.258,-25.531c16.862,-2.101 37.483,-3.45 48.125,-14.601Z" style="fill:#cfb000;"/><path d="M1577.98,742.781c-0,-0 60.917,26.748 74.253,-56.403c0,0 -14.342,26.136 -37.368,33.023c-10.552,3.156 -21.701,9.011 -36.885,23.38Z" style="fill:#cfb000;"/></g></g><g><path d="M1438.91,490.703c0,-0 -23.029,72.878 -86.381,107.824c-42.041,27.293 -79.395,61.68 -98.294,93.603c-0,0 -10.408,-22.523 -11.239,-41.4c-0.832,-18.878 16.04,-79.706 64.495,-89.882c47.783,-15.817 106.922,-31.614 131.419,-70.145Z" style="fill:#857100;"/><path d="M1262.41,698.565c-0,-0 192.406,42.629 183.259,-206.652c0,0 -26.618,84.201 -89.554,117.474c-28.841,15.248 -57.862,38.682 -93.705,89.178Z" style="fill:#857100;"/></g><g><path d="M1584.78,405.964c-0,-0 14.074,80.283 -28.668,144.52c-26.345,46.51 -44.764,97.425 -46.936,136.928c0,-0 -20.93,-16.188 -31.006,-33.639c-10.076,-17.451 -24.046,-83.303 16.791,-116.775c37.424,-38.478 85.602,-82.524 89.819,-131.034Z" style="fill:#857100;"/><path d="M1520.07,689.479c-0,0 203.015,-54.348 71.694,-285.693c-0,-0 16.249,92.761 -26.921,155.211c-19.784,28.619 -35.71,65.07 -44.773,130.482Z" style="fill:#857100;"/></g><g><path d="M1413.13,219.825c0,-0 15.452,66.103 -17.091,121.516c-19.737,39.906 -32.676,83.105 -32.638,116.056c-0,-0 -18.161,-12.485 -27.354,-26.526c-9.194,-14.041 -23.886,-68.149 8.51,-97.89c29.325,-33.743 67.332,-72.62 68.573,-113.156Z" style="fill:#857100;"/><path d="M1372.56,458.607c-0,0 166.283,-54.672 46.28,-240.92c-0,0 17.843,76.379 -15.14,130.325c-15.116,24.722 -26.657,55.778 -31.14,110.595Z" style="fill:#857100;"/></g><g><path d="M1227.58,223.98c-0,-0 -10.737,45.931 11.876,84.434c13.713,27.728 22.704,57.745 22.678,80.64c-0,0 12.618,-8.675 19.007,-18.431c6.388,-9.756 16.596,-47.353 -5.914,-68.018c-20.376,-23.446 -46.785,-50.459 -47.647,-78.625Z" style="fill:#857100;"/><path d="M1255.77,389.895c-0,0 -115.54,-37.988 -32.157,-167.4c-0,-0 -12.398,53.07 10.52,90.554c10.503,17.178 18.522,38.757 21.637,76.846Z" style="fill:#857100;"/></g><g><path d="M1748.4,728.596c0,0 -38.073,56.204 -100.86,69.897c-42.706,12.58 -83.218,32.386 -107.397,54.772c-0,-0 -3.152,-21.811 0.924,-38.092c4.076,-16.281 33.854,-63.786 77.683,-60.169c44.685,-1.355 99.031,0.185 129.65,-26.408Z" style="fill:#857100;"/><path d="M1545.46,860.813c-0,0 152.988,85.051 208.376,-129.474c0,-0 -43.999,64.932 -106.006,77.307c-28.417,5.671 -59.061,18.265 -102.37,52.167Z" style="fill:#857100;"/></g></g><path d="M1159.26,1304.88c-0,-0 58.005,66.639 11.133,127.72c-0,0 36.899,-84.033 -66.818,-127.72l-135.125,-0c-103.717,43.687 -62.804,109.655 -62.804,109.655c-46.872,-61.081 7.119,-109.655 7.119,-109.655l-0.098,-0c-103.717,18.11 -59.038,49.268 -59.038,49.268c-46.871,-25.321 3.353,-49.268 3.353,-49.268l-19.087,-0c-65.925,31.737 -42.471,85.249 -42.471,85.249c-29.793,-44.372 7.076,-85.249 7.076,-85.249l-0.43,-0c0,-0 27.989,-39.982 57.5,-30.972c-0,0 44.069,-27.983 71.216,-23.911c4.742,0.712 11.086,-1.504 18.535,-5.358c30.217,-45.859 61.37,-118.974 27.034,-196.787l0.018,-0.017c-0.707,-0.891 -79.529,-99.867 -159.522,-76.086c-0,0 -71.668,19.239 -122.704,-13.726c-0,-0 82.526,20.242 123.79,-17.764c24.725,-2.005 42.459,0.103 62.564,8.094c-24.3,-12.345 -63.72,-33.448 -72.584,-44.676c-13.031,-16.505 -49.516,-36.485 -79.052,-39.092c0,0 31.168,-6.212 76.522,15.738c-26.198,-25.958 -43.632,-57.771 -38.118,-95.14c-0,-0 35.12,114.632 150.745,114.051c10.195,4.795 18.731,8.678 25.828,11.779c-4.222,-22.645 -25.059,-61.846 -76.942,-84.534c-0,-0 120.764,11.544 133.66,77.916c-0,0 0.774,-55.416 24.115,-70.772c23.341,-15.356 39.192,-31.337 40.971,-79.489c-0,0 27.336,46.023 18.196,77.955c-4.641,16.216 4.72,40.103 18.234,51.159c3.19,2.611 6.751,3.064 10.393,2.29c21.97,-54.107 104.989,-59.059 104.989,-59.059c-46.461,20.317 -68.026,53.876 -75.056,76.928c-0.133,2.405 -0.282,4.754 -0.436,6.97c6.802,-2.991 14.868,-6.67 24.378,-11.143c115.625,0.581 150.745,-114.051 150.745,-114.051c5.514,37.369 -11.92,69.182 -38.118,95.14c45.354,-21.95 76.522,-15.738 76.522,-15.738c-29.536,2.607 -66.021,22.587 -79.052,39.092c-8.864,11.228 -48.284,32.331 -72.584,44.676c20.105,-7.991 37.839,-10.099 62.564,-8.094c41.264,38.006 123.79,17.764 123.79,17.764c-51.036,32.965 -122.704,13.726 -122.704,13.726c-79.993,-23.781 -158.815,75.195 -159.523,76.086l0.019,0.017c-34.336,77.813 -3.183,150.928 27.034,196.787c7.449,3.854 13.793,6.07 18.535,5.358c27.147,-4.072 71.216,23.911 71.216,23.911c29.511,-9.01 44.718,30.972 44.718,30.972l0.019,-0c-0,-0 36.869,40.877 7.076,85.249c-0,0 23.454,-53.512 -42.471,-85.249l-19.087,-0c-0,-0 56.487,38.54 9.615,63.86c-0,-0 38.417,-45.75 -65.3,-63.86l-0.098,-0Zm-57.076,-0c0,-0 42.445,40.284 -15.449,63.86c0,-0 54.405,-60.231 -40.235,-63.86l55.684,-0Z"/><path d="M968.446,1304.88c-103.717,43.687 -62.804,109.655 -62.804,109.655c-46.872,-61.081 7.119,-109.655 7.119,-109.655l-0.098,-0c-103.717,18.11 -59.038,49.268 -59.038,49.268c-46.871,-25.321 3.353,-49.268 3.353,-49.268l-19.087,-0c-65.925,31.737 -42.471,85.249 -42.471,85.249c-29.793,-44.372 7.076,-85.249 7.076,-85.249l-0.43,-0c0,-0 27.989,-39.982 57.5,-30.972c-0,0 44.069,-27.983 71.216,-23.911c4.742,0.712 11.086,-1.504 18.535,-5.358c30.217,-45.859 61.37,-118.974 27.034,-196.787l0.018,-0.017c-0.707,-0.891 -79.529,-99.867 -159.522,-76.086c-0,0 -71.668,19.239 -122.704,-13.726c-0,-0 82.526,20.242 123.79,-17.764c24.725,-2.005 42.459,0.103 62.564,8.094c-24.3,-12.345 -63.72,-33.448 -72.584,-44.676c-13.031,-16.505 -49.516,-36.485 -79.052,-39.092c0,0 31.168,-6.212 76.522,15.738c-26.198,-25.958 -43.632,-57.771 -38.118,-95.14c-0,-0 35.12,114.632 150.745,114.051c10.195,4.795 18.731,8.678 25.828,11.779c-4.222,-22.645 -25.059,-61.846 -76.942,-84.534c-0,-0 120.764,11.544 133.66,77.916c-0,0 0.774,-55.416 24.115,-70.772c23.341,-15.356 39.192,-31.337 40.971,-79.489c-0,0 27.336,46.023 18.196,77.955c-4.641,16.216 4.72,40.103 18.234,51.159c3.19,2.611 6.751,3.064 10.393,2.29c21.97,-54.107 104.989,-59.059 104.989,-59.059c-46.461,20.317 -68.026,53.876 -75.056,76.928c-0.133,2.405 -0.282,4.754 -0.436,6.97c6.802,-2.991 14.868,-6.67 24.378,-11.143c115.625,0.581 150.745,-114.051 150.745,-114.051c5.514,37.369 -11.92,69.182 -38.118,95.14c45.354,-21.95 76.522,-15.738 76.522,-15.738c-29.536,2.607 -66.021,22.587 -79.052,39.092c-8.864,11.228 -48.284,32.331 -72.584,44.676c20.105,-7.991 37.839,-10.099 62.564,-8.094c41.264,38.006 123.79,17.764 123.79,17.764c-51.036,32.965 -122.704,13.726 -122.704,13.726c-79.993,-23.781 -158.815,75.195 -159.523,76.086l0.019,0.017c-34.336,77.813 -3.183,150.928 27.034,196.787c7.449,3.854 13.793,6.07 18.535,5.358c27.147,-4.072 71.216,23.911 71.216,23.911c29.511,-9.01 44.718,30.972 44.718,30.972l0.019,-0c-0,-0 36.869,40.877 7.076,85.249c-0,0 23.454,-53.512 -42.471,-85.249l-19.087,-0c-0,-0 56.487,38.54 9.615,63.86c-0,-0 38.417,-45.75 -65.3,-63.86l-0.098,-0c-0,-0 58.005,66.639 11.133,127.72c-0,0 36.899,-84.033 -66.818,-127.72l-107.426,-0l27.7,-0c-57.161,-0 -40.356,63.86 -40.356,63.86c-30.699,-17.734 -15.043,-63.86 -15.043,-63.86Zm133.734,-0c0,-0 42.445,40.284 -15.449,63.86c0,-0 54.405,-60.231 -40.235,-63.86l55.684,-0Z" style="fill:#185000;"/></g></g></svg>